<svg width="50" height="40" viewBox="0 0 50 40" fill="currentColor" xmlns="http://www.w3.org/2000/svg">
<g clip-path="url(#clip0_3428_1286)">
<path d="M24.6135 37.5364C24.4831 37.3022 24.298 37.1202 24.06 36.9905C23.8201 36.8607 23.5424 36.7949 23.2232 36.7949H22.0898V39.8964H23.2232C23.5387 39.8964 23.8163 39.8325 24.0562 39.7028C24.2961 39.5731 24.4831 39.3911 24.6135 39.1549C24.7438 38.9187 24.8099 38.6496 24.8099 38.3457C24.8099 38.0417 24.7438 37.7707 24.6135 37.5364ZM23.8258 39.0097C23.6709 39.1646 23.4537 39.244 23.176 39.244H22.8265V37.4416H23.176C23.4537 37.4416 23.6709 37.5209 23.8258 37.6797C23.9826 37.8384 24.06 38.0611 24.06 38.3457C24.06 38.6303 23.9826 38.8529 23.8258 39.0097Z" fill="#C1C9EB"/>
<path d="M27.0757 37.4009V36.7949H25.2227V39.8964H27.0757V39.2924H25.9593V38.6109H26.9454V38.0282H25.9593V37.4009H27.0757Z" fill="#C1C9EB"/>
<path d="M28.8854 39.2455C28.823 39.2978 28.7362 39.323 28.6266 39.323C28.517 39.323 28.4339 39.292 28.3678 39.232C28.3017 39.172 28.262 39.0848 28.2507 38.9687H27.4668C27.4725 39.172 27.5272 39.3462 27.633 39.4895C27.7388 39.6347 27.8786 39.7431 28.0524 39.8166C28.228 39.8902 28.4264 39.927 28.6474 39.927C28.8684 39.927 29.0705 39.8844 29.2386 39.7992C29.4048 39.714 29.5333 39.5998 29.6202 39.4546C29.7071 39.3094 29.7524 39.1507 29.7524 38.9725C29.7524 38.7867 29.7071 38.6357 29.6183 38.5176C29.5295 38.3995 29.4237 38.3104 29.3009 38.2485C29.1782 38.1865 29.0195 38.1226 28.8249 38.0549C28.6304 37.991 28.4849 37.929 28.3943 37.8729C28.3017 37.8167 28.2564 37.7393 28.2564 37.6386C28.2564 37.5476 28.2828 37.4779 28.3376 37.4295C28.3924 37.3811 28.4642 37.356 28.5529 37.356C28.6568 37.356 28.7418 37.385 28.8079 37.4431C28.874 37.5012 28.9099 37.5786 28.9156 37.6793H29.7127C29.6976 37.3869 29.59 37.1604 29.386 36.9959C29.1819 36.8332 28.9137 36.75 28.5794 36.75C28.245 36.75 27.9863 36.8313 27.7822 36.9959C27.5782 37.1585 27.4762 37.385 27.4762 37.6735C27.4762 37.8671 27.5216 38.0258 27.6104 38.1459C27.6991 38.2659 27.8049 38.3588 27.9296 38.4188C28.0524 38.4808 28.2129 38.5427 28.4075 38.6047C28.5416 38.6454 28.6474 38.6821 28.7192 38.7151C28.7928 38.748 28.8533 38.7886 28.9043 38.839C28.9553 38.8893 28.9798 38.9532 28.9798 39.0287C28.9798 39.1197 28.9477 39.1913 28.8854 39.2436V39.2455Z" fill="#C1C9EB"/>
<path d="M32.7286 37.5364C32.5964 37.3022 32.4132 37.1202 32.1733 36.9905C31.9353 36.8607 31.6557 36.7949 31.3384 36.7949H30.2031V39.8964H31.3384C31.6538 39.8964 31.9315 39.8325 32.1714 39.7028C32.4113 39.5731 32.5964 39.3911 32.7286 39.1549C32.859 38.9187 32.9232 38.6496 32.9232 38.3457C32.9232 38.0417 32.859 37.7707 32.7286 37.5364ZM31.9409 39.0097C31.7861 39.1646 31.5688 39.244 31.2912 39.244H30.9417V37.4416H31.2912C31.5688 37.4416 31.7861 37.5209 31.9409 37.6797C32.0958 37.8384 32.1733 38.0611 32.1733 38.3457C32.1733 38.6303 32.0958 38.8529 31.9409 39.0097Z" fill="#C1C9EB"/>
<path d="M35.1928 37.4009V36.7949H33.3379V39.8964H35.1928V39.2924H34.0765V38.6109H35.0625V38.0282H34.0765V37.4009H35.1928Z" fill="#C1C9EB"/>
<path d="M37.283 38.5918C37.1206 38.7447 36.8996 38.9402 36.6162 39.1784C36.6257 39.1726 36.5803 39.2094 36.4821 39.2887V39.8502H38.6449V39.2365H37.4813C37.8062 38.9809 38.0726 38.7176 38.2823 38.4485C38.4919 38.1794 38.5977 37.8871 38.5977 37.5715C38.5977 37.283 38.5108 37.0488 38.337 36.8687C38.1633 36.6887 37.9045 36.5996 37.5626 36.5996C37.3642 36.5996 37.1848 36.6403 37.0223 36.7196C36.8599 36.799 36.7296 36.9229 36.6294 37.0914C36.5312 37.2598 36.4783 37.4689 36.4727 37.7186H37.1848C37.1848 37.5657 37.215 37.4476 37.2773 37.3624C37.3397 37.2792 37.4247 37.2366 37.5342 37.2366C37.6438 37.2366 37.725 37.2695 37.7798 37.3372C37.8346 37.405 37.861 37.4999 37.861 37.6199C37.861 37.7786 37.8044 37.9432 37.6929 38.1097C37.5815 38.2781 37.4436 38.4388 37.2811 38.5918H37.283Z" fill="#C1C9EB"/>
<path d="M41.1071 37.0411C40.9164 36.7507 40.6085 36.6035 40.1835 36.6035C39.7584 36.6035 39.4506 36.7507 39.2579 37.0411C39.0671 37.3334 38.9727 37.7322 38.9727 38.2394C38.9727 38.7467 39.0671 39.1532 39.2579 39.4456C39.4506 39.736 39.7584 39.8831 40.1835 39.8831C40.6085 39.8831 40.9164 39.736 41.1071 39.4456C41.2998 39.1532 41.3943 38.7506 41.3943 38.2394C41.3943 37.7283 41.2998 37.3334 41.1071 37.0411ZM40.6368 38.7351C40.6122 38.8667 40.5669 38.9732 40.4951 39.0545C40.4252 39.1358 40.3214 39.1745 40.1835 39.1745C40.0456 39.1745 39.9417 39.1358 39.8718 39.0545C39.8 38.9732 39.7547 38.8667 39.7301 38.7351C39.7074 38.6054 39.6961 38.4389 39.6961 38.2394C39.6961 37.9413 39.7282 37.7129 39.7906 37.5522C39.8548 37.3915 39.9851 37.3102 40.1835 37.3102C40.3818 37.3102 40.5121 37.3915 40.5764 37.5522C40.6387 37.7129 40.6708 37.9413 40.6708 38.2394C40.6708 38.4389 40.6595 38.6054 40.6368 38.7351Z" fill="#C1C9EB"/>
<path d="M43.9177 37.0411C43.7269 36.7507 43.419 36.6035 42.994 36.6035C42.569 36.6035 42.2592 36.7507 42.0684 37.0411C41.8777 37.3334 41.7832 37.7322 41.7832 38.2394C41.7832 38.7467 41.8777 39.1532 42.0684 39.4456C42.2592 39.736 42.569 39.8831 42.994 39.8831C43.419 39.8831 43.7269 39.736 43.9177 39.4456C44.1085 39.1532 44.2048 38.7506 44.2048 38.2394C44.2048 37.7283 44.1085 37.3334 43.9177 37.0411ZM43.4455 38.7351C43.4228 38.8667 43.3756 38.9732 43.3057 39.0545C43.2358 39.1358 43.1319 39.1745 42.994 39.1745C42.8561 39.1745 42.7522 39.1358 42.6804 39.0545C42.6106 38.9732 42.5633 38.8667 42.5407 38.7351C42.518 38.6054 42.5067 38.4389 42.5067 38.2394C42.5067 37.9413 42.5388 37.7129 42.6011 37.5522C42.6653 37.3915 42.7957 37.3102 42.994 37.3102C43.1923 37.3102 43.3227 37.3915 43.385 37.5522C43.4492 37.7129 43.4814 37.9413 43.4814 38.2394C43.4814 38.4389 43.4681 38.6054 43.4455 38.7351Z" fill="#C1C9EB"/>
<path d="M45.7039 39.2945C45.5717 39.2945 45.4716 39.2577 45.4017 39.1822C45.3318 39.1067 45.2959 39.0041 45.294 38.8744H44.5781C44.5895 39.2248 44.699 39.4862 44.903 39.6604C45.1089 39.8347 45.3828 39.9218 45.7285 39.9218C45.9438 39.9218 46.1308 39.8811 46.2857 39.8017C46.4425 39.7224 46.5615 39.612 46.6427 39.4726C46.7239 39.3332 46.7655 39.1706 46.7655 38.9886C46.7655 38.7853 46.7183 38.6188 46.6238 38.4891C46.5294 38.3594 46.3991 38.2665 46.2366 38.2103V38.1929C46.3632 38.1484 46.4727 38.0651 46.5691 37.9432C46.6635 37.8212 46.7107 37.6624 46.7107 37.4688C46.7107 37.3043 46.6711 37.1552 46.5917 37.0236C46.5124 36.8919 46.3972 36.7874 46.2423 36.7099C46.0893 36.6325 45.9042 36.5957 45.6888 36.5957C45.3639 36.5957 45.107 36.6809 44.9181 36.8513C44.7292 37.0216 44.6272 37.2656 44.6159 37.5811H45.3356C45.345 37.4805 45.3753 37.3972 45.4281 37.3295C45.481 37.2617 45.5623 37.2288 45.6718 37.2288C45.7719 37.2288 45.8513 37.2578 45.9098 37.3178C45.9665 37.3759 45.9967 37.4592 45.9967 37.5656C45.9967 37.6973 45.9514 37.7902 45.8607 37.8425C45.77 37.8948 45.651 37.9199 45.5056 37.9199H45.3677V38.5337H45.5056C45.6983 38.5337 45.838 38.5646 45.9249 38.6285C46.0118 38.6924 46.0572 38.795 46.0572 38.9363C46.0572 39.0448 46.0269 39.1338 45.9646 39.1996C45.9023 39.2655 45.8154 39.2984 45.7039 39.2984V39.2945Z" fill="#C1C9EB"/>
<path d="M36.5506 26.4206C36.5506 26.6413 36.5109 26.8291 36.4297 26.9821C36.3485 27.137 36.2389 27.2512 36.1029 27.3286C35.9669 27.4061 35.8214 27.4448 35.6684 27.4448C35.4248 27.4448 35.2227 27.3557 35.0621 27.1796C34.9015 27.0014 34.8203 26.7498 34.8203 26.4206C34.8203 26.0915 34.9034 25.8379 35.0678 25.6617C35.2321 25.4855 35.4361 25.3965 35.6798 25.3965C35.9234 25.3965 36.1293 25.4855 36.2993 25.6617C36.4675 25.8379 36.5506 26.0915 36.5506 26.4206Z" fill="#C1C9EB"/>
<path d="M47.8088 8.60946C46.3487 5.8971 44.3351 3.78491 41.7718 2.27095C39.2066 0.756982 36.3336 0 33.1526 0C29.9717 0 27.1458 0.756982 24.5825 2.27095C22.0174 3.78491 19.9962 5.8971 18.521 8.60946C18.147 9.29287 17.8221 9.99952 17.5425 10.7294C17.4348 10.6113 17.3215 10.4951 17.2044 10.3828C15.4685 8.70626 13.1205 7.86603 10.1643 7.86603C7.20816 7.86603 4.89422 8.76434 3.05818 10.559C1.22025 12.3537 0.243672 14.8996 0.130336 18.1947H3.91953C4.00453 16.1057 4.58632 14.4369 5.66301 13.1862C6.73971 11.9355 8.25463 11.3102 10.2078 11.3102C12.1609 11.3102 13.674 11.862 14.5788 12.9655C15.4817 14.069 15.935 15.5772 15.935 17.49C15.935 19.5189 15.2248 21.5866 13.8024 23.691C12.3819 25.7955 10.6385 27.8109 8.57008 29.7372C6.50359 31.6655 3.64564 34.13 0 37.1308V40H19.9358V36.6449H5.90102C8.71364 34.3217 11.0257 32.283 12.8334 30.5329C14.5618 28.8602 16.1107 26.9319 17.4858 24.75C17.7767 25.5341 18.1205 26.293 18.521 27.0248C19.9962 29.7372 22.0174 31.8494 24.5825 33.3633C27.1458 34.8773 30.0038 35.6343 33.1526 35.6343C36.3015 35.6343 39.2066 34.8773 41.7718 33.3633C44.3351 31.8494 46.3487 29.7372 47.8088 27.0248C49.2709 24.3144 50 21.2439 50 17.8171C50 14.3904 49.2709 11.3218 47.8088 8.60946ZM29.3087 28.1497H28.4492V27.6444C28.3396 27.807 28.1885 27.9406 27.9958 28.047C27.8013 28.1535 27.5803 28.2058 27.3272 28.2058C27.0438 28.2058 26.785 28.1322 26.5508 27.9812C26.3166 27.8321 26.1334 27.6211 25.9974 27.3481C25.8614 27.0752 25.7934 26.7615 25.7934 26.4072C25.7934 26.0529 25.8614 25.749 25.9974 25.478C26.1334 25.2069 26.3166 24.9998 26.5508 24.8526C26.785 24.7074 27.0457 24.6339 27.3347 24.6339C27.5859 24.6339 27.807 24.6861 27.9958 24.7907C28.1828 24.8952 28.3359 25.0269 28.4492 25.1837V24.6919H29.3087V28.1497ZM33.3585 28.1497H32.5066V26.2388C32.5066 25.9639 32.4386 25.7529 32.3045 25.6057C32.1704 25.4586 31.989 25.385 31.7567 25.385C31.5244 25.385 31.3355 25.4586 31.1995 25.6057C31.0635 25.7529 30.9955 25.9639 30.9955 26.2388V28.1497H30.1417V24.6919H30.9955V25.1217C31.1088 24.9727 31.2542 24.8546 31.4318 24.7694C31.6075 24.6842 31.802 24.6416 32.0136 24.6416C32.4141 24.6416 32.7389 24.7713 32.9883 25.0307C33.2357 25.2921 33.3585 25.6541 33.3585 26.1207V28.1497ZM30.7386 24.3609C30.7763 24.086 30.8595 23.8807 30.9917 23.7452C31.1239 23.6097 31.292 23.5419 31.4941 23.5419C31.581 23.5419 31.6547 23.5555 31.7208 23.5826C31.785 23.6097 31.8587 23.6484 31.9399 23.6988C32.0608 23.7781 32.1628 23.8169 32.244 23.8169C32.3952 23.8169 32.4821 23.7278 32.5066 23.5477H32.9637C32.926 23.8227 32.8428 24.0279 32.7106 24.1634C32.5784 24.2989 32.4103 24.3667 32.2082 24.3667C32.1232 24.3667 32.0476 24.3531 31.9815 24.326C31.9173 24.2989 31.8436 24.2602 31.7624 24.2099C31.6453 24.1266 31.5433 24.086 31.4583 24.086C31.309 24.086 31.2184 24.177 31.19 24.3609H30.7386ZM37.1949 27.3578C37.0382 27.6289 36.8266 27.838 36.5603 27.9851C36.2939 28.1322 35.9974 28.2058 35.6687 28.2058C35.34 28.2058 35.051 28.1322 34.7903 27.9851C34.5315 27.838 34.3275 27.6289 34.1783 27.3578C34.031 27.0868 33.9554 26.7751 33.9554 26.4208C33.9554 26.0665 34.0329 25.7548 34.184 25.4838C34.337 25.2127 34.5448 25.0036 34.8092 24.8565C35.0737 24.7094 35.3683 24.6339 35.6932 24.6339C36.0181 24.6339 36.3128 24.7094 36.5754 24.8565C36.8398 25.0036 37.0476 25.2127 37.2006 25.4838C37.3536 25.7548 37.4292 26.0665 37.4292 26.4208C37.4292 26.7751 37.3498 27.0868 37.1949 27.3578ZM40.5138 27.7005C40.4061 27.8593 40.2531 27.9832 40.051 28.0722C39.8508 28.1613 39.6165 28.2058 39.3483 28.2058C39.0801 28.2058 38.8232 28.1555 38.6041 28.0529C38.385 27.9522 38.2112 27.8128 38.0846 27.6385C37.9562 27.4643 37.8863 27.2707 37.8731 27.0577H38.7325C38.7495 27.1913 38.8119 27.3017 38.9252 27.3888C39.0366 27.4759 39.1745 27.5204 39.3427 27.5204C39.5108 27.5204 39.6317 27.4856 39.7223 27.4198C39.8149 27.354 39.8602 27.2688 39.8602 27.1642C39.8602 27.0519 39.8036 26.9667 39.6921 26.9106C39.5807 26.8545 39.4031 26.7925 39.1594 26.7267C38.9063 26.6647 38.7004 26.5989 38.5399 26.5331C38.3793 26.4673 38.2414 26.3646 38.1262 26.2272C38.011 26.0897 37.9524 25.9039 37.9524 25.6716C37.9524 25.4799 38.0072 25.3056 38.1148 25.1469C38.2225 24.9881 38.3755 24.8642 38.5776 24.7713C38.7779 24.6803 39.0159 24.6339 39.2879 24.6339C39.6883 24.6339 40.0094 24.7384 40.2493 24.9436C40.4892 25.1508 40.6215 25.4276 40.646 25.778H39.83C39.8168 25.6406 39.762 25.5302 39.6619 25.4489C39.5618 25.3676 39.4295 25.3289 39.2633 25.3289C39.1084 25.3289 38.9894 25.3579 38.9063 25.416C38.8232 25.4741 38.7816 25.5554 38.7816 25.658C38.7816 25.7761 38.8383 25.8632 38.9516 25.9252C39.065 25.9852 39.2425 26.0452 39.4824 26.1091C39.7261 26.171 39.9263 26.2349 40.085 26.3027C40.2437 26.3685 40.3816 26.4711 40.4968 26.6105C40.612 26.7499 40.6725 26.9358 40.6762 27.1642C40.6762 27.3636 40.6215 27.5417 40.5138 27.7005ZM44.5542 13.6992C43.6437 15.4068 41.6925 15.6469 40.8972 15.6701C39.3389 15.7166 37.7767 17.3118 37.7427 18.8916C37.7087 20.4404 37.0665 21.3755 36.5338 21.8866C35.9029 22.4926 35.0699 22.8334 34.2331 22.8334C34.1896 22.8334 34.1443 22.8334 34.1009 22.8314C32.5803 22.7656 31.4583 21.9273 31.0219 21.1258C30.6063 20.3669 30.3513 19.6215 30.4533 18.456C30.5176 17.7184 30.3079 17.0195 29.881 16.5413C29.4994 16.1135 28.98 15.8889 28.3774 15.8889C27.4367 15.8889 26.615 16.4794 26.4224 17.2925C26.2901 17.8539 26.3147 18.1618 26.3374 18.4599C26.3487 18.5993 26.36 18.7329 26.3525 18.8839C26.2901 20.3688 25.1908 21.4898 23.7949 21.4898C22.3989 21.4898 21.2051 20.2991 21.2051 18.8355C21.2051 17.8597 21.8927 16.7736 22.7389 16.4135C23.4341 16.1173 23.7892 15.8927 24.0536 15.581C24.6317 14.8996 24.558 14.1116 24.4522 13.5792C24.2388 12.4931 24.1594 11.3547 25.0208 10.3828L25.0321 10.3732C25.0321 10.3732 25.0453 10.3557 25.0529 10.348L25.0774 10.3209C25.3324 10.044 25.6309 9.81559 25.9634 9.64329L25.969 9.63942C26.0068 9.62006 26.0446 9.60263 26.0842 9.58521L26.0994 9.57747C26.0994 9.57747 26.1145 9.56972 26.1239 9.56585C26.1504 9.55423 26.1787 9.54262 26.207 9.531C26.2297 9.52132 26.2542 9.51164 26.2788 9.50196C26.2958 9.49422 26.3147 9.48841 26.3336 9.48066C26.3657 9.46905 26.3997 9.45743 26.4337 9.44582L26.4639 9.43614C26.5055 9.42452 26.5489 9.41097 26.5905 9.39935H26.5999C26.649 9.3858 26.6963 9.37418 26.7473 9.36257H26.751C26.802 9.35095 26.853 9.34127 26.904 9.33353C26.955 9.32578 27.0079 9.31997 27.0589 9.31417H27.0665C27.1175 9.30836 27.1628 9.30449 27.21 9.30255H27.2384C27.278 9.29868 27.3158 9.29868 27.3536 9.29674H27.4159C27.4386 9.29674 27.4613 9.29868 27.4821 9.29868C28.2527 9.32191 28.9875 9.63167 29.5523 10.1718H29.5561C29.8206 10.4216 30.4382 11.105 30.4987 12.1214C30.6063 13.918 31.9116 15.7108 34.2029 15.6604C35.1322 15.6391 35.9501 15.2732 36.5659 14.5995C37.2327 13.8715 37.6218 12.8125 37.5822 11.8368C37.5274 10.47 38.0601 9.32385 39.082 8.60946C39.6694 8.14675 40.4363 7.89313 41.2391 7.89313C41.8209 7.89313 42.3838 8.02672 42.8901 8.27646C43.3982 8.52621 43.8496 8.89018 44.2123 9.35482C44.6562 9.92401 44.9074 10.5145 45.0076 11.2095C45.1284 12.0556 44.9717 12.9171 44.5542 13.6992Z" fill="#C1C9EB"/>
<path d="M28.4491 26.4207C28.4491 26.6336 28.4075 26.8156 28.3263 26.9666C28.2451 27.1196 28.1355 27.2357 27.9976 27.3171C27.8598 27.3984 27.7124 27.439 27.5537 27.439C27.3951 27.439 27.2534 27.3964 27.1174 27.3132C26.9814 27.2299 26.8718 27.1099 26.7887 26.955C26.7056 26.7982 26.6641 26.6162 26.6641 26.4071C26.6641 26.198 26.7056 26.0199 26.7887 25.8689C26.8718 25.716 26.9814 25.5998 27.1136 25.5204C27.2477 25.443 27.3951 25.4023 27.5537 25.4023C27.7124 25.4023 27.8598 25.443 27.9976 25.5243C28.1355 25.6056 28.2451 25.7218 28.3263 25.8747C28.4075 26.0257 28.4491 26.2077 28.4491 26.4207Z" fill="#C1C9EB"/>
</g>
<defs>
<clipPath id="clip0_3428_1286">
<rect width="50" height="40" fill="currentColor"/>
</clipPath>
</defs>
</svg>
