<?xml version="1.0" encoding="utf-8"?>
<!-- Generator: Adobe Illustrator 28.0.0, SVG Export Plug-In . SVG Version: 6.00 Build 0)  -->
<svg version="1.1" id="Capa_1" xmlns="http://www.w3.org/2000/svg" xmlns:xlink="http://www.w3.org/1999/xlink" x="0px"
	y="0px" viewBox="0 0 293.09 194.44" style="enable-background:new 0 0 293.09 194.44;" xml:space="preserve">
	<style type="text/css">
		.st0 {
			fill: #FFFFFF;
		}

		.st1 {
			fill: url(#SVGID_1_);
		}

		.st2 {
			fill: url(#SVGID_00000165950894650323088640000003612910980609758617_);
		}

		.st3 {
			fill: url(#SVGID_00000027584133111670797780000001262336066499197856_);
		}

		.st4 {
			fill: url(#SVGID_00000151516715211842689810000002475103341772823230_);
		}

		.st5 {
			fill: #713481;
		}

		.st6 {
			clip-path: url(#SVGID_00000100381532662134759530000013287438042720094636_);
			fill: url(#SVGID_00000112606595988273604890000017403412714165994635_);
		}

		.st7 {
			fill: #00ABC8;
		}

		.st8 {
			fill: url(#SVGID_00000165212419007388393420000006469634939604481168_);
		}

		.st9 {
			fill: url(#SVGID_00000123420044181453884650000005840211790456348036_);
		}

		.st10 {
			fill: #FFFFFF;
			stroke: #616160;
			stroke-miterlimit: 10;
		}

		.st11 {
			fill: none;
		}

		.st12 {
			fill: #616160;
		}

		.st13 {
			clip-path: url(#SVGID_00000159467974995546615570000009088133322075837866_);
		}

		.st14 {
			fill-rule: evenodd;
			clip-rule: evenodd;
			fill: #020203;
		}

		.st15 {
			fill: #020203;
		}

		.st16 {
			fill: none;
			stroke: #FFFFFF;
			stroke-miterlimit: 10;
		}

		.st17 {
			fill: #00ACC8;
		}

		.st18 {
			fill: #609EAF;
		}

		.st19 {
			fill: #65BCD3;
		}

		.st20 {
			fill: #96CDDF;
		}

		.st21 {
			fill: #BEDEEA;
		}

		.st22 {
			fill: #194496;
		}

		.st23 {
			fill: #485790;
		}

		.st24 {
			fill: #4B61AA;
		}

		.st25 {
			fill: #7984C0;
		}

		.st26 {
			fill: #A7ABD7;
		}

		.st27 {
			fill: #623582;
		}

		.st28 {
			fill: #6E4F81;
		}

		.st29 {
			fill: #7E5798;
		}

		.st30 {
			fill: #9C7EB1;
		}

		.st31 {
			fill: #BCA9CD;
		}

		.st32 {
			fill: #255092;
		}

		.st33 {
			fill: #4E5F8C;
		}

		.st34 {
			fill: #546CA6;
		}

		.st35 {
			fill: #808DBC;
		}

		.st36 {
			fill: #ABB1D3;
		}

		.st37 {
			fill: #23305E;
		}

		.st38 {
			fill: #2C93A9;
		}
	</style>
	<g>
		<path class="st0" d="M189.93,17.97c-0.01,0.01-0.02,0.01-0.03,0.02c-7.56,5.16-11.57,13.44-11.15,23.44
		c0.53,12.72-8.6,29.53-27.16,29.94c-19.31,0.42-28.91-14.73-29.7-27.68c-0.39-6.38-3.98-11.25-6.94-13.95
		c-0.01-0.01-0.03-0.02-0.04-0.03c-4.04-3.77-9.41-6.14-15.33-6.31c-0.16-0.01-0.32-0.01-0.49-0.01c-0.07,0-0.14-0.01-0.21-0.01
		c-0.09,0-0.17,0.01-0.26,0.01c-0.28,0-0.56,0.01-0.84,0.02c-0.07,0-0.15,0.01-0.22,0.01c-0.35,0.02-0.7,0.05-1.04,0.08
		c-0.02,0-0.05,0.01-0.07,0.01c-0.38,0.04-0.75,0.09-1.13,0.14l-0.02,0c-0.38,0.06-0.76,0.13-1.14,0.2c-0.01,0-0.01,0-0.02,0
		c-0.36,0.07-0.71,0.16-1.07,0.25c-0.03,0.01-0.06,0.01-0.09,0.02c-0.31,0.08-0.63,0.17-0.94,0.27c-0.07,0.02-0.15,0.04-0.22,0.07
		c-0.25,0.08-0.5,0.17-0.75,0.25c-0.13,0.05-0.27,0.09-0.4,0.15c-0.18,0.07-0.35,0.14-0.53,0.21c-0.21,0.08-0.41,0.17-0.62,0.26
		c-0.1,0.04-0.19,0.09-0.29,0.13c-0.28,0.13-0.56,0.26-0.84,0.4l-0.06,0.03c-2.47,1.24-4.68,2.91-6.56,4.9
		c-0.03,0.04-0.07,0.07-0.1,0.1c-0.02,0.02-0.04,0.05-0.07,0.08c-0.08,0.09-0.16,0.18-0.24,0.27c-6.12,6.72-5.9,14.49-4.14,23.19
		c0.74,3.66,1.67,10.23-3.33,16c-2.28,2.62-5.33,4.39-10.55,6.55c-6.16,2.56-11.21,10.3-11.21,17.29c0,10.48,8.5,18.97,18.97,18.97
		c10.48,0,18.26-8.18,18.72-18.65c0.15-3.44-0.98-5.82,0.57-12.2c1.69-6.94,8.88-11.4,16.12-11.4c11.33,0,18.07,9.56,17.1,20.5
		c-0.75,8.37,0.99,13.7,4.26,19.53c3.42,6.11,12.11,11.87,22.93,12.33c12.91,0.55,26.63-9.64,27.06-28.69
		c0.28-12.25,12.45-24.94,25.4-25.32c9.9-0.29,21.71-3.95,27.38-14.31c3.41-6.24,4.21-12.49,3.39-18.13
		c-0.84-5.72-3.09-9.92-5.93-13.48c-5.86-7.33-14.18-10.63-22.15-10.63C200.04,12.8,194.3,14.62,189.93,17.97" />
		<g>
			<g>
				<path class="st0" d="M48.73,163.19c-0.53,1.52-1.31,3.03-2.42,4.39c-2.71,3.28-6.77,4.84-10.87,4.84
				c-4.35,0-8.41-1.76-10.87-4.84c-2.46-2.99-3.49-6.64-3.49-10.54c0-4.06,1.07-7.67,3.49-10.58c2.58-3.24,6.6-4.8,10.87-4.8
				s8.25,1.6,10.87,4.8c1.31,1.64,2.17,3.49,2.71,5.25l-5.74,0.98c-0.33-1.03-0.74-2.01-1.39-2.83c-1.48-1.97-3.94-2.99-6.44-2.99
				c-2.54,0-5,1.03-6.44,2.99c-1.52,1.93-1.97,4.59-2.01,7.18c0.04,2.58,0.49,5.21,2.01,7.18c1.44,1.97,3.9,2.99,6.44,2.95
				c2.5,0.04,4.96-0.98,6.44-2.95c0.57-0.78,1.03-1.68,1.31-2.63L48.73,163.19z" />
				<polygon class="st0" points="61.5,147.85 61.5,154.24 71.5,154.24 71.5,159.82 61.5,159.82 61.5,171.8 55.92,171.8 55.92,142.27 
				73.97,142.27 73.97,147.85 			" />
				<path class="st0" d="M106.46,163.19c-0.53,1.52-1.31,3.03-2.42,4.39c-2.71,3.28-6.77,4.84-10.87,4.84
				c-4.35,0-8.41-1.76-10.87-4.84c-2.46-2.99-3.49-6.64-3.49-10.54c0-4.06,1.07-7.67,3.49-10.58c2.58-3.24,6.6-4.8,10.87-4.8
				c4.27,0,8.25,1.6,10.87,4.8c1.31,1.64,2.17,3.49,2.71,5.25l-5.74,0.98c-0.33-1.03-0.74-2.01-1.39-2.83
				c-1.48-1.97-3.94-2.99-6.44-2.99c-2.54,0-5,1.03-6.44,2.99c-1.52,1.93-1.97,4.59-2.01,7.18c0.04,2.58,0.49,5.21,2.01,7.18
				c1.44,1.97,3.9,2.99,6.44,2.95c2.5,0.04,4.96-0.98,6.44-2.95c0.57-0.78,1.03-1.68,1.31-2.63L106.46,163.19z" />
			</g>
			<g>
				<path class="st0" d="M149.09,163.02c-0.45,1.64-1.23,3.24-2.34,4.68c-2.5,3.2-6.32,4.72-10.42,4.72c-4.18,0-7.88-1.56-10.38-4.72
				c-2.38-3.08-3.28-6.89-3.24-10.66c0.08-3.81,0.86-7.63,3.24-10.67c2.46-3.2,6.28-4.72,10.38-4.72c4.14,0,8,1.56,10.42,4.72
				c1.27,1.68,2.09,3.53,2.58,5.45l-3.12,0.49c-0.37-1.48-0.98-2.91-1.89-4.1c-1.81-2.42-4.88-3.61-8-3.65
				c-3.08-0.04-6.15,1.23-7.92,3.65c-1.89,2.42-2.46,5.66-2.46,8.82c0,3.16,0.57,6.4,2.46,8.86c1.76,2.42,4.84,3.61,7.92,3.61
				c3.12,0.04,6.19-1.19,8-3.61c0.82-1.11,1.39-2.42,1.76-3.73L149.09,163.02z" />
				<path class="st0" d="M170.71,171.8v-3.57c-1.97,3.04-4.92,4.18-8.74,4.18c-4.23,0-7.26-2.58-7.26-6.69c0-2.79,1.15-4.72,3.9-6.11
				c2.71-1.39,7.01-1.72,11.73-2.46c-0.04-3.57-2.46-5.21-5.74-5.21c-2.34,0-4.51,0.49-6.48,2.91l-1.97-2.05
				c2.3-2.75,5.29-3.77,8.82-3.77c2.22,0,4.35,0.82,5.78,2.09c2.05,1.72,2.67,4.43,2.67,7.01l0,13.66H170.71z M170.42,159.7
				c-3.69,0.57-6.28,0.98-7.67,1.31c-2.79,0.57-5,2.05-5,4.43c0,2.58,1.97,4.27,4.72,4.27c3.2,0,5.74-1.27,7.06-3.77
				C170.38,164.25,170.42,162.57,170.42,159.7" />
				<path class="st0" d="M201.19,160.68c0,2.87-0.57,5.78-2.42,8.16c-1.85,2.34-4.64,3.57-7.67,3.57c-2.99,0-5.62-1.11-7.34-3.28
				v12.51h-3.04l0-31.99l2.71,0v2.99c1.76-2.3,4.72-3.61,7.79-3.61c3,0,5.79,1.27,7.55,3.57
				C200.54,154.86,201.19,157.85,201.19,160.68 M197.99,160.68c0-2.3-0.45-4.59-1.68-6.24c-1.27-1.76-3.32-2.63-5.58-2.63
				c-2.17,0-4.22,0.82-5.5,2.46c-1.31,1.68-1.81,4.06-1.81,6.4c0,2.38,0.49,4.8,1.81,6.44c1.27,1.64,3.36,2.5,5.54,2.5
				c2.17,0,4.31-0.9,5.58-2.67C197.58,165.32,197.99,163.02,197.99,160.68" />
				<path class="st0" d="M211.09,145.71h-2.99v-3.36h2.99V145.71z M211.09,171.8h-2.99v-22.15h2.99L211.09,171.8z" />
				<path class="st0" d="M224.5,163.64c0,1.85-0.08,2.95,0.45,3.9c0.49,1.03,1.52,1.6,2.67,1.72c1.15,0.12,2.5,0.08,3.65-0.16v2.71
				c-1.48,0.37-3.32,0.45-4.76,0.16c-1.97-0.33-3.45-1.23-4.27-2.91c-0.74-1.56-0.78-3.2-0.78-5.29v-11.53h-4.72v-2.58h4.72v-6.15
				h3.03v6.15h6.77v2.58h-6.77V163.64z" />
				<path class="st0" d="M252.4,171.8v-3.57c-1.97,3.04-4.92,4.18-8.74,4.18c-4.23,0-7.26-2.58-7.26-6.69c0-2.79,1.15-4.72,3.9-6.11
				c2.71-1.39,7.01-1.72,11.73-2.46c-0.04-3.57-2.46-5.21-5.74-5.21c-2.34,0-4.51,0.49-6.48,2.91l-1.97-2.05
				c2.3-2.75,5.29-3.77,8.82-3.77c2.22,0,4.35,0.82,5.79,2.09c2.05,1.72,2.67,4.43,2.67,7.01v13.66H252.4z M252.11,159.7
				c-3.69,0.57-6.28,0.98-7.67,1.31c-2.79,0.57-5,2.05-5,4.43c0,2.58,1.97,4.27,4.72,4.27c3.2,0,5.74-1.27,7.05-3.77
				C252.07,164.25,252.11,162.57,252.11,159.7" />
				<rect x="262.41" y="141.65" class="st0" width="3" height="30.15" />
			</g>
		</g>
	</g>
</svg>