<svg width="71" height="68" viewBox="0 0 71 68" fill="none" xmlns="http://www.w3.org/2000/svg">
<path d="M38.9291 19.5524L31.8255 17.0645C30.6046 20.9498 25.3466 22.0014 23.2681 18.3067L15.0741 24.8245C14.8483 25.1809 15.2894 25.7349 15.3317 26.1584C15.9916 32.8632 6.83424 33.5831 5.91674 27.6511C5.4474 24.6269 8.1258 21.8602 11.1641 22.2272C11.6511 22.2872 13.0062 22.9189 13.2285 22.8095L22.4 15.2366C23.4692 10.335 29.44 9.60808 31.6844 14.0791L39.9454 17.0469C41.9992 15.2683 44.8258 14.732 46.9572 16.7187L55.5853 6.32977C55.5782 4.81943 55.363 3.49964 56.3052 2.11633C58.306 -0.819672 62.9218 -0.713806 64.5133 2.51509C66.7329 7.01437 61.6831 11.4078 57.5226 8.62L57.1662 8.78585L48.5523 19.1924C48.517 21.1333 48.2594 22.5766 46.6996 23.854C43.3366 26.6065 38.6327 23.7376 38.9326 19.5559L38.9291 19.5524ZM58.9059 6.09334C60.7939 8.05538 63.6311 4.86883 61.4961 3.2385C59.527 1.73521 57.2685 4.39244 58.9059 6.09334ZM26.7475 13.938C24.5032 14.372 24.8808 17.9997 27.3863 17.7668C29.8917 17.5339 29.4295 13.4192 26.7475 13.938ZM45.0552 18.7125C42.9591 16.8599 40.2348 20.5722 42.8708 21.8638C45.0552 22.933 46.5797 20.0605 45.0552 18.7125ZM9.24091 25.5832C7.6494 27.1747 9.73142 29.7896 11.6405 28.5968C14.0543 27.09 11.2453 23.5753 9.24091 25.5832Z" fill="#1D89A8"/>
<path d="M66.1856 17.1298C66.4432 17.4121 66.5985 17.9979 66.602 18.3861L66.5491 60.7887C66.3691 61.4592 66.0021 61.8932 65.2787 61.9815C62.1804 62.3591 58.2775 61.7133 55.0944 61.9356C54.6074 61.7627 54.0887 61.4027 54.0781 60.8381L54.124 17.5497C54.3957 17.0345 54.8368 16.784 55.405 16.7169C57.4023 16.4805 63.2919 16.4699 65.2787 16.7134C65.5751 16.7487 65.9845 16.911 66.1856 17.1298ZM63.7789 19.54H56.9118V59.1584H63.7789V19.54Z" fill="#1D89A8"/>
<path d="M33.078 61.5636C32.8804 61.7788 32.471 61.9412 32.1711 61.98C30.1843 62.2235 24.2947 62.2129 22.2973 61.9764C21.7327 61.9094 21.2881 61.6588 21.0164 61.1436L20.9705 27.0126C20.9423 26.3739 21.2563 25.8446 21.8492 25.6046L31.9876 25.5234C32.6333 25.5446 33.138 26.0175 33.4026 26.575L33.4909 60.3144C33.4873 60.7025 33.3321 61.2883 33.0745 61.5706L33.078 61.5636ZM30.6678 28.3395H23.8006V59.1534H30.6678V28.3395Z" fill="#1D89A8"/>
<path d="M49.6327 61.562C49.4351 61.7772 49.0257 61.9396 48.7258 61.9784C46.739 62.2219 40.8494 62.2113 38.852 61.9748C38.2874 61.9078 37.8428 61.6572 37.5711 61.142L37.5252 30.3564C37.497 29.7176 37.811 29.1883 38.4039 28.9484L48.5423 28.8672C49.188 28.8884 49.6927 29.3612 49.9573 29.9188L50.0455 60.3128C50.042 60.7009 49.8867 61.2867 49.6291 61.569L49.6327 61.562ZM47.2225 31.6832H40.3553V59.1518H47.2225V31.6832Z" fill="#1D89A8"/>
<path d="M1.02991 64.8281L69.599 64.8705C70.7811 65.3822 70.7952 67.0054 69.599 67.5312L1.50983 67.6194C-0.212245 67.6477 -0.579245 65.3892 1.02638 64.8317L1.02991 64.8281Z" fill="#1D89A8"/>
<path d="M16.5208 61.5635C16.3232 61.7788 15.9138 61.9411 15.6139 61.9799C13.486 62.2375 8.10093 62.181 5.91305 61.9799C5.28491 61.9234 4.9038 61.7964 4.51562 61.2635L4.55797 36.8368C4.87204 36.2369 5.29197 36.1346 5.91305 36.0781C8.11505 35.877 13.2883 35.8311 15.4374 36.0817C16.122 36.1628 16.5561 36.5228 16.8525 37.1333L16.9407 60.3072C16.9372 60.6954 16.7819 61.2812 16.5243 61.5635H16.5208ZM14.1106 38.9048H7.24342V59.1533H14.1106V38.9048Z" fill="#1D89A8"/>
</svg>
