<svg width="40" height="31" viewBox="0 0 40 31" fill="none" xmlns="http://www.w3.org/2000/svg">
<path d="M29.1728 7.4508H36.5941L37.2758 7.54717C38.8261 7.95752 39.788 9.14349 39.9016 10.7445C40.2004 14.9987 39.6884 19.6183 39.8767 23.9098C39.7288 25.5093 38.2222 26.9175 36.5956 26.9175H34.8477V30.4459C34.8477 30.4692 34.6563 30.7941 34.6127 30.8314C34.3309 31.077 33.8967 31.0397 33.6087 30.8314L29.9183 26.9921C24.466 26.7621 18.9249 27.09 13.457 26.8227C9.77902 25.8528 11.1518 22.3477 10.839 19.6633C10.8265 19.5561 10.8437 19.4488 10.7082 19.4069L10.1713 19.4691L6.34075 23.4016C6.03257 23.7622 5.1625 23.3565 5.1625 23.0021V19.396H2.79198C2.74995 19.396 2.09623 19.1458 2.00129 19.0991C0.910194 18.5769 0.256472 17.5183 0.113276 16.3308C0.374764 12.0626 -0.241602 7.36842 0.113276 3.14991C0.262698 1.31888 1.67754 0.0925008 3.48617 0.00234842L25.9477 0.00701148C27.2178 -0.120445 29.1743 1.51629 29.1743 2.75977V7.45236L29.1728 7.4508ZM27.6972 7.4508V3.1468C27.6972 3.10173 27.5182 2.59656 27.4778 2.51263C27.2241 1.98881 26.6715 1.65152 26.1034 1.5567L2.91961 1.60955C2.29857 1.81006 1.73669 2.40227 1.66197 3.06909L1.68065 16.5453C2.25655 18.5815 4.55236 17.6909 6.04814 17.9256C6.23803 17.9551 6.63493 18.2598 6.63493 18.4245V20.868C7.19838 20.5555 9.30429 17.9209 9.70431 17.9209H10.8312V10.2051C10.8312 8.87459 12.7955 7.45236 14.0562 7.45236H27.6957L27.6972 7.4508ZM33.3706 28.3118V25.8683C33.3706 25.6709 33.8407 25.3989 34.0368 25.3694C35.5076 25.144 37.6914 26.0113 38.3109 24.0513L38.3451 10.5144C38.2517 9.68907 37.475 9.07044 36.6766 8.99894L13.9815 9.0036C12.9371 9.13261 12.3799 9.88647 12.3067 10.8999C12.0126 14.9879 12.5371 19.4224 12.3067 23.5461C12.3939 24.5533 13.0243 25.2746 14.0547 25.3694H30.2187C30.418 25.4036 30.7012 25.6134 30.8475 25.7502C31.6118 26.4652 32.3667 27.4911 33.134 28.1983C33.2103 28.2698 33.243 28.3397 33.369 28.3118H33.3706Z" fill="white"/>
</svg>
