<svg width="77" height="61" viewBox="0 0 77 61" fill="none" xmlns="http://www.w3.org/2000/svg">
<path d="M44.396 6.3596C40.5528 5.8986 40.565 0.543166 44.4766 0.145922C46.3127 -0.0404396 51.0824 -0.069865 52.8598 0.185156C56.6761 0.734432 56.5245 6.10458 52.6691 6.36696L52.6789 10.1702C56.3631 10.7489 59.8372 12.23 62.92 14.2922L65.5188 11.6758C63.2892 8.56161 66.4796 4.90549 69.7556 6.99716C71.4596 9.08882 74.5009 11.0015 76.0363 13.1348C78.2561 16.2196 74.4374 19.6428 71.5281 17.3745L69.0393 20.1454C70.1908 21.9674 71.3496 23.7868 72.1393 25.8099C78.5911 42.3175 67.0297 59.7595 49.5618 60.7158C43.2542 61.0616 36.6558 60.4559 30.3165 60.7256C28.4756 60.5589 29.121 58.8056 29.6882 58.8056H38.6703L34.8687 56.6404C19.0412 46.393 19.5081 23.1959 35.5043 13.4683L38.6727 11.7812H29.8495C28.9621 11.7812 28.9059 9.86859 29.6906 9.86859H44.3984V6.36206L44.396 6.3596ZM53.4123 2.41904C53.2387 2.24249 52.6886 2.08065 52.4271 2.05122C50.8404 1.87467 46.1929 1.8526 44.6478 2.07084C43.0269 2.29889 43.0391 4.20909 44.484 4.43714C45.7504 4.63821 51.4614 4.63331 52.7326 4.43714C53.6837 4.29001 54.0822 3.09337 53.4123 2.41904ZM50.7548 6.3596H46.3029V9.86614H50.7548V6.3596ZM67.5651 8.29923C66.7094 8.47333 66.3403 9.64055 66.971 10.2634C68.8902 11.6464 70.8753 14.584 72.704 15.8322C74.0804 16.7713 75.3566 15.5575 74.4423 14.2481C72.5867 12.7278 70.5331 9.91273 68.6384 8.58858C68.2619 8.32375 68.0516 8.19624 67.5627 8.29678L67.5651 8.29923ZM65.1668 51.8931C77.8478 39.1788 72.0342 17.2765 54.796 12.5904C36.4113 7.59057 19.9604 25.4911 26.5858 43.4259C32.4801 59.3868 53.0994 63.9968 65.1692 51.8955L65.1668 51.8931ZM66.9148 13.0711L64.5996 15.5036L67.8243 18.4633L70.1492 16.0038C69.6309 15.5869 67.4038 12.9877 66.9148 13.0711Z" fill="#1D89A8"/>
<path d="M7.62674 48.9561C12.0689 49.265 17.4058 48.4117 21.7429 48.9144C22.3736 48.988 22.8064 49.3092 22.9213 49.9541L22.5472 50.6824L7.58274 50.8393C6.35057 50.6799 6.45081 49.0762 7.62919 48.9561H7.62674Z" fill="#1D89A8"/>
<path d="M6.03284 39.2282L19.0391 39.1914C20.4081 39.2552 20.3519 41.0379 19.0391 41.109C15.0712 40.7632 10.3479 41.5602 6.47291 41.109C5.26519 40.9692 5.01337 39.8412 6.03284 39.2257V39.2282Z" fill="#1D89A8"/>
<path d="M10.643 19.6227L22.6957 19.5859C24.0135 19.6056 24.1406 21.3466 22.8595 21.5109C19.0921 21.1308 14.4153 21.9866 10.7603 21.5109C9.58196 21.3564 9.63819 19.8557 10.643 19.6227Z" fill="#1D89A8"/>
<path d="M25.7542 10.062C26.3874 10.6996 25.8593 11.6706 24.9205 11.781C22.3217 12.085 19.1557 11.5505 16.4933 11.7736C15.4641 11.4475 15.2905 10.0179 16.4811 9.85606C19.2168 10.0473 22.2214 9.63046 24.9229 9.85606C25.1698 9.87568 25.5781 9.88303 25.7517 10.0596L25.7542 10.062Z" fill="#1D89A8"/>
<path d="M0.239028 31.0252C-0.293933 30.4563 0.124124 29.5662 0.904008 29.4632C3.30233 29.1494 6.38275 29.7109 8.85931 29.4755C9.27248 29.5441 9.50473 29.9635 9.56585 30.3484C9.45095 30.9933 9.01822 31.3146 8.38747 31.3881C6.83992 31.5671 2.7816 31.5622 1.22672 31.3881C0.979798 31.3612 0.390604 31.1871 0.239028 31.0252Z" fill="#1D89A8"/>
<path d="M15.729 58.8297L23.166 58.8027C24.2466 59.1289 24.0877 60.5315 23.0023 60.7007C21.9021 60.8748 17.1274 60.8748 16.0273 60.7007C14.9271 60.5266 14.8563 59.3397 15.729 58.8297Z" fill="#1D89A8"/>
<path d="M20.0272 31.024C19.8756 31.1859 19.2864 31.36 19.0395 31.387C18.262 31.4728 14.568 31.5218 14.1719 30.9995C13.925 30.6758 13.9323 29.8666 14.2502 29.6141C14.3479 29.5258 14.4629 29.4988 14.5875 29.4743C15.1743 29.3615 18.9172 29.364 19.5089 29.4743C20.1812 29.6018 20.4917 30.5263 20.0272 31.024Z" fill="#1D89A8"/>
<path d="M48.1806 13.5796C65.0667 13.2854 75.8017 31.8136 67.1007 46.4209C58.1895 61.3813 35.7954 59.9934 28.8375 44.0375C22.6571 29.8666 32.7516 13.8469 48.1806 13.5796ZM48.1831 15.4874C33.2088 15.7571 24.0409 32.2722 31.5952 45.2562C39.0249 58.0293 57.6199 58.2328 65.3527 45.6215C73.5109 32.3163 63.6683 15.2078 48.1831 15.4874Z" fill="#1D89A8"/>
<path d="M49.2856 24.0888C49.8186 24.6209 49.2343 30.4177 49.5545 31.5506C50.7867 31.9601 51.9284 32.9262 52.2022 34.2357C52.4003 34.4122 56.7129 34.14 57.5025 34.2626C58.0404 34.346 58.4535 34.7433 58.5342 35.2901C58.4682 35.6873 58.2457 36.0821 57.8277 36.163C56.3266 36.4524 54.0431 35.9325 52.4516 36.1925C52.1925 36.2832 51.7108 37.4847 51.393 37.8403C49.5228 39.9123 45.9387 39.2135 45.0268 36.5725C44.2274 34.2626 45.4987 32.4211 47.5572 31.4427L47.6501 24.5228C47.7845 23.8264 48.8822 23.6842 49.2905 24.0912L49.2856 24.0888ZM48.6109 33.3799C46.0683 33.3333 46.1196 37.1537 48.6109 37.1341C51.1021 37.1145 51.0385 33.424 48.6109 33.3799Z" fill="#1D89A8"/>
<path d="M40.8511 47.3534C41.6212 47.2357 42.1615 47.9051 41.9781 48.6383C41.9341 48.8099 40.5601 51.1419 40.433 51.2424C39.68 51.8432 38.663 51.2988 38.861 50.3131C38.9612 49.8079 40.3401 47.4318 40.8511 47.3534Z" fill="#1D89A8"/>
<path d="M40.5354 19.3132C40.6747 19.453 41.9924 21.8879 42.0096 22.0767C42.1 23.0306 41.0341 23.4548 40.33 22.7879C40.1711 22.6358 38.8949 20.4559 38.8558 20.2695C38.6235 19.171 39.7652 18.5481 40.5354 19.3132Z" fill="#1D89A8"/>
<path d="M63.428 34.289C63.8876 34.1836 66.0757 34.186 66.5035 34.3258C67.2027 34.5514 67.3861 35.6328 66.7431 36.0177C66.396 36.2262 63.7165 36.263 63.2691 36.133C62.4207 35.8878 62.4868 34.5048 63.428 34.289Z" fill="#1D89A8"/>
<path d="M64.5413 43.3835C65.0767 44.0382 64.6367 45.2005 63.7517 45.0656C63.429 45.0166 61.3924 43.8322 61.1015 43.5674C60.1774 42.7312 60.7861 41.6939 61.9572 41.9097C62.1137 41.9392 64.4484 43.2682 64.5438 43.3835H64.5413Z" fill="#1D89A8"/>
<path d="M48.6086 16.6289C48.8164 16.6289 49.2149 16.7809 49.3396 16.9428C49.5376 17.2003 49.5719 20.2041 49.4521 20.5915C49.1954 21.4375 47.6967 21.31 47.5671 19.8338C47.484 18.8947 47.2933 16.6289 48.6086 16.6289Z" fill="#1D89A8"/>
<path d="M57.231 18.9776C57.874 18.8795 58.468 19.625 58.3213 20.2258C58.2651 20.4538 56.9767 22.6926 56.808 22.8642C56.3557 23.3302 55.4194 23.1144 55.2409 22.5013C55.038 21.8074 56.5635 19.0782 57.2334 18.9752L57.231 18.9776Z" fill="#1D89A8"/>
<path d="M36.2494 42.0992C36.5941 42.4449 36.5281 43.2345 36.1223 43.5704C35.9047 43.7494 33.6408 45.0368 33.4673 45.0638C32.5896 45.1962 31.9319 44.0069 32.7949 43.2615C33.3597 42.7735 35.6187 41.4665 36.2518 42.0992H36.2494Z" fill="#1D89A8"/>
<path d="M55.9578 47.3491C56.7694 47.2241 57.9038 49.3133 58.1825 49.9974C58.5272 50.8434 58.1947 51.6379 57.1997 51.4687C56.5421 51.3559 54.0386 47.6458 55.9553 47.3491H55.9578Z" fill="#1D89A8"/>
<path d="M48.3281 49.4264C48.8561 49.316 49.3744 49.5612 49.4796 50.1179C49.5602 50.5519 49.5602 52.7049 49.4796 53.1389C49.2889 54.1712 47.7389 54.2423 47.5751 52.6632C47.4895 51.8393 47.3355 49.6323 48.3281 49.4239V49.4264Z" fill="#1D89A8"/>
<path d="M33.0671 25.513C33.7346 25.3756 36.3382 26.8347 36.4483 27.4845C36.5729 28.2226 36.0009 28.7915 35.2919 28.6492C35.1183 28.6149 33.0696 27.4158 32.8667 27.2417C32.2041 26.6704 32.1577 25.7018 33.0671 25.5154V25.513Z" fill="#1D89A8"/>
<path d="M63.5929 25.5167C64.5195 25.3327 65.072 26.2204 64.5977 27.0124C64.4633 27.238 62.219 28.5131 61.8865 28.6063C61.0088 28.8491 60.3243 27.8241 60.8646 27.0958C61.0259 26.88 63.2971 25.578 63.5929 25.5191V25.5167Z" fill="#1D89A8"/>
<path d="M30.8345 34.289C31.3137 34.1836 33.3013 34.186 33.7512 34.3258C34.7291 34.6323 34.756 35.981 33.6534 36.1575C33.0617 36.2507 30.3138 36.3341 30.1133 35.7431C29.9593 35.0663 30.1011 34.4508 30.837 34.289H30.8345Z" fill="#1D89A8"/>
</svg>
