<svg width="52" height="41" viewBox="0 0 52 41" fill="none" xmlns="http://www.w3.org/2000/svg">
<path d="M29.6935 4.25348C27.123 3.94515 27.1312 0.363284 29.7474 0.0975965C30.9754 -0.0270471 34.1656 -0.0467277 35.3543 0.123837C37.9067 0.491208 37.8054 4.08291 35.2268 4.2584L35.2333 6.80211C37.6974 7.18917 40.021 8.17976 42.0829 9.55904L43.821 7.8091C42.3298 5.72624 44.4636 3.28093 46.6547 4.67989C47.7944 6.07885 49.8285 7.35809 50.8554 8.78493C52.3401 10.8481 49.786 13.1376 47.8402 11.6206L46.1756 13.4738C46.9458 14.6924 47.7208 15.9093 48.249 17.2623C52.5641 28.3032 44.8315 39.9688 33.1485 40.6084C28.9298 40.8397 24.5166 40.4346 20.2767 40.615C19.0455 40.5035 19.4771 39.3308 19.8565 39.3308H25.864L23.3213 37.8827C12.7355 31.0289 13.0478 15.5141 23.7465 9.00798L25.8656 7.87963H19.9644C19.3709 7.87963 19.3332 6.60039 19.8581 6.60039H29.6951V4.25512L29.6935 4.25348ZM35.7238 1.61792C35.6077 1.49984 35.2398 1.39159 35.0649 1.37191C34.0037 1.25383 30.8953 1.23907 29.8619 1.38503C28.7778 1.53756 28.786 2.81516 29.7523 2.96768C30.5993 3.10217 34.419 3.09889 35.2693 2.96768C35.9053 2.86928 36.1719 2.06893 35.7238 1.61792ZM33.9464 4.25348H30.9689V6.59875H33.9464V4.25348ZM45.1896 5.55076C44.6173 5.6672 44.3704 6.44786 44.7923 6.86444C46.0759 7.78942 47.4036 9.7542 48.6267 10.589C49.5473 11.2171 50.4008 10.4053 49.7893 9.52952C48.5482 8.51269 47.1747 6.62991 45.9075 5.74428C45.6556 5.56716 45.515 5.48188 45.188 5.54912L45.1896 5.55076ZM43.5856 34.7075C52.067 26.2039 48.1787 11.555 36.6493 8.42084C24.3531 5.07678 13.3503 17.0491 17.7815 29.0445C21.7238 39.7195 35.5145 42.8028 43.5872 34.7092L43.5856 34.7075ZM44.7547 8.74229L43.2062 10.3692L45.363 12.3488L46.918 10.7038C46.5713 10.425 45.0817 8.68653 44.7547 8.74229Z" fill="white"/>
<path d="M5.10147 32.7439C8.07251 32.9506 11.642 32.3799 14.5427 32.7161C14.9646 32.7653 15.254 32.9801 15.3309 33.4114L15.0807 33.8985L5.07204 34.0035C4.24793 33.8969 4.31497 32.8243 5.10311 32.7439H5.10147Z" fill="white"/>
<path d="M4.03517 26.2375L12.7341 26.2129C13.6498 26.2555 13.6122 27.4478 12.7341 27.4954C10.0803 27.2642 6.92119 27.7972 4.3295 27.4954C3.52174 27.4019 3.35332 26.6475 4.03517 26.2359V26.2375Z" fill="white"/>
<path d="M7.11878 13.1242L15.18 13.0996C16.0613 13.1127 16.1464 14.2772 15.2895 14.387C12.7698 14.1328 9.64179 14.7052 7.19727 14.387C6.40913 14.2837 6.44674 13.28 7.11878 13.1242Z" fill="white"/>
<path d="M17.2254 6.73075C17.6489 7.15717 17.2958 7.80663 16.6679 7.88043C14.9297 8.08379 12.8122 7.72626 11.0316 7.87551C10.3432 7.65738 10.2271 6.70123 11.0234 6.59299C12.8531 6.72091 14.8627 6.44211 16.6695 6.59299C16.8346 6.60611 17.1077 6.61103 17.2238 6.72911L17.2254 6.73075Z" fill="white"/>
<path d="M0.159869 20.7509C-0.196591 20.3704 0.0830175 19.775 0.604625 19.7062C2.20869 19.4962 4.26896 19.8718 5.92535 19.7144C6.20169 19.7603 6.35703 20.0407 6.39791 20.2982C6.32105 20.7296 6.03163 20.9444 5.60977 20.9936C4.57473 21.1133 1.86041 21.11 0.820464 20.9936C0.655316 20.9756 0.261247 20.8591 0.159869 20.7509Z" fill="white"/>
<path d="M10.5205 39.3481L15.4946 39.3301C16.2173 39.5482 16.111 40.4863 15.385 40.5995C14.6492 40.7159 11.4558 40.7159 10.72 40.5995C9.98419 40.483 9.93678 39.6892 10.5205 39.3481Z" fill="white"/>
<path d="M13.3947 20.7507C13.2934 20.8589 12.8993 20.9754 12.7342 20.9934C12.2142 21.0508 9.7435 21.0836 9.4786 20.7343C9.31346 20.5178 9.31835 19.9766 9.53092 19.8077C9.59633 19.7486 9.67318 19.7306 9.75657 19.7142C10.149 19.6387 12.6524 19.6404 13.0481 19.7142C13.4978 19.7995 13.7054 20.4178 13.3947 20.7507Z" fill="white"/>
<path d="M32.2248 9.08239C43.5187 8.88559 50.6985 21.2778 44.8791 31.0476C38.919 41.0535 23.9412 40.1252 19.2876 29.4534C15.154 19.9756 21.9055 9.26116 32.2248 9.08239ZM32.2264 10.3584C22.2112 10.5388 16.0795 21.5845 21.132 30.2685C26.1012 38.8115 38.538 38.9477 43.71 30.5129C49.1664 21.614 42.5834 10.1714 32.2264 10.3584Z" fill="white"/>
<path d="M32.9641 16.1124C33.3206 16.4683 32.9298 20.3454 33.144 21.1031C33.9681 21.377 34.7317 22.0231 34.9149 22.8989C35.0473 23.017 37.9317 22.835 38.4598 22.917C38.8196 22.9727 39.0959 23.2384 39.1498 23.6041C39.1057 23.8698 38.9569 24.1339 38.6773 24.188C37.6733 24.3815 36.1461 24.0338 35.0816 24.2077C34.9083 24.2684 34.5862 25.072 34.3736 25.3098C33.1227 26.6956 30.7256 26.2282 30.1157 24.4619C29.581 22.917 30.4313 21.6853 31.8081 21.0309L31.8702 16.4027C31.9602 15.9369 32.6943 15.8418 32.9674 16.114L32.9641 16.1124ZM32.5128 22.3265C30.8123 22.2954 30.8466 24.8506 32.5128 24.8375C34.179 24.8243 34.1365 22.3561 32.5128 22.3265Z" fill="white"/>
<path d="M27.3224 31.6712C27.8374 31.5924 28.1988 32.0402 28.0762 32.5305C28.0467 32.6453 27.1278 34.205 27.0428 34.2723C26.5391 34.6741 25.8589 34.31 25.9914 33.6507C26.0584 33.3128 26.9806 31.7236 27.3224 31.6712Z" fill="white"/>
<path d="M27.1116 12.9179C27.2048 13.0113 28.0861 14.6399 28.0976 14.7662C28.1581 15.4042 27.4451 15.6879 26.9742 15.2418C26.8679 15.1401 26.0144 13.6821 25.9882 13.5575C25.8329 12.8227 26.5965 12.4062 27.1116 12.9179Z" fill="white"/>
<path d="M42.4227 22.9344C42.7301 22.8638 44.1936 22.8655 44.4797 22.959C44.9474 23.1098 45.07 23.8331 44.6399 24.0906C44.4078 24.23 42.6156 24.2546 42.3164 24.1677C41.749 24.0037 41.7932 23.0787 42.4227 22.9344Z" fill="white"/>
<path d="M43.1675 29.0167C43.5256 29.4546 43.2312 30.232 42.6393 30.1418C42.4235 30.109 41.0614 29.3168 40.8668 29.1397C40.2487 28.5804 40.6559 27.8867 41.4391 28.031C41.5438 28.0507 43.1053 28.9396 43.1691 29.0167H43.1675Z" fill="white"/>
<path d="M32.5113 11.123C32.6503 11.123 32.9168 11.2247 33.0002 11.333C33.1327 11.5052 33.1556 13.5142 33.0754 13.7734C32.9037 14.3392 31.9014 14.2539 31.8147 13.2666C31.7591 12.6385 31.6316 11.123 32.5113 11.123Z" fill="white"/>
<path d="M38.2779 12.6934C38.7079 12.6278 39.1053 13.1263 39.0072 13.5281C38.9696 13.6807 38.1078 15.178 37.995 15.2928C37.6925 15.6044 37.0663 15.4601 36.9469 15.0501C36.8112 14.586 37.8315 12.7606 38.2795 12.6917L38.2779 12.6934Z" fill="white"/>
<path d="M24.2449 28.1583C24.4755 28.3895 24.4313 28.9176 24.1599 29.1423C24.0144 29.262 22.5002 30.1231 22.3841 30.1411C21.7971 30.2297 21.3573 29.4342 21.9345 28.9357C22.3122 28.6093 23.8231 27.7351 24.2466 28.1583H24.2449Z" fill="white"/>
<path d="M37.4262 31.6696C37.969 31.586 38.7277 32.9833 38.9141 33.4409C39.1447 34.0067 38.9223 34.5381 38.2568 34.4249C37.817 34.3495 36.1426 31.8681 37.4245 31.6696H37.4262Z" fill="white"/>
<path d="M32.3234 33.0583C32.6766 32.9845 33.0232 33.1485 33.0935 33.5208C33.1475 33.8111 33.1475 35.2511 33.0935 35.5413C32.966 36.2318 31.9293 36.2794 31.8198 35.2232C31.7625 34.6721 31.6595 33.1961 32.3234 33.0567V33.0583Z" fill="white"/>
<path d="M22.1166 17.0647C22.563 16.9728 24.3044 17.9486 24.378 18.3833C24.4613 18.8769 24.0787 19.2574 23.6045 19.1623C23.4884 19.1393 22.1182 18.3373 21.9825 18.2209C21.5394 17.8388 21.5083 17.1909 22.1166 17.0663V17.0647Z" fill="white"/>
<path d="M42.5331 17.0671C43.1528 16.9441 43.5224 17.5378 43.2052 18.0676C43.1152 18.2185 41.6142 19.0713 41.3918 19.1336C40.8048 19.296 40.3469 18.6104 40.7083 18.1233C40.8162 17.979 42.3353 17.1081 42.5331 17.0688V17.0671Z" fill="white"/>
<path d="M20.6231 22.9344C20.9436 22.8638 22.273 22.8655 22.5739 22.959C23.2279 23.164 23.2459 24.066 22.5085 24.1841C22.1128 24.2464 20.2749 24.3022 20.1408 23.9069C20.0378 23.4543 20.1326 23.0426 20.6248 22.9344H20.6231Z" fill="white"/>
</svg>
