<svg width="37" height="36" viewBox="0 0 37 36" fill="none" xmlns="http://www.w3.org/2000/svg">
<g clip-path="url(#clip0_4730_5519)">
<path d="M1.46753 25.5541C1.5308 25.8608 2.00763 26.2637 2.35175 26.2682L10.7434 26.2727C11.7773 26.4095 11.7125 27.5912 10.8283 27.6935C8.06293 27.495 4.91955 27.9536 2.19898 27.6905C0.919715 27.5672 0.0339492 26.4772 0 25.2549L0.00462944 2.29125C0.117279 1.16667 0.841014 0.269117 1.98603 0.0180413L32.0126 0C33.2687 0.205972 34.0356 1.14563 34.1328 2.36191V18.9494C41.3054 26.602 33.9878 38.5002 23.5762 35.5369C21.3124 34.892 18.2431 33.8907 16.0827 33.0051C12.9454 31.7197 14.0411 27.4018 17.4422 27.7777C18.0872 27.8483 18.7569 28.1971 19.4143 28.1836L10.3221 19.3298C8.01355 17.1378 10.9424 13.5325 13.6136 15.2224C14.8975 16.0342 16.2046 18.0834 17.4499 18.9148C17.5147 18.9584 17.5255 19.0201 17.6428 18.9885C17.9082 17.8775 19.1211 17.1709 20.263 17.1874C20.1689 15.4449 21.7985 14.2376 23.5175 14.5789C23.7552 14.627 23.9419 14.7939 24.1888 14.7834C24.6672 13.0274 26.9094 12.3117 28.3877 13.4363L32.6653 17.5617V6.45429H1.46753V25.5541ZM32.6668 5.02903V2.1394C32.6668 2.01011 32.2363 1.50194 32.0542 1.45985H2.07862C1.89653 1.50194 1.46599 2.01011 1.46599 2.1394V5.02903H32.6653H32.6668ZM26.4063 14.3519C25.5792 14.5188 25.2798 15.5577 25.7705 16.2132C26.4912 17.1754 28.113 18.1842 28.7719 19.1434C29.3275 19.9522 28.5081 20.6844 27.7751 20.1898C26.4001 19.0426 25.1533 17.3783 23.7706 16.2853C22.4636 15.2525 21.0223 16.6958 21.996 17.9391C23.0453 19.2787 24.9141 20.5371 26.0421 21.8766C26.5004 22.4976 25.7551 23.3019 25.0761 22.893C23.7814 21.7624 22.6117 20.307 21.3062 19.211C20.9914 18.9479 20.655 18.6412 20.2245 18.6112C19.0224 18.527 18.4776 19.9688 19.3418 20.7491L23.1518 24.4671C23.4342 25.2158 22.6842 25.8051 22.033 25.3316L12.9408 16.4778C11.7649 15.6584 10.3267 16.998 11.211 18.1631L22.5407 29.2646C22.7043 29.7592 22.388 30.2493 21.8448 30.2508C20.3911 30.0328 18.865 29.4314 17.4298 29.2165C16.3188 29.0496 15.3558 29.7066 15.7416 30.8612C15.9731 31.5558 16.5425 31.6445 17.1644 31.8761C19.2415 32.6518 21.783 33.5659 23.9018 34.1673C32.8397 36.7051 39.2839 26.7433 33.1313 19.9973C31.4508 18.1556 29.3738 16.5003 27.6609 14.6706C27.3214 14.3594 26.8631 14.2587 26.4063 14.3504V14.3519Z" fill="white"/>
<path d="M5.91547 10.8224C6.18706 10.7728 6.37532 10.8856 6.58828 11.0344C6.98024 11.3065 8.96472 13.2415 9.24557 13.6233C9.71932 14.2698 9.33353 15.0245 8.5311 14.8456C8.01415 14.7314 6.07904 12.383 5.47104 11.9725C5.14698 11.5531 5.38771 10.9201 5.91547 10.8224Z" fill="white"/>
<path d="M11.6911 10.5973C12.1108 10.5056 12.563 10.7161 12.6324 11.1491C12.6818 11.4573 12.6802 12.6315 12.6185 12.9292C12.4503 13.744 11.2852 13.6764 11.1726 12.7217C11.1109 12.1955 11.0229 10.7447 11.6895 10.5988L11.6911 10.5973Z" fill="white"/>
<path d="M5.27019 17.7597C4.99706 17.4936 5.00477 16.9328 5.32266 16.6998C5.71925 16.4096 7.51547 16.3931 7.86577 16.7704C8.19754 17.1268 8.071 17.8138 7.5772 17.9206C7.28091 17.9852 5.99547 17.9792 5.66524 17.9401C5.52018 17.9236 5.37359 17.8604 5.27174 17.7597H5.27019Z" fill="white"/>
<path d="M14.0758 27.5182C13.3706 28.1451 12.383 27.0822 13.0573 26.4899C13.8305 25.8088 14.6962 26.9664 14.0758 27.5182Z" fill="white"/>
<path d="M14.2798 2.72668C14.3416 2.66053 14.4604 2.61693 14.5437 2.57333L29.9335 2.55078C30.6927 2.63648 30.6727 3.51599 30.1233 3.86479L14.7551 3.90539C14.161 3.86329 13.8848 3.14915 14.2814 2.72668H14.2798Z" fill="white"/>
<path d="M6.68344 2.56834C7.72815 2.26916 8.06456 3.62226 7.24978 3.86882C6.17421 4.19507 5.97668 2.76981 6.68344 2.56834Z" fill="white"/>
<path d="M9.12196 3.72744C8.40903 3.03285 9.56022 2.06613 10.1744 2.73968C10.7886 3.41322 9.77008 4.36039 9.12196 3.72744Z" fill="white"/>
<path d="M4.06436 2.56752C5.15382 2.32547 5.27418 3.60039 4.68316 3.84545C3.63382 4.28145 3.23106 2.75244 4.06436 2.56752Z" fill="white"/>
</g>
<defs>
<clipPath id="clip0_4730_5519">
<rect width="37" height="36" fill="white"/>
</clipPath>
</defs>
</svg>
