<svg width="42" height="40" viewBox="0 0 42 40" fill="none" xmlns="http://www.w3.org/2000/svg">
<path d="M37.3629 24.8329C37.2272 24.8263 37.0882 24.8198 36.9525 24.7853C36.0352 24.5459 35.3141 23.944 35.0247 23.1748C34.9396 22.9452 34.9102 22.7123 34.884 22.486C34.8333 22.071 34.7892 21.7135 34.3919 21.5266L12.2668 21.502C11.7976 21.6397 11.7779 21.9431 11.7518 22.3285C11.742 22.4745 11.7305 22.627 11.6946 22.7763C11.5049 23.5356 10.9309 24.2556 10.2654 24.5688C9.99238 24.6968 9.71604 24.7312 9.44788 24.7656C9.05545 24.8165 8.71533 24.8591 8.49785 25.197L8.4668 32.5296C8.65157 32.9282 9.00966 32.9725 9.42335 33.0217C9.649 33.0495 9.8812 33.0774 10.1101 33.1643C10.877 33.4546 11.4771 34.1779 11.7158 35.0963C11.7501 35.2324 11.7567 35.3735 11.7632 35.5096C11.7779 35.8458 11.7894 36.1131 12.19 36.2657L34.2332 36.3067C34.7679 36.1886 34.8203 35.7901 34.8873 35.2849C34.9233 35.011 34.9609 34.7257 35.0852 34.4616C35.3304 33.9368 35.9403 33.3661 36.475 33.1643C36.7023 33.0774 36.9361 33.0495 37.1601 33.0217C37.5738 32.9725 37.9319 32.9282 38.1183 32.5296V25.2609C37.9663 24.8591 37.6997 24.8477 37.3629 24.8329ZM36.6549 31.5571L36.5911 31.5702C34.9969 31.8933 33.7574 33.1365 33.4353 34.7339L33.4222 34.7995H33.3552L13.2201 34.8175L13.2038 34.7568C12.7361 33.0479 11.567 31.8867 9.99401 31.5702L9.9286 31.5571V26.2351L9.99401 26.222C11.5883 25.8989 12.8261 24.6574 13.1482 23.0584L13.1629 22.9928H33.4222L33.4353 23.0584C33.7509 24.6344 34.9086 25.8087 36.6124 26.2778L36.6729 26.2942L36.6549 31.5571Z" fill="white"/>
<path d="M24.8837 14.7313C24.8837 15.0708 24.6629 15.4365 24.1773 15.4857H10.7839C10.3146 15.4464 10.1086 15.1052 10.0759 14.8264C10.0383 14.5197 10.1887 14.1491 10.6073 14.0031L24.1691 13.9785C24.6629 14.0261 24.8837 14.3918 24.8837 14.7313Z" fill="white"/>
<path d="M24.8835 11.3993C24.8835 11.7388 24.6627 12.1045 24.1771 12.1537H13.2757C12.8064 12.1143 12.6003 11.7732 12.5676 11.4944C12.5317 11.1877 12.6821 10.817 13.0991 10.6711L24.1689 10.6465C24.6627 10.694 24.8835 11.0598 24.8835 11.3993Z" fill="white"/>
<path d="M8.26249 14.7553C8.25268 15.0455 8.0859 15.4096 7.64441 15.4785C7.12444 15.5605 4.42483 15.5671 3.96536 15.4638C3.57129 15.3752 3.43066 15.0144 3.43066 14.7323C3.43066 14.5913 3.46663 14.4305 3.55003 14.2944C3.63505 14.1583 3.7675 14.0451 3.96536 14.0025C4.16648 13.9566 5.00694 13.9336 5.84576 13.9336C6.68458 13.9336 7.52504 13.9566 7.72617 14.0025C8.11042 14.0878 8.27231 14.442 8.26249 14.7553Z" fill="white"/>
<path d="M25.6735 30.1523C25.8484 31.0478 25.4805 31.9317 24.6907 32.5205C24.6172 32.5763 24.434 32.6534 24.2999 32.7091C24.1266 32.7813 24.0939 32.7961 24.0726 32.8305C24.0334 32.8945 24.0302 32.9879 24.0285 33.0978C24.0269 33.1847 24.0236 33.2831 24.0007 33.352C23.8912 33.6669 23.5903 33.7998 23.345 33.8194C23.1096 33.8408 22.8005 33.7604 22.6485 33.4816C22.5781 33.352 22.5683 33.1979 22.5601 33.0732C22.5536 32.9699 22.5487 32.8879 22.5127 32.8305C22.4931 32.7977 22.4653 32.7846 22.2887 32.7075C22.1448 32.6435 21.9257 32.5468 21.8374 32.4762C21.2635 32.0269 20.7108 30.8624 20.9103 30.2425C20.997 29.9686 21.2242 29.821 21.584 29.8046C21.6052 29.8046 21.6249 29.803 21.6445 29.803C22.2021 29.803 22.2838 30.1621 22.3787 30.5738C22.4571 30.9133 22.5454 31.2987 22.9509 31.4283C23.569 31.6251 23.9991 31.3003 24.1495 30.8887C24.2999 30.4803 24.1986 29.9358 23.7129 29.7324C23.5282 29.6554 23.3597 29.6537 23.1962 29.6537C23.0818 29.6537 22.9755 29.6537 22.8708 29.6258C21.8472 29.3585 21.0967 28.5975 20.9103 27.6381C20.737 26.7459 21.1049 25.8619 21.893 25.2732C21.9666 25.2174 22.1497 25.1419 22.2838 25.0862C22.4571 25.0124 22.4915 24.9976 22.5127 24.9648C22.5732 24.8664 22.5929 24.7369 22.6125 24.6024C22.6632 24.2645 22.7089 23.9431 23.3385 23.9726C23.8993 23.9972 23.9386 24.2973 23.9811 24.6155C23.9974 24.7467 24.0138 24.8697 24.0726 24.9648C24.0923 24.996 24.1184 25.0091 24.295 25.0862C24.4389 25.1501 24.658 25.2469 24.748 25.3174C25.2303 25.6963 25.8598 26.7918 25.7061 27.4675C25.6456 27.7316 25.4658 27.8989 25.1731 27.9628C24.4422 28.1236 24.3326 27.7053 24.2084 27.2215C24.1217 26.8853 24.0318 26.5393 23.7146 26.4015C23.2878 26.2162 22.8365 26.3146 22.5651 26.6524C22.2985 26.9854 22.2936 27.4331 22.5536 27.7972C22.7907 28.1301 23.0769 28.1318 23.3516 28.135C23.4726 28.1367 23.5968 28.1367 23.7146 28.1678C24.7365 28.4352 25.487 29.1945 25.6735 30.1523Z" fill="white"/>
<path d="M16.8516 29.4227C16.6929 29.7934 16.3725 30.0181 15.9506 30.0591C15.1772 30.1345 14.7569 29.5999 14.685 29.0406C14.6147 28.501 14.8714 27.868 15.5958 27.7482C16.0536 27.6744 16.4428 27.8089 16.6929 28.1304C16.9676 28.4846 17.0314 29.0029 16.8516 29.4227Z" fill="white"/>
<path d="M31.8069 29.4227C31.6483 29.7918 31.3278 30.0181 30.9043 30.0591C30.1325 30.1345 29.7106 29.5999 29.6387 29.0406C29.57 28.501 29.8251 27.868 30.5495 27.7482C31.0073 27.6744 31.3981 27.8089 31.6483 28.1304C31.923 28.4846 31.9867 29.0029 31.8069 29.4227Z" fill="white"/>
<path d="M21.8287 7.77589C23.028 7.77589 24.0002 6.80077 24.0002 5.59791C24.0002 4.39504 23.028 3.41992 21.8287 3.41992C20.6294 3.41992 19.6572 4.39504 19.6572 5.59791C19.6572 6.80077 20.6294 7.77589 21.8287 7.77589Z" fill="white"/>
<path d="M40.3404 39.4895H6.15304C5.52351 39.4895 5.01172 38.9762 5.01172 38.3448V18.8889C5.01172 18.2575 5.52351 17.7441 6.15304 17.7441H40.3404C40.97 17.7441 41.4818 18.2575 41.4818 18.8889V38.3448C41.4818 38.9762 40.97 39.4895 40.3404 39.4895ZM6.31983 38.1775H40.1737V19.0562H6.31983V38.1775Z" fill="white"/>
<path d="M5.52022 36.3238H1.21164C0.544505 36.3238 0 35.7793 0 35.1085V10.8834C0 10.2109 0.25998 9.57624 0.729264 9.09735L8.92458 0.757702C9.39877 0.275528 10.0561 0 10.7314 0H26.9012C27.57 0 28.1129 0.544496 28.1129 1.21528V18.1816H26.8048V1.31204H10.7314C10.4044 1.31204 10.0855 1.44652 9.8566 1.67941L1.6613 10.0191C1.43402 10.2503 1.30811 10.5586 1.30811 10.8834V35.0118H5.52022V36.3238Z" fill="white"/>
<path d="M9.38592 10.7655H0.654297V9.45347H9.28945V0.65625H10.5976V9.55023C10.5976 10.2194 10.0547 10.7655 9.38592 10.7655Z" fill="white"/>
</svg>
