<?xml version="1.0" encoding="utf-8"?>
<!-- Generator: Adobe Illustrator 28.0.0, SVG Export Plug-In . SVG Version: 6.00 Build 0)  -->
<svg version="1.1" id="Capa_1" xmlns="http://www.w3.org/2000/svg" xmlns:xlink="http://www.w3.org/1999/xlink" x="0px" y="0px"
	 viewBox="0 0 308.6 208.82" style="enable-background:new 0 0 308.6 208.82;" xml:space="preserve">
<style type="text/css">
	.st0{fill:#FFFFFF;}
	.st1{fill:#F08300;}
	.st2{fill:#FFFFFF;stroke:#FFFFFF;stroke-width:0.75;stroke-miterlimit:10;}
</style>
<g>
	<g>
		<path class="st0" d="M36.11,78.95v41.31h72.46v-16.17H54.64V84.33C48.4,82.69,42.22,80.89,36.11,78.95"/>
		<path class="st0" d="M118.82,95.51v24.74h18.53V96.75C131.13,96.49,124.96,96.06,118.82,95.51"/>
		<path class="st0" d="M178.64,96.3l-10.5,23.96h19.29l10.8-25.68C191.75,95.31,185.22,95.89,178.64,96.3"/>
		<path class="st0" d="M238.31,87.87l13.45,32.39h19.93l-15.87-36.68C250.04,85.14,244.2,86.57,238.31,87.87"/>
		<path class="st1" d="M153.86,75.58c-51.62,0-100.73-10.76-145.21-30.16c-0.1-0.04-0.21-0.09-0.31-0.14v15.57
			c44.77,18.78,93.93,29.16,145.52,29.16c51.62,0,100.8-10.39,145.59-29.2V45.25C254.88,64.76,205.64,75.58,153.86,75.58"/>
		<path class="st0" d="M54.64,54.57V39.28h52.41V23.21H36.11v25.52C42.21,50.84,48.39,52.79,54.64,54.57"/>
		<path class="st0" d="M191.92,23.26h-73.1v43.55c6.13,0.59,12.31,1.03,18.53,1.31V39.34h48.21L191.92,23.26z"/>
		<path class="st0" d="M244.46,57.05l-14.62-33.78h-19.3l-18.98,43.31c6.53-0.68,13-1.56,19.42-2.58l8.74-20.8l0.07-0.13l0.05,0.13
			l7.42,17.85C233.05,59.85,238.78,58.52,244.46,57.05"/>
	</g>
	<g>
		<path class="st2" d="M27.21,155.66h-6.29v5.83h7.01v1.75h-9.1v-16.18h8.74v1.75h-6.65v5.11h6.29V155.66z"/>
		<path class="st2" d="M45.48,156.14c-0.12-2.26-0.26-4.97-0.24-6.98h-0.07c-0.55,1.9-1.22,3.91-2.04,6.14l-2.86,7.85h-1.58
			l-2.62-7.7c-0.77-2.28-1.42-4.37-1.87-6.29h-0.05c-0.05,2.02-0.17,4.73-0.31,7.15l-0.43,6.94h-1.99l1.13-16.18h2.66l2.76,7.82
			c0.67,1.99,1.22,3.77,1.63,5.45h0.07c0.41-1.63,0.98-3.41,1.7-5.45l2.88-7.82h2.66l1.01,16.18h-2.04L45.48,156.14z"/>
		<path class="st2" d="M52.34,147.26c1.01-0.17,2.33-0.31,4.01-0.31c2.06,0,3.58,0.48,4.54,1.34c0.89,0.77,1.42,1.94,1.42,3.38
			c0,1.46-0.43,2.62-1.25,3.46c-1.1,1.18-2.9,1.78-4.94,1.78c-0.62,0-1.2-0.02-1.68-0.14v6.48h-2.09V147.26z M54.43,155.06
			c0.46,0.12,1.03,0.17,1.73,0.17c2.52,0,4.06-1.22,4.06-3.46c0-2.14-1.51-3.17-3.82-3.17c-0.91,0-1.61,0.07-1.97,0.17V155.06z"/>
		<path class="st2" d="M66.31,147.28c1.06-0.22,2.57-0.34,4.01-0.34c2.23,0,3.67,0.41,4.68,1.32c0.82,0.72,1.27,1.82,1.27,3.07
			c0,2.14-1.34,3.55-3.05,4.13v0.07c1.25,0.43,1.99,1.58,2.38,3.26c0.53,2.26,0.91,3.82,1.25,4.44h-2.16
			c-0.26-0.46-0.62-1.85-1.08-3.86c-0.48-2.23-1.34-3.07-3.24-3.14H68.4v7.01h-2.09V147.28z M68.4,154.65h2.14
			c2.23,0,3.65-1.22,3.65-3.07c0-2.09-1.51-3-3.72-3.02c-1.01,0-1.73,0.1-2.06,0.19V154.65z"/>
		<path class="st2" d="M88.8,155.66h-6.29v5.83h7.01v1.75h-9.1v-16.18h8.74v1.75h-6.65v5.11h6.29V155.66z"/>
		<path class="st2" d="M93.14,160.7c0.94,0.58,2.3,1.06,3.74,1.06c2.14,0,3.38-1.13,3.38-2.76c0-1.51-0.86-2.38-3.05-3.22
			c-2.64-0.94-4.27-2.3-4.27-4.58c0-2.52,2.09-4.39,5.23-4.39c1.66,0,2.86,0.38,3.58,0.79l-0.58,1.7c-0.53-0.29-1.61-0.77-3.07-0.77
			c-2.21,0-3.05,1.32-3.05,2.42c0,1.51,0.98,2.26,3.22,3.12c2.74,1.06,4.13,2.38,4.13,4.75c0,2.5-1.85,4.66-5.66,4.66
			c-1.56,0-3.26-0.46-4.13-1.03L93.14,160.7z"/>
		<path class="st2" d="M109.08,158.15l-1.68,5.09h-2.16l5.5-16.18h2.52l5.52,16.18h-2.23l-1.73-5.09H109.08z M114.38,156.52
			l-1.58-4.66c-0.36-1.06-0.6-2.02-0.84-2.95h-0.05c-0.24,0.96-0.5,1.94-0.82,2.93l-1.58,4.68H114.38z"/>
		<path class="st2" d="M122.06,160.7c0.94,0.58,2.3,1.06,3.74,1.06c2.14,0,3.38-1.13,3.38-2.76c0-1.51-0.86-2.38-3.05-3.22
			c-2.64-0.94-4.27-2.3-4.27-4.58c0-2.52,2.09-4.39,5.23-4.39c1.66,0,2.86,0.38,3.58,0.79l-0.58,1.7c-0.53-0.29-1.61-0.77-3.07-0.77
			c-2.21,0-3.05,1.32-3.05,2.42c0,1.51,0.98,2.26,3.22,3.12c2.74,1.06,4.13,2.38,4.13,4.75c0,2.5-1.85,4.66-5.66,4.66
			c-1.56,0-3.26-0.46-4.13-1.03L122.06,160.7z"/>
		<path class="st2" d="M141.67,147.28c1.27-0.19,2.78-0.34,4.44-0.34c3,0,5.14,0.7,6.55,2.02c1.44,1.32,2.28,3.19,2.28,5.81
			c0,2.64-0.82,4.8-2.33,6.29c-1.51,1.51-4.01,2.33-7.15,2.33c-1.49,0-2.74-0.07-3.79-0.19V147.28z M143.76,161.59
			c0.53,0.1,1.3,0.12,2.11,0.12c4.46,0,6.89-2.5,6.89-6.86c0.02-3.82-2.14-6.24-6.55-6.24c-1.08,0-1.9,0.1-2.45,0.22V161.59z"/>
		<path class="st2" d="M167.23,155.66h-6.29v5.83h7.01v1.75h-9.1v-16.18h8.74v1.75h-6.65v5.11h6.29V155.66z"/>
		<path class="st2" d="M177.86,160.7c0.94,0.58,2.3,1.06,3.74,1.06c2.14,0,3.38-1.13,3.38-2.76c0-1.51-0.86-2.38-3.05-3.22
			c-2.64-0.94-4.27-2.3-4.27-4.58c0-2.52,2.09-4.39,5.23-4.39c1.66,0,2.86,0.38,3.58,0.79l-0.58,1.7c-0.53-0.29-1.61-0.77-3.07-0.77
			c-2.21,0-3.05,1.32-3.05,2.42c0,1.51,0.98,2.26,3.22,3.12c2.74,1.06,4.13,2.38,4.13,4.75c0,2.5-1.85,4.66-5.66,4.66
			c-1.56,0-3.26-0.46-4.13-1.03L177.86,160.7z"/>
		<path class="st2" d="M199.56,155.66h-6.29v5.83h7.01v1.75h-9.1v-16.18h8.74v1.75h-6.65v5.11h6.29V155.66z"/>
		<path class="st2" d="M204.19,147.28c1.06-0.22,2.57-0.34,4.01-0.34c2.23,0,3.67,0.41,4.68,1.32c0.82,0.72,1.27,1.82,1.27,3.07
			c0,2.14-1.34,3.55-3.05,4.13v0.07c1.25,0.43,1.99,1.58,2.38,3.26c0.53,2.26,0.91,3.82,1.25,4.44h-2.16
			c-0.26-0.46-0.62-1.85-1.08-3.86c-0.48-2.23-1.34-3.07-3.24-3.14h-1.97v7.01h-2.09V147.28z M206.28,154.65h2.14
			c2.23,0,3.65-1.22,3.65-3.07c0-2.09-1.51-3-3.72-3.02c-1.01,0-1.73,0.1-2.06,0.19V154.65z"/>
		<path class="st2" d="M222.24,163.24l-5.28-16.18h2.26l2.52,7.97c0.7,2.18,1.3,4.15,1.73,6.05h0.05c0.46-1.87,1.13-3.91,1.85-6.02
			l2.74-7.99h2.23l-5.78,16.18H222.24z"/>
		<path class="st2" d="M235.36,147.07v16.18h-2.09v-16.18H235.36z"/>
		<path class="st2" d="M251.52,162.71c-0.77,0.38-2.3,0.77-4.27,0.77c-4.56,0-7.99-2.88-7.99-8.19c0-5.06,3.43-8.5,8.45-8.5
			c2.02,0,3.29,0.43,3.84,0.72l-0.5,1.7c-0.79-0.38-1.92-0.67-3.26-0.67c-3.79,0-6.31,2.42-6.31,6.67c0,3.96,2.28,6.5,6.22,6.5
			c1.27,0,2.57-0.26,3.41-0.67L251.52,162.71z"/>
		<path class="st2" d="M257.42,147.07v16.18h-2.09v-16.18H257.42z"/>
		<path class="st2" d="M276.09,154.99c0,5.57-3.38,8.52-7.51,8.52c-4.27,0-7.27-3.31-7.27-8.21c0-5.14,3.19-8.5,7.51-8.5
			C273.24,146.8,276.09,150.19,276.09,154.99z M263.54,155.25c0,3.46,1.87,6.55,5.16,6.55c3.31,0,5.18-3.05,5.18-6.72
			c0-3.22-1.68-6.58-5.16-6.58C265.27,148.51,263.54,151.7,263.54,155.25z"/>
		<path class="st2" d="M279.71,160.7c0.94,0.58,2.3,1.06,3.74,1.06c2.14,0,3.38-1.13,3.38-2.76c0-1.51-0.86-2.38-3.05-3.22
			c-2.64-0.94-4.27-2.3-4.27-4.58c0-2.52,2.09-4.39,5.23-4.39c1.66,0,2.86,0.38,3.58,0.79l-0.58,1.7c-0.53-0.29-1.61-0.77-3.07-0.77
			c-2.21,0-3.05,1.32-3.05,2.42c0,1.51,0.98,2.26,3.22,3.12c2.74,1.06,4.13,2.38,4.13,4.75c0,2.5-1.85,4.66-5.66,4.66
			c-1.56,0-3.26-0.46-4.13-1.03L279.71,160.7z"/>
		<path class="st2" d="M64.96,175.87h8.71v1.75h-6.62v5.38h6.12v1.73h-6.12v7.32h-2.09V175.87z"/>
		<path class="st2" d="M79.94,175.87v16.18h-2.09v-16.18H79.94z"/>
		<path class="st2" d="M84.79,192.04v-16.18h2.28l5.18,8.19c1.2,1.9,2.14,3.6,2.9,5.26l0.05-0.02c-0.19-2.16-0.24-4.13-0.24-6.65
			v-6.77h1.97v16.18h-2.11l-5.14-8.21c-1.13-1.8-2.21-3.65-3.02-5.4l-0.07,0.02c0.12,2.04,0.17,3.98,0.17,6.67v6.91H84.79z"/>
		<path class="st2" d="M104.4,186.95l-1.68,5.09h-2.16l5.5-16.18h2.52l5.52,16.18h-2.23l-1.73-5.09H104.4z M109.7,185.32l-1.58-4.66
			c-0.36-1.06-0.6-2.02-0.84-2.95h-0.05c-0.24,0.96-0.5,1.94-0.82,2.93l-1.58,4.68H109.7z"/>
		<path class="st2" d="M117.67,192.04v-16.18h2.28l5.18,8.19c1.2,1.9,2.14,3.6,2.9,5.26l0.05-0.02c-0.19-2.16-0.24-4.13-0.24-6.65
			v-6.77h1.97v16.18h-2.11l-5.14-8.21c-1.13-1.8-2.21-3.65-3.02-5.4l-0.07,0.02c0.12,2.04,0.17,3.98,0.17,6.67v6.91H117.67z"/>
		<path class="st2" d="M145.96,191.52c-0.77,0.38-2.3,0.77-4.27,0.77c-4.56,0-7.99-2.88-7.99-8.18c0-5.06,3.43-8.5,8.45-8.5
			c2.02,0,3.29,0.43,3.84,0.72l-0.5,1.7c-0.79-0.38-1.92-0.67-3.26-0.67c-3.79,0-6.31,2.42-6.31,6.67c0,3.96,2.28,6.5,6.22,6.5
			c1.27,0,2.57-0.26,3.41-0.67L145.96,191.52z"/>
		<path class="st2" d="M151.87,175.87v16.18h-2.09v-16.18H151.87z"/>
		<path class="st2" d="M165.09,184.46h-6.29v5.83h7.01v1.75h-9.1v-16.18h8.74v1.75h-6.65v5.11h6.29V184.46z"/>
		<path class="st2" d="M169.72,176.08c1.06-0.22,2.57-0.34,4.01-0.34c2.23,0,3.67,0.41,4.68,1.32c0.82,0.72,1.27,1.82,1.27,3.07
			c0,2.14-1.34,3.55-3.05,4.13v0.07c1.25,0.43,1.99,1.58,2.38,3.26c0.53,2.26,0.91,3.82,1.25,4.44h-2.16
			c-0.26-0.46-0.62-1.85-1.08-3.86c-0.48-2.23-1.34-3.07-3.24-3.14h-1.97v7.01h-2.09V176.08z M171.81,183.45h2.14
			c2.23,0,3.65-1.22,3.65-3.07c0-2.09-1.51-3-3.72-3.02c-1.01,0-1.73,0.1-2.06,0.19V183.45z"/>
		<path class="st2" d="M197.73,183.79c0,5.57-3.38,8.52-7.51,8.52c-4.27,0-7.27-3.31-7.27-8.21c0-5.14,3.19-8.5,7.51-8.5
			C194.88,175.6,197.73,178.99,197.73,183.79z M185.18,184.05c0,3.46,1.87,6.55,5.16,6.55c3.31,0,5.18-3.05,5.18-6.72
			c0-3.22-1.68-6.58-5.16-6.58C186.91,177.31,185.18,180.5,185.18,184.05z"/>
		<path class="st2" d="M201.36,189.5c0.94,0.58,2.3,1.06,3.74,1.06c2.14,0,3.38-1.13,3.38-2.76c0-1.51-0.86-2.38-3.05-3.22
			c-2.64-0.94-4.27-2.3-4.27-4.58c0-2.52,2.09-4.39,5.23-4.39c1.66,0,2.86,0.38,3.58,0.79l-0.58,1.7c-0.53-0.29-1.61-0.77-3.07-0.77
			c-2.21,0-3.05,1.32-3.05,2.42c0,1.51,0.98,2.26,3.22,3.12c2.74,1.06,4.13,2.38,4.13,4.75c0,2.5-1.85,4.66-5.67,4.66
			c-1.56,0-3.26-0.46-4.13-1.03L201.36,189.5z"/>
		<path class="st2" d="M223.58,186.95l-1.68,5.09h-2.16l5.5-16.18h2.52l5.52,16.18h-2.23l-1.73-5.09H223.58z M228.88,185.32
			l-1.58-4.66c-0.36-1.06-0.6-2.02-0.84-2.95h-0.05c-0.24,0.96-0.5,1.94-0.82,2.93l-1.58,4.68H228.88z"/>
		<path class="st2" d="M248.8,191.32c-0.94,0.34-2.78,0.89-4.97,0.89c-2.45,0-4.46-0.62-6.05-2.14c-1.39-1.34-2.26-3.5-2.26-6.02
			c0.02-4.82,3.34-8.35,8.76-8.35c1.87,0,3.34,0.41,4.03,0.74l-0.5,1.7c-0.86-0.38-1.94-0.7-3.58-0.7c-3.94,0-6.5,2.45-6.5,6.5
			c0,4.1,2.47,6.53,6.24,6.53c1.37,0,2.3-0.19,2.78-0.43v-4.82h-3.29v-1.68h5.33V191.32z"/>
	</g>
</g>
</svg>
