<svg width="444" height="149" viewBox="0 0 444 149" fill="none" xmlns="http://www.w3.org/2000/svg">
<g clip-path="url(#clip0_4883_838)">
<path d="M114.535 98.7602V105.535H125.509V111.831H114.535V119.179H126.949V125.715H106.339V92.2246H126.949V98.7602H114.535Z" fill="white"/>
<path d="M173.17 101.816C175.136 103.82 176.119 106.603 176.119 110.164V125.717H167.971V111.263C167.971 109.545 167.516 108.218 166.604 107.28C165.695 106.343 164.438 105.872 162.842 105.872C161.246 105.872 159.99 106.341 159.08 107.28C158.171 108.218 157.714 109.545 157.714 111.263V125.717H149.566V111.263C149.566 109.545 149.111 108.218 148.199 107.28C147.29 106.343 146.034 105.872 144.438 105.872C142.841 105.872 141.585 106.341 140.676 107.28C139.766 108.218 139.309 109.545 139.309 111.263V125.717H131.113V99.0971H139.309V102.437C140.139 101.323 141.226 100.441 142.568 99.7887C143.91 99.1366 145.427 98.8105 147.121 98.8105C149.134 98.8105 150.931 99.2404 152.512 100.098C154.094 100.956 155.331 102.181 156.226 103.772C157.152 102.31 158.415 101.116 160.013 100.194C161.611 99.2716 163.351 98.8105 165.238 98.8105C168.561 98.8105 171.205 99.8116 173.17 101.816Z" fill="white"/>
<path d="M192.04 99.8591C193.446 99.097 195.09 98.7148 196.977 98.7148C199.182 98.7148 201.179 99.2714 202.967 100.385C204.755 101.498 206.17 103.089 207.209 105.155C208.248 107.223 208.767 109.624 208.767 112.359C208.767 115.094 208.248 117.503 207.209 119.586C206.17 121.669 204.757 123.277 202.967 124.405C201.177 125.534 199.18 126.099 196.977 126.099C195.124 126.099 193.486 125.717 192.063 124.955C190.64 124.193 189.53 123.206 188.731 121.998V138.408H180.535V99.097H188.731V102.866C189.53 101.626 190.632 100.623 192.038 99.8612L192.04 99.8591ZM198.725 107.564C197.59 106.403 196.192 105.824 194.531 105.824C192.87 105.824 191.518 106.411 190.385 107.589C189.25 108.766 188.685 110.372 188.685 112.407C188.685 114.442 189.252 116.05 190.385 117.225C191.518 118.403 192.902 118.99 194.531 118.99C196.161 118.99 197.55 118.394 198.7 117.202C199.85 116.01 200.426 114.397 200.426 112.359C200.426 110.322 199.858 108.727 198.723 107.564H198.725Z" fill="white"/>
<path d="M223.722 100.073C225.16 99.2302 226.758 98.8086 228.515 98.8086V107.444H226.262C224.217 107.444 222.683 107.882 221.661 108.756C220.639 109.631 220.127 111.165 220.127 113.361V125.717H211.932V99.0973H220.127V103.533C221.085 102.071 222.285 100.919 223.722 100.075V100.073Z" fill="white"/>
<path d="M256.236 114.361H237.687C237.814 116.014 238.35 117.279 239.293 118.154C240.236 119.028 241.394 119.466 242.767 119.466C244.812 119.466 246.233 118.608 247.032 116.891H255.756C255.307 118.639 254.502 120.214 253.335 121.613C252.169 123.013 250.706 124.11 248.95 124.905C247.193 125.701 245.227 126.097 243.055 126.097C240.435 126.097 238.102 125.541 236.057 124.427C234.012 123.314 232.414 121.726 231.265 119.657C230.115 117.591 229.539 115.173 229.539 112.405C229.539 109.637 230.107 107.221 231.24 105.153C232.373 103.087 233.962 101.496 236.009 100.383C238.054 99.2695 240.401 98.7129 243.055 98.7129C245.709 98.7129 247.944 99.2549 249.957 100.335C251.971 101.417 253.544 102.958 254.679 104.962C255.812 106.966 256.379 109.302 256.379 111.975C256.379 112.739 256.331 113.535 256.236 114.361ZM247.992 109.83C247.992 108.43 247.512 107.317 246.554 106.49C245.597 105.664 244.397 105.251 242.959 105.251C241.522 105.251 240.426 105.649 239.485 106.443C238.542 107.238 237.96 108.368 237.737 109.83H247.994H247.992Z" fill="white"/>
<path d="M283.253 101.838C285.123 103.859 286.058 106.634 286.058 110.164V125.717H277.91V111.263C277.91 109.481 277.447 108.098 276.52 107.111C275.594 106.125 274.346 105.633 272.781 105.633C271.216 105.633 269.969 106.127 269.042 107.111C268.116 108.098 267.653 109.481 267.653 111.263V125.717H259.457V99.0971H267.653V102.628C268.483 101.452 269.601 100.522 271.008 99.8365C272.414 99.1532 273.996 98.8105 275.752 98.8105C278.884 98.8105 281.384 99.8199 283.253 101.841V101.838Z" fill="white"/>
<path d="M290.52 105.155C291.557 103.089 292.971 101.498 294.761 100.385C296.55 99.2716 298.548 98.715 300.752 98.715C302.509 98.715 304.115 99.0805 305.569 99.8116C307.024 100.543 308.165 101.529 308.995 102.769V90.4121H317.191V125.715H308.995V121.898C308.228 123.171 307.134 124.189 305.711 124.951C304.288 125.715 302.636 126.095 300.75 126.095C298.544 126.095 296.547 125.53 294.759 124.401C292.969 123.273 291.557 121.665 290.518 119.582C289.479 117.499 288.959 115.09 288.959 112.355C288.959 109.62 289.479 107.219 290.518 105.151L290.52 105.155ZM307.295 107.587C306.16 106.412 304.779 105.822 303.149 105.822C301.52 105.822 300.136 106.403 299.003 107.562C297.868 108.723 297.303 110.322 297.303 112.357C297.303 114.393 297.87 116.006 299.003 117.2C300.136 118.392 301.52 118.988 303.149 118.988C304.779 118.988 306.16 118.401 307.295 117.223C308.428 116.048 308.995 114.44 308.995 112.405C308.995 110.37 308.428 108.765 307.295 107.587Z" fill="white"/>
<path d="M346.995 114.361H328.446C328.574 116.014 329.11 117.279 330.053 118.154C330.996 119.028 332.154 119.466 333.527 119.466C335.572 119.466 336.992 118.608 337.792 116.891H346.515C346.067 118.639 345.261 120.214 344.095 121.613C342.929 123.013 341.466 124.11 339.709 124.905C337.952 125.701 335.987 126.097 333.815 126.097C331.194 126.097 328.861 125.541 326.817 124.427C324.772 123.314 323.174 121.726 322.024 119.657C320.874 117.591 320.299 115.173 320.299 112.405C320.299 109.637 320.866 107.221 321.999 105.153C323.132 103.087 324.722 101.496 326.769 100.383C328.813 99.2695 331.161 98.7129 333.815 98.7129C336.469 98.7129 338.703 99.2549 340.717 100.335C342.73 101.417 344.303 102.958 345.439 104.962C346.571 106.966 347.139 109.302 347.139 111.975C347.139 112.739 347.091 113.535 346.995 114.361ZM338.751 109.83C338.751 108.43 338.271 107.317 337.314 106.49C336.356 105.664 335.156 105.251 333.719 105.251C332.281 105.251 331.186 105.649 330.245 106.443C329.302 107.238 328.72 108.368 328.496 109.83H338.753H338.751Z" fill="white"/>
<path d="M369.742 92.4648V95.9954H355.22V107.206H367.011V110.736H355.22V125.716H350.859V92.4648H369.744H369.742Z" fill="white"/>
<path d="M372.44 105.512C373.525 103.493 375.021 101.928 376.922 100.812C378.822 99.6991 380.94 99.1426 383.273 99.1426C385.606 99.1426 387.571 99.6368 389.263 100.621C390.957 101.608 392.218 102.848 393.05 104.343V99.5725H397.459V125.715H393.05V120.849C392.188 122.375 390.901 123.64 389.192 124.641C387.483 125.642 385.493 126.145 383.225 126.145C380.957 126.145 378.783 125.572 376.899 124.427C375.013 123.283 373.527 121.676 372.442 119.609C371.355 117.543 370.812 115.188 370.812 112.548C370.812 109.909 371.355 107.531 372.442 105.512H372.44ZM391.85 107.443C391.051 105.981 389.973 104.86 388.614 104.079C387.256 103.3 385.762 102.91 384.133 102.91C382.503 102.91 381.017 103.292 379.676 104.054C378.334 104.818 377.264 105.932 376.465 107.394C375.666 108.858 375.267 110.575 375.267 112.546C375.267 114.517 375.666 116.29 376.465 117.769C377.264 119.248 378.334 120.378 379.676 121.156C381.017 121.935 382.503 122.326 384.133 122.326C385.762 122.326 387.256 121.937 388.614 121.156C389.973 120.378 391.051 119.248 391.85 117.769C392.65 116.29 393.048 114.565 393.048 112.594C393.048 110.623 392.647 108.905 391.85 107.441V107.443Z" fill="white"/>
<path d="M403.45 105.512C404.537 103.493 406.045 101.928 407.98 100.812C409.912 99.6991 412.125 99.1426 414.619 99.1426C417.847 99.1426 420.507 99.9214 422.6 101.481C424.692 103.039 426.074 105.203 426.745 107.969H422.049C421.6 106.378 420.73 105.124 419.436 104.2C418.143 103.277 416.536 102.816 414.619 102.816C412.128 102.816 410.114 103.668 408.581 105.369C407.047 107.07 406.279 109.479 406.279 112.596C406.279 115.713 407.045 118.178 408.581 119.896C410.114 121.613 412.128 122.471 414.619 122.471C416.536 122.471 418.132 122.027 419.411 121.136C420.688 120.245 421.569 118.974 422.047 117.318H426.743C426.04 119.989 424.634 122.13 422.526 123.736C420.417 125.343 417.782 126.145 414.619 126.145C412.128 126.145 409.914 125.588 407.98 124.475C406.045 123.362 404.537 121.788 403.45 119.752C402.363 117.717 401.82 115.333 401.82 112.596C401.82 109.859 402.363 107.531 403.45 105.512Z" fill="white"/>
<path d="M435.893 103.152V118.562C435.893 119.835 436.164 120.732 436.709 121.257C437.251 121.783 438.194 122.044 439.536 122.044H442.747V125.718H438.816C436.387 125.718 434.566 125.161 433.351 124.048C432.137 122.935 431.53 121.108 431.53 118.562V103.152H428.127V99.5736H431.53V92.9902H435.891V99.5736H442.745V103.152H435.891H435.893Z" fill="white"/>
<path d="M359.876 141.733C359.67 142.319 359.367 142.904 358.939 143.425C357.89 144.692 356.317 145.292 354.727 145.292C353.041 145.292 351.468 144.611 350.514 143.425C349.561 142.271 349.162 140.863 349.162 139.359C349.162 137.793 349.575 136.4 350.514 135.276C351.516 134.026 353.074 133.426 354.727 133.426C356.379 133.426 357.921 134.043 358.939 135.276C359.448 135.91 359.782 136.622 359.989 137.301L357.763 137.681C357.635 137.284 357.477 136.906 357.222 136.589C356.65 135.829 355.697 135.434 354.727 135.434C353.742 135.434 352.788 135.829 352.231 136.589C351.643 137.332 351.468 138.36 351.453 139.357C351.47 140.354 351.643 141.367 352.231 142.125C352.788 142.885 353.742 143.28 354.727 143.263C355.697 143.28 356.65 142.883 357.222 142.125C357.445 141.824 357.619 141.477 357.731 141.112L359.876 141.729V141.733Z" fill="white"/>
<path d="M364.824 135.814V138.283H368.702V140.434H364.824V145.055H362.662V133.662H369.658V135.814H364.824Z" fill="white"/>
<path d="M382.249 141.733C382.043 142.319 381.74 142.904 381.31 143.425C380.261 144.692 378.688 145.292 377.098 145.292C375.412 145.292 373.839 144.611 372.885 143.425C371.932 142.271 371.533 140.863 371.533 139.359C371.533 137.793 371.946 136.4 372.885 135.276C373.887 134.026 375.445 133.426 377.098 133.426C378.75 133.426 380.292 134.043 381.31 135.276C381.82 135.91 382.153 136.622 382.36 137.301L380.134 137.681C380.006 137.284 379.848 136.906 379.593 136.589C379.022 135.829 378.068 135.434 377.098 135.434C376.113 135.434 375.159 135.829 374.602 136.589C374.014 137.332 373.839 138.36 373.824 139.357C373.841 140.354 374.014 141.367 374.602 142.125C375.159 142.885 376.113 143.28 377.098 143.263C378.068 143.28 379.022 142.883 379.593 142.125C379.817 141.824 379.99 141.477 380.102 141.112L382.247 141.729L382.249 141.733Z" fill="white"/>
<path d="M398.771 141.668C398.596 142.302 398.295 142.919 397.866 143.473C396.895 144.707 395.418 145.292 393.828 145.292C392.207 145.292 390.776 144.69 389.805 143.473C388.883 142.287 388.533 140.815 388.549 139.359C388.581 137.889 388.883 136.416 389.805 135.245C390.759 134.011 392.238 133.426 393.828 133.426C395.433 133.426 396.929 134.028 397.866 135.245C398.358 135.893 398.677 136.605 398.867 137.349L397.659 137.54C397.515 136.971 397.277 136.416 396.929 135.957C396.23 135.023 395.036 134.564 393.828 134.549C392.637 134.535 391.443 135.025 390.761 135.957C390.029 136.892 389.808 138.14 389.808 139.359C389.808 140.578 390.031 141.828 390.761 142.777C391.445 143.712 392.637 144.169 393.828 144.169C395.036 144.186 396.228 143.71 396.929 142.777C397.246 142.35 397.469 141.843 397.613 141.338L398.773 141.671L398.771 141.668Z" fill="white"/>
<path d="M393.826 145.441C392.119 145.441 390.65 144.774 389.686 143.566C388.825 142.457 388.38 141.003 388.399 139.358C388.437 137.58 388.858 136.206 389.686 135.155C390.621 133.944 392.092 133.277 393.826 133.277C395.56 133.277 397.064 133.963 397.982 135.155C398.458 135.78 398.802 136.507 399.011 137.313L399.05 137.47L397.544 137.707L397.511 137.574C397.363 136.984 397.118 136.457 396.805 136.046C396.175 135.205 395.088 134.712 393.824 134.696C392.624 134.665 391.497 135.196 390.88 136.044C390.264 136.829 389.956 137.942 389.956 139.358C389.956 140.774 390.266 141.89 390.878 142.685C391.489 143.522 392.591 144.018 393.828 144.018C393.847 144.018 393.868 144.018 393.886 144.018C395.092 144.018 396.179 143.522 396.808 142.685C397.087 142.307 397.317 141.825 397.467 141.294L397.509 141.15L398.957 141.566L398.917 141.707C398.731 142.38 398.416 143.005 397.984 143.562C397.033 144.772 395.556 145.439 393.828 145.439L393.826 145.441ZM393.826 133.574C392.186 133.574 390.801 134.199 389.922 135.335C389.133 136.336 388.733 137.653 388.697 139.362C388.681 140.939 389.104 142.328 389.922 143.381C390.84 144.533 392.19 145.142 393.826 145.142C395.462 145.142 396.851 144.517 397.746 143.379C398.124 142.893 398.406 142.351 398.585 141.769L397.713 141.52C397.552 142.035 397.329 142.486 397.047 142.864C396.353 143.792 395.138 144.334 393.826 144.315C392.497 144.315 391.305 143.771 390.638 142.862C389.987 142.016 389.655 140.835 389.655 139.356C389.655 137.877 389.987 136.698 390.64 135.863C391.322 134.93 392.505 134.38 393.828 134.397C395.186 134.415 396.359 134.949 397.045 135.865C397.362 136.28 397.605 136.787 397.767 137.369L398.677 137.225C398.477 136.521 398.164 135.884 397.744 135.333C396.883 134.214 395.455 133.572 393.826 133.572V133.574Z" fill="white"/>
<path d="M407.15 145.056V143.679C406.387 144.851 405.243 145.293 403.764 145.293C402.126 145.293 400.949 144.296 400.949 142.714C400.949 141.638 401.394 140.894 402.46 140.356C403.509 139.818 405.178 139.692 407.006 139.407C406.99 138.03 406.053 137.397 404.78 137.397C403.874 137.397 403.032 137.586 402.268 138.521L401.504 137.729C402.393 136.67 403.555 136.273 404.922 136.273C405.781 136.273 406.608 136.589 407.163 137.081C407.958 137.746 408.196 138.79 408.196 139.787V145.056H407.146H407.15ZM407.04 140.388C405.608 140.61 404.607 140.768 404.066 140.894C402.986 141.116 402.128 141.686 402.128 142.603C402.128 143.6 402.892 144.248 403.956 144.248C405.195 144.248 406.182 143.758 406.689 142.792C407.023 142.144 407.04 141.494 407.04 140.388Z" fill="white"/>
<path d="M403.764 145.442C401.99 145.442 400.801 144.345 400.801 142.713C400.801 141.562 401.306 140.771 402.393 140.223C403.24 139.789 404.444 139.62 405.838 139.425C406.167 139.379 406.507 139.332 406.852 139.28C406.785 138.175 406.038 137.546 404.78 137.546C403.989 137.546 403.152 137.674 402.384 138.613L402.278 138.744L401.306 137.735L401.391 137.633C402.245 136.617 403.398 136.123 404.924 136.123C405.79 136.123 406.666 136.439 407.265 136.968C407.982 137.568 408.35 138.518 408.35 139.786V145.205H407V144.135C406.261 145.024 405.22 145.442 403.764 145.442ZM404.782 137.247C406.253 137.247 407.142 138.052 407.156 139.404V139.533L407.029 139.554C406.637 139.614 406.251 139.668 405.879 139.72C404.513 139.911 403.332 140.077 402.528 140.488C401.539 140.987 401.099 141.674 401.099 142.713C401.099 144.166 402.17 145.142 403.764 145.142C405.358 145.142 406.336 144.65 407.023 143.597L407.298 143.174V144.906H408.047V139.786C408.047 138.611 407.717 137.739 407.066 137.195C406.518 136.711 405.717 136.422 404.922 136.422C403.524 136.422 402.499 136.835 401.706 137.724L402.259 138.297C403.079 137.375 403.989 137.249 404.778 137.249L404.782 137.247ZM403.956 144.397C402.791 144.397 401.978 143.66 401.978 142.603C401.978 141.705 402.747 141.012 404.037 140.748C404.571 140.623 405.564 140.466 407.016 140.239L407.19 140.212V140.387C407.19 141.512 407.173 142.181 406.822 142.86C406.301 143.853 405.283 144.397 403.956 144.397ZM406.889 140.561C405.537 140.771 404.607 140.92 404.102 141.039C403.551 141.153 402.278 141.529 402.278 142.603C402.278 143.498 402.952 144.1 403.958 144.1C405.168 144.1 406.092 143.612 406.559 142.723C406.86 142.142 406.889 141.537 406.891 140.561H406.889Z" fill="white"/>
<path d="M418.964 140.766C418.964 141.873 418.741 142.996 418.027 143.914C417.312 144.815 416.231 145.291 415.054 145.291C413.894 145.291 412.876 144.863 412.208 144.024V148.851H411.031V136.508H412.081V137.663C412.765 136.776 413.909 136.27 415.102 136.27C416.262 136.27 417.345 136.76 418.027 137.646C418.709 138.517 418.964 139.671 418.964 140.764M417.723 140.766C417.723 139.881 417.547 138.994 417.072 138.361C416.579 137.682 415.784 137.347 414.91 137.347C414.067 137.347 413.272 137.665 412.78 138.296C412.271 138.944 412.081 139.862 412.081 140.764C412.081 141.682 412.271 142.616 412.78 143.247C413.272 143.881 414.084 144.213 414.927 144.213C415.77 144.213 416.596 143.866 417.088 143.185C417.566 142.552 417.725 141.665 417.725 140.764" fill="white"/>
<path d="M412.358 149.001H410.883V136.362H412.231V137.267C412.942 136.545 413.987 136.123 415.102 136.123C416.333 136.123 417.443 136.646 418.146 137.558C418.945 138.578 419.114 139.865 419.114 140.765C419.114 142.108 418.797 143.167 418.146 144.004C417.422 144.916 416.295 145.439 415.054 145.439C413.973 145.439 413.032 145.078 412.358 144.414V148.999V149.001ZM411.181 148.702H412.057V143.597L412.325 143.934C412.946 144.715 413.914 145.142 415.054 145.142C416.193 145.142 417.234 144.673 417.91 143.822C418.519 143.041 418.816 142.04 418.816 140.765C418.816 139.911 418.659 138.694 417.91 137.741C417.263 136.902 416.239 136.422 415.102 136.422C413.965 136.422 412.844 136.921 412.199 137.757L411.93 138.106V136.661H411.181V148.704V148.702ZM414.926 144.366C414.006 144.366 413.161 143.984 412.663 143.344C412.06 142.594 411.932 141.529 411.932 140.769C411.932 140.009 412.06 138.979 412.663 138.208C413.161 137.568 413.981 137.201 414.912 137.201C415.842 137.201 416.694 137.583 417.194 138.275C417.639 138.864 417.875 139.726 417.875 140.767C417.875 141.807 417.651 142.692 417.209 143.278C416.717 143.959 415.863 144.366 414.926 144.366ZM414.91 137.498C414.073 137.498 413.339 137.824 412.898 138.391C412.345 139.095 412.231 140.071 412.231 140.767C412.231 141.774 412.466 142.623 412.898 143.157C413.343 143.726 414.1 144.067 414.928 144.067C415.757 144.067 416.531 143.705 416.969 143.101C417.372 142.565 417.576 141.78 417.576 140.767C417.576 140.088 417.468 139.132 416.954 138.451C416.508 137.836 415.784 137.498 414.912 137.498H414.91Z" fill="white"/>
<path d="M422.797 134.989H421.637V133.691H422.797V134.989ZM422.797 145.053H421.637V136.51H422.797V145.053Z" fill="white"/>
<path d="M422.947 145.204H421.486V136.361H422.947V145.204ZM421.787 144.905H422.646V136.658H421.787V144.905ZM422.947 135.14H421.486V133.545H422.947V135.14ZM421.787 134.841H422.646V133.842H421.787V134.841Z" fill="white"/>
<path d="M427.997 141.906C427.997 142.618 427.965 143.046 428.172 143.41C428.362 143.804 428.76 144.026 429.205 144.074C429.649 144.122 430.175 144.105 430.619 144.01V145.054C430.048 145.198 429.332 145.229 428.775 145.117C428.011 144.99 427.439 144.643 427.122 143.993C426.836 143.393 426.822 142.76 426.822 141.952V137.505H424.994V136.509H426.822V134.135H427.999V136.509H430.621V137.505H427.999V141.904L427.997 141.906Z" fill="white"/>
<path d="M429.518 145.334C429.244 145.334 428.981 145.311 428.746 145.263C427.903 145.124 427.31 144.719 426.987 144.059C426.692 143.44 426.67 142.796 426.67 141.953V137.656H424.842V136.362H426.67V133.988H428.145V136.362H430.767V137.656H428.145V142.156C428.141 142.715 428.138 143.051 428.301 143.336C428.462 143.668 428.796 143.88 429.221 143.926C429.674 143.973 430.185 143.951 430.588 143.865L430.769 143.826V145.172L430.657 145.201C430.3 145.29 429.902 145.336 429.52 145.336L429.518 145.334ZM425.142 137.359H426.97V141.955C426.97 142.783 426.991 143.369 427.258 143.932C427.54 144.505 428.045 144.848 428.8 144.972C429.288 145.07 429.929 145.053 430.469 144.939V144.191C430.068 144.256 429.614 144.268 429.188 144.223C428.658 144.167 428.236 143.892 428.034 143.475C427.838 143.13 427.84 142.742 427.844 142.156V141.907V137.359H430.467V136.661H427.844V134.287H426.968V136.661H425.14V137.359H425.142Z" fill="white"/>
<path d="M438.808 145.056V143.679C438.045 144.851 436.901 145.293 435.422 145.293C433.784 145.293 432.609 144.296 432.609 142.714C432.609 141.638 433.054 140.894 434.12 140.356C435.169 139.818 436.839 139.692 438.666 139.407C438.65 138.03 437.713 137.397 436.44 137.397C435.535 137.397 434.692 137.586 433.928 138.521L433.164 137.729C434.055 136.67 435.215 136.273 436.582 136.273C437.442 136.273 438.268 136.589 438.825 137.081C439.62 137.746 439.858 138.79 439.858 139.787V145.056H438.808ZM438.696 140.388C437.264 140.61 436.263 140.768 435.722 140.894C434.642 141.116 433.784 141.686 433.784 142.603C433.784 143.6 434.548 144.248 435.612 144.248C436.851 144.248 437.836 143.758 438.345 142.792C438.679 142.144 438.696 141.494 438.696 140.388Z" fill="white"/>
<path d="M435.422 145.442C433.65 145.442 432.459 144.345 432.459 142.713C432.459 141.562 432.964 140.771 434.051 140.223C434.898 139.789 436.102 139.62 437.496 139.425C437.825 139.379 438.165 139.332 438.51 139.28C438.445 138.175 437.696 137.546 436.438 137.546C435.647 137.546 434.81 137.674 434.043 138.613L433.936 138.744L432.964 137.735L433.049 137.633C433.903 136.617 435.059 136.123 436.582 136.123C437.448 136.123 438.324 136.439 438.923 136.968C439.641 137.568 440.006 138.518 440.006 139.786V145.205H438.658V144.135C437.919 145.024 436.878 145.442 435.422 145.442ZM436.438 137.247C437.909 137.247 438.798 138.052 438.812 139.404V139.533L438.685 139.554C438.293 139.614 437.909 139.668 437.535 139.72C436.167 139.911 434.986 140.077 434.185 140.488C433.198 140.987 432.757 141.674 432.757 142.713C432.757 144.166 433.828 145.142 435.422 145.142C437.016 145.142 437.994 144.65 438.683 143.597L438.958 143.174V144.906H439.707V139.786C439.707 138.611 439.378 137.739 438.727 137.195C438.178 136.711 437.377 136.422 436.582 136.422C435.184 136.422 434.159 136.835 433.367 137.724L433.92 138.297C434.74 137.375 435.649 137.247 436.438 137.247ZM435.612 144.397C434.447 144.397 433.634 143.66 433.634 142.603C433.634 141.705 434.404 141.012 435.693 140.748C436.227 140.623 437.22 140.466 438.673 140.239L438.846 140.212V140.387C438.846 141.512 438.829 142.181 438.478 142.86C437.955 143.853 436.939 144.397 435.612 144.397ZM438.547 140.561C437.195 140.771 436.265 140.92 435.76 141.039C435.209 141.153 433.936 141.529 433.936 142.603C433.936 143.498 434.61 144.1 435.616 144.1C436.826 144.1 437.75 143.612 438.218 142.723C438.518 142.142 438.547 141.537 438.549 140.561H438.547Z" fill="white"/>
<path d="M443.849 133.426H442.689V145.056H443.849V133.426Z" fill="white"/>
<path d="M443.999 145.204H442.539V133.275H443.999V145.204ZM442.839 144.905H443.701V133.574H442.839V144.905Z" fill="white"/>
<path d="M49.7603 40.7795C49.7332 40.7795 49.6935 40.7775 49.6414 40.7754C49.9627 40.7899 50.284 40.8086 50.6053 40.8398C50.3236 40.8107 50.044 40.7899 49.7603 40.7795Z" fill="url(#paint0_linear_4883_838)"/>
<path d="M68.0757 117.211L54.7097 94.1673C54.6868 94.1279 54.6618 94.0863 54.6367 94.0469L68.0715 117.211C70.302 121.055 74.4624 123.444 78.9296 123.444C74.4624 123.444 70.302 121.055 68.0736 117.211H68.0757Z" fill="url(#paint1_linear_4883_838)"/>
<path d="M47.6777 40.78C45.9126 40.8693 44.2017 41.2452 42.5742 41.86C44.4291 41.1892 46.3424 40.832 48.2494 40.7676C48.0157 40.7676 47.8092 40.7738 47.6777 40.78Z" fill="url(#paint2_linear_4883_838)"/>
<path d="M42.7102 94.1675L29.3651 117.17C27.1367 121.014 22.9763 123.402 18.5091 123.402C16.3288 123.402 14.1714 122.823 12.2664 121.728C6.28866 118.293 4.23348 110.659 7.68451 104.709L31.0906 64.3554C29.3067 58.2767 30.8152 51.7017 34.9798 47.002C33.6945 48.3519 32.5616 49.8679 31.6185 51.4919L2.48292 101.721C-2.63103 110.539 0.404794 121.813 9.26397 126.904C12.1809 128.58 15.3648 129.377 18.5091 129.377C24.9105 129.377 31.1365 126.071 34.5646 120.156L47.9076 97.1539C48.0849 96.8465 48.3958 96.6949 48.7067 96.6949C49.0176 96.6949 49.3076 96.8403 49.4871 97.1269L46.0736 91.2413C44.6798 91.8124 43.4843 92.8321 42.7081 94.1675H42.7102Z" fill="#C6FFFF"/>
<path d="M94.9552 101.764L65.8197 51.5351C65.7633 51.4375 65.7049 51.3378 65.6465 51.2402L94.9531 101.764C100.067 110.582 97.0333 121.857 88.1742 126.949C85.2573 128.625 82.0733 129.422 78.9311 129.422C78.5326 129.422 78.132 129.41 77.7355 129.383C78.134 129.408 78.5326 129.422 78.9332 129.422C82.0754 129.422 85.2594 128.625 88.1762 126.951C97.0354 121.859 100.071 110.584 94.9573 101.766L94.9552 101.764Z" fill="url(#paint3_linear_4883_838)"/>
<path d="M40.2002 50.2643C41.2998 49.2653 42.4974 48.4513 43.7451 47.8594C42.4244 48.4513 41.2267 49.2695 40.2002 50.2643Z" fill="url(#paint4_linear_4883_838)"/>
<path d="M31.1951 64.1758L31.0908 64.3544C31.4977 65.7437 32.0756 67.1061 32.8351 68.4145L46.0759 91.2403C46.9001 90.9017 47.7931 90.719 48.709 90.719C51.1293 90.719 53.3869 91.992 54.6346 94.0481L44.6487 76.8316C38.189 75.3467 33.0375 70.4622 31.1931 64.1758H31.1951Z" fill="#C6FFFF"/>
<path d="M35.8037 46.177C37.3789 44.6028 39.2401 43.3152 41.3015 42.3952C41.7188 42.2 42.1424 42.0214 42.5722 41.8594C41.5644 42.2228 40.5733 42.6776 39.6136 43.23C37.8254 44.258 36.2731 45.5394 34.9795 46.9994C35.2486 46.7169 35.522 46.4428 35.8037 46.177Z" fill="#1C8CAB"/>
<path d="M62.876 120.2L49.51 97.156C49.51 97.156 49.4975 97.1373 49.4912 97.127L62.8739 120.2C66.0912 125.745 71.7643 128.997 77.7358 129.383C71.7643 128.999 66.0912 125.745 62.876 120.2Z" fill="#1C8CAB"/>
<path d="M49.6417 40.7765C49.3809 40.7661 49.1201 40.7578 48.8593 40.7578C48.6569 40.7578 48.4524 40.762 48.25 40.7682C48.3543 40.7682 48.4649 40.7682 48.5755 40.7682C48.9886 40.7682 49.4205 40.7724 49.6417 40.7765Z" fill="#1C8CAB"/>
<path d="M89.7537 104.75C93.2047 110.7 91.1495 118.336 85.1718 121.771C83.2689 122.866 81.1094 123.443 78.9311 123.443C81.1115 123.443 83.2689 122.866 85.1739 121.771C91.1516 118.336 93.2089 110.7 89.7558 104.75L66.333 64.3672C66.333 64.3672 66.333 64.3693 66.333 64.3713L89.7558 104.75H89.7537Z" fill="#1C8CAB"/>
<path d="M63.9276 48.7565C64.5557 49.5477 65.1315 50.3785 65.6469 51.2382L64.9166 49.9776C61.7994 44.603 56.3725 41.3819 50.6055 40.8398C51.5569 40.9354 52.5 41.1244 53.4306 41.3964C57.7621 42.52 61.4677 45.1803 63.9297 48.7565H63.9276Z" fill="#1C8CAB"/>
<path d="M88.1747 126.946C97.0339 121.856 100.07 110.579 94.9537 101.761L65.647 51.2376C65.1296 50.3778 64.5537 49.5471 63.9278 48.7559C65.9433 51.6862 67.1243 55.2333 67.1243 59.0525C67.1243 60.9008 66.8468 62.6848 66.3335 64.3669L89.7563 104.75C93.2073 110.7 91.1521 118.336 85.1744 121.771C83.2694 122.865 81.112 123.443 78.9316 123.443C74.4645 123.443 70.3041 121.054 68.0736 117.21L54.6388 94.0461C53.389 91.9901 51.1314 90.717 48.7132 90.717C47.7972 90.717 46.9042 90.8998 46.0801 91.2383L49.4936 97.1239C49.4936 97.1239 49.5061 97.1425 49.5123 97.1529L62.8783 120.197C66.0936 125.742 71.7667 128.994 77.7382 129.38C78.1367 129.405 78.5352 129.42 78.9337 129.42C82.076 129.42 85.2599 128.622 88.1768 126.946H88.1747Z" fill="#C6FFFF"/>
<path d="M48.7922 40.807C50.3946 40.807 51.947 41.0126 53.4284 41.3968C52.4999 41.1248 51.5547 40.9379 50.6033 40.8403C50.284 40.8091 49.9627 40.7904 49.6393 40.7759C49.4161 40.7717 48.9862 40.7676 48.5731 40.7676C48.4625 40.7676 48.352 40.7676 48.2476 40.7676C46.3406 40.8299 44.4273 41.1892 42.5724 41.86C42.1426 42.0219 41.7191 42.2005 41.3018 42.3958C43.5885 41.3761 46.1236 40.807 48.7922 40.807Z" fill="#1C8CAB"/>
<path d="M31.0908 64.3556L31.1951 64.177C30.7194 62.5509 30.4628 60.8334 30.4628 59.0557C30.4628 54.0299 32.5033 49.4797 35.8062 46.1797C35.5246 46.4455 35.2512 46.7217 34.9821 47.0021C30.8154 51.7039 29.3069 58.2769 31.0929 64.3556H31.0908Z" fill="#1C8CAB"/>
<path d="M38.0347 65.4261L44.6509 76.8317C45.9821 77.137 47.3696 77.299 48.7926 77.299C57.0592 77.299 64.0447 71.8537 66.3336 64.3711L60.5248 54.3589C60.0887 53.6279 59.5984 52.9301 59.0643 52.2759C60.3621 54.2198 61.1215 56.5499 61.1215 59.0545C61.1215 65.8206 55.5903 71.3262 48.7926 71.3262C41.9948 71.3262 36.4636 65.8206 36.4636 59.0545C36.4636 55.6112 37.897 52.4961 40.1984 50.2656C39.9438 50.4982 39.6934 50.7391 39.4493 50.9904C38.2016 52.4068 37.2856 54.1014 36.7828 55.9747C35.9169 59.1895 36.3613 62.5476 38.0326 65.4302L38.0347 65.4261Z" fill="#C6FFFF"/>
<path d="M48.7923 46.7836C49.8168 46.7836 50.812 46.9103 51.7655 47.145C51.1646 46.9664 50.5679 46.8438 49.9795 46.7857C49.9044 46.7794 49.8293 46.7732 49.7542 46.767C49.7166 46.7649 49.6791 46.7608 49.6415 46.7587C49.581 46.7545 49.5205 46.7524 49.46 46.7504C49.291 46.7483 48.9404 46.7441 48.5753 46.7441C48.5085 46.7441 48.4501 46.7441 48.3938 46.7441C47.1586 46.7898 45.9359 47.0224 44.7696 47.4274C44.4253 47.5541 44.0831 47.6995 43.7451 47.8594C45.287 47.1678 46.9958 46.7836 48.7923 46.7836Z" fill="#339FBC"/>
<path d="M49.6416 46.7578C49.6792 46.7599 49.7167 46.762 49.7543 46.7661C49.7167 46.764 49.6792 46.7599 49.6416 46.7578Z" fill="#339FBC"/>
<path d="M40.2002 50.2646C41.2268 49.2719 42.4244 48.4537 43.7451 47.8597C44.0831 47.6998 44.4253 47.5544 44.7696 47.4277C44.0268 47.6853 43.3049 48.0134 42.6164 48.408C41.4083 49.1016 40.3442 49.9759 39.4512 50.9894C39.6953 50.7381 39.9457 50.4972 40.2002 50.2646Z" fill="#339FBC"/>
<path d="M59.064 52.2761C59.5981 52.9303 60.0885 53.6281 60.5245 54.3591L59.7171 52.9677C57.6744 49.4455 54.0127 47.1486 49.9795 46.7852C50.5679 46.8433 51.1646 46.9658 51.7655 47.1444C54.793 47.8942 57.3823 49.7591 59.064 52.2761Z" fill="#339FBC"/>
<path d="M49.4597 46.751C49.2594 46.7406 49.0612 46.7344 48.8588 46.7344C48.7044 46.7344 48.548 46.7385 48.3936 46.7448C48.4478 46.7448 48.5062 46.7448 48.5751 46.7448C48.9402 46.7448 49.2907 46.7489 49.4597 46.751Z" fill="#339FBC"/>
<path d="M47.9744 46.7484C46.8998 46.8045 45.8232 47.0371 44.7695 47.4254C45.938 47.0205 47.1585 46.79 48.3937 46.7422C48.1162 46.7422 47.9952 46.7463 47.9723 46.7484H47.9744Z" fill="#339FBC"/>
<path d="M35.8037 46.1763C37.4437 44.6208 39.2986 43.327 41.3016 42.3945C39.238 43.3145 37.3769 44.6042 35.8037 46.1763Z" fill="#339FBC"/>
<path d="M44.6502 76.8317L38.0339 65.4261C36.3627 62.5436 35.9183 59.1854 36.7841 55.9706C37.2891 54.0973 38.2029 52.4027 39.4507 50.9863C38.4658 52.0019 37.5749 53.1752 36.8175 54.4774L31.1924 64.1738C33.0368 70.4623 38.1883 75.3448 44.6481 76.8297L44.6502 76.8317Z" fill="#C6FFFF"/>
<path d="M49.5288 46.752C49.5121 46.752 49.4871 46.752 49.46 46.752C49.5205 46.754 49.581 46.7582 49.6415 46.7603C49.6039 46.7582 49.5664 46.754 49.5288 46.752Z" fill="#339FBC"/>
<path d="M53.4287 41.3965C57.441 42.5678 61.1758 45.2842 63.9279 48.7566C61.4679 45.1804 57.7602 42.52 53.4287 41.3965Z" fill="#339FBC"/>
<path d="M60.5244 54.3594L66.3332 64.3715C66.3332 64.3715 66.3332 64.3694 66.3332 64.3673L60.6225 54.5214C60.5912 54.4674 60.5578 54.4134 60.5244 54.3594Z" fill="#339FBC"/>
<path d="M49.7539 46.7676C49.829 46.7738 49.9041 46.78 49.9792 46.7863C49.9041 46.778 49.829 46.7738 49.7539 46.7676Z" fill="#339FBC"/>
<path d="M53.4289 41.3964C51.9475 41.0122 50.3951 40.8066 48.7927 40.8066C46.1241 40.8066 43.589 41.3736 41.3023 42.3954C39.2972 43.3278 37.4423 44.6217 35.8044 46.1772C32.5015 49.4772 30.4609 54.0274 30.4609 59.0531C30.4609 60.8309 30.7176 62.5504 31.1933 64.1745L36.8184 54.478C37.5737 53.1738 38.4647 52.0025 39.4516 50.987C40.3446 49.9735 41.4087 49.0992 42.6167 48.4055C43.3053 48.011 44.0272 47.6828 44.77 47.4253C45.8216 47.037 46.8982 46.8044 47.9748 46.7483C47.9978 46.7483 48.1188 46.7441 48.3963 46.7421C48.5507 46.7358 48.7051 46.7317 48.8616 46.7317C49.0619 46.7317 49.2622 46.7379 49.4625 46.7483C49.4917 46.7483 49.5146 46.7483 49.5313 46.7483C49.5689 46.7483 49.6064 46.7545 49.644 46.7566C49.6816 46.7587 49.7191 46.7607 49.7567 46.7649C49.8318 46.7711 49.9069 46.7753 49.982 46.7836C54.0152 47.1449 57.6769 49.4439 59.7196 52.9661L60.5271 54.3576C60.5604 54.4116 60.5938 54.4656 60.6251 54.5196L66.3358 64.3655C66.8491 62.6833 67.1266 60.8994 67.1266 59.0511C67.1266 55.2298 65.9456 51.6848 63.9301 48.7544C61.178 45.2821 57.4453 42.5657 53.4309 41.3944L53.4289 41.3964Z" fill="#C6FFFF"/>
<path d="M48.8175 36.6882C58.9954 36.6882 67.2474 28.4746 67.2474 18.3441C67.2474 8.21363 58.9975 0 48.8175 0C38.6376 0 30.3877 8.21363 30.3877 18.3441C30.3877 28.4746 38.6397 36.6882 48.8175 36.6882ZM48.8175 5.97487C55.6695 5.97487 61.2425 11.524 61.2425 18.342C61.2425 25.1601 55.6674 30.7092 48.8175 30.7092C41.9676 30.7092 36.3926 25.1601 36.3926 18.342C36.3926 11.524 41.9676 5.97487 48.8175 5.97487Z" fill="#C6FFFF"/>
</g>
<defs>
<linearGradient id="paint0_linear_4883_838" x1="38.3243" y1="56.4424" x2="-19.8482" y2="134.251" gradientUnits="userSpaceOnUse">
<stop offset="0.1" stop-color="#004559"/>
<stop offset="0.29" stop-color="#0D657E"/>
<stop offset="0.51" stop-color="#1C8AA8"/>
<stop offset="0.98" stop-color="#C6FFFF"/>
</linearGradient>
<linearGradient id="paint1_linear_4883_838" x1="81.7526" y1="88.9131" x2="23.5795" y2="166.72" gradientUnits="userSpaceOnUse">
<stop offset="0.1" stop-color="#004559"/>
<stop offset="0.29" stop-color="#0D657E"/>
<stop offset="0.51" stop-color="#1C8AA8"/>
<stop offset="0.98" stop-color="#C6FFFF"/>
</linearGradient>
<linearGradient id="paint2_linear_4883_838" x1="35.5553" y1="54.3746" x2="-22.6177" y2="132.182" gradientUnits="userSpaceOnUse">
<stop offset="0.1" stop-color="#004559"/>
<stop offset="0.29" stop-color="#0D657E"/>
<stop offset="0.51" stop-color="#1C8AA8"/>
<stop offset="0.98" stop-color="#C6FFFF"/>
</linearGradient>
<linearGradient id="paint3_linear_4883_838" x1="79.34" y1="87.1081" x2="21.167" y2="164.917" gradientUnits="userSpaceOnUse">
<stop offset="0.1" stop-color="#004559"/>
<stop offset="0.29" stop-color="#0D657E"/>
<stop offset="0.51" stop-color="#1C8AA8"/>
<stop offset="0.98" stop-color="#C6FFFF"/>
</linearGradient>
<linearGradient id="paint4_linear_4883_838" x1="37.0955" y1="55.5247" x2="-21.0776" y2="133.332" gradientUnits="userSpaceOnUse">
<stop offset="0.1" stop-color="#004559"/>
<stop offset="0.29" stop-color="#0D657E"/>
<stop offset="0.51" stop-color="#1C8AA8"/>
<stop offset="0.98" stop-color="#C6FFFF"/>
</linearGradient>
<clipPath id="clip0_4883_838">
<rect width="444" height="149" fill="white"/>
</clipPath>
</defs>
</svg>
