<svg width="310" height="188" viewBox="0 0 310 188" fill="none" xmlns="http://www.w3.org/2000/svg">
<g clip-path="url(#clip0_4754_9074)">
<path d="M189.934 116.923C181.819 121.609 171.439 118.827 166.756 110.706L154.509 89.4836C154.185 88.9194 153.368 88.9194 153.043 89.4836L140.819 110.668C136.135 118.789 125.756 121.571 117.64 116.882C109.524 112.195 106.744 101.809 111.427 93.6885L138.121 47.426C141.264 41.9772 146.968 38.9336 152.834 38.9336C153.249 38.9336 153.668 38.9474 154.083 38.9804C154.11 38.9804 154.135 38.9804 154.163 38.9804C154.355 38.9749 154.548 38.9694 154.74 38.9694C160.606 38.9694 166.31 42.0157 169.454 47.4618L196.147 93.7243C200.833 101.845 198.05 112.231 189.934 116.92V116.923Z" fill="url(#paint0_linear_4754_9074)" style="mix-blend-mode:multiply"/>
<path d="M145.434 39.8254L145.432 39.8267C137.316 44.5155 134.535 54.8999 139.221 63.0209L166.741 110.717C171.426 118.838 181.804 121.62 189.92 116.931L189.923 116.93C198.039 112.241 200.82 101.857 196.134 93.7358L168.614 46.0402C163.928 37.9191 153.55 35.1366 145.434 39.8254Z" fill="#1C8CAB"/>
<path d="M140.321 64.9017C135.635 56.7808 137.742 45.2255 145.857 40.5362C153.973 35.847 165.026 39.7987 169.713 47.9196" fill="#1C8AA8"/>
<path opacity="0.37" d="M153.876 71.1979C163.152 71.1979 170.671 63.6736 170.671 54.3919C170.671 45.1102 163.152 37.5859 153.876 37.5859C144.6 37.5859 137.08 45.1102 137.08 54.3919C137.08 63.6736 144.6 71.1979 153.876 71.1979Z" fill="#59C2DF"/>
<path d="M153.876 33.788C163.2 33.788 170.759 26.2243 170.759 16.894C170.759 7.56371 163.2 0 153.876 0C144.551 0 136.992 7.56371 136.992 16.894C136.992 26.2243 144.551 33.788 153.876 33.788Z" fill="#59C2DF"/>
<path d="M7.52455 141.634V147.886H17.6013V153.698H7.52455V160.479H18.9214V166.511H0V135.601H18.9214V141.634H7.52455Z" fill="#004559"/>
<path d="M61.357 144.452C63.1611 146.301 64.0632 148.871 64.0632 152.157V166.511H56.5826V153.17C56.5826 151.585 56.1646 150.36 55.3285 149.493C54.4925 148.626 53.3401 148.194 51.8743 148.194C50.4084 148.194 49.2561 148.629 48.42 149.493C47.584 150.36 47.1659 151.585 47.1659 153.17V166.511H39.6854V153.17C39.6854 151.585 39.2674 150.36 38.4313 149.493C37.5952 148.626 36.4429 148.194 34.977 148.194C33.5112 148.194 32.3588 148.629 31.5228 149.493C30.6867 150.36 30.2687 151.585 30.2687 153.17V166.511H22.7441V141.942H30.2687V145.024C31.0305 143.997 32.0288 143.183 33.2609 142.58C34.493 141.978 35.8846 141.678 37.4412 141.678C39.2894 141.678 40.9395 142.074 42.3916 142.866C43.8437 143.659 44.9795 144.79 45.8018 146.257C46.6516 144.908 47.8095 143.808 49.2781 142.954C50.7439 142.104 52.3446 141.678 54.0744 141.678C57.1244 141.678 59.5528 142.602 61.357 144.452Z" fill="#004559"/>
<path d="M78.6799 142.646C79.9698 141.942 81.4824 141.59 83.2122 141.59C85.2364 141.59 87.0708 142.104 88.7127 143.131C90.3545 144.157 91.6526 145.627 92.6069 147.534C93.5585 149.444 94.037 151.659 94.037 154.182C94.037 156.706 93.5585 158.93 92.6069 160.853C91.6526 162.777 90.3545 164.26 88.7127 165.3C87.0708 166.343 85.2364 166.863 83.2122 166.863C81.5099 166.863 80.0055 166.511 78.7019 165.807C77.3956 165.102 76.3752 164.194 75.6437 163.077V178.223H68.1191V141.942H75.6437V145.42C76.378 144.276 77.3901 143.351 78.6799 142.646ZM84.8184 149.757C83.776 148.687 82.4917 148.15 80.9681 148.15C79.4445 148.15 78.2041 148.695 77.1618 149.779C76.1195 150.866 75.5997 152.347 75.5997 154.227C75.5997 156.106 76.1195 157.589 77.1618 158.674C78.2041 159.761 79.472 160.303 80.9681 160.303C82.4642 160.303 83.7403 159.752 84.7964 158.652C85.8524 157.551 86.3805 156.062 86.3805 154.182C86.3805 152.303 85.8607 150.828 84.8184 149.757Z" fill="#004559"/>
<path d="M107.766 142.844C109.086 142.066 110.552 141.678 112.167 141.678V149.647H110.098C108.22 149.647 106.812 150.052 105.874 150.858C104.933 151.667 104.466 153.082 104.466 155.107V166.511H96.9414V141.942H104.466V146.037C105.346 144.685 106.446 143.623 107.766 142.844Z" fill="#004559"/>
<path d="M137.617 156.032H120.588C120.703 157.559 121.196 158.726 122.062 159.532C122.928 160.341 123.99 160.743 125.252 160.743C127.128 160.743 128.434 159.951 129.169 158.365H137.177C136.765 159.981 136.025 161.434 134.955 162.724C133.885 164.015 132.543 165.031 130.929 165.763C129.314 166.497 127.51 166.863 125.516 166.863C123.11 166.863 120.968 166.351 119.092 165.322C117.213 164.296 115.748 162.829 114.692 160.919C113.635 159.012 113.107 156.78 113.107 154.227C113.107 151.673 113.627 149.444 114.67 147.534C115.712 145.627 117.169 144.157 119.048 143.131C120.926 142.104 123.082 141.59 125.516 141.59C127.95 141.59 130.005 142.088 131.853 143.087C133.701 144.086 135.145 145.508 136.187 147.358C137.229 149.207 137.749 151.365 137.749 153.83C137.749 154.535 137.705 155.269 137.617 156.032ZM130.049 151.849C130.049 150.558 129.609 149.529 128.729 148.767C127.849 148.004 126.748 147.622 125.428 147.622C124.108 147.622 123.102 147.988 122.238 148.723C121.372 149.457 120.835 150.5 120.632 151.849H130.049Z" fill="#004559"/>
<path d="M162.422 144.474C164.138 146.337 164.996 148.899 164.996 152.157V166.511H157.515V153.17C157.515 151.527 157.089 150.25 156.239 149.339C155.39 148.428 154.245 147.974 152.807 147.974C151.369 147.974 150.225 148.428 149.375 149.339C148.525 150.25 148.099 151.527 148.099 153.17V166.511H140.574V141.942H148.099V145.2C148.861 144.116 149.886 143.257 151.179 142.624C152.469 141.994 153.921 141.678 155.535 141.678C158.409 141.678 160.706 142.611 162.422 144.474Z" fill="#004559"/>
<path d="M169.094 147.533C170.046 145.626 171.344 144.156 172.988 143.13C174.63 142.104 176.465 141.589 178.489 141.589C180.103 141.589 181.577 141.927 182.911 142.602C184.245 143.279 185.296 144.187 186.057 145.332V133.928H193.582V166.51H186.057V162.988C185.353 164.163 184.347 165.101 183.043 165.806C181.737 166.51 180.219 166.863 178.489 166.863C176.465 166.863 174.63 166.342 172.988 165.299C171.347 164.256 170.048 162.776 169.094 160.852C168.14 158.932 167.664 156.708 167.664 154.182C167.664 151.655 168.14 149.44 169.094 147.533ZM184.495 149.779C183.453 148.692 182.185 148.15 180.689 148.15C179.193 148.15 177.925 148.686 176.883 149.757C175.84 150.83 175.321 152.302 175.321 154.182C175.321 156.061 175.84 157.55 176.883 158.651C177.925 159.752 179.193 160.302 180.689 160.302C182.185 160.302 183.453 159.76 184.495 158.673C185.538 157.589 186.057 156.105 186.057 154.226C186.057 152.346 185.535 150.866 184.495 149.779Z" fill="#004559"/>
<path d="M220.943 156.032H203.914C204.032 157.559 204.522 158.726 205.388 159.532C206.252 160.341 207.316 160.743 208.578 160.743C210.457 160.743 211.76 159.951 212.495 158.365H220.503C220.091 159.981 219.351 161.434 218.281 162.724C217.211 164.015 215.867 165.031 214.255 165.763C212.641 166.497 210.836 166.863 208.843 166.863C206.436 166.863 204.296 166.351 202.418 165.322C200.54 164.296 199.074 162.829 198.018 160.919C196.962 159.012 196.434 156.78 196.434 154.227C196.434 151.673 196.953 149.444 197.996 147.534C199.038 145.627 200.496 144.157 202.374 143.131C204.252 142.104 206.409 141.59 208.843 141.59C211.276 141.59 213.331 142.088 215.179 143.087C217.027 144.086 218.471 145.508 219.513 147.358C220.553 149.207 221.075 151.365 221.075 153.83C221.075 154.535 221.031 155.269 220.943 156.032ZM213.375 151.849C213.375 150.558 212.935 149.529 212.055 148.767C211.175 148.004 210.075 147.622 208.754 147.622C207.434 147.622 206.428 147.988 205.564 148.723C204.698 149.457 204.164 150.5 203.958 151.849H213.375Z" fill="#004559"/>
<path d="M241.826 135.82V139.078H228.493V149.426H239.317V152.684H228.493V166.51H224.488V135.82H241.826Z" fill="#004559"/>
<path d="M244.303 147.862C245.298 145.999 246.671 144.552 248.417 143.525C250.161 142.499 252.105 141.984 254.247 141.984C256.39 141.984 258.191 142.441 259.748 143.349C261.302 144.26 262.46 145.405 263.224 146.784V142.381H267.272V166.509H263.224V162.018C262.432 163.427 261.252 164.594 259.682 165.519C258.112 166.443 256.285 166.906 254.203 166.906C252.122 166.906 250.125 166.377 248.395 165.321C246.665 164.264 245.301 162.78 244.303 160.873C243.304 158.966 242.807 156.792 242.807 154.357C242.807 151.921 243.304 149.728 244.303 147.862ZM262.124 149.646C261.39 148.294 260.4 147.26 259.154 146.541C257.905 145.823 256.536 145.463 255.04 145.463C253.543 145.463 252.179 145.815 250.947 146.519C249.715 147.224 248.731 148.25 247.999 149.602C247.265 150.953 246.899 152.538 246.899 154.357C246.899 156.176 247.265 157.813 247.999 159.178C248.733 160.543 249.715 161.586 250.947 162.304C252.179 163.023 253.543 163.383 255.04 163.383C256.536 163.383 257.905 163.023 259.154 162.304C260.4 161.586 261.39 160.543 262.124 159.178C262.858 157.813 263.224 156.223 263.224 154.401C263.224 152.579 262.858 150.997 262.124 149.646Z" fill="#004559"/>
<path d="M272.773 147.862C273.769 145.999 275.158 144.552 276.932 143.525C278.706 142.499 280.738 141.984 283.026 141.984C285.988 141.984 288.43 142.705 290.353 144.142C292.272 145.581 293.543 147.576 294.159 150.13H289.847C289.434 148.663 288.637 147.505 287.449 146.651C286.26 145.801 284.786 145.375 283.026 145.375C280.738 145.375 278.89 146.159 277.482 147.73C276.074 149.302 275.37 151.525 275.37 154.401C275.37 157.277 276.074 159.552 277.482 161.138C278.89 162.723 280.738 163.515 283.026 163.515C284.786 163.515 286.252 163.105 287.427 162.282C288.601 161.46 289.407 160.287 289.847 158.76H294.159C293.513 161.226 292.223 163.202 290.287 164.682C288.351 166.165 285.93 166.906 283.026 166.906C280.738 166.906 278.706 166.394 276.932 165.365C275.155 164.338 273.769 162.885 272.773 161.006C271.775 159.126 271.277 156.924 271.277 154.401C271.277 151.877 271.775 149.728 272.773 147.862Z" fill="#004559"/>
<path d="M302.558 145.683V159.905C302.558 161.08 302.808 161.908 303.306 162.393C303.804 162.877 304.67 163.119 305.902 163.119H308.851V166.51H305.242C303.012 166.51 301.34 165.995 300.226 164.969C299.112 163.942 298.554 162.255 298.554 159.905V145.683H295.43V142.381H298.554V136.305H302.558V142.381H308.851V145.683H302.558Z" fill="#004559"/>
<path d="M232.768 181.29C232.579 181.829 232.301 182.371 231.908 182.853C230.945 184.023 229.498 184.576 228.041 184.576C226.492 184.576 225.049 183.948 224.174 182.853C223.299 181.788 222.934 180.486 222.934 179.099C222.934 177.655 223.313 176.37 224.174 175.332C225.093 174.179 226.523 173.623 228.041 173.623C229.559 173.623 230.975 174.193 231.908 175.332C232.375 175.915 232.68 176.573 232.87 177.201L230.827 177.55C230.711 177.184 230.565 176.835 230.332 176.543C229.806 175.841 228.932 175.478 228.041 175.478C227.136 175.478 226.261 175.844 225.75 176.543C225.211 177.231 225.049 178.178 225.035 179.099C225.049 180.019 225.211 180.954 225.75 181.656C226.261 182.358 227.136 182.721 228.041 182.707C228.932 182.721 229.806 182.358 230.332 181.656C230.535 181.378 230.697 181.056 230.799 180.72L232.768 181.29Z" fill="#004559"/>
<path d="M237.312 175.828V178.107H240.873V180.093H237.312V184.359H235.326V173.844H241.748V175.828H237.312Z" fill="#004559"/>
<path d="M253.309 181.29C253.12 181.829 252.842 182.371 252.449 182.853C251.486 184.023 250.039 184.576 248.582 184.576C247.033 184.576 245.59 183.948 244.715 182.853C243.84 181.788 243.475 180.486 243.475 179.099C243.475 177.655 243.854 176.37 244.715 175.332C245.634 174.179 247.064 173.623 248.582 173.623C250.1 173.623 251.516 174.193 252.449 175.332C252.916 175.915 253.221 176.573 253.411 177.201L251.368 177.55C251.252 177.184 251.104 176.835 250.873 176.543C250.347 175.841 249.473 175.478 248.582 175.478C247.677 175.478 246.802 175.844 246.291 176.543C245.752 177.231 245.59 178.178 245.576 179.099C245.59 180.019 245.752 180.954 246.291 181.656C246.802 182.358 247.677 182.721 248.582 182.707C249.473 182.721 250.347 182.358 250.873 181.656C251.076 181.378 251.238 181.056 251.34 180.72L253.309 181.29Z" fill="#004559"/>
<path d="M268.474 181.232C268.315 181.816 268.037 182.385 267.644 182.897C266.753 184.036 265.397 184.576 263.936 184.576C262.448 184.576 261.134 184.02 260.243 182.897C259.396 181.802 259.074 180.445 259.09 179.099C259.121 177.743 259.396 176.383 260.243 175.302C261.117 174.162 262.476 173.623 263.936 173.623C265.41 173.623 266.783 174.179 267.644 175.302C268.095 175.902 268.389 176.557 268.562 177.245L267.454 177.421C267.322 176.895 267.105 176.383 266.783 175.959C266.139 175.098 265.045 174.674 263.936 174.661C262.842 174.647 261.747 175.098 261.12 175.959C260.449 176.821 260.246 177.974 260.246 179.099C260.246 180.225 260.449 181.378 261.12 182.253C261.747 183.114 262.842 183.538 263.936 183.538C265.045 183.552 266.139 183.114 266.783 182.253C267.074 181.86 267.278 181.392 267.41 180.924L268.474 181.229V181.232Z" fill="#004559"/>
<path d="M263.937 184.713C262.369 184.713 261.022 184.097 260.136 182.982C259.344 181.959 258.937 180.616 258.954 179.099C258.989 177.459 259.374 176.191 260.136 175.219C260.994 174.102 262.345 173.488 263.937 173.488C265.529 173.488 266.91 174.121 267.754 175.222C268.192 175.8 268.508 176.469 268.698 177.214L268.736 177.36L267.353 177.58L267.322 177.459C267.185 176.914 266.962 176.427 266.676 176.05C266.099 175.274 265.1 174.82 263.937 174.804C262.837 174.776 261.803 175.266 261.234 176.048C260.67 176.771 260.384 177.801 260.384 179.108C260.384 180.415 260.67 181.444 261.231 182.179C261.792 182.949 262.804 183.409 263.94 183.409C263.956 183.409 263.975 183.409 263.995 183.409C265.103 183.409 266.101 182.952 266.676 182.179C266.935 181.829 267.144 181.386 267.281 180.894L267.32 180.762L268.648 181.144L268.612 181.276C268.442 181.898 268.153 182.473 267.757 182.988C266.882 184.105 265.529 184.722 263.942 184.722L263.937 184.713ZM263.937 173.761C262.433 173.761 261.159 174.339 260.353 175.387C259.63 176.312 259.262 177.525 259.229 179.102C259.212 180.558 259.603 181.84 260.353 182.812C261.195 183.874 262.435 184.438 263.937 184.438C265.439 184.438 266.715 183.86 267.534 182.812C267.881 182.363 268.139 181.862 268.304 181.326L267.504 181.095C267.355 181.571 267.152 181.986 266.893 182.336C266.255 183.192 265.142 183.692 263.934 183.676C262.713 183.676 261.619 183.175 261.008 182.336C260.411 181.554 260.106 180.467 260.106 179.099C260.106 177.732 260.411 176.645 261.011 175.874C261.638 175.013 262.721 174.506 263.937 174.52C265.186 174.537 266.261 175.032 266.891 175.874C267.182 176.259 267.405 176.725 267.553 177.261L268.39 177.129C268.205 176.48 267.919 175.891 267.534 175.382C266.742 174.35 265.433 173.755 263.937 173.755V173.761Z" fill="#004559"/>
<path d="M276.169 184.358V183.087C275.467 184.168 274.417 184.576 273.061 184.576C271.557 184.576 270.479 183.657 270.479 182.195C270.479 181.202 270.888 180.517 271.865 180.019C272.827 179.523 274.359 179.405 276.039 179.143C276.026 177.872 275.165 177.289 273.996 177.289C273.165 177.289 272.39 177.465 271.691 178.326L270.99 177.597C271.807 176.62 272.874 176.254 274.128 176.254C274.917 176.254 275.676 176.546 276.185 177C276.914 177.613 277.134 178.577 277.134 179.496V184.358H276.171H276.169ZM276.067 180.049C274.752 180.252 273.834 180.398 273.339 180.517C272.346 180.72 271.559 181.246 271.559 182.093C271.559 183.013 272.261 183.613 273.237 183.613C274.376 183.613 275.28 183.161 275.748 182.27C276.053 181.67 276.07 181.073 276.07 180.049" fill="#004559"/>
<path d="M273.062 184.713C271.434 184.713 270.342 183.701 270.342 182.195C270.342 181.133 270.807 180.404 271.802 179.898C272.58 179.498 273.686 179.342 274.965 179.163C275.267 179.119 275.578 179.077 275.897 179.028C275.837 178.01 275.149 177.429 273.997 177.429C273.271 177.429 272.501 177.547 271.797 178.414L271.698 178.535L270.804 177.605L270.884 177.512C271.667 176.573 272.726 176.119 274.126 176.119C274.921 176.119 275.724 176.411 276.277 176.898C276.937 177.451 277.272 178.329 277.272 179.499V184.499H276.035V183.511C275.358 184.331 274.401 184.716 273.065 184.716L273.062 184.713ZM273.994 177.151C275.344 177.151 276.161 177.894 276.175 179.141V179.259L276.059 179.278C275.699 179.336 275.347 179.386 275.003 179.432C273.749 179.609 272.663 179.763 271.929 180.14C271.021 180.599 270.617 181.235 270.617 182.193C270.617 183.533 271.599 184.435 273.062 184.435C274.525 184.435 275.424 183.981 276.054 183.01L276.307 182.619V184.218H276.995V179.493C276.995 178.409 276.692 177.602 276.095 177.102C275.592 176.656 274.855 176.389 274.126 176.389C272.842 176.389 271.901 176.771 271.175 177.589L271.684 178.117C272.437 177.267 273.274 177.148 273.997 177.148L273.994 177.151ZM273.235 183.75C272.165 183.75 271.42 183.068 271.42 182.094C271.42 181.265 272.127 180.627 273.309 180.382C273.799 180.266 274.712 180.12 276.046 179.914L276.205 179.889V180.049C276.205 181.086 276.189 181.706 275.87 182.33C275.391 183.247 274.456 183.75 273.238 183.75H273.235ZM275.93 180.208C274.69 180.401 273.835 180.539 273.37 180.649C272.864 180.753 271.695 181.1 271.695 182.091C271.695 182.916 272.314 183.472 273.235 183.472C274.346 183.472 275.193 183.021 275.622 182.201C275.897 181.664 275.925 181.106 275.927 180.206L275.93 180.208Z" fill="#004559"/>
<path d="M287.017 180.398C287.017 181.422 286.813 182.456 286.156 183.304C285.499 184.135 284.506 184.575 283.428 184.575C282.364 184.575 281.428 184.182 280.815 183.406V187.858H279.734V176.468H280.697V177.533C281.324 176.716 282.375 176.248 283.469 176.248C284.533 176.248 285.526 176.702 286.156 177.519C286.783 178.323 287.017 179.388 287.017 180.395M285.878 180.398C285.878 179.581 285.719 178.763 285.282 178.177C284.828 177.55 284.099 177.241 283.296 177.241C282.523 177.241 281.792 177.533 281.34 178.119C280.873 178.717 280.697 179.564 280.697 180.398C280.697 181.246 280.873 182.107 281.34 182.69C281.794 183.274 282.537 183.582 283.31 183.582C284.082 183.582 284.841 183.263 285.295 182.632C285.733 182.049 285.878 181.229 285.878 180.398Z" fill="#004559"/>
<path d="M280.95 187.999H279.594V176.333H280.831V177.17C281.486 176.504 282.443 176.113 283.466 176.113C284.596 176.113 285.614 176.595 286.26 177.437C286.995 178.378 287.149 179.567 287.149 180.398C287.149 181.639 286.857 182.616 286.26 183.389C285.595 184.231 284.561 184.713 283.422 184.713C282.429 184.713 281.566 184.38 280.947 183.766V187.999H280.95ZM279.872 187.724H280.677V183.012L280.922 183.323C281.491 184.044 282.382 184.441 283.428 184.441C284.473 184.441 285.43 184.009 286.048 183.221C286.607 182.5 286.879 181.576 286.879 180.401C286.879 179.614 286.736 178.488 286.048 177.61C285.454 176.837 284.514 176.391 283.472 176.391C282.429 176.391 281.401 176.851 280.807 177.624L280.559 177.946V176.611H279.872V187.726V187.724ZM283.309 183.72C282.465 183.72 281.689 183.367 281.23 182.776C280.675 182.082 280.559 181.1 280.559 180.398C280.559 179.696 280.675 178.747 281.23 178.037C281.689 177.445 282.44 177.107 283.296 177.107C284.151 177.107 284.932 177.459 285.391 178.097C285.798 178.642 286.015 179.438 286.015 180.398C286.015 181.358 285.809 182.173 285.405 182.715C284.954 183.343 284.17 183.72 283.309 183.72ZM283.293 177.382C282.525 177.382 281.852 177.682 281.445 178.205C280.939 178.854 280.831 179.757 280.831 180.398C280.831 181.328 281.049 182.112 281.445 182.605C281.852 183.131 282.547 183.444 283.307 183.444C284.066 183.444 284.778 183.111 285.179 182.553C285.551 182.057 285.738 181.334 285.738 180.398C285.738 179.771 285.639 178.89 285.168 178.26C284.759 177.693 284.093 177.379 283.293 177.379V177.382Z" fill="#004559"/>
<path d="M290.533 175.066H289.469V173.869H290.533V175.066ZM290.533 184.357H289.469V176.47H290.533V184.357Z" fill="#004559"/>
<path d="M290.671 184.495H289.332V176.333H290.671V184.495ZM289.607 184.22H290.396V176.608H289.607V184.22ZM290.671 175.205H289.332V173.732H290.671V175.205ZM289.607 174.929H290.396V174.008H289.607V174.929Z" fill="#004559"/>
<path d="M295.308 181.452C295.308 182.11 295.278 182.503 295.468 182.839C295.644 183.205 296.007 183.409 296.416 183.453C296.823 183.497 297.307 183.483 297.715 183.395V184.358C297.189 184.49 296.532 184.518 296.02 184.416C295.319 184.3 294.794 183.978 294.502 183.378C294.241 182.825 294.224 182.239 294.224 181.496V177.393H292.547V176.474H294.224V174.283H295.305V176.474H297.715V177.393H295.305V181.452H295.308Z" fill="#004559"/>
<path d="M296.705 184.615C296.455 184.615 296.213 184.593 295.996 184.551C295.223 184.422 294.678 184.048 294.381 183.44C294.112 182.87 294.09 182.276 294.09 181.497V177.531H292.412V176.337H294.09V174.146H295.446V176.337H297.855V177.531H295.446V181.684C295.443 182.199 295.44 182.51 295.589 182.774C295.737 183.082 296.042 183.277 296.433 183.319C296.848 183.363 297.318 183.341 297.687 183.261L297.855 183.225V184.466L297.75 184.491C297.423 184.573 297.057 184.615 296.705 184.615ZM292.687 177.253H294.365V181.494C294.365 182.259 294.384 182.801 294.629 183.319C294.887 183.85 295.349 184.163 296.045 184.279C296.493 184.367 297.082 184.353 297.577 184.249V183.561C297.211 183.621 296.79 183.632 296.403 183.591C295.916 183.539 295.531 183.288 295.344 182.9C295.165 182.581 295.165 182.223 295.168 181.684V181.456V177.259H297.577V176.615H295.168V174.424H294.362V176.615H292.684V177.259L292.687 177.253Z" fill="#004559"/>
<path d="M305.233 184.358V183.087C304.532 184.168 303.481 184.576 302.126 184.576C300.621 184.576 299.543 183.657 299.543 182.195C299.543 181.202 299.95 180.517 300.929 180.019C301.892 179.523 303.424 179.405 305.104 179.143C305.09 177.872 304.229 177.289 303.061 177.289C302.23 177.289 301.454 177.465 300.756 178.326L300.055 177.597C300.871 176.62 301.938 176.254 303.193 176.254C303.982 176.254 304.741 176.546 305.25 177C305.979 177.613 306.199 178.577 306.199 179.496V184.358H305.236H305.233ZM305.131 180.049C303.817 180.252 302.898 180.398 302.403 180.517C301.41 180.72 300.624 181.246 300.624 182.093C300.624 183.013 301.325 183.613 302.302 183.613C303.44 183.613 304.345 183.161 304.812 182.27C305.118 181.67 305.134 181.073 305.134 180.049" fill="#004559"/>
<path d="M302.126 184.713C300.498 184.713 299.406 183.701 299.406 182.195C299.406 181.133 299.871 180.404 300.867 179.898C301.645 179.496 302.751 179.342 304.029 179.163C304.332 179.119 304.643 179.077 304.962 179.028C304.901 178.01 304.214 177.429 303.061 177.429C302.335 177.429 301.568 177.547 300.861 178.414L300.762 178.535L299.868 177.605L299.948 177.512C300.732 176.573 301.791 176.119 303.191 176.119C303.985 176.119 304.789 176.411 305.341 176.898C306.001 177.451 306.337 178.329 306.337 179.499V184.499H305.099V183.511C304.423 184.331 303.466 184.716 302.129 184.716L302.126 184.713ZM303.059 177.151C304.409 177.151 305.226 177.894 305.24 179.141V179.259L305.124 179.278C304.764 179.336 304.412 179.386 304.068 179.432C302.811 179.609 301.728 179.763 300.99 180.14C300.083 180.599 299.679 181.232 299.679 182.193C299.679 183.533 300.66 184.435 302.124 184.435C303.587 184.435 304.486 183.981 305.116 183.007L305.369 182.616V184.215H306.056V179.49C306.056 178.403 305.754 177.6 305.157 177.099C304.654 176.653 303.917 176.386 303.188 176.386C301.904 176.386 300.963 176.769 300.237 177.586L300.746 178.117C301.499 177.267 302.335 177.148 303.059 177.148V177.151ZM302.3 183.75C301.23 183.75 300.484 183.068 300.484 182.094C300.484 181.265 301.191 180.627 302.374 180.382C302.863 180.266 303.776 180.12 305.11 179.914L305.27 179.889V180.049C305.27 181.086 305.253 181.706 304.934 182.33C304.453 183.247 303.521 183.75 302.302 183.75H302.3ZM304.995 180.208C303.754 180.401 302.899 180.539 302.434 180.649C301.928 180.753 300.759 181.1 300.759 182.091C300.759 182.916 301.378 183.472 302.3 183.472C303.411 183.472 304.258 183.021 304.687 182.201C304.962 181.664 304.989 181.106 304.992 180.206L304.995 180.208Z" fill="#004559"/>
<path d="M309.863 173.623H308.799V184.356H309.863V173.623Z" fill="#004559"/>
<path d="M310 184.496H308.658V173.488H310V184.496ZM308.936 184.221H309.728V173.763H308.936V184.221Z" fill="#004559"/>
</g>
<defs>
<linearGradient id="paint0_linear_4754_9074" x1="173.862" y1="76.035" x2="92.4419" y2="112.669" gradientUnits="userSpaceOnUse">
<stop offset="0.1" stop-color="#004559"/>
<stop offset="0.51" stop-color="#1C8AA8"/>
<stop offset="1" stop-color="#C6FFFF"/>
</linearGradient>
<clipPath id="clip0_4754_9074">
<rect width="310" height="188" fill="white"/>
</clipPath>
</defs>
</svg>
