<?xml version="1.0" encoding="utf-8"?>
<!-- Generator: Adobe Illustrator 25.3.1, SVG Export Plug-In . SVG Version: 6.00 Build 0)  -->
<svg version="1.1" id="Capa_1" xmlns="http://www.w3.org/2000/svg" xmlns:xlink="http://www.w3.org/1999/xlink" x="0px" y="0px"
	 viewBox="0 0 226.1 100.3" style="enable-background:new 0 0 226.1 100.3;" xml:space="preserve">
<style type="text/css">
	.st0{fill:url(#SVGID_1_);}
	.st1{fill:#FFFFFF;}
	.st2{opacity:0.16;clip-path:url(#SVGID_3_);fill:#FFFFFF;}
</style>
<g>
	<linearGradient id="SVGID_1_" gradientUnits="userSpaceOnUse" x1="161.3682" y1="-18.6038" x2="48.5112" y2="142.0004">
		<stop  offset="0" style="stop-color:#623482"/>
		<stop  offset="0.8622" style="stop-color:#9154CC"/>
	</linearGradient>
	<path class="st0" d="M216.8,100H9.3C4.2,100,0,95.8,0,90.7V9.6c0-5.1,4.2-9.3,9.3-9.3h207.6c5.1,0,9.3,4.2,9.3,9.3v81.1
		C226.1,95.8,222,100,216.8,100z"/>
	<g>
		<g>
			<path class="st1" d="M61.7,64.3v4.4h-7.9v3.5h5.8v4.2h-5.8V84h-5.5V64.3H61.7z"/>
			<path class="st1" d="M62.2,71.9c0.6-1.2,1.4-2.1,2.4-2.8c1-0.7,2.2-1,3.4-1c1.1,0,2,0.2,2.8,0.6s1.4,1,1.8,1.7v-2.2h5.5V84h-5.5
				v-2.2c-0.4,0.7-1,1.3-1.8,1.7C70,84,69,84.2,68,84.2c-1.3,0-2.4-0.3-3.4-1c-1-0.7-1.8-1.6-2.4-2.8s-0.9-2.6-0.9-4.3
				S61.6,73.1,62.2,71.9z M71.8,73.8c-0.6-0.6-1.2-0.9-2-0.9c-0.8,0-1.5,0.3-2,0.9c-0.5,0.6-0.8,1.4-0.8,2.4c0,1,0.3,1.8,0.8,2.4
				c0.5,0.6,1.2,0.9,2,0.9c0.8,0,1.5-0.3,2-0.9c0.5-0.6,0.8-1.4,0.8-2.4C72.6,75.1,72.3,74.3,71.8,73.8z"/>
			<path class="st1" d="M80.5,71.9c0.7-1.2,1.6-2.1,2.8-2.8s2.6-1,4.1-1c2,0,3.7,0.5,5,1.6c1.4,1.1,2.2,2.6,2.6,4.6h-5.8
				c-0.3-1-1-1.5-2-1.5c-0.7,0-1.2,0.3-1.6,0.9s-0.6,1.4-0.6,2.5c0,1.1,0.2,1.9,0.6,2.5c0.4,0.6,0.9,0.9,1.6,0.9c1,0,1.6-0.5,2-1.5
				h5.8c-0.4,1.9-1.3,3.5-2.6,4.6c-1.4,1.1-3,1.7-5,1.7c-1.5,0-2.9-0.3-4.1-1s-2.1-1.6-2.8-2.8c-0.7-1.2-1-2.6-1-4.3
				C79.5,74.5,79.9,73.1,80.5,71.9z"/>
			<path class="st1" d="M105.8,79.3V84h-2.4c-4,0-6-2-6-6v-5.2h-1.9v-4.6h1.9v-3.8h5.5v3.8h2.9v4.6h-2.9v5.3c0,0.4,0.1,0.7,0.3,0.9
				s0.5,0.3,1,0.3H105.8z"/>
			<path class="st1" d="M110.4,83.2c-1.2-0.7-2.2-1.6-2.9-2.8c-0.7-1.2-1.1-2.6-1.1-4.3c0-1.6,0.4-3,1.1-4.3
				c0.7-1.2,1.7-2.1,2.9-2.8c1.2-0.7,2.6-1,4.2-1c1.6,0,3,0.3,4.2,1c1.2,0.7,2.2,1.6,2.9,2.8c0.7,1.2,1.1,2.6,1.1,4.3
				s-0.4,3-1.1,4.3s-1.7,2.2-3,2.8c-1.2,0.7-2.7,1-4.2,1S111.7,83.9,110.4,83.2z M116.6,78.6c0.5-0.6,0.8-1.4,0.8-2.5
				c0-1.1-0.3-1.9-0.8-2.4c-0.5-0.6-1.1-0.8-1.9-0.8c-0.7,0-1.4,0.3-1.9,0.8c-0.5,0.6-0.8,1.4-0.8,2.4c0,1.1,0.2,1.9,0.7,2.5
				c0.5,0.6,1.1,0.8,1.9,0.8S116,79.2,116.6,78.6z"/>
			<path class="st1" d="M132,68.9c0.9-0.5,1.8-0.8,2.8-0.8V74h-1.5c-1.2,0-2.1,0.2-2.7,0.7c-0.6,0.5-0.9,1.3-0.9,2.4V84h-5.5V68.3
				h5.5v2.8C130.4,70.2,131.2,69.5,132,68.9z"/>
			<path class="st1" d="M136.2,66c-0.6-0.5-0.9-1.2-0.9-2c0-0.8,0.3-1.5,0.9-2s1.4-0.8,2.3-0.8c1,0,1.7,0.3,2.3,0.8
				c0.6,0.5,0.9,1.2,0.9,2c0,0.8-0.3,1.5-0.9,2c-0.6,0.5-1.4,0.8-2.3,0.8C137.5,66.8,136.7,66.6,136.2,66z M141.2,68.3V84h-5.5V68.3
				H141.2z"/>
			<path class="st1" d="M158.1,70c1.1,1.2,1.6,2.8,1.6,4.9V84h-5.5v-8.4c0-0.9-0.2-1.6-0.7-2.1c-0.5-0.5-1.1-0.8-1.9-0.8
				c-0.8,0-1.5,0.3-1.9,0.8s-0.7,1.2-0.7,2.1V84h-5.5V68.3h5.5v2.2c0.5-0.7,1.1-1.3,2-1.7c0.8-0.4,1.8-0.7,2.8-0.7
				C155.6,68.2,157,68.8,158.1,70z"/>
			<path class="st1" d="M170.5,68.7c0.8,0.4,1.4,1,1.8,1.7v-2.2h5.5v15.5c0,1.5-0.3,2.8-0.8,4c-0.6,1.2-1.4,2.1-2.6,2.8
				c-1.2,0.7-2.7,1.1-4.5,1.1c-2.4,0-4.4-0.6-5.8-1.7s-2.3-2.7-2.5-4.6h5.4c0.1,0.5,0.4,0.9,0.8,1.2s1,0.4,1.7,0.4
				c1.9,0,2.8-1,2.8-3.1v-2c-0.4,0.7-1,1.3-1.8,1.7c-0.8,0.4-1.7,0.6-2.8,0.6c-1.3,0-2.4-0.3-3.4-1s-1.8-1.6-2.4-2.8
				s-0.9-2.6-0.9-4.3s0.3-3,0.9-4.3c0.6-1.2,1.4-2.1,2.4-2.8s2.2-1,3.4-1C168.8,68.1,169.7,68.3,170.5,68.7z M171.5,73.8
				c-0.6-0.6-1.2-0.9-2-0.9c-0.8,0-1.5,0.3-2,0.9c-0.5,0.6-0.8,1.4-0.8,2.4c0,1,0.3,1.8,0.8,2.4c0.5,0.6,1.2,0.9,2,0.9
				c0.8,0,1.5-0.3,2-0.9c0.5-0.6,0.8-1.4,0.8-2.4C172.4,75.1,172.1,74.3,171.5,73.8z"/>
		</g>
	</g>
	<g>
		<path class="st1" d="M38.5,31c-1.6,0-3.2,0-4.8,0c-1.5,0-3,0-4.6,0c1.5,0,3,0,4.6,0C35.3,31,36.9,31,38.5,31z"/>
		<path class="st1" d="M15.9,53.6c7.5,0,14.9,0,22.4,0c0.6,0,1.2,0,1.8-0.1c2.9-0.5,4.8-2.9,4.8-5.9c0-5.4,0-10.8,0-16.2
			c0-0.2,0-0.3,0-0.5c0.8-0.1,1.6-0.1,2.4-0.2c5.3-0.9,9.2-5.8,8.8-11.2c-0.4-5.5-4.9-9.8-10.3-10c-4.3-0.1-8.4,2.5-10.1,6.6
			c-0.1,0.3-0.3,0.5-0.7,0.5c-5.9,0-11.8,0-17.7,0c-1,0-1.2,0.2-1.2,1.2C16.1,26.2,16,34.7,16,43.1c0,0.2,0,0.3,0,0.5
			c-0.2,0-0.4,0-0.5,0c-1.5,0-3,0-4.5,0c-0.4,0-0.8,0.1-1,0.5c0,1.4,0,2.8,0,4.2c0,0.1,0.1,0.2,0.1,0.3
			C10.6,51.6,12.9,53.6,15.9,53.6z M45.5,11c5,0,9.1,4.1,9.1,9.1c0,5-4,9.1-9.1,9.2c-5,0-9.2-4.1-9.2-9.1C36.4,15.2,40.5,11,45.5,11
			z M17.7,18.1c5.8,0,11.6,0,17.4,0c-0.4,2.2-0.2,4.3,0.7,6.3c-0.2,0-0.4,0-0.6,0c-2,0-4.1,0-6.1,0c-0.1,0-0.2,0-0.3,0
			c-0.5,0-0.8,0.3-0.8,0.7c0,0.5,0.3,0.8,0.9,0.8c0.1,0,0.2,0,0.4,0c2.3,0,4.7,0,7,0c0.2,0,0.4,0.1,0.6,0.3c1.5,2.2,3.6,3.7,6.3,4.3
			c0.3,0.1,0.4,0.2,0.4,0.5c0,5.5,0,11.1,0,16.6c0,2.3-1.7,4.2-4,4.4c-2.3,0.2-4.3-1.4-4.7-3.7c-0.1-0.3-0.1-0.6-0.1-0.9
			c0-1,0-2,0-2.9c0-0.6-0.2-0.8-0.9-0.9c-0.2,0-0.3,0-0.5,0c-5.1,0-10.2,0-15.3,0c-0.2,0-0.4,0-0.6,0C17.5,35.1,17.6,26.6,17.7,18.1
			z M11.4,45.2c7.3,0,14.5,0,21.7,0c0,0.3,0,0.5,0,0.8c0,0.8,0,1.7,0.1,2.5c0.1,1.3,0.7,2.4,1.6,3.3c0.1,0.1,0.1,0.2,0.2,0.2
			c0,0,0,0,0,0.1c-0.1,0-0.3,0-0.4,0c-6.2,0-12.4,0-18.6,0c-2.7,0-4.6-1.9-4.6-4.6C11.4,46.7,11.4,46,11.4,45.2z"/>
		<path class="st1" d="M38.7,37.6c-3.3,0-6.6,0-9.9,0c-0.2,0-0.5,0.1-0.6,0.2c-0.1,0.2-0.2,0.6-0.2,0.8c0.1,0.4,0.4,0.5,0.8,0.5
			c1.6,0,3.3,0,4.9,0c1.6,0,3.3,0,4.9,0c0.5,0,0.8-0.3,0.8-0.7C39.5,37.9,39.2,37.6,38.7,37.6z"/>
		<path class="st1" d="M33.7,39.1c-1.6,0-3.3,0-4.9,0C30.5,39.1,32.1,39.1,33.7,39.1c1.6,0,3.3,0,4.9,0C37,39.1,35.4,39.1,33.7,39.1
			z"/>
		<path class="st1" d="M28.9,32.5c3.2,0,6.5,0,9.7,0c0.6,0,0.9-0.3,0.9-0.7c0-0.5-0.3-0.8-0.9-0.8c-1.6,0-3.2,0-4.8,0
			c-1.5,0-3,0-4.6,0c-0.1,0-0.2,0-0.3,0c-0.6,0-0.9,0.3-0.9,0.7C28,32.2,28.3,32.5,28.9,32.5z"/>
		<path class="st1" d="M23.9,27.6c1.3,0,2.4-1.1,2.4-2.3c0-1.3-1.1-2.3-2.4-2.3c-1.3,0-2.4,1.1-2.4,2.3
			C21.5,26.5,22.6,27.6,23.9,27.6z M23.9,24.4c0.5,0,0.9,0.3,0.9,0.8c0,0.4-0.4,0.8-0.9,0.8c-0.5,0-0.9-0.3-0.9-0.8
			C23,24.8,23.4,24.4,23.9,24.4z"/>
		<path class="st1" d="M23.9,29.4c-1.3,0-2.4,1-2.4,2.3c0,1.3,1.1,2.4,2.4,2.4c1.3,0,2.4-1,2.4-2.3C26.3,30.5,25.2,29.4,23.9,29.4z
			 M23.9,32.6c-0.5,0-0.9-0.3-0.9-0.8c0-0.5,0.4-0.8,0.9-0.8c0.5,0,0.9,0.4,0.9,0.8C24.8,32.2,24.4,32.6,23.9,32.6z"/>
		<path class="st1" d="M23.9,36c-1.3,0-2.4,1-2.4,2.3c0,1.3,1.1,2.4,2.4,2.4c1.3,0,2.4-1,2.4-2.3C26.3,37,25.3,36,23.9,36z
			 M23.9,39.1c-0.5,0-0.9-0.4-0.9-0.8c0-0.5,0.4-0.8,0.9-0.8c0.5,0,0.9,0.4,0.9,0.8C24.8,38.7,24.4,39.1,23.9,39.1z"/>
		<path class="st1" d="M44.7,20.8c0.3,0.1,0.7,0.1,1.1,0.1c0.8,0.1,1.4,0.8,1.4,1.7c0,0.8-0.6,1.5-1.4,1.6c-1,0.1-1.8-0.5-1.9-1.6
			c-0.1-0.5-0.4-0.8-0.8-0.8c-0.4,0-0.7,0.4-0.7,0.9c0,1.1,0.6,2.1,1.6,2.6c0.6,0.3,0.9,0.6,0.8,1.2c0,0.4,0.3,0.7,0.7,0.7
			c0.4,0,0.7-0.3,0.7-0.7c0-0.3,0-0.5,0-0.8c0.1-0.1,0.3-0.1,0.4-0.1c1.5-0.6,2.4-2.1,2.1-3.7c-0.3-1.4-1.5-2.4-3-2.5
			c-1.1,0-1.9-0.9-1.8-1.9c0.1-0.9,0.8-1.5,1.7-1.5c0.9,0,1.5,0.6,1.6,1.5c0.1,0.6,0.4,0.9,0.9,0.9c0.5-0.1,0.7-0.5,0.6-1.1
			c-0.1-1.1-0.7-1.9-1.6-2.4c-0.3-0.2-0.6-0.3-0.9-0.4c0-0.2,0-0.5,0-0.8c0-0.4-0.2-0.6-0.6-0.6c-0.3-0.1-0.6,0.1-0.8,0.4
			c-0.1,0.2-0.1,0.4-0.1,0.6c0,0.3-0.1,0.5-0.4,0.6c-1.3,0.5-2,1.8-1.9,3.2C42.4,19.3,43.4,20.5,44.7,20.8z"/>
	</g>
	<g>
		<defs>
			<path id="SVGID_2_" d="M216.8,100H9.3C4.2,100,0,95.8,0,90.7V9.6c0-5.1,4.2-9.3,9.3-9.3h207.6c5.1,0,9.3,4.2,9.3,9.3v81.1
				C226.1,95.8,222,100,216.8,100z"/>
		</defs>
		<clipPath id="SVGID_3_">
			<use xlink:href="#SVGID_2_"  style="overflow:visible;"/>
		</clipPath>
		<path class="st2" d="M168-27.5C167.9-27.5,167.9-27.4,168-27.5c-11.7,8-18,20.8-17.3,36.3c0.8,19.7-13.3,45.7-42.1,46.4
			c-29.9,0.6-44.8-22.8-46-42.9C62,2.5,56.4-5.1,51.9-9.2c0,0,0,0-0.1-0.1c-6.3-5.8-14.6-9.5-23.7-9.8c-0.3,0-0.5,0-0.8,0
			c-0.1,0-0.2,0-0.3,0c-0.1,0-0.3,0-0.4,0c-0.4,0-0.9,0-1.3,0c-0.1,0-0.2,0-0.3,0c-0.5,0-1.1,0.1-1.6,0.1c0,0-0.1,0-0.1,0
			c-0.6,0.1-1.2,0.1-1.8,0.2l0,0c-0.6,0.1-1.2,0.2-1.8,0.3c0,0,0,0,0,0c-0.6,0.1-1.1,0.2-1.7,0.4c0,0-0.1,0-0.1,0
			c-0.5,0.1-1,0.3-1.5,0.4c-0.1,0-0.2,0.1-0.3,0.1c-0.4,0.1-0.8,0.3-1.2,0.4c-0.2,0.1-0.4,0.1-0.6,0.2c-0.3,0.1-0.5,0.2-0.8,0.3
			c-0.3,0.1-0.6,0.3-1,0.4c-0.2,0.1-0.3,0.1-0.5,0.2c-0.4,0.2-0.9,0.4-1.3,0.6l-0.1,0c-3.8,1.9-7.3,4.5-10.2,7.6
			C0.4-7.6,0.4-7.5,0.3-7.5c0,0-0.1,0.1-0.1,0.1C0.1-7.2,0-7.1-0.2-6.9C-9.6,3.5-9.3,15.5-6.6,29c1.1,5.7,2.6,15.8-5.2,24.8
			c-3.5,4.1-8.3,6.8-16.3,10.1c-9.5,4-17.4,16-17.4,26.8c0,16.2,13.2,29.4,29.4,29.4c16.2,0,28.3-12.7,29-28.9
			c0.2-5.3-1.5-9,0.9-18.9c2.6-10.7,13.8-17.6,25-17.6c17.5,0,28,14.8,26.5,31.8c-1.2,13,1.5,21.2,6.6,30.3
			c5.3,9.5,18.7,18.4,35.5,19.1c20,0.8,41.2-14.9,41.9-44.4c0.4-19,19.3-38.6,39.3-39.2C204,51.6,222.3,46,231,29.9
			c5.3-9.7,6.5-19.3,5.2-28.1C235-7,231.5-13.5,227.1-19c-9.1-11.4-22-16.5-34.3-16.5C183.6-35.5,174.7-32.6,168-27.5"/>
	</g>
</g>
</svg>
