<?xml version="1.0" encoding="utf-8"?>
<!-- Generator: Adobe Illustrator 25.3.1, SVG Export Plug-In . SVG Version: 6.00 Build 0)  -->
<svg version="1.1" id="Capa_1" xmlns="http://www.w3.org/2000/svg" xmlns:xlink="http://www.w3.org/1999/xlink" x="0px" y="0px"
	 viewBox="0 0 226.1 100.3" style="enable-background:new 0 0 226.1 100.3;" xml:space="preserve">
<style type="text/css">
	.st0{fill:url(#SVGID_1_);}
	.st1{fill:#FFFFFF;}
	.st2{clip-path:url(#SVGID_3_);fill:#FFFFFF;}
	.st3{opacity:0.16;clip-path:url(#SVGID_5_);fill:#FFFFFF;}
</style>
<linearGradient id="SVGID_1_" gradientUnits="userSpaceOnUse" x1="172.7111" y1="-34.7456" x2="57.8345" y2="128.7326">
	<stop  offset="0.1466" style="stop-color:#003DA6"/>
	<stop  offset="1" style="stop-color:#0E50C2"/>
</linearGradient>
<path class="st0" d="M216.8,100H9.3C4.2,100,0,95.8,0,90.7V9.6c0-5.1,4.2-9.3,9.3-9.3h207.6c5.1,0,9.3,4.2,9.3,9.3v81.1
	C226.1,95.8,222,100,216.8,100z"/>
<g>
	<path class="st1" d="M31.1,64.3v4.4h-7.9v3.5H29v4.2h-5.8V84h-5.5V64.3H31.1z"/>
	<path class="st1" d="M31.5,71.9c0.6-1.2,1.4-2.1,2.4-2.8s2.2-1,3.4-1c1.1,0,2,0.2,2.8,0.6s1.4,1,1.8,1.7v-2.2h5.5V84h-5.5v-2.2
		c-0.4,0.7-1,1.3-1.8,1.7c-0.8,0.4-1.7,0.6-2.8,0.6c-1.3,0-2.4-0.3-3.4-1s-1.8-1.6-2.4-2.8s-0.9-2.6-0.9-4.3S30.9,73.1,31.5,71.9z
		 M41.1,73.8c-0.6-0.6-1.2-0.9-2-0.9c-0.8,0-1.5,0.3-2,0.9c-0.5,0.6-0.8,1.4-0.8,2.4c0,1,0.3,1.8,0.8,2.4c0.5,0.6,1.2,0.9,2,0.9
		c0.8,0,1.5-0.3,2-0.9c0.5-0.6,0.8-1.4,0.8-2.4C41.9,75.1,41.6,74.3,41.1,73.8z"/>
	<path class="st1" d="M49.9,71.9c0.7-1.2,1.6-2.1,2.8-2.8s2.6-1,4.1-1c2,0,3.7,0.5,5,1.6c1.4,1.1,2.2,2.6,2.6,4.6h-5.8
		c-0.3-1-1-1.5-2-1.5c-0.7,0-1.2,0.3-1.6,0.9s-0.6,1.4-0.6,2.5c0,1.1,0.2,1.9,0.6,2.5c0.4,0.6,0.9,0.9,1.6,0.9c1,0,1.6-0.5,2-1.5
		h5.8c-0.4,1.9-1.3,3.5-2.6,4.6c-1.4,1.1-3,1.7-5,1.7c-1.5,0-2.9-0.3-4.1-1s-2.1-1.6-2.8-2.8c-0.7-1.2-1-2.6-1-4.3
		C48.9,74.5,49.2,73.1,49.9,71.9z"/>
	<path class="st1" d="M75.1,79.3V84h-2.4c-4,0-6-2-6-6v-5.2h-1.9v-4.6h1.9v-3.8h5.5v3.8h2.9v4.6h-2.9v5.3c0,0.4,0.1,0.7,0.3,0.9
		s0.5,0.3,1,0.3H75.1z"/>
	<path class="st1" d="M79.8,83.2c-1.2-0.7-2.2-1.6-2.9-2.8c-0.7-1.2-1.1-2.6-1.1-4.3c0-1.6,0.4-3,1.1-4.3c0.7-1.2,1.7-2.1,2.9-2.8
		c1.2-0.7,2.6-1,4.2-1c1.6,0,3,0.3,4.2,1c1.2,0.7,2.2,1.6,2.9,2.8c0.7,1.2,1.1,2.6,1.1,4.3s-0.4,3-1.1,4.3s-1.7,2.2-3,2.8
		c-1.2,0.7-2.7,1-4.2,1S81,83.9,79.8,83.2z M85.9,78.6c0.5-0.6,0.8-1.4,0.8-2.5c0-1.1-0.3-1.9-0.8-2.4c-0.5-0.6-1.1-0.8-1.9-0.8
		c-0.7,0-1.4,0.3-1.9,0.8c-0.5,0.6-0.8,1.4-0.8,2.4c0,1.1,0.2,1.9,0.7,2.5c0.5,0.6,1.1,0.8,1.9,0.8S85.4,79.2,85.9,78.6z"/>
	<path class="st1" d="M101.4,68.9c0.9-0.5,1.8-0.8,2.8-0.8V74h-1.5c-1.2,0-2.1,0.2-2.7,0.7c-0.6,0.5-0.9,1.3-0.9,2.4V84h-5.5V68.3
		h5.5v2.8C99.7,70.2,100.5,69.5,101.4,68.9z"/>
	<path class="st1" d="M105.5,66c-0.6-0.5-0.9-1.2-0.9-2c0-0.8,0.3-1.5,0.9-2s1.4-0.8,2.3-0.8c1,0,1.7,0.3,2.3,0.8
		c0.6,0.5,0.9,1.2,0.9,2c0,0.8-0.3,1.5-0.9,2c-0.6,0.5-1.4,0.8-2.3,0.8C106.8,66.8,106.1,66.6,105.5,66z M110.5,68.3V84H105V68.3
		H110.5z"/>
	<path class="st1" d="M127.4,70c1.1,1.2,1.6,2.8,1.6,4.9V84h-5.5v-8.4c0-0.9-0.2-1.6-0.7-2.1c-0.5-0.5-1.1-0.8-1.9-0.8
		c-0.8,0-1.5,0.3-1.9,0.8s-0.7,1.2-0.7,2.1V84h-5.5V68.3h5.5v2.2c0.5-0.7,1.1-1.3,2-1.7c0.8-0.4,1.8-0.7,2.8-0.7
		C124.9,68.2,126.4,68.8,127.4,70z"/>
	<path class="st1" d="M139.9,68.7c0.8,0.4,1.4,1,1.8,1.7v-2.2h5.5v15.5c0,1.5-0.3,2.8-0.8,4c-0.6,1.2-1.4,2.1-2.6,2.8
		c-1.2,0.7-2.7,1.1-4.5,1.1c-2.4,0-4.4-0.6-5.8-1.7s-2.3-2.7-2.5-4.6h5.4c0.1,0.5,0.4,0.9,0.8,1.2s1,0.4,1.7,0.4
		c1.9,0,2.8-1,2.8-3.1v-2c-0.4,0.7-1,1.3-1.8,1.7c-0.8,0.4-1.7,0.6-2.8,0.6c-1.3,0-2.4-0.3-3.4-1s-1.8-1.6-2.4-2.8s-0.9-2.6-0.9-4.3
		s0.3-3,0.9-4.3c0.6-1.2,1.4-2.1,2.4-2.8s2.2-1,3.4-1C138.1,68.1,139.1,68.3,139.9,68.7z M140.9,73.8c-0.6-0.6-1.2-0.9-2-0.9
		c-0.8,0-1.5,0.3-2,0.9c-0.5,0.6-0.8,1.4-0.8,2.4c0,1,0.3,1.8,0.8,2.4c0.5,0.6,1.2,0.9,2,0.9c0.8,0,1.5-0.3,2-0.9
		c0.5-0.6,0.8-1.4,0.8-2.4C141.7,75.1,141.4,74.3,140.9,73.8z"/>
	<path class="st1" d="M179.2,64.3L174.3,84h-6.7l-2.7-12.1L162.1,84h-6.7l-4.8-19.7h5.9l2.3,13.5l3.1-13.5h6l3,13.4l2.3-13.4H179.2z
		"/>
	<path class="st1" d="M194.7,77.3h-10.4c0.1,0.9,0.3,1.5,0.7,1.9s1,0.6,1.6,0.6c0.9,0,1.6-0.4,2-1.2h5.9c-0.2,1.1-0.7,2-1.4,2.9
		c-0.7,0.8-1.6,1.5-2.6,2c-1.1,0.5-2.2,0.7-3.5,0.7c-1.5,0-2.9-0.3-4.1-1c-1.2-0.7-2.1-1.6-2.8-2.8c-0.7-1.2-1-2.6-1-4.3
		s0.3-3.1,1-4.3s1.6-2.1,2.8-2.8s2.6-1,4.2-1c1.5,0,2.9,0.3,4.1,1c1.2,0.6,2.1,1.5,2.8,2.7s1,2.6,1,4.2
		C194.8,76.4,194.8,76.8,194.7,77.3z M189.2,74.6c0-0.7-0.2-1.2-0.7-1.6c-0.4-0.4-1-0.6-1.7-0.6s-1.2,0.2-1.7,0.5
		c-0.4,0.4-0.7,0.9-0.8,1.6H189.2z"/>
	<path class="st1" d="M203.5,68.7c0.8-0.4,1.7-0.6,2.8-0.6c1.2,0,2.4,0.3,3.4,1s1.8,1.6,2.4,2.8c0.6,1.2,0.9,2.6,0.9,4.3
		s-0.3,3-0.9,4.3s-1.4,2.2-2.4,2.8s-2.2,1-3.4,1c-1.1,0-2-0.2-2.8-0.6s-1.4-1-1.8-1.8V84h-5.5V63.3h5.5v7.2
		C202.1,69.7,202.7,69.2,203.5,68.7z M206.6,73.7c-0.6-0.6-1.2-0.9-2-0.9s-1.5,0.3-2,0.9c-0.6,0.6-0.8,1.4-0.8,2.4
		c0,1,0.3,1.8,0.8,2.4c0.6,0.6,1.2,0.9,2,0.9s1.5-0.3,2-0.9c0.5-0.6,0.8-1.4,0.8-2.4C207.4,75.1,207.1,74.3,206.6,73.7z"/>
</g>
<g>
	<g>
		<path class="st1" d="M67,43.6c-0.3,0.7-0.5,1.5-0.9,2.2c-0.9,1.3-2.3,1.9-3.8,1.9c-3.3,0-6.6,0-9.9,0c-0.2,0-0.3,0-0.5,0
			c-0.4-0.1-0.6-0.3-0.6-0.7c0-0.4,0.2-0.7,0.5-0.8c0.2-0.1,0.4-0.1,0.7-0.1c3.2,0,6.4-0.1,9.6,0c2.1,0,3.6-1.5,3.3-3.9
			c-0.2,0-0.4,0-0.5,0c-5.7,0-11.5,0-17.2,0c-0.4,0-0.6,0-0.7,0.5c-0.2,1.2-1.3,2.2-2.6,2.2c-2.4,0-4.9,0-7.3,0
			c-1.4,0-2.4-1-2.6-2.4c-0.1-0.4-0.3-0.4-0.6-0.4c-4.7,0-9.4,0-14,0c-1.2,0-2.5,0-3.7,0c-0.5,2,0.8,3.8,2.8,3.9c0.2,0,0.4,0,0.6,0
			c9.4,0,18.8,0,28.2,0c0.2,0,0.5,0,0.7,0.1c0.4,0.1,0.6,0.4,0.6,0.8c0,0.4-0.2,0.6-0.6,0.7c-0.2,0-0.4,0-0.6,0c-9.5,0-19,0-28.6,0
			c-2,0-3.5-0.7-4.4-2.6c-0.3-0.6-0.4-1.4-0.5-2.1c-0.1-0.4,0-0.9,0-1.3c0-0.9,0.2-1.1,1.1-1.1c0.7,0,1.4,0,2.1,0c0-0.2,0-0.4,0-0.6
			c0-9,0-18,0-27c0-1.7,0.9-2.9,2.4-3.3c0.3-0.1,0.7-0.1,1-0.1c13,0,25.9,0,38.9,0c1.7,0,2.9,0.9,3.3,2.4c0.1,0.4,0.1,0.8,0.1,1.3
			c0,8.9,0,17.8,0,26.7c0,0.2,0,0.4,0,0.7c0.8,0,1.6,0,2.4,0c0.5,0,0.9,0.1,1.1,0.5C67,42,67,42.8,67,43.6z M61.9,40.6
			c0-0.2,0-0.4,0-0.5c0-9,0-18,0-27c0-1.3-0.6-1.9-1.9-1.9c-12.9,0-25.9,0-38.8,0c-1.3,0-1.9,0.6-1.9,1.9c0,9,0,18,0,27
			c0,0.2,0,0.4,0,0.5C33.6,40.6,47.7,40.6,61.9,40.6z M36,42.2c0.1,0.2,0.1,0.4,0.2,0.6c0.3,0.4,0.7,0.6,1.1,0.6c2.3,0,4.5,0,6.8,0
			c0.2,0,0.3,0,0.5-0.1c0.5-0.1,0.8-0.6,0.7-1.1C42.3,42.2,39.2,42.2,36,42.2z"/>
		<path class="st1" d="M22.3,14.1c0,7.9,0,15.7,0,23.6c12.2,0,24.4,0,36.7,0c0-7.9,0-15.7,0-23.6c-0.2,0-0.4,0-0.6,0
			c-9.4,0-18.8,0-28.2,0c-0.2,0-0.4,0-0.6,0c-0.4-0.1-0.7-0.4-0.7-0.8c0-0.4,0.3-0.7,0.7-0.7c0.2,0,0.3,0,0.5,0c9.8,0,19.6,0,29.4,0
			c1,0,1.2,0.2,1.2,1.2c0,8.1,0,16.2,0,24.3c0,1-0.2,1.2-1.2,1.2c-12.5,0-25,0-37.5,0c-1,0-1.2-0.2-1.2-1.2c0-8.1,0-16.2,0-24.3
			c0-1,0.2-1.2,1.2-1.2c1.3,0,2.6,0,3.9,0c0.7,0,1.1,0.6,0.8,1.1c-0.2,0.2-0.5,0.4-0.8,0.4C24.6,14.1,23.5,14.1,22.3,14.1z"/>
		<rect x="25.1" y="12.5" class="st1" width="5.3" height="1.6"/>
		<rect x="47.3" y="46.1" class="st1" width="5.3" height="1.6"/>
	</g>
	<g>
		<defs>
			<path id="SVGID_2_" d="M46.9,19.3C46.9,19.3,46.9,19.3,46.9,19.3c-1,0.7-1.5,1.8-1.5,3.1c0.1,1.7-1.1,3.9-3.6,3.9
				c-2.5,0.1-3.8-1.9-3.9-3.6c-0.1-0.8-0.5-1.5-0.9-1.8c0,0,0,0,0,0c-0.5-0.5-1.2-0.8-2-0.8c0,0,0,0-0.1,0c0,0,0,0,0,0c0,0,0,0,0,0
				c0,0-0.1,0-0.1,0c0,0,0,0,0,0c0,0-0.1,0-0.1,0c0,0,0,0,0,0c0,0-0.1,0-0.1,0l0,0c0,0-0.1,0-0.1,0c0,0,0,0,0,0c0,0-0.1,0-0.1,0
				c0,0,0,0,0,0c0,0-0.1,0-0.1,0c0,0,0,0,0,0c0,0-0.1,0-0.1,0c0,0,0,0-0.1,0c0,0,0,0-0.1,0c0,0-0.1,0-0.1,0c0,0,0,0,0,0
				c0,0-0.1,0-0.1,0.1l0,0c-0.3,0.2-0.6,0.4-0.9,0.6c0,0,0,0,0,0c0,0,0,0,0,0c0,0,0,0,0,0c-0.8,0.9-0.8,1.9-0.5,3
				c0.1,0.5,0.2,1.3-0.4,2.1c-0.3,0.3-0.7,0.6-1.4,0.9c-0.8,0.3-1.5,1.4-1.5,2.3c0,1.4,1.1,2.5,2.5,2.5c1.4,0,2.4-1.1,2.5-2.5
				c0-0.5-0.1-0.8,0.1-1.6c0.2-0.9,1.2-1.5,2.1-1.5c1.5,0,2.4,1.3,2.2,2.7c-0.1,1.1,0.1,1.8,0.6,2.6c0.4,0.8,1.6,1.6,3,1.6
				c1.7,0.1,3.5-1.3,3.6-3.8c0-1.6,1.6-3.3,3.3-3.3c1.3,0,2.9-0.5,3.6-1.9c0.4-0.8,0.6-1.6,0.4-2.4c-0.1-0.8-0.4-1.3-0.8-1.8
				c-0.8-1-1.9-1.4-2.9-1.4C48.2,18.6,47.5,18.9,46.9,19.3"/>
		</defs>
		<use xlink:href="#SVGID_2_"  style="overflow:visible;fill:#FFFFFF;"/>
		<clipPath id="SVGID_3_">
			<use xlink:href="#SVGID_2_"  style="overflow:visible;"/>
		</clipPath>
		<rect x="28.8" y="18.6" class="st2" width="24" height="14.6"/>
	</g>
</g>
<g>
	<defs>
		<path id="SVGID_4_" d="M216.8,100H9.3C4.2,100,0,95.8,0,90.7V9.6c0-5.1,4.2-9.3,9.3-9.3h207.6c5.1,0,9.3,4.2,9.3,9.3v81.1
			C226.1,95.8,222,100,216.8,100z"/>
	</defs>
	<clipPath id="SVGID_5_">
		<use xlink:href="#SVGID_4_"  style="overflow:visible;"/>
	</clipPath>
	<path class="st3" d="M168-27.5C167.9-27.5,167.9-27.4,168-27.5c-11.7,8-18,20.8-17.3,36.3c0.8,19.7-13.3,45.7-42.1,46.4
		c-29.9,0.6-44.8-22.8-46-42.9C62,2.5,56.4-5.1,51.9-9.2c0,0,0,0-0.1-0.1c-6.3-5.8-14.6-9.5-23.7-9.8c-0.3,0-0.5,0-0.8,0
		c-0.1,0-0.2,0-0.3,0c-0.1,0-0.3,0-0.4,0c-0.4,0-0.9,0-1.3,0c-0.1,0-0.2,0-0.3,0c-0.5,0-1.1,0.1-1.6,0.1c0,0-0.1,0-0.1,0
		c-0.6,0.1-1.2,0.1-1.8,0.2l0,0c-0.6,0.1-1.2,0.2-1.8,0.3c0,0,0,0,0,0c-0.6,0.1-1.1,0.2-1.7,0.4c0,0-0.1,0-0.1,0
		c-0.5,0.1-1,0.3-1.5,0.4c-0.1,0-0.2,0.1-0.3,0.1c-0.4,0.1-0.8,0.3-1.2,0.4c-0.2,0.1-0.4,0.1-0.6,0.2c-0.3,0.1-0.5,0.2-0.8,0.3
		c-0.3,0.1-0.6,0.3-1,0.4c-0.2,0.1-0.3,0.1-0.5,0.2c-0.4,0.2-0.9,0.4-1.3,0.6l-0.1,0c-3.8,1.9-7.3,4.5-10.2,7.6
		C0.4-7.6,0.4-7.5,0.3-7.5c0,0-0.1,0.1-0.1,0.1C0.1-7.2,0-7.1-0.2-6.9C-9.6,3.5-9.3,15.5-6.6,29c1.1,5.7,2.6,15.8-5.2,24.8
		c-3.5,4.1-8.3,6.8-16.3,10.1c-9.5,4-17.4,16-17.4,26.8c0,16.2,13.2,29.4,29.4,29.4c16.2,0,28.3-12.7,29-28.9
		c0.2-5.3-1.5-9,0.9-18.9c2.6-10.7,13.8-17.6,25-17.6c17.5,0,28,14.8,26.5,31.8c-1.2,13,1.5,21.2,6.6,30.3
		c5.3,9.5,18.7,18.4,35.5,19.1c20,0.8,41.2-14.9,41.9-44.4c0.4-19,19.3-38.6,39.3-39.2C204,51.6,222.3,46,231,29.9
		c5.3-9.7,6.5-19.3,5.2-28.1C235-7,231.5-13.5,227.1-19c-9.1-11.4-22-16.5-34.3-16.5C183.6-35.5,174.7-32.6,168-27.5"/>
</g>
</svg>
