<?xml version="1.0" encoding="utf-8"?>
<!-- Generator: Adobe Illustrator 25.4.1, SVG Export Plug-In . SVG Version: 6.00 Build 0)  -->
<svg version="1.1" id="Layer_1" xmlns="http://www.w3.org/2000/svg" xmlns:xlink="http://www.w3.org/1999/xlink" x="0px" y="0px"
	 viewBox="0 0 1280 451.6" style="enable-background:new 0 0 1280 451.6;" xml:space="preserve">
<style type="text/css">
	.st0{fill:#DBDBDB;}
	.st1{fill:url(#SVGID_1_);}
</style>
<path class="st0" d="M0,241c0,0,181-26,333,110s470.5,114.9,601.9-56C1084,101,1280,73.7,1280,73.7V0H0V241z"/>
<linearGradient id="SVGID_1_" gradientUnits="userSpaceOnUse" x1="-254.9783" y1="284.859" x2="335.4972" y2="284.859" gradientTransform="matrix(1 0 0 -1 0 510)">
	<stop  offset="0" style="stop-color:#613489"/>
	<stop  offset="0.1494" style="stop-color:#5D3589"/>
	<stop  offset="0.2989" style="stop-color:#51378A"/>
	<stop  offset="0.448" style="stop-color:#3D3C8B"/>
	<stop  offset="0.5638" style="stop-color:#28408C"/>
	<stop  offset="0.6402" style="stop-color:#26458F"/>
	<stop  offset="0.7293" style="stop-color:#215397"/>
	<stop  offset="0.8248" style="stop-color:#186AA5"/>
	<stop  offset="0.9241" style="stop-color:#0B8BB8"/>
	<stop  offset="1" style="stop-color:#00A9C9"/>
</linearGradient>
<path class="st1" d="M353.2,57.4c-22-27.5-53.3-39.9-83.2-39.9c-22.3,0-43.8,6.9-60.2,19.4l-0.1,0.1c-28.4,19.4-43.4,50.5-41.9,88
	c2,47.8-32.3,110.9-102,112.4C38.9,238,17,230.5,0,218.4v193c16.2,11.7,38,20.2,62.9,21.3c48.5,2.1,100-36.2,101.6-107.8
	c1-46,46.7-93.7,95.4-95.1c37.2-1.1,81.5-14.8,102.8-53.8c12.8-23.4,15.8-46.9,12.7-68.1C372.4,86.5,363.9,70.8,353.2,57.4z"/>
</svg>
