<?xml version="1.0" encoding="utf-8"?>
<!-- Generator: Adobe Illustrator 25.4.1, SVG Export Plug-In . SVG Version: 6.00 Build 0)  -->
<svg version="1.1" id="Layer_1" xmlns="http://www.w3.org/2000/svg" xmlns:xlink="http://www.w3.org/1999/xlink" x="0px" y="0px"
	 viewBox="0 0 1280 3193" style="enable-background:new 0 0 1280 3193;" xml:space="preserve">
<style type="text/css">
	.st0{fill:#061355;}
	.st1{fill:#DBDBDB;}
	.st2{fill:url(#SVGID_1_);}
</style>
<path class="st0" d="M393,419c110.2,0,211.8,36.9,293.1,99.1C761,574,861.9,594.9,995,586c148.9-10,238.6-135.3,282-218.2V0H0v621.2
	C87.6,498.8,231,419,393,419z"/>
<path class="st1" d="M1277,367.8C1233.6,450.7,1143.9,576,995,586c-133.1,8.9-234-12-308.9-67.9C604.8,455.9,503.2,419,393,419
	C231,419,87.6,498.8,0,621.2v561.7C87.6,1305.2,231,1385,393,1385c164.7,0,310.1-82.4,397.3-208.3C849,1105,969,1073,1083,1076
	c93.1,2.5,154.7,33.7,194,68.5V367.8z"/>
<linearGradient id="SVGID_1_" gradientUnits="userSpaceOnUse" x1="846.1758" y1="393.522" x2="1277" y2="393.522">
	<stop  offset="0" style="stop-color:#613489"/>
	<stop  offset="0.1494" style="stop-color:#5D3589"/>
	<stop  offset="0.2989" style="stop-color:#51378A"/>
	<stop  offset="0.448" style="stop-color:#3D3C8B"/>
	<stop  offset="0.5638" style="stop-color:#28408C"/>
	<stop  offset="0.6402" style="stop-color:#26458F"/>
	<stop  offset="0.7293" style="stop-color:#215397"/>
	<stop  offset="0.8248" style="stop-color:#186AA5"/>
	<stop  offset="0.9241" style="stop-color:#0B8BB8"/>
	<stop  offset="1" style="stop-color:#00A9C9"/>
</linearGradient>
<path class="st2" d="M1277,367.2c-15.2,11.1-34.4,18.3-57.3,18.8c-72.5,1.6-108.6-55.3-111.5-104c-1.5-24-14.9-42.3-26.1-52.4
	c0,0-0.1-0.1-0.1-0.1c-15.2-14.2-35.3-23-57.6-23.7c-0.6,0-1.2,0-1.8,0c-0.3,0-0.5,0-0.8,0c-0.3,0-0.6,0-1,0c-1.1,0-2.1,0-3.2,0.1
	c-0.3,0-0.5,0-0.8,0c-1.3,0.1-2.6,0.2-3.9,0.3c-0.1,0-0.2,0-0.3,0c-1.4,0.1-2.8,0.3-4.2,0.5l-0.1,0c-1.4,0.2-2.8,0.5-4.3,0.8
	c0,0-0.1,0-0.1,0c-1.3,0.3-2.7,0.6-4,0.9c-0.1,0-0.2,0.1-0.4,0.1c-1.2,0.3-2.3,0.6-3.5,1c-0.3,0.1-0.6,0.2-0.8,0.3
	c-0.9,0.3-1.9,0.6-2.8,1c-0.5,0.2-1,0.4-1.5,0.5c-0.7,0.2-1.3,0.5-2,0.8c-0.8,0.3-1.5,0.6-2.3,1c-0.4,0.2-0.7,0.3-1.1,0.5
	c-1.1,0.5-2.1,1-3.2,1.5l-0.2,0.1c-9.3,4.7-17.6,10.9-24.6,18.4c-0.1,0.1-0.3,0.3-0.4,0.4c-0.1,0.1-0.2,0.2-0.3,0.3
	c-0.3,0.3-0.6,0.7-0.9,1c-23,25.3-22.2,54.4-15.6,87.1c2.8,13.7,6.3,38.4-12.5,60.1c-8.5,9.8-20,16.5-39.6,24.6
	c-23.2,9.6-42.1,38.7-42.1,64.9c0,39.4,31.9,71.3,71.3,71.3c39.4,0,68.6-30.7,70.3-70.1c0.6-12.9-3.7-21.8,2.1-45.8
	c6.3-26.1,33.4-42.8,60.6-42.8c42.6,0,67.9,35.9,64.2,77c-2.8,31.4,3.7,51.4,16,73.4c12.8,22.9,45.5,44.6,86.1,46.3
	c20.9,0.9,42.4-5.7,60.2-19.3V367.2z"/>
<path class="st1" d="M1277,1875.5C1037.9,1997,874,2245.4,874,2532s163.9,535,403,656.5V1875.5z"/>
</svg>
