<svg width="308" height="84" viewBox="0 0 308 84" fill="none" xmlns="http://www.w3.org/2000/svg" xmlns:xlink="http://www.w3.org/1999/xlink">
<g clip-path="url(#clip0_2454_182)">
<path d="M79.1583 2.42647L79.146 2.43541C75.6003 4.85361 73.723 8.73793 73.9174 13.4313C74.1655 19.3952 69.8867 27.2779 61.185 27.4667C52.1335 27.6623 47.629 20.5585 47.2602 14.4884C47.0792 11.4981 45.3951 9.21286 44.0084 7.94677L43.9894 7.93112C42.0356 6.10115 39.4799 5.04907 36.804 4.97318L36.575 4.96759H36.4777H36.3571C36.2252 4.96759 36.0933 4.97095 35.9615 4.97765L35.8598 4.98324C35.6966 4.99218 35.5335 5.00447 35.3714 5.02011H35.3357C35.1591 5.03799 34.9826 5.06034 34.806 5.08828H34.7982C34.6205 5.1151 34.4428 5.14639 34.2652 5.18326H34.254C34.0852 5.21902 33.9187 5.25702 33.7522 5.29501L33.7087 5.30619C33.5611 5.34418 33.4148 5.38664 33.2695 5.43134L33.1644 5.46263C33.046 5.49951 32.9287 5.53974 32.8124 5.58108L32.6236 5.64925C32.5398 5.68054 32.4571 5.71406 32.3755 5.74759C32.2939 5.78111 32.1822 5.82469 32.0861 5.86716L31.9498 5.92862C31.8179 5.98896 31.686 6.05042 31.5564 6.11523L31.5307 6.12864C30.3792 6.70935 29.3384 7.48732 28.4554 8.42728L28.4074 8.47644L28.375 8.51109C28.337 8.55243 28.3001 8.5949 28.2632 8.63736C25.3958 11.7953 25.4964 15.4427 26.3199 19.5159C26.6675 21.2312 27.1022 24.3132 24.7555 27.0152C23.6894 28.2445 22.2557 29.0725 19.8107 30.0883C16.9209 31.2896 14.5586 34.918 14.5586 38.1955C14.5586 40.5546 15.4957 42.8171 17.1639 44.4853C18.832 46.1534 21.0945 47.0906 23.4536 47.0906C28.3705 47.0906 32.0157 43.2543 32.2291 38.3464C32.2995 36.7316 31.771 35.6186 32.4973 32.6283C33.2907 29.3753 36.6655 27.2879 40.0648 27.2879C45.3784 27.2879 48.5375 31.7712 48.0815 36.8981C47.7329 40.8204 48.5475 43.3191 50.0784 46.0614C51.6798 48.9243 55.7541 51.6252 60.8296 51.8409C66.8841 52.0957 73.3095 47.3141 73.5106 38.3832C73.6392 32.6406 79.3449 26.6912 85.4195 26.5135C90.0626 26.3761 95.5996 24.663 98.257 19.8031C99.8572 16.8765 100.233 13.9487 99.846 11.3103C99.4538 8.62842 98.3933 6.65944 97.0646 4.98994C95.8227 3.42663 94.242 2.16574 92.4418 1.30239C90.6415 0.439047 88.6687 -0.00421876 86.6722 0.00603324C83.8919 0.00603324 81.2044 0.862015 79.1527 2.43206" fill="white"/>
<mask id="mask0_2454_182" style="mask-type:luminance" maskUnits="userSpaceOnUse" x="14" y="0" width="86" height="52">
<path d="M79.1564 2.42452L79.1441 2.43346C75.5984 4.85166 73.721 8.73598 73.9154 13.4293C74.1635 19.3933 69.8847 27.2759 61.183 27.4648C52.1315 27.6603 47.627 20.5566 47.2582 14.4865C47.0772 11.4961 45.3932 9.2109 44.0064 7.94481L43.9874 7.92917C42.0336 6.0992 39.478 5.04712 36.8021 4.97123L36.573 4.96564H36.4758H36.3551C36.2232 4.96564 36.0914 4.96899 35.9595 4.9757L35.8578 4.98128C35.6947 4.99022 35.5315 5.00252 35.3695 5.01816H35.3337C35.1572 5.03604 34.9806 5.05839 34.8041 5.08633H34.7962C34.6186 5.11315 34.4409 5.14444 34.2632 5.18131H34.252C34.0833 5.21707 33.9168 5.25506 33.7503 5.29306L33.7067 5.30423C33.5592 5.34223 33.4128 5.38469 33.2675 5.42939L33.1625 5.46068C33.044 5.49756 32.9267 5.53778 32.8105 5.57913L32.6216 5.6473C32.5378 5.67859 32.4551 5.71211 32.3736 5.74563C32.292 5.77916 32.1802 5.82274 32.0841 5.8652L31.9478 5.92666C31.8159 5.98701 31.6841 6.04847 31.5545 6.11328L31.5288 6.12669C30.3773 6.70739 29.3364 7.48537 28.4535 8.42532L28.4054 8.47449L28.373 8.50913C28.335 8.55048 28.2982 8.59294 28.2613 8.63541C25.3939 11.7934 25.4944 15.4408 26.318 19.514C26.6655 21.2293 27.1002 24.3113 24.7535 27.0133C23.6875 28.2425 22.2538 29.0706 19.8087 30.0863C16.919 31.2876 14.5566 34.916 14.5566 38.1936C14.5566 40.5527 15.4938 42.8152 17.1619 44.4833C18.8301 46.1515 21.0926 47.0886 23.4517 47.0886C28.3686 47.0886 32.0137 43.2523 32.2272 38.3444C32.2976 36.7297 31.769 35.6167 32.4954 32.6263C33.2888 29.3734 36.6635 27.286 40.0629 27.286C45.3764 27.286 48.5355 31.7692 48.0796 36.8962C47.7309 40.8185 48.5456 43.3172 50.0765 46.0594C51.6778 48.9224 55.7521 51.6233 60.8277 51.839C66.8821 52.0938 73.3075 47.3121 73.5087 38.3813C73.6372 32.6386 79.343 26.6892 85.4175 26.5116C90.0606 26.3741 95.5977 24.661 98.255 19.8012C99.8552 16.8745 100.231 13.9467 99.8441 11.3084C99.4518 8.62647 98.3914 6.65749 97.0627 4.98799C95.8208 3.42468 94.2401 2.16379 92.4398 1.30044C90.6396 0.437094 88.6668 -0.00617188 86.6702 0.00408011C83.89 0.00408011 81.2025 0.860062 79.1508 2.4301" fill="white"/>
</mask>
<g mask="url(#mask0_2454_182)">
<path d="M100.229 0H14.5586V52.0908H100.229V0Z" fill="white"/>
</g>
<path d="M12.9615 70.5045C12.7055 71.2508 12.3217 71.9469 11.8273 72.5618C10.5578 74.1005 8.65368 74.8314 6.73051 74.8314C4.69225 74.8314 2.78808 74.0044 1.63486 72.5618C0.480512 71.1582 0 69.4463 0 67.6203C0 65.7206 0.500626 64.0243 1.63486 62.6588C2.84619 61.139 4.73024 60.4082 6.73051 60.4082C8.73078 60.4082 10.5958 61.158 11.8273 62.6588C12.4022 63.3904 12.8326 64.2247 13.0956 65.1172L10.4036 65.5787C10.2694 65.0997 10.0477 64.6496 9.74991 64.2512C9.05708 63.3281 7.90385 62.8476 6.73275 62.8476C5.54041 62.8476 4.38606 63.3281 3.71558 64.2512C3.00376 65.1552 2.79144 66.4045 2.77244 67.617C2.79144 68.8283 3.00376 70.0598 3.71558 70.9817C4.38606 71.9047 5.54153 72.3863 6.73275 72.3662C7.90609 72.3863 9.05932 71.9047 9.74991 70.9817C10.0226 70.6094 10.2308 70.1938 10.3656 69.7525L12.9615 70.5045Z" fill="white"/>
<path d="M18.945 63.3133V66.3137H23.6372V68.9285H18.945V74.5438H16.3301V60.6973H24.7916V63.3133H18.945Z" fill="white"/>
<path d="M40.024 70.5045C39.768 71.2511 39.3838 71.9472 38.8887 72.5618C37.6203 74.1005 35.7162 74.8314 33.793 74.8314C31.7547 74.8314 29.8506 74.0044 28.6974 72.5618C27.543 71.1582 27.0625 69.4463 27.0625 67.6203C27.0625 65.7206 27.562 64.0243 28.6974 62.6588C29.9087 61.139 31.7927 60.4082 33.793 60.4082C35.7933 60.4082 37.6583 61.158 38.8887 62.6588C39.4639 63.3903 39.8947 64.2246 40.1581 65.1172L37.4661 65.5787C37.3309 65.1001 37.1094 64.6502 36.8124 64.2512C36.1196 63.3281 34.9664 62.8476 33.7952 62.8476C32.6029 62.8476 31.4486 63.3281 30.7781 64.2512C30.0663 65.1552 29.8551 66.4045 29.8361 67.617C29.8551 68.8283 30.0663 70.0598 30.7781 70.9817C31.4486 71.9047 32.6051 72.3863 33.7952 72.3662C34.9686 72.3863 36.1218 71.9047 36.8124 70.9817C37.0851 70.6094 37.2933 70.1938 37.4281 69.7525L40.024 70.5045Z" fill="white"/>
<path d="M60.0119 70.4274C59.7926 71.2226 59.4202 71.9673 58.9157 72.6199C57.7423 74.1195 55.9544 74.8314 54.0312 74.8314C52.07 74.8314 50.3435 74.1005 49.1657 72.6199C48.0483 71.1784 47.6281 69.3893 47.6471 67.6203C47.6851 65.8324 48.0505 64.0444 49.1657 62.6197C50.3201 61.12 52.108 60.4082 54.0312 60.4082C55.9745 60.4082 57.7814 61.139 58.9157 62.6197C59.4872 63.3824 59.8995 64.2523 60.1281 65.1776L58.6665 65.4089C58.5029 64.7151 58.202 64.0612 57.7814 63.4857C56.9388 62.3504 55.4928 61.7927 54.0334 61.7737C52.5919 61.7547 51.1492 62.3504 50.3223 63.4857C49.4373 64.6211 49.168 66.1386 49.168 67.6203C49.168 69.1021 49.4373 70.6207 50.3223 71.774C51.1492 72.9082 52.5919 73.4658 54.0334 73.4658C55.4951 73.4859 56.9388 72.9071 57.7837 71.774C58.162 71.2449 58.4421 70.6522 58.6106 70.024L60.0119 70.4274Z" fill="white"/>
<path d="M70.1489 74.5454V72.8692C69.2259 74.2918 67.8413 74.8304 66.0522 74.8304C64.071 74.8304 62.6484 73.6191 62.6484 71.6959C62.6484 70.3885 63.1871 69.4844 64.4755 68.8307C65.7449 68.177 67.7642 68.0228 69.9757 67.6764C69.9556 66.0002 68.8213 65.2347 67.2826 65.2347C66.1863 65.2347 65.1672 65.4649 64.2442 66.5991L63.3223 65.6381C64.3984 64.3497 65.8019 63.8691 67.4569 63.8691C68.4962 63.8691 69.4963 64.2536 70.169 64.8503C71.1311 65.6582 71.4194 66.9277 71.4194 68.139V74.5421L70.1489 74.5454ZM70.0114 68.872C68.2805 69.1414 67.0691 69.3336 66.4154 69.4878C65.108 69.7571 64.0687 70.4488 64.0687 71.564C64.0687 72.7765 64.9918 73.5643 66.2813 73.5643C67.781 73.5643 68.9733 72.9687 69.589 71.7954C69.9924 71.0131 70.0114 70.2186 70.0114 68.872Z" fill="white"/>
<path d="M84.4395 69.3336C84.4395 70.6745 84.1701 72.0457 83.3052 73.1609C82.4392 74.2571 81.1317 74.8371 79.7092 74.8371C78.3046 74.8371 77.0742 74.3186 76.2663 73.2983V79.1639H74.8438V64.1653H76.1121V65.5688C76.939 64.4927 78.3247 63.877 79.7662 63.877C81.1709 63.877 82.4783 64.4726 83.3052 65.5532C84.131 66.6103 84.4395 68.0116 84.4395 69.3414M82.9398 69.3414C82.9398 68.2653 82.7286 67.188 82.1509 66.4181C81.5553 65.5923 80.5931 65.1889 79.536 65.1889C78.5169 65.1889 77.5547 65.5733 76.9591 66.3432C76.3434 67.131 76.1121 68.2429 76.1121 69.3425C76.1121 70.46 76.3434 71.5931 76.9591 72.3597C77.5547 73.1285 78.5359 73.533 79.555 73.533C80.5741 73.533 81.5743 73.1106 82.1699 72.2826C82.7476 71.5137 82.9398 70.4365 82.9398 69.3403" fill="white"/>
<path d="M89.0774 62.3131H87.6738V60.7363H89.0774V62.3131ZM89.0774 74.5438H87.6738V64.1636H89.0774V74.5438Z" fill="white"/>
<path d="M95.3681 70.7169C95.3681 71.5829 95.3301 72.1025 95.5793 72.5439C95.8095 73.0245 96.2911 73.2938 96.8298 73.3519C97.4007 73.4122 97.9774 73.3862 98.5406 73.2748V74.5442C97.8089 74.7234 97.048 74.7496 96.3057 74.6213C95.3826 74.4671 94.6898 74.0447 94.3054 73.2558C93.9601 72.5249 93.9411 71.755 93.9411 70.775V65.3709H91.7285V64.164H93.9411V61.2754H95.3681V64.164H98.5406V65.3709H95.3681V70.7169Z" fill="white"/>
<path d="M108.445 74.5454V72.8692C107.522 74.2918 106.137 74.8304 104.348 74.8304C102.367 74.8304 100.945 73.6191 100.945 71.6959C100.945 70.3885 101.483 69.4844 102.771 68.8307C104.041 68.177 106.059 68.0228 108.271 67.6764C108.251 66.0002 107.117 65.2347 105.578 65.2347C104.483 65.2347 103.463 65.4649 102.54 66.5991L101.617 65.6381C102.694 64.3497 104.099 63.8691 105.752 63.8691C106.79 63.8691 107.791 64.2536 108.464 64.8503C109.425 65.6571 109.714 66.9277 109.714 68.139V74.5421L108.445 74.5454ZM108.309 68.872C106.578 69.1414 105.367 69.3336 104.713 69.4878C103.406 69.7571 102.367 70.4488 102.367 71.564C102.367 72.7765 103.29 73.5643 104.579 73.5643C106.079 73.5643 107.271 72.9687 107.886 71.7954C108.29 71.0131 108.309 70.2186 108.309 68.872Z" fill="white"/>
<path d="M114.545 60.4082H113.141V74.5431H114.545V60.4082Z" fill="white"/>
</g>
<g clip-path="url(#clip1_2454_182)">
<rect x="184.545" y="4" width="123.332" height="79.059" fill="url(#pattern0_2454_182)"/>
</g>
<path d="M149.545 20V70" stroke="white"/>
</svg>
