<svg width="33" height="39" viewBox="0 0 33 39" fill="none" xmlns="http://www.w3.org/2000/svg">
<path d="M16.271 0.00890455C16.596 -0.0377289 16.9284 0.109694 17.2473 0.198449C22.3213 1.59294 27.3728 3.51243 32.4288 4.99116C32.6409 5.16416 32.8334 5.36122 32.8109 5.65908C32.6439 10.2758 33.02 15.0339 32.8109 19.6356C32.4273 28.0823 26.6838 35.5195 18.5982 37.9385C17.3917 38.2995 16.7208 38.5372 15.4617 38.2574C6.81345 36.3289 0.466788 28.4493 0.0651382 19.6356C-0.14396 15.0354 0.232116 10.2773 0.0651382 5.65908C0.0455823 5.32211 0.307332 5.05434 0.594654 4.91144L16.2695 0.00890455H16.271ZM31.299 6.15851L16.4741 1.56586L1.57847 6.15851L1.56794 19.6356C1.94853 27.1406 6.90522 33.8167 13.9965 36.2687C14.5351 36.4552 15.9596 36.9246 16.4636 36.9155C17.0006 36.905 18.3199 36.4612 18.8795 36.2687C25.9693 33.8227 30.9275 27.1376 31.3081 19.6356L31.2975 6.16001L31.299 6.15851Z" fill="white"/>
<path d="M20.0975 13.071C20.3863 13.0078 20.6044 13.1161 20.8316 13.2816C21.2964 13.6231 22.9496 15.2883 23.3122 15.7577C23.5168 16.0224 23.6732 16.3007 23.5153 16.6407C21.0362 19.3891 18.2758 21.9193 15.6899 24.5849C15.4206 24.8497 15.0957 24.9384 14.7316 24.7895L9.45602 19.5515C9.26798 19.3439 9.25745 19.034 9.36275 18.7813L12.1563 15.9427C12.5323 15.6749 12.7399 15.7276 13.0979 15.9833C13.4169 16.212 14.9482 17.96 15.1152 17.9299L19.8177 13.2395C19.8974 13.1642 19.9877 13.092 20.099 13.068L20.0975 13.071ZM20.2464 14.9423L15.4447 19.6839C15.198 19.7847 14.8625 19.7847 14.6414 19.6252L12.6376 17.6441L11.1093 19.1032L15.0505 23.0445L21.7703 16.3248C21.4168 16.1819 20.5458 14.8656 20.2479 14.9438L20.2464 14.9423Z" fill="white"/>
<path d="M17.3274 32.337C16.8415 32.5115 16.4113 32.6153 16.1375 32.5777C15.7178 32.519 14.9236 32.1986 14.5054 32.0301C9.4178 29.9753 5.92631 24.9765 5.64049 19.4918L5.6781 9.30911L16.2804 5.95451L17.3274 6.28245V4.67434C17.2808 4.66231 17.2357 4.64877 17.189 4.63674C16.7919 4.52993 16.4835 4.38401 16.0608 4.4502L4.62508 8.03346C4.3513 8.16133 4.11964 8.42759 4.13769 8.748C4.28361 12.3147 3.95567 16.0183 4.13769 19.5685C4.44457 25.5225 8.18577 30.9109 13.6268 33.2847C14.1413 33.5089 15.8607 34.1783 16.3361 34.1663C16.5256 34.1617 16.9348 34.0414 17.3274 33.9105V32.34V32.337Z" fill="white"/>
<path d="M15.3105 32.337C15.7964 32.5115 16.2267 32.6153 16.5005 32.5777C16.9202 32.519 17.7144 32.1986 18.1326 32.0301C23.2202 29.9753 26.7117 24.9765 26.9975 19.4918L26.9599 9.30911L16.3575 5.95451L15.3105 6.28245V4.67434C15.3572 4.66231 15.4023 4.64877 15.4489 4.63674C15.8461 4.52993 16.1545 4.38401 16.5772 4.4502L28.0129 8.03346C28.2867 8.16133 28.5183 8.42759 28.5003 8.748C28.3544 12.3147 28.6823 16.0183 28.5003 19.5685C28.1934 25.5225 24.4522 30.9109 19.0111 33.2847C18.4967 33.5089 16.7772 34.1783 16.3019 34.1663C16.1123 34.1617 15.7032 34.0414 15.3105 33.9105V32.34V32.337Z" fill="white"/>
</svg>
