<svg width="43" height="27" viewBox="0 0 43 27" fill="none" xmlns="http://www.w3.org/2000/svg">
<path d="M10.6698 3.64129H17.7674C19.9577 1.8356 22.0488 1.53324 24.7169 2.48254C26.6717 3.17846 28.5845 4.25276 30.5746 4.90477C30.0885 3.66325 32.0567 3.26968 32.9265 3.00786C34.7114 2.4724 36.6544 2.11937 38.5117 1.95383C39.4352 1.87107 41.0872 1.7106 41.9587 1.78154C42.5088 1.82715 42.8738 2.01802 43 2.59064L42.9664 19.151C42.82 19.597 42.4903 19.7726 42.0411 19.8233C40.3756 20.0108 38.3737 19.6882 36.6712 19.8182C35.9765 19.6814 35.746 19.0176 35.6989 18.3909C35.5828 18.2777 34.4002 19.1375 34.2336 19.3132C34.4775 20.629 33.6734 22.004 32.4537 22.509C32.082 22.6628 31.3418 22.7084 31.1651 22.8182C31.1012 22.8587 30.8303 23.3806 30.7025 23.5343C29.9488 24.4431 28.6165 24.8536 27.4691 24.6661C26.8215 25.6576 25.913 26.5208 24.658 26.5714C24.3014 26.5849 23.647 26.3839 23.4973 26.416C23.3744 26.4431 23.2298 26.6289 23.0918 26.6863C20.9469 27.5748 18.9803 26.416 17.2778 25.2032C13.9654 22.8452 10.4007 19.9821 7.59965 17.0447C7.53236 16.9737 7.48694 16.8893 7.47685 16.7913L7.30525 16.8403C7.16057 17.3318 7.0344 17.9247 6.43046 17.972C4.64388 17.82 2.54775 18.1679 0.799851 17.972C0.392737 17.9264 0.204321 17.7423 0.0428216 17.3825L0.000764479 0.980888C-0.0177407 0.555223 0.30189 0.0873297 0.722462 0.0197639C1.11948 -0.0444236 1.94885 0.065371 2.39634 0.0991539C4.02647 0.224151 9.50232 0.867715 10.5033 2.07883C10.9339 2.60078 10.6732 3.0484 10.6698 3.6396V3.64129ZM1.76717 1.87107V16.2001H5.62969C6.9015 11.9164 8.24901 7.62936 8.91184 3.19029C8.81763 2.70382 2.61167 1.86431 1.76548 1.87107H1.76717ZM41.2403 3.64129C39.5766 3.65818 37.9044 3.80176 36.2675 4.08722C35.8436 4.16155 32.7162 4.82707 32.6741 5.03484C34.4809 9.24925 36.0101 13.5887 37.3761 17.9703H41.2387V3.64129H41.2403ZM31.6429 7.2037C30.6907 6.85911 29.7301 6.52466 28.7897 6.14798C26.9476 5.41151 23.4148 3.53319 21.5694 3.74771C19.3639 4.00446 15.969 7.41822 15.286 9.49418C15.0286 10.2763 14.9109 10.6952 15.7907 10.9333C16.6705 11.1715 17.3721 10.9789 18.0618 10.4266C18.4252 10.1344 18.9416 9.32357 19.1755 9.17662C19.5203 8.9621 19.9628 9.00939 20.3127 8.89284C20.9166 8.69183 22.106 7.97226 22.683 8.14624C23.0515 8.25603 24.1752 9.45364 24.5722 9.79147C26.7777 11.6715 29.2238 13.4248 31.3317 15.3977C32.0433 16.065 32.8138 16.8183 33.3487 17.6308L35.0142 16.6072L35.026 16.5024C33.9914 13.3691 32.8861 10.256 31.6429 7.2037ZM15.7924 5.41151H10.3334L8.0219 14.8488C9.08847 15.8572 10.002 17.0261 11.087 18.0142C11.9534 18.8014 12.9863 19.5868 13.9049 20.3267C15.4458 21.5665 18.9753 24.5884 20.7097 25.0444C20.883 25.09 21.8368 25.3569 21.8352 25.0934C20.9721 24.1678 20.0048 23.3283 19.1469 22.3992C18.8323 22.058 17.9424 21.1662 17.907 20.776C17.838 20.0378 18.7667 19.5057 19.3588 19.9956C20.6054 21.1847 21.6938 22.5462 22.9673 23.7066C23.3172 24.0259 24.1029 24.8164 24.5588 24.7945C25.0719 24.7708 25.6203 24.2455 25.8558 23.8147C24.9037 22.6459 23.6991 21.6594 22.6729 20.5463C22.4088 20.2591 21.5744 19.3909 21.5172 19.0902C21.354 18.249 22.3011 17.6629 22.969 18.2254C24.2778 19.4838 25.4723 20.9922 26.8299 22.1898C27.4574 22.7438 27.7349 23.0749 28.6215 22.8029C28.9512 22.7016 29.3718 22.4905 29.461 22.1256C29.5451 21.7861 29.3718 21.8739 29.18 21.6881C27.5448 20.0969 25.9904 18.4247 24.4006 16.7896C23.7479 15.9923 24.7152 14.8809 25.5715 15.4467C27.163 16.8994 28.5088 18.6426 30.1036 20.0851C30.2516 20.2202 30.9077 20.8199 31.0087 20.8621C31.6227 21.1155 32.4252 20.575 32.4807 19.9382C32.5581 19.0412 30.8724 17.4382 30.2331 16.8369C27.6845 14.4417 24.7287 12.484 22.1985 10.0668C21.7578 10.2171 21.3372 10.4232 20.9049 10.5972C20.6962 10.6816 20.4304 10.6766 20.242 10.7745C19.983 10.9097 19.8013 11.3066 19.6061 11.484C18.2687 12.7036 16.5494 13.2272 14.8049 12.511C11.6792 11.2289 14.2733 7.01789 15.7857 5.41489L15.7924 5.41151Z" fill="white"/>
</svg>
