<?xml version="1.0" encoding="UTF-8"?>
<svg id="Capa_1" xmlns="http://www.w3.org/2000/svg" version="1.1" viewBox="0 0 23.6 22.07">
  <!-- Generator: Adobe Illustrator 29.0.1, SVG Export Plug-In . SVG Version: 2.1.0 Build 192)  -->
  <defs>
    <style>
      .st0 {
        fill: #472c6e;
      }
    </style>
  </defs>
  <path class="st0" d="M22.2,6.87c-.04-1.02-.2-1.83-.5-2.6-.3-.77-.69-1.37-1.27-1.95s-1.18-.97-1.96-1.28c-.77-.29-1.57-.45-2.6-.5-1.08-.05-1.44-.06-4.17-.06s-3.08.01-4.17.06c-1.02.05-1.82.21-2.6.5-.77.3-1.37.7-1.95,1.28s-.97,1.18-1.27,1.95c-.3.77-.46,1.57-.51,2.6-.05,1.09-.06,1.45-.06,4.17s.01,3.09.06,4.17c.05,1.03.21,1.83.51,2.6.29.77.69,1.38,1.27,1.96s1.18.97,1.95,1.27c.77.3,1.57.46,2.6.5,1.09.05,1.45.06,4.17.06s3.09-.01,4.17-.06c1.03-.04,1.83-.2,2.6-.5.78-.3,1.38-.69,1.96-1.27s.97-1.19,1.27-1.96c.3-.77.46-1.57.5-2.6.05-1.06.06-1.42.06-4.17s-.01-3.1-.06-4.17ZM19.39,15.09c-.04.91-.19,1.39-.31,1.71-.16.4-.34.68-.64.98-.3.3-.58.48-.98.64-.32.12-.81.27-1.71.31-1.07.05-1.38.06-4.05.06s-2.98-.01-4.04-.06c-.91-.04-1.39-.19-1.71-.31-.4-.16-.68-.34-.98-.64-.31-.3-.49-.58-.64-.98-.13-.32-.27-.81-.32-1.71-.04-1.07-.05-1.38-.05-4.05s.01-2.98.05-4.04c.05-.91.19-1.39.32-1.71.15-.41.33-.68.64-.98.3-.31.58-.49.98-.64.32-.13.8-.28,1.71-.32,1.04-.04,1.36-.05,4.04-.05s3,.01,4.05.05c.9.04,1.39.19,1.7.32.41.15.69.33.99.64.3.3.48.58.64.98.12.32.27.8.31,1.71.05,1.04.06,1.36.06,4.04s0,3-.06,4.05Z"/>
  <path class="st0" d="M11.7,5.86c-2.85,0-5.18,2.32-5.18,5.18s2.33,5.19,5.18,5.19,5.19-2.33,5.19-5.19-2.33-5.18-5.19-5.18ZM11.7,13.58c-1.4,0-2.54-1.14-2.54-2.54s1.14-2.54,2.54-2.54,2.54,1.14,2.54,2.54-1.14,2.54-2.54,2.54Z"/>
  <circle class="st0" cx="17.07" cy="5.67" r="1.21"/>
</svg>