<svg width="39" height="38" viewBox="0 0 39 38" fill="none" xmlns="http://www.w3.org/2000/svg">
<path d="M20.2115 13.0625C21.6366 13.7029 21.8401 15.4327 20.9114 16.6244L36.941 30.642C40.4955 35.1104 34.5545 40.5492 30.3817 36.6811L16.6525 20.8833C16.3092 21.0097 16.0967 21.2652 15.7193 21.3663C15.0416 21.5476 14.3819 21.4659 13.8083 21.0617C13.4888 20.8373 13.2926 20.491 12.985 20.2607L12.2153 21.0527C12.7784 24.0263 9.60433 26.0041 7.23117 24.004C4.89962 22.0409 2.71369 19.2889 0.495079 17.1653C-0.931492 14.8695 1.12366 12.0654 3.71378 12.685L12.716 3.68425C12.1023 1.11791 14.8559 -0.929816 17.1503 0.437315C19.3035 2.63364 22.014 4.83591 23.9993 7.163C25.6518 9.09927 24.6755 12.0624 22.1047 12.2452C21.7673 12.2689 21.4627 12.1515 21.2145 12.1649C20.9203 12.1813 20.4359 12.8321 20.2144 13.061L20.2115 13.0625ZM15.2958 1.50873C14.2229 1.68854 13.7533 3.06755 14.4249 3.90121L20.9173 10.3906C22.2949 11.4918 24.0053 9.90618 23.1047 8.42611L16.4652 1.7881C16.1131 1.53399 15.7267 1.43591 15.2958 1.50873ZM13.4382 5.13311L5.14927 13.4696L11.3563 19.7317L19.7612 11.3818L13.4382 5.13162V5.13311ZM2.60967 14.1175C1.64525 14.3137 1.16527 15.6689 1.81466 16.4372L8.49428 23.1094C9.98326 23.9326 11.502 22.249 10.4172 20.8893L3.92777 14.3969C3.5518 14.1086 3.07479 14.0224 2.60967 14.1175ZM19.0033 14.339C18.8934 14.3642 18.8057 14.4311 18.727 14.5069L14.4666 18.7777C14.0193 19.491 14.7786 20.3261 15.5023 19.8134L19.8756 15.4341C20.2457 14.7773 19.7196 14.177 19.0048 14.3404L19.0033 14.339ZM25.5537 28.936L28.9641 25.6356L19.8132 17.6661L17.6942 19.8387L25.5537 28.9346V28.936ZM30.1247 26.6431L26.6697 30.0966L27.591 31.2349L31.1842 27.6283C31.2094 27.4827 30.2985 26.7694 30.1247 26.6431ZM32.3403 28.5839L28.6 32.3762C30.4115 34.091 31.9807 37.7793 35.0419 36.0897C36.7062 35.1713 37.0272 32.868 35.718 31.4949L32.3388 28.5853L32.3403 28.5839Z" fill="white"/>
<path d="M18.802 33.2389C19.9136 33.7456 20.6952 34.9627 20.8037 36.1708C20.8557 36.7488 20.9523 37.8247 20.2316 37.9703L0.550828 37.9525C-0.120849 37.7787 -0.0138563 36.6641 0.0426121 36.1054C0.161493 34.93 0.952051 33.7308 2.03684 33.2389C0.853974 31.6474 1.79611 29.4302 3.72495 29.1048C7.99426 29.3024 12.6083 28.7764 16.839 29.0825C18.9491 29.2356 20.0384 31.5196 18.802 33.2389ZM17.5151 32.4736C18.1883 31.8004 17.7455 30.6963 16.8375 30.5685H3.99986C2.65948 30.8345 2.68177 32.5345 3.99986 32.7975L17.0753 32.7396C17.2031 32.6504 17.4111 32.5791 17.5151 32.4751V32.4736ZM19.3206 36.5037C19.3028 35.3446 18.4885 34.444 17.3472 34.2865C12.9011 34.5139 8.1072 33.9566 3.70266 34.2746C2.42915 34.3668 1.56429 35.2183 1.51674 36.5037H19.3206Z" fill="white"/>
<path d="M13.2907 7.51571C14.0159 7.35224 14.4438 8.07296 14.0872 8.68371L10.8581 11.9084C10.0111 12.476 9.19079 11.6557 9.9011 10.7285C10.3796 10.1029 12.1643 8.32707 12.7914 7.83223C12.9177 7.73266 13.1436 7.5484 13.2907 7.51422V7.51571Z" fill="white"/>
<path d="M8.24419 12.7169C9.23536 12.702 9.27548 14.3619 8.08667 14.1717C7.25005 14.0394 7.38676 12.7288 8.24419 12.7169Z" fill="white"/>
</svg>
