<?xml version="1.0" encoding="utf-8"?>
<!-- Generator: Adobe Illustrator 25.3.1, SVG Export Plug-In . SVG Version: 6.00 Build 0)  -->
<svg version="1.1" id="Capa_1" xmlns="http://www.w3.org/2000/svg" xmlns:xlink="http://www.w3.org/1999/xlink" x="0px" y="0px"
	 viewBox="0 0 226.1 100.3" style="enable-background:new 0 0 226.1 100.3;" xml:space="preserve">
<style type="text/css">
	.st0{fill:url(#SVGID_1_);}
	.st1{fill:#FFFFFF;}
	.st2{opacity:0.16;clip-path:url(#SVGID_3_);fill:#FFFFFF;}
</style>
<g>
	<linearGradient id="SVGID_1_" gradientUnits="userSpaceOnUse" x1="161.3682" y1="-18.6038" x2="48.5112" y2="142.0004">
		<stop  offset="0" style="stop-color:#31BCD4"/>
		<stop  offset="0.6682" style="stop-color:#00ABC8"/>
	</linearGradient>
	<path class="st0" d="M216.8,100H9.3C4.2,100,0,95.8,0,90.7V9.6c0-5.1,4.2-9.3,9.3-9.3h207.6c5.1,0,9.3,4.2,9.3,9.3v81.1
		C226.1,95.8,222,100,216.8,100z"/>
	<g>
		<g>
			<path class="st1" d="M45.5,79.8h6.1V84H40V64.3h5.5V79.8z"/>
			<path class="st1" d="M67.6,77.3H57.2c0.1,0.9,0.3,1.5,0.7,1.9s1,0.6,1.6,0.6c0.9,0,1.6-0.4,2-1.2h5.9c-0.2,1.1-0.7,2-1.4,2.9
				c-0.7,0.8-1.6,1.5-2.6,2c-1.1,0.5-2.2,0.7-3.5,0.7c-1.5,0-2.9-0.3-4.1-1c-1.2-0.7-2.1-1.6-2.8-2.8c-0.7-1.2-1-2.6-1-4.3
				s0.3-3.1,1-4.3s1.6-2.1,2.8-2.8s2.6-1,4.2-1c1.5,0,2.9,0.3,4.1,1c1.2,0.6,2.1,1.5,2.8,2.7s1,2.6,1,4.2
				C67.7,76.4,67.7,76.8,67.6,77.3z M62.1,74.6c0-0.7-0.2-1.2-0.7-1.6c-0.4-0.4-1-0.6-1.7-0.6s-1.2,0.2-1.7,0.5
				c-0.4,0.4-0.7,0.9-0.8,1.6H62.1z"/>
			<path class="st1" d="M69.2,71.9c0.6-1.2,1.4-2.1,2.4-2.8s2.2-1,3.4-1c1.1,0,2,0.2,2.8,0.6s1.4,1,1.8,1.7v-2.2h5.5V84h-5.5v-2.2
				c-0.4,0.7-1,1.3-1.8,1.7C77,84,76.1,84.2,75,84.2c-1.3,0-2.4-0.3-3.4-1s-1.8-1.6-2.4-2.8s-0.9-2.6-0.9-4.3S68.6,73.1,69.2,71.9z
				 M78.8,73.8c-0.6-0.6-1.2-0.9-2-0.9c-0.8,0-1.5,0.3-2,0.9c-0.5,0.6-0.8,1.4-0.8,2.4c0,1,0.3,1.8,0.8,2.4c0.5,0.6,1.2,0.9,2,0.9
				c0.8,0,1.5-0.3,2-0.9c0.5-0.6,0.8-1.4,0.8-2.4C79.6,75.1,79.3,74.3,78.8,73.8z"/>
			<path class="st1" d="M90.2,83.5c-1.1-0.5-2-1.1-2.6-2c-0.6-0.8-1-1.8-1.1-2.8h5.3c0.1,0.5,0.3,0.9,0.7,1.2
				c0.4,0.3,0.9,0.4,1.5,0.4c0.4,0,0.8-0.1,1.1-0.3s0.4-0.4,0.4-0.7c0-0.4-0.2-0.7-0.6-0.9c-0.4-0.2-1.1-0.4-2.1-0.6
				c-1.1-0.2-2.1-0.5-2.8-0.8c-0.7-0.3-1.4-0.7-1.9-1.4c-0.6-0.6-0.8-1.5-0.8-2.6c0-0.9,0.3-1.8,0.8-2.5s1.2-1.4,2.2-1.8
				c1-0.4,2.2-0.7,3.5-0.7c2.1,0,3.7,0.5,4.8,1.5c1.2,1,1.9,2.3,2,4h-5c-0.1-0.5-0.3-0.9-0.7-1.2S94.1,72,93.5,72
				c-0.4,0-0.8,0.1-1,0.3c-0.2,0.2-0.4,0.4-0.4,0.7c0,0.4,0.2,0.7,0.6,0.9c0.4,0.2,1.1,0.4,2.1,0.6c1.1,0.2,2.1,0.5,2.8,0.8
				c0.8,0.3,1.4,0.8,2,1.4c0.6,0.7,0.9,1.6,0.9,2.7c0,0.9-0.3,1.7-0.8,2.5c-0.5,0.7-1.3,1.3-2.3,1.7c-1,0.4-2.1,0.6-3.5,0.6
				C92.6,84.2,91.3,84,90.2,83.5z"/>
			<path class="st1" d="M117.1,77.3h-10.4c0.1,0.9,0.3,1.5,0.7,1.9s1,0.6,1.6,0.6c0.9,0,1.6-0.4,2-1.2h5.9c-0.2,1.1-0.7,2-1.4,2.9
				c-0.7,0.8-1.6,1.5-2.6,2c-1.1,0.5-2.2,0.7-3.5,0.7c-1.5,0-2.9-0.3-4.1-1c-1.2-0.7-2.1-1.6-2.8-2.8c-0.7-1.2-1-2.6-1-4.3
				s0.3-3.1,1-4.3s1.6-2.1,2.8-2.8s2.6-1,4.2-1c1.5,0,2.9,0.3,4.1,1c1.2,0.6,2.1,1.5,2.8,2.7s1,2.6,1,4.2
				C117.2,76.4,117.2,76.8,117.1,77.3z M111.6,74.6c0-0.7-0.2-1.2-0.7-1.6c-0.4-0.4-1-0.6-1.7-0.6s-1.2,0.2-1.7,0.5
				c-0.4,0.4-0.7,0.9-0.8,1.6H111.6z"/>
			<path class="st1" d="M125.9,68.7c0.8-0.4,1.7-0.6,2.8-0.6c1.2,0,2.4,0.3,3.4,1s1.8,1.6,2.4,2.8c0.6,1.2,0.9,2.6,0.9,4.3
				s-0.3,3-0.9,4.3s-1.4,2.2-2.4,2.8s-2.2,1-3.4,1c-1.1,0-2-0.2-2.8-0.6s-1.4-1-1.8-1.8V84h-5.5V63.3h5.5v7.2
				C124.5,69.7,125.1,69.2,125.9,68.7z M129,73.7c-0.6-0.6-1.2-0.9-2-0.9s-1.5,0.3-2,0.9c-0.6,0.6-0.8,1.4-0.8,2.4
				c0,1,0.3,1.8,0.8,2.4c0.6,0.6,1.2,0.9,2,0.9s1.5-0.3,2-0.9c0.5-0.6,0.8-1.4,0.8-2.4C129.8,75.1,129.5,74.3,129,73.7z"/>
			<path class="st1" d="M136.9,71.9c0.6-1.2,1.4-2.1,2.4-2.8s2.2-1,3.4-1c1.1,0,2,0.2,2.8,0.6s1.4,1,1.8,1.7v-2.2h5.5V84h-5.5v-2.2
				c-0.4,0.7-1,1.3-1.8,1.7c-0.8,0.4-1.7,0.6-2.8,0.6c-1.3,0-2.4-0.3-3.4-1s-1.8-1.6-2.4-2.8s-0.9-2.6-0.9-4.3
				S136.3,73.1,136.9,71.9z M146.5,73.8c-0.6-0.6-1.2-0.9-2-0.9c-0.8,0-1.5,0.3-2,0.9c-0.5,0.6-0.8,1.4-0.8,2.4c0,1,0.3,1.8,0.8,2.4
				c0.5,0.6,1.2,0.9,2,0.9c0.8,0,1.5-0.3,2-0.9c0.5-0.6,0.8-1.4,0.8-2.4C147.3,75.1,147,74.3,146.5,73.8z"/>
			<path class="st1" d="M155.2,71.9c0.7-1.2,1.6-2.1,2.8-2.8s2.6-1,4.1-1c2,0,3.7,0.5,5,1.6c1.4,1.1,2.2,2.6,2.6,4.6H164
				c-0.3-1-1-1.5-2-1.5c-0.7,0-1.2,0.3-1.6,0.9s-0.6,1.4-0.6,2.5c0,1.1,0.2,1.9,0.6,2.5c0.4,0.6,0.9,0.9,1.6,0.9c1,0,1.6-0.5,2-1.5
				h5.8c-0.4,1.9-1.3,3.5-2.6,4.6c-1.4,1.1-3,1.7-5,1.7c-1.5,0-2.9-0.3-4.1-1s-2.1-1.6-2.8-2.8c-0.7-1.2-1-2.6-1-4.3
				C154.2,74.5,154.6,73.1,155.2,71.9z"/>
			<path class="st1" d="M181,84l-4.3-6.4V84h-5.5V63.3h5.5v11.2l4.3-6.2h6.6l-6.2,7.9l6.3,7.8H181z"/>
		</g>
	</g>
	<g>
		<path class="st1" d="M36.1,9.8c0.2,0,0.4,0,0.6,0c0.1,0,0.1,0.1,0.2,0.1c4.1,0.9,8.2,1.7,12.3,2.6c0.7,0.2,1,0.4,1,1.2
			c0,3,0,5.9,0,8.9c0,0.2,0,0.3,0,0.5c1.5,0.3,2.9,0.6,4.3,0.9c0.9,0.2,1.1,0.4,1.1,1.4c0,7.5,0,15,0,22.5c0,0.2,0,0.3,0,0.5
			c0.4,0.1,0.8,0.3,0.9,0.7c0.2,0.7-0.3,1.2-1.1,1.2c-11.6,0-23.1,0-34.7,0c-0.2,0-0.3,0-0.5-0.1c-0.4-0.1-0.7-0.4-0.7-0.9
			c0-0.4,0.2-0.8,0.6-0.9c0.1,0,0.2-0.1,0.3-0.1c0-0.2,0-0.3,0-0.5c0-8.5,0-17,0-25.5c0-0.9,0.2-1.2,1.1-1.4
			c1.1-0.2,2.2-0.4,3.3-0.6c0-0.2,0-0.3,0-0.5c0-2.2,0-4.5,0-6.7c0-0.7,0.3-1,0.9-1.1c2.5-0.5,4.9-1,7.4-1.4
			C34.1,10.3,35.1,10.1,36.1,9.8z M30.1,48.3c0-2.5,0-5,0-7.5c-0.1,0-0.2,0-0.3,0c-1.2,0.2-2.4,0.5-3.5,0.7
			c-0.7,0.2-1.5,0.3-2.2,0.4c-0.4,0.1-0.7-0.1-0.8-0.4c-0.1-0.3-0.1-0.6,0.2-0.9c0.2-0.1,0.4-0.2,0.6-0.3c0.9-0.2,1.8-0.4,2.8-0.6
			c1.1-0.2,2.2-0.5,3.3-0.7c0-1.1,0-2.2,0-3.3c-2,0.4-3.9,0.8-5.8,1.2c-0.6,0.1-1-0.1-1.1-0.6c-0.1-0.5,0.2-0.8,0.7-1
			c0.8-0.2,1.5-0.3,2.3-0.5c1.3-0.3,2.6-0.5,3.9-0.8c0-1.1,0-2.2,0-3.3c-1.2,0.2-2.3,0.5-3.5,0.7c-0.8,0.2-1.6,0.3-2.4,0.5
			c-0.7,0.1-1.2-0.3-1-0.9c0.1-0.4,0.4-0.5,0.8-0.6c1.2-0.2,2.4-0.5,3.5-0.7c0.9-0.2,1.7-0.4,2.6-0.5c0-1.1,0-2.2,0-3.3
			c-0.5,0.1-0.9,0.2-1.4,0.3c-1.5,0.3-3,0.6-4.5,0.9c-0.4,0.1-0.7,0-0.8-0.3c-0.1-0.2-0.1-0.6,0-0.8c0.1-0.2,0.4-0.4,0.7-0.4
			c1.9-0.4,3.8-0.8,5.7-1.2c0.3-0.1,0.5-0.2,0.5-0.6c0-0.6,0-1.2,0-1.8c0-0.3,0-0.6,0-0.9c-0.2,0-0.3,0-0.4,0.1
			c-2.3,0.5-4.6,0.9-6.9,1.4c-0.4,0.1-0.4,0.2-0.4,0.5c0,8.2,0,16.5,0,24.7c0,0.1,0,0.3,0,0.4C24.9,48.3,27.5,48.3,30.1,48.3z
			 M32,48.3c7.3,0,14.5,0,21.7,0c0-0.9,0-1.8,0-2.7c0-0.3-0.1-0.4-0.4-0.4c-6.6-1.4-13.3-2.8-19.9-4.2c-0.5-0.1-1-0.2-1.5-0.3
			C32,43.2,32,45.7,32,48.3z M37.4,12c0,0.1,0,0.2,0,0.3c0,2.6,0,5.2,0,7.8c0,0.3,0.1,0.3,0.3,0.4c3.2,0.7,6.4,1.4,9.7,2
			c0.3,0.1,0.6,0.1,0.9,0.2c0-0.1,0-0.1,0-0.1c0-2.7,0-5.3,0-8c0-0.3-0.1-0.3-0.3-0.3c-2.5-0.5-5-1-7.5-1.6
			C39.5,12.4,38.5,12.2,37.4,12z M32,35.8c0,1,0,2,0,3c0,0.3,0.1,0.4,0.3,0.4c6.6,1.4,13.3,2.8,19.9,4.2c0.5,0.1,1,0.2,1.4,0.3
			c0-1.1,0-2.2,0-3.3C46.5,38.8,39.2,37.3,32,35.8z M32,25.9c0,0.1,0,0.2,0,0.3c0,0.9,0,1.8,0,2.6c0,0.3,0.1,0.4,0.4,0.4
			c6.2,1.3,12.4,2.6,18.6,3.9c0.9,0.2,1.8,0.4,2.8,0.6c0-1,0-2,0-3c0-0.3-0.1-0.4-0.3-0.4c-6.1-1.3-12.2-2.6-18.3-3.8
			C34.1,26.3,33,26.1,32,25.9z M53.7,35.4c-7.2-1.5-14.4-3-21.7-4.6c0,1,0,1.9,0,2.8c0,0.4,0.1,0.6,0.5,0.6
			c5.2,1.1,10.5,2.2,15.7,3.3c1.8,0.4,3.6,0.8,5.5,1.1C53.7,37.6,53.7,36.5,53.7,35.4z M53.7,28.9c0-1.1,0-2.1,0-3.2
			c-7.2-1.5-14.4-3-21.7-4.6c0,1,0,1.8,0,2.7c0,0.4,0.1,0.5,0.5,0.6c6.2,1.3,12.4,2.6,18.7,3.9C52,28.5,52.8,28.7,53.7,28.9z
			 M26.8,19.8c0.9-0.2,1.7-0.4,2.6-0.5c0.7-0.1,1.3-0.3,2-0.2c0.7,0,1.3,0.3,2,0.4c0.7,0.1,1.4,0.3,2.1,0.4c0-2.7,0-5.3,0-8
			c-2.9,0.6-5.8,1.1-8.6,1.7C26.8,15.7,26.8,17.8,26.8,19.8z"/>
		<path class="st1" d="M39.6,15.8c0.7,0.1,1.4,0.3,2.1,0.4c1.5,0.3,3,0.6,4.5,0.9c0.1,0,0.1,0,0.2,0c0.5,0.1,0.7,0.5,0.6,1
			c-0.1,0.4-0.5,0.6-1,0.5c-1-0.2-2-0.4-3-0.6c-1.2-0.2-2.3-0.5-3.5-0.7c-0.2,0-0.4-0.1-0.5-0.2c-0.3-0.2-0.3-0.5-0.2-0.8
			C38.9,16,39.2,15.8,39.6,15.8z"/>
	</g>
</g>
<g>
	<defs>
		<path id="SVGID_2_" d="M216.8,100H9.3C4.2,100,0,95.8,0,90.7V9.6c0-5.1,4.2-9.3,9.3-9.3h207.6c5.1,0,9.3,4.2,9.3,9.3v81.1
			C226.1,95.8,222,100,216.8,100z"/>
	</defs>
	<clipPath id="SVGID_3_">
		<use xlink:href="#SVGID_2_"  style="overflow:visible;"/>
	</clipPath>
	<path class="st2" d="M168-27.5C167.9-27.5,167.9-27.4,168-27.5c-11.7,8-18,20.8-17.3,36.3c0.8,19.7-13.3,45.7-42.1,46.4
		c-29.9,0.6-44.8-22.8-46-42.9C62,2.5,56.4-5.1,51.9-9.2c0,0,0,0-0.1-0.1c-6.3-5.8-14.6-9.5-23.7-9.8c-0.3,0-0.5,0-0.8,0
		c-0.1,0-0.2,0-0.3,0c-0.1,0-0.3,0-0.4,0c-0.4,0-0.9,0-1.3,0c-0.1,0-0.2,0-0.3,0c-0.5,0-1.1,0.1-1.6,0.1c0,0-0.1,0-0.1,0
		c-0.6,0.1-1.2,0.1-1.8,0.2l0,0c-0.6,0.1-1.2,0.2-1.8,0.3c0,0,0,0,0,0c-0.6,0.1-1.1,0.2-1.7,0.4c0,0-0.1,0-0.1,0
		c-0.5,0.1-1,0.3-1.5,0.4c-0.1,0-0.2,0.1-0.3,0.1c-0.4,0.1-0.8,0.3-1.2,0.4c-0.2,0.1-0.4,0.1-0.6,0.2c-0.3,0.1-0.5,0.2-0.8,0.3
		c-0.3,0.1-0.6,0.3-1,0.4c-0.2,0.1-0.3,0.1-0.5,0.2c-0.4,0.2-0.9,0.4-1.3,0.6l-0.1,0c-3.8,1.9-7.3,4.5-10.2,7.6
		C0.4-7.6,0.4-7.5,0.3-7.5c0,0-0.1,0.1-0.1,0.1C0.1-7.2,0-7.1-0.2-6.9C-9.6,3.5-9.3,15.5-6.6,29c1.1,5.7,2.6,15.8-5.2,24.8
		c-3.5,4.1-8.3,6.8-16.3,10.1c-9.5,4-17.4,16-17.4,26.8c0,16.2,13.2,29.4,29.4,29.4c16.2,0,28.3-12.7,29-28.9
		c0.2-5.3-1.5-9,0.9-18.9c2.6-10.7,13.8-17.6,25-17.6c17.5,0,28,14.8,26.5,31.8c-1.2,13,1.5,21.2,6.6,30.3
		c5.3,9.5,18.7,18.4,35.5,19.1c20,0.8,41.2-14.9,41.9-44.4c0.4-19,19.3-38.6,39.3-39.2C204,51.6,222.3,46,231,29.9
		c5.3-9.7,6.5-19.3,5.2-28.1C235-7,231.5-13.5,227.1-19c-9.1-11.4-22-16.5-34.3-16.5C183.6-35.5,174.7-32.6,168-27.5"/>
</g>
</svg>
