<?xml version="1.0" encoding="utf-8"?>
<!-- Generator: Adobe Illustrator 25.3.1, SVG Export Plug-In . SVG Version: 6.00 Build 0)  -->
<svg version="1.1" id="Capa_1" xmlns="http://www.w3.org/2000/svg" xmlns:xlink="http://www.w3.org/1999/xlink" x="0px" y="0px"
	 viewBox="0 0 226.1 100.3" style="enable-background:new 0 0 226.1 100.3;" xml:space="preserve">
<style type="text/css">
	.st0{fill:url(#SVGID_1_);}
	.st1{fill:#FFFFFF;}
	.st2{clip-path:url(#SVGID_3_);fill:#FFFFFF;}
	.st3{opacity:0.16;clip-path:url(#SVGID_5_);fill:#FFFFFF;}
</style>
<g>
	<g>
		<linearGradient id="SVGID_1_" gradientUnits="userSpaceOnUse" x1="161.3682" y1="-18.6038" x2="48.5112" y2="142.0004">
			<stop  offset="0" style="stop-color:#1945A6"/>
			<stop  offset="1" style="stop-color:#15397A"/>
		</linearGradient>
		<path class="st0" d="M216.8,100H9.3C4.2,100,0,95.8,0,90.7V9.6c0-5.1,4.2-9.3,9.3-9.3h207.6c5.1,0,9.3,4.2,9.3,9.3v81.1
			C226.1,95.8,222,100,216.8,100z"/>
		<g>
			<g>
				<path class="st1" d="M71.5,45.2c-0.6,1.8-1.9,2.6-3.7,2.4c-0.6,0-1.1,0-1.7,0c-0.5,0-1.1-0.2-1.4,0.1c-0.3,0.2-0.3,0.8-0.5,1.2
					c-1.6,4.1-6,5.8-9.9,3.7c-1.8-1-2.9-2.6-3.4-4.6c0-0.1,0-0.2-0.1-0.4c-5.9,0-11.9,0-17.6,0c-0.5,1-0.9,2.1-1.5,3
					c-2.5,3.8-8.6,3.8-11.1,0c-0.5-0.8-0.8-1.8-1.2-2.6c-0.1-0.2-0.3-0.3-0.4-0.4c-0.5,0-1,0-1.6,0c-1.8,0-3-1.3-3.1-3.1
					c0-0.9,0-1.8,0-2.8c-0.2,0-0.4,0-0.6,0c-1,0-1.3-0.4-1.3-1.3c0-5.2,0-10.4,0-15.6c0-3.1,0-6.2,0-9.3c0-2.1,1.2-3.3,3.3-3.3
					c11.2,0,22.5,0,33.7,0c2.1,0,3.3,1.2,3.3,3.3c0,1.8,0,3.6,0,5.6c0.3,0,0.5,0,0.7,0c2.6,0,5.2,0,7.8,0c1.2,0,2.1,0.4,2.9,1.3
					c2.1,2.4,4.2,4.7,6.2,7c0.4,0.5,0.7,1.1,1,1.7C71.5,35.8,71.5,40.5,71.5,45.2z M50.9,39.7c0-0.3,0-0.5,0-0.6
					c0-7.8,0-15.6,0-23.4c0-1.2-0.3-1.4-1.5-1.4c-11.1,0-22.3,0-33.4,0c-1.2,0-1.5,0.3-1.5,1.5c0,7.8,0,15.6,0,23.4
					c0,0.2,0,0.4,0,0.6C26.7,39.7,38.8,39.7,50.9,39.7z M69.6,35.8c-0.3,0-0.5,0-0.7,0c-2.9,0-5.9,0-8.8,0c-2.1,0-3.2-1.2-3.2-3.3
					c0-3,0-5.9,0-8.9c0-0.2,0-0.4,0-0.6c-1.3,0-2.6,0-3.9,0c0,5.6,0,11.1,0,16.7c1.6,0,3.3,0,4.9,0c3.3,0.1,6,2.2,6.7,5.5
					c0.1,0.3,0.2,0.4,0.5,0.4c1.1,0,2.1,0,3.2,0c1.1,0,1.4-0.3,1.4-1.4c0-2.6,0-5.3,0-7.9C69.6,36.2,69.6,36,69.6,35.8z M58.8,23
					c0,0.3,0,0.4,0,0.6c0,2.9,0,5.8,0,8.7c0,1.1,0.3,1.4,1.4,1.4c2.9,0,5.8,0,8.7,0c0.2,0,0.4,0,0.6,0c0-0.7,0.1-1.3,0-1.8
					c-0.1-0.4-0.2-0.9-0.4-1.2c-2.1-2.4-4.3-4.8-6.4-7.2c-0.2-0.2-0.6-0.5-0.9-0.5C60.8,23,59.8,23,58.8,23z M62.7,46.6
					c0-2.7-2.2-4.9-4.9-4.9c-2.7,0-4.9,2.2-4.9,4.9c0,2.7,2.2,4.9,4.9,4.9C60.5,51.5,62.7,49.3,62.7,46.6z M21.5,46.5
					c-0.1,2.7,2.1,4.9,4.8,5c2.7,0.1,4.9-2.1,5-4.8c0.1-2.7-2.1-4.9-4.8-5C23.7,41.7,21.5,43.8,21.5,46.5z M45,45.6
					c0-1.3,0-2.6,0-3.8c-2.3,0-4.5,0-6.8,0c0,1.3,0,2.6,0,3.8C40.5,45.6,42.7,45.6,45,45.6z M52.8,41.7c-1.9,0-3.8,0-5.7,0
					c0,1.3,0,2.6,0,3.9c1,0,2,0,2.9,0c1,0,1,0,1.3-0.9c0-0.1,0.1-0.3,0.2-0.4C51.8,43.4,52.3,42.6,52.8,41.7z M36.2,41.7
					c-1.6,0-3.2,0-4.9,0c1,1.1,1.6,2.3,1.9,3.6c0,0.1,0.2,0.2,0.3,0.2c0.9,0,1.9,0,2.8,0C36.2,44.3,36.2,43,36.2,41.7z M16.5,41.7
					c0,1,0,1.9,0,2.8c0,0.7,0.4,1,1.1,1.1c0.5,0,1,0,1.5,0c0.3,0,0.4-0.1,0.5-0.4c0.3-0.9,0.7-1.7,1.1-2.6c0.2-0.3,0.4-0.6,0.7-0.9
					C19.8,41.7,18.2,41.7,16.5,41.7z"/>
				<path class="st1" d="M57.8,43.7c1.6,0,3,1.3,3,3c0,1.6-1.3,2.9-2.9,2.9c-1.6,0-2.9-1.3-2.9-2.9C54.9,45,56.2,43.7,57.8,43.7z
					 M58.8,46.6c0-0.5-0.4-1-0.9-1c-0.5,0-1,0.4-1,0.9c0,0.5,0.4,1,0.9,1C58.3,47.6,58.8,47.2,58.8,46.6z"/>
				<path class="st1" d="M26.3,43.7c1.6,0,3,1.3,3,2.9c0,1.6-1.3,2.9-2.9,2.9c-1.6,0-2.9-1.3-2.9-2.9C23.4,45,24.7,43.7,26.3,43.7z
					 M27.3,46.6c0-0.5-0.4-1-0.9-1c-0.5,0-1,0.4-1,0.9c0,0.5,0.4,1,0.9,1C26.8,47.6,27.3,47.1,27.3,46.6z"/>
			</g>
			<g>
				<defs>
					<path id="SVGID_2_" d="M39.7,20C39.7,20,39.7,20,39.7,20c-1.1,0.7-1.6,1.9-1.6,3.3c0.1,1.8-1.2,4.1-3.8,4.2
						c-2.7,0.1-4-2.1-4.1-3.9c-0.1-0.9-0.6-1.6-1-1.9c0,0,0,0,0,0c-0.6-0.5-1.3-0.9-2.1-0.9c0,0,0,0-0.1,0c0,0,0,0,0,0c0,0,0,0,0,0
						c0,0-0.1,0-0.1,0c0,0,0,0,0,0c0,0-0.1,0-0.1,0c0,0,0,0,0,0c-0.1,0-0.1,0-0.2,0l0,0c-0.1,0-0.1,0-0.2,0c0,0,0,0,0,0
						c0,0-0.1,0-0.1,0c0,0,0,0,0,0c0,0-0.1,0-0.1,0c0,0,0,0,0,0c0,0-0.1,0-0.1,0c0,0,0,0-0.1,0c0,0,0,0-0.1,0c0,0-0.1,0-0.1,0
						c0,0,0,0,0,0c0,0-0.1,0-0.1,0.1l0,0c-0.3,0.2-0.7,0.4-0.9,0.7c0,0,0,0,0,0c0,0,0,0,0,0c0,0,0,0,0,0c-0.9,0.9-0.8,2-0.6,3.2
						c0.1,0.5,0.2,1.4-0.5,2.2c-0.3,0.4-0.7,0.6-1.5,0.9c-0.9,0.4-1.6,1.4-1.6,2.4c0,1.5,1.2,2.6,2.6,2.6c1.5,0,2.5-1.1,2.6-2.6
						c0-0.5-0.1-0.8,0.1-1.7c0.2-1,1.2-1.6,2.2-1.6c1.6,0,2.5,1.3,2.4,2.9c-0.1,1.2,0.1,1.9,0.6,2.7c0.5,0.9,1.7,1.7,3.2,1.7
						c1.8,0.1,3.7-1.3,3.8-4c0-1.7,1.7-3.5,3.5-3.5c1.4,0,3-0.6,3.8-2c0.5-0.9,0.6-1.7,0.5-2.5c-0.1-0.8-0.4-1.4-0.8-1.9
						c-0.8-1-2-1.5-3.1-1.5C41.1,19.2,40.3,19.5,39.7,20"/>
				</defs>
				<use xlink:href="#SVGID_2_"  style="overflow:visible;fill:#FFFFFF;"/>
				<clipPath id="SVGID_3_">
					<use xlink:href="#SVGID_2_"  style="overflow:visible;"/>
				</clipPath>
				<rect x="20.5" y="19.2" class="st2" width="25.5" height="15.5"/>
			</g>
		</g>
		<g>
			<g>
				<path class="st1" d="M76.9,79.8h6.1V84H71.5V64.3h5.5V79.8z"/>
				<path class="st1" d="M99.1,77.3H88.7c0.1,0.9,0.3,1.5,0.7,1.9s1,0.6,1.6,0.6c0.9,0,1.6-0.4,2-1.2h5.9c-0.2,1.1-0.7,2-1.4,2.9
					c-0.7,0.8-1.6,1.5-2.6,2c-1.1,0.5-2.2,0.7-3.5,0.7c-1.5,0-2.9-0.3-4.1-1c-1.2-0.7-2.1-1.6-2.8-2.8c-0.7-1.2-1-2.6-1-4.3
					s0.3-3.1,1-4.3s1.6-2.1,2.8-2.8s2.6-1,4.2-1c1.5,0,2.9,0.3,4.1,1c1.2,0.6,2.1,1.5,2.8,2.7s1,2.6,1,4.2
					C99.2,76.4,99.2,76.8,99.1,77.3z M93.6,74.6c0-0.7-0.2-1.2-0.7-1.6c-0.4-0.4-1-0.6-1.7-0.6S90,72.6,89.6,73
					c-0.4,0.4-0.7,0.9-0.8,1.6H93.6z"/>
				<path class="st1" d="M100.7,71.9c0.6-1.2,1.4-2.1,2.4-2.8s2.2-1,3.4-1c1.1,0,2,0.2,2.8,0.6s1.4,1,1.8,1.7v-2.2h5.5V84h-5.5v-2.2
					c-0.4,0.7-1,1.3-1.8,1.7c-0.8,0.4-1.7,0.6-2.8,0.6c-1.3,0-2.4-0.3-3.4-1s-1.8-1.6-2.4-2.8s-0.9-2.6-0.9-4.3
					S100.1,73.1,100.7,71.9z M110.3,73.8c-0.6-0.6-1.2-0.9-2-0.9c-0.8,0-1.5,0.3-2,0.9c-0.5,0.6-0.8,1.4-0.8,2.4
					c0,1,0.3,1.8,0.8,2.4c0.5,0.6,1.2,0.9,2,0.9c0.8,0,1.5-0.3,2-0.9c0.5-0.6,0.8-1.4,0.8-2.4C111.1,75.1,110.8,74.3,110.3,73.8z"/>
				<path class="st1" d="M121.7,83.5c-1.1-0.5-2-1.1-2.6-2c-0.6-0.8-1-1.8-1.1-2.8h5.3c0.1,0.5,0.3,0.9,0.7,1.2
					c0.4,0.3,0.9,0.4,1.5,0.4c0.4,0,0.8-0.1,1.1-0.3s0.4-0.4,0.4-0.7c0-0.4-0.2-0.7-0.6-0.9c-0.4-0.2-1.1-0.4-2.1-0.6
					c-1.1-0.2-2.1-0.5-2.8-0.8c-0.7-0.3-1.4-0.7-1.9-1.4c-0.6-0.6-0.8-1.5-0.8-2.6c0-0.9,0.3-1.8,0.8-2.5s1.2-1.4,2.2-1.8
					c1-0.4,2.2-0.7,3.5-0.7c2.1,0,3.7,0.5,4.8,1.5c1.2,1,1.9,2.3,2,4h-5c-0.1-0.5-0.3-0.9-0.7-1.2S125.6,72,125,72
					c-0.4,0-0.8,0.1-1,0.3c-0.2,0.2-0.4,0.4-0.4,0.7c0,0.4,0.2,0.7,0.6,0.9c0.4,0.2,1.1,0.4,2.1,0.6c1.1,0.2,2.1,0.5,2.8,0.8
					c0.8,0.3,1.4,0.8,2,1.4c0.6,0.7,0.9,1.6,0.9,2.7c0,0.9-0.3,1.7-0.8,2.5c-0.5,0.7-1.3,1.3-2.3,1.7c-1,0.4-2.1,0.6-3.5,0.6
					C124.1,84.2,122.8,84,121.7,83.5z"/>
				<path class="st1" d="M134.1,66c-0.6-0.5-0.9-1.2-0.9-2c0-0.8,0.3-1.5,0.9-2s1.4-0.8,2.3-0.8c1,0,1.7,0.3,2.3,0.8
					c0.6,0.5,0.9,1.2,0.9,2c0,0.8-0.3,1.5-0.9,2c-0.6,0.5-1.4,0.8-2.3,0.8C135.5,66.8,134.7,66.6,134.1,66z M139.2,68.3V84h-5.5
					V68.3H139.2z"/>
				<path class="st1" d="M156.1,70c1.1,1.2,1.6,2.8,1.6,4.9V84h-5.5v-8.4c0-0.9-0.2-1.6-0.7-2.1c-0.5-0.5-1.1-0.8-1.9-0.8
					c-0.8,0-1.5,0.3-1.9,0.8s-0.7,1.2-0.7,2.1V84h-5.5V68.3h5.5v2.2c0.5-0.7,1.1-1.3,2-1.7c0.8-0.4,1.8-0.7,2.8-0.7
					C153.6,68.2,155,68.8,156.1,70z"/>
				<path class="st1" d="M168.5,68.7c0.8,0.4,1.4,1,1.8,1.7v-2.2h5.5v15.5c0,1.5-0.3,2.8-0.8,4c-0.6,1.2-1.4,2.1-2.6,2.8
					c-1.2,0.7-2.7,1.1-4.5,1.1c-2.4,0-4.4-0.6-5.8-1.7s-2.3-2.7-2.5-4.6h5.4c0.1,0.5,0.4,0.9,0.8,1.2s1,0.4,1.7,0.4
					c1.9,0,2.8-1,2.8-3.1v-2c-0.4,0.7-1,1.3-1.8,1.7c-0.8,0.4-1.7,0.6-2.8,0.6c-1.3,0-2.4-0.3-3.4-1s-1.8-1.6-2.4-2.8
					s-0.9-2.6-0.9-4.3s0.3-3,0.9-4.3c0.6-1.2,1.4-2.1,2.4-2.8s2.2-1,3.4-1C166.8,68.1,167.7,68.3,168.5,68.7z M169.5,73.8
					c-0.6-0.6-1.2-0.9-2-0.9c-0.8,0-1.5,0.3-2,0.9c-0.5,0.6-0.8,1.4-0.8,2.4c0,1,0.3,1.8,0.8,2.4c0.5,0.6,1.2,0.9,2,0.9
					c0.8,0,1.5-0.3,2-0.9c0.5-0.6,0.8-1.4,0.8-2.4C170.3,75.1,170.1,74.3,169.5,73.8z"/>
			</g>
		</g>
	</g>
	<g>
		<defs>
			<path id="SVGID_4_" d="M216.8,100H9.3C4.2,100,0,95.8,0,90.7V9.6c0-5.1,4.2-9.3,9.3-9.3h207.6c5.1,0,9.3,4.2,9.3,9.3v81.1
				C226.1,95.8,222,100,216.8,100z"/>
		</defs>
		<clipPath id="SVGID_5_">
			<use xlink:href="#SVGID_4_"  style="overflow:visible;"/>
		</clipPath>
		<path class="st3" d="M168-27.5C167.9-27.5,167.9-27.4,168-27.5c-11.7,8-18,20.8-17.3,36.3c0.8,19.7-13.3,45.7-42.1,46.4
			c-29.9,0.6-44.8-22.8-46-42.9C62,2.5,56.4-5.1,51.9-9.2c0,0,0,0-0.1-0.1c-6.3-5.8-14.6-9.5-23.7-9.8c-0.3,0-0.5,0-0.8,0
			c-0.1,0-0.2,0-0.3,0c-0.1,0-0.3,0-0.4,0c-0.4,0-0.9,0-1.3,0c-0.1,0-0.2,0-0.3,0c-0.5,0-1.1,0.1-1.6,0.1c0,0-0.1,0-0.1,0
			c-0.6,0.1-1.2,0.1-1.8,0.2l0,0c-0.6,0.1-1.2,0.2-1.8,0.3c0,0,0,0,0,0c-0.6,0.1-1.1,0.2-1.7,0.4c0,0-0.1,0-0.1,0
			c-0.5,0.1-1,0.3-1.5,0.4c-0.1,0-0.2,0.1-0.3,0.1c-0.4,0.1-0.8,0.3-1.2,0.4c-0.2,0.1-0.4,0.1-0.6,0.2c-0.3,0.1-0.5,0.2-0.8,0.3
			c-0.3,0.1-0.6,0.3-1,0.4c-0.2,0.1-0.3,0.1-0.5,0.2c-0.4,0.2-0.9,0.4-1.3,0.6l-0.1,0c-3.8,1.9-7.3,4.5-10.2,7.6
			C0.4-7.6,0.4-7.5,0.3-7.5c0,0-0.1,0.1-0.1,0.1C0.1-7.2,0-7.1-0.2-6.9C-9.6,3.5-9.3,15.5-6.6,29c1.1,5.7,2.6,15.8-5.2,24.8
			c-3.5,4.1-8.3,6.8-16.3,10.1c-9.5,4-17.4,16-17.4,26.8c0,16.2,13.2,29.4,29.4,29.4c16.2,0,28.3-12.7,29-28.9
			c0.2-5.3-1.5-9,0.9-18.9c2.6-10.7,13.8-17.6,25-17.6c17.5,0,28,14.8,26.5,31.8c-1.2,13,1.5,21.2,6.6,30.3
			c5.3,9.5,18.7,18.4,35.5,19.1c20,0.8,41.2-14.9,41.9-44.4c0.4-19,19.3-38.6,39.3-39.2C204,51.6,222.3,46,231,29.9
			c5.3-9.7,6.5-19.3,5.2-28.1C235-7,231.5-13.5,227.1-19c-9.1-11.4-22-16.5-34.3-16.5C183.6-35.5,174.7-32.6,168-27.5"/>
	</g>
</g>
</svg>
