<?xml version="1.0" encoding="UTF-8"?>
<svg id="Capa_1" xmlns="http://www.w3.org/2000/svg" version="1.1" viewBox="0 0 21.99 22.07">
  <!-- Generator: Adobe Illustrator 29.0.1, SVG Export Plug-In . SVG Version: 2.1.0 Build 192)  -->
  <defs>
    <style>
      .st0 {
        fill: #472c6e;
      }
    </style>
  </defs>
  <path class="st0" d="M12.52,9.53c.27-.3.49-.61.77-.87.85-.8,1.85-1.2,3.03-1.19.64,0,1.28.05,1.9.23,1.42.41,2.25,1.39,2.64,2.78.3,1.04.35,2.11.35,3.18,0,2.26,0,4.53,0,6.79,0,.21-.06.27-.27.27-1.17,0-2.33,0-3.5,0-.21,0-.25-.06-.25-.26,0-2.15,0-4.31,0-6.46,0-.54-.04-1.08-.19-1.6-.28-.97-.97-1.46-1.98-1.41-1.38.07-2.1.76-2.28,2.16-.04.34-.06.67-.06,1.01,0,2.09,0,4.19,0,6.28,0,.21-.05.27-.26.27-1.17-.01-2.35,0-3.52,0-.19,0-.24-.05-.24-.24,0-4.15,0-8.29,0-12.44,0-.21.07-.25.26-.25,1.12,0,2.23,0,3.35,0,.21,0,.26.06.25.26-.01.5,0,.99,0,1.49Z"/>
  <path class="st0" d="M6.13,14.27c0,2.05,0,4.1,0,6.15,0,.23-.06.3-.29.29-1.17-.01-2.33,0-3.5,0-.19,0-.24-.05-.24-.24,0-4.15,0-8.31,0-12.46,0-.17.04-.23.22-.23,1.18,0,2.36,0,3.55,0,.23,0,.26.09.26.28,0,2.07,0,4.14,0,6.2Z"/>
  <path class="st0" d="M6.45,3.67c0,1.29-1.04,2.34-2.33,2.34-1.27,0-2.32-1.05-2.33-2.32,0-1.28,1.05-2.34,2.33-2.34,1.27,0,2.32,1.05,2.32,2.32Z"/>
</svg>