<?xml version="1.0" encoding="utf-8"?>
<!-- Generator: Adobe Illustrator 27.5.0, SVG Export Plug-In . SVG Version: 6.00 Build 0)  -->
<svg version="1.1" id="Capa_1" xmlns="http://www.w3.org/2000/svg" xmlns:xlink="http://www.w3.org/1999/xlink" x="0px" y="0px"
	 viewBox="0 0 425.16 92.24" style="enable-background:new 0 0 425.16 92.24;" xml:space="preserve">
<style type="text/css">
	.st0{fill:url(#SVGID_1_);}
	.st1{fill:#703380;}
</style>
<g>
	<g>
		<linearGradient id="SVGID_1_" gradientUnits="userSpaceOnUse" x1="19.5758" y1="45.6242" x2="146.1368" y2="45.6242">
			<stop  offset="0" style="stop-color:#703380"/>
			<stop  offset="0.0974" style="stop-color:#6C3380"/>
			<stop  offset="0.1948" style="stop-color:#603481"/>
			<stop  offset="0.2483" style="stop-color:#563482"/>
			<stop  offset="0.3059" style="stop-color:#503584"/>
			<stop  offset="0.385" style="stop-color:#3E3989"/>
			<stop  offset="0.4559" style="stop-color:#283D8E"/>
			<stop  offset="0.5355" style="stop-color:#233F8F"/>
			<stop  offset="0.6281" style="stop-color:#154591"/>
			<stop  offset="0.7201" style="stop-color:#004E94"/>
			<stop  offset="0.8224" style="stop-color:#0C6CA6"/>
			<stop  offset="1" style="stop-color:#24A8CB"/>
		</linearGradient>
		<path class="st0" d="M115.28,10.81c-0.01,0-0.01,0.01-0.02,0.01c-5.25,3.58-8.03,9.33-7.75,16.28
			c0.37,8.84-5.97,20.51-18.86,20.79c-13.41,0.29-20.08-10.23-20.63-19.23c-0.27-4.43-2.76-7.82-4.82-9.69
			c-0.01-0.01-0.02-0.02-0.03-0.02c-2.8-2.62-6.53-4.26-10.65-4.38c-0.11,0-0.23-0.01-0.34-0.01c-0.05,0-0.1,0-0.15,0
			c-0.06,0-0.12,0-0.18,0c-0.2,0-0.39,0.01-0.59,0.01c-0.05,0-0.1,0.01-0.15,0.01c-0.24,0.01-0.48,0.03-0.72,0.05
			c-0.02,0-0.03,0-0.05,0.01c-0.26,0.03-0.52,0.06-0.79,0.1l-0.01,0c-0.26,0.04-0.53,0.09-0.79,0.14c0,0-0.01,0-0.01,0
			c-0.25,0.05-0.5,0.11-0.74,0.17c-0.02,0.01-0.04,0.01-0.07,0.02c-0.22,0.06-0.43,0.12-0.65,0.19c-0.05,0.02-0.1,0.03-0.16,0.05
			c-0.17,0.06-0.35,0.12-0.52,0.18c-0.09,0.03-0.19,0.07-0.28,0.1c-0.12,0.05-0.25,0.1-0.37,0.14c-0.14,0.06-0.29,0.12-0.43,0.18
			c-0.07,0.03-0.13,0.06-0.2,0.09c-0.2,0.09-0.39,0.18-0.58,0.28l-0.04,0.02c-1.71,0.86-3.25,2.02-4.56,3.41
			c-0.02,0.02-0.05,0.05-0.07,0.07c-0.02,0.02-0.03,0.04-0.05,0.05c-0.06,0.06-0.11,0.12-0.17,0.19c-4.25,4.67-4.1,10.07-2.88,16.11
			c0.51,2.54,1.16,7.11-2.31,11.11c-1.58,1.82-3.7,3.05-7.33,4.55c-4.28,1.78-7.79,7.16-7.79,12.01c0,7.28,5.9,13.18,13.18,13.18
			c7.28,0,12.68-5.68,13-12.96c0.1-2.39-0.68-4.04,0.4-8.47c1.17-4.82,6.17-7.92,11.2-7.92c7.87,0,12.55,6.64,11.88,14.24
			c-0.52,5.81,0.69,9.51,2.96,13.57c2.37,4.24,8.41,8.24,15.93,8.56c8.97,0.38,18.5-6.7,18.8-19.93
			c0.19-8.51,8.64-17.32,17.64-17.59c6.88-0.2,15.08-2.74,19.02-9.94c2.37-4.34,2.93-8.67,2.35-12.59
			c-0.58-3.98-2.14-6.89-4.12-9.36c-4.07-5.09-9.85-7.38-15.39-7.38C122.3,7.22,118.32,8.49,115.28,10.81"/>
		<g>
			<g>
				<path class="st1" d="M188.85,55.9c-0.54,1.54-1.33,3.08-2.46,4.45c-2.75,3.33-6.87,4.92-11.04,4.92
					c-4.41,0-8.54-1.79-11.03-4.92c-2.5-3.04-3.54-6.74-3.54-10.7c0-4.12,1.08-7.79,3.54-10.74c2.62-3.29,6.7-4.87,11.03-4.87
					s8.37,1.62,11.04,4.87c1.33,1.67,2.21,3.54,2.75,5.33l-5.83,1c-0.33-1.04-0.75-2.04-1.42-2.87c-1.5-2-4-3.04-6.54-3.04
					c-2.58,0-5.08,1.04-6.54,3.04c-1.54,1.96-2,4.66-2.04,7.29c0.04,2.62,0.5,5.29,2.04,7.29c1.46,2,3.96,3.04,6.54,3
					c2.54,0.04,5.04-1,6.54-3c0.58-0.79,1.04-1.71,1.33-2.67L188.85,55.9z"/>
				<polygon class="st1" points="201.81,40.33 201.81,46.82 211.97,46.82 211.97,52.49 201.81,52.49 201.81,64.64 196.14,64.64 
					196.14,34.66 214.47,34.66 214.47,40.33 				"/>
				<path class="st1" d="M247.45,55.9c-0.54,1.54-1.33,3.08-2.46,4.45c-2.75,3.33-6.87,4.92-11.03,4.92
					c-4.41,0-8.54-1.79-11.03-4.92c-2.5-3.04-3.54-6.74-3.54-10.7c0-4.12,1.08-7.79,3.54-10.74c2.62-3.29,6.7-4.87,11.03-4.87
					c4.33,0,8.37,1.62,11.03,4.87c1.33,1.67,2.21,3.54,2.75,5.33l-5.83,1c-0.33-1.04-0.75-2.04-1.42-2.87c-1.5-2-4-3.04-6.54-3.04
					c-2.58,0-5.08,1.04-6.54,3.04c-1.54,1.96-2,4.66-2.04,7.29c0.04,2.62,0.5,5.29,2.04,7.29c1.46,2,3.96,3.04,6.54,3
					c2.54,0.04,5.04-1,6.54-3c0.58-0.79,1.04-1.71,1.33-2.67L247.45,55.9z"/>
			</g>
			<g>
				<path class="st1" d="M290.73,55.73c-0.46,1.67-1.25,3.29-2.37,4.75c-2.54,3.25-6.41,4.79-10.58,4.79c-4.25,0-8-1.58-10.54-4.79
					c-2.41-3.12-3.33-7-3.29-10.83c0.08-3.87,0.87-7.75,3.29-10.83c2.5-3.25,6.37-4.79,10.54-4.79c4.21,0,8.12,1.58,10.58,4.79
					c1.29,1.71,2.12,3.58,2.62,5.54l-3.16,0.5c-0.38-1.5-1-2.96-1.92-4.16c-1.83-2.46-4.96-3.66-8.12-3.71
					c-3.12-0.04-6.25,1.25-8.04,3.71c-1.92,2.46-2.5,5.75-2.5,8.95c0,3.21,0.58,6.5,2.5,8.99c1.79,2.46,4.91,3.66,8.04,3.66
					c3.16,0.04,6.29-1.21,8.12-3.66c0.83-1.12,1.42-2.46,1.79-3.79L290.73,55.73z"/>
				<path class="st1" d="M312.68,64.64v-3.62c-2,3.08-5,4.25-8.87,4.25c-4.29,0-7.37-2.62-7.37-6.79c0-2.83,1.17-4.79,3.95-6.2
					c2.75-1.42,7.12-1.75,11.91-2.5c-0.04-3.62-2.5-5.29-5.83-5.29c-2.37,0-4.58,0.5-6.58,2.96l-2-2.08
					c2.33-2.79,5.37-3.83,8.95-3.83c2.25,0,4.42,0.83,5.87,2.12c2.08,1.75,2.71,4.5,2.71,7.12v13.87H312.68z M312.39,52.36
					c-3.75,0.58-6.37,1-7.79,1.33c-2.83,0.58-5.08,2.08-5.08,4.5c0,2.62,2,4.33,4.79,4.33c3.25,0,5.83-1.29,7.16-3.83
					C312.35,56.98,312.39,55.28,312.39,52.36"/>
				<path class="st1" d="M343.62,53.36c0,2.92-0.58,5.87-2.46,8.29c-1.87,2.37-4.71,3.62-7.79,3.62c-3.04,0-5.7-1.12-7.45-3.33v12.7
					h-3.08V42.16h2.75v3.04c1.79-2.33,4.79-3.66,7.91-3.66c3.04,0,5.87,1.29,7.66,3.62C342.96,47.45,343.62,50.49,343.62,53.36
					 M340.37,53.36c0-2.33-0.46-4.66-1.71-6.33c-1.29-1.79-3.37-2.67-5.66-2.67c-2.21,0-4.29,0.83-5.58,2.5
					c-1.33,1.71-1.83,4.12-1.83,6.5c0,2.42,0.5,4.87,1.83,6.54c1.29,1.66,3.41,2.54,5.62,2.54c2.21,0,4.37-0.91,5.66-2.71
					C339.96,58.06,340.37,55.73,340.37,53.36"/>
				<path class="st1" d="M353.66,38.16h-3.04v-3.41h3.04V38.16z M353.66,64.64h-3.04l0-22.49h3.04V64.64z"/>
				<path class="st1" d="M367.28,56.36c0,1.87-0.08,3,0.46,3.96c0.5,1.04,1.54,1.62,2.71,1.75c1.17,0.12,2.54,0.08,3.71-0.17v2.75
					c-1.5,0.38-3.37,0.46-4.83,0.17c-2-0.33-3.5-1.25-4.33-2.96c-0.75-1.58-0.79-3.25-0.79-5.37l0-11.7h-4.79v-2.62h4.79v-6.25
					l3.08,0v6.25l6.87,0v2.62l-6.87,0V56.36z"/>
				<path class="st1" d="M395.6,64.64v-3.62c-2,3.08-5,4.25-8.87,4.25c-4.29,0-7.37-2.62-7.37-6.79c0-2.83,1.17-4.79,3.95-6.2
					c2.75-1.42,7.12-1.75,11.91-2.5c-0.04-3.62-2.5-5.29-5.83-5.29c-2.37,0-4.58,0.5-6.58,2.96l-2-2.08
					c2.33-2.79,5.37-3.83,8.95-3.83c2.25,0,4.42,0.83,5.87,2.12c2.08,1.75,2.71,4.5,2.71,7.12v13.87H395.6z M395.31,52.36
					c-3.75,0.58-6.37,1-7.79,1.33c-2.83,0.58-5.08,2.08-5.08,4.5c0,2.62,2,4.33,4.79,4.33c3.25,0,5.83-1.29,7.16-3.83
					C395.27,56.98,395.31,55.28,395.31,52.36"/>
				<rect x="405.77" y="34.04" class="st1" width="3.04" height="30.61"/>
			</g>
		</g>
	</g>
</g>
</svg>
