<svg width="66" height="38" viewBox="0 0 66 38" fill="currentColor" xmlns="http://www.w3.org/2000/svg">
<g clip-path="url(#clip0_3428_1243)">
<path d="M6.29297 12.498V21.7609H22.721V18.1351H10.4941V13.7044C9.07934 13.3367 7.67822 12.9331 6.29297 12.498Z" fill="#C1C9EB"/>
<path d="M25.0449 16.2109V21.7583H29.246V16.4867C27.8358 16.4284 26.437 16.3343 25.0449 16.2109Z" fill="#C1C9EB"/>
<path d="M38.611 16.3896L36.2305 21.7621H40.6039L43.0524 16.0039C41.5833 16.1698 40.1028 16.2976 38.611 16.3896Z" fill="#C1C9EB"/>
<path d="M52.137 14.4991L55.1864 21.7618H59.7049L56.1069 13.5371C54.7942 13.8891 53.4701 14.2076 52.1348 14.4991" fill="#C1C9EB"/>
<path d="M32.9921 11.7425C21.2866 11.7425 10.1525 9.32985 0.0702827 4.97757C0.0476109 4.9686 0.0226718 4.95739 0 4.94618V8.43742C10.1502 12.6484 21.2957 14.9759 32.9921 14.9759C44.6885 14.9759 55.8453 12.6462 66 8.42845V4.93945C55.8929 9.31415 44.7293 11.7403 32.9921 11.7403" fill="#C1C9EB"/>
<path d="M10.4941 7.03181V3.60335H22.3764V0H6.29297V5.72231C7.67595 6.19543 9.07707 6.63044 10.4941 7.03181Z" fill="#C1C9EB"/>
<path d="M41.618 0.0117188H25.0449V9.77687C26.4347 9.90916 27.8358 10.0078 29.246 10.0706V3.61731H40.1761L41.618 0.0117188Z" fill="#C1C9EB"/>
<path d="M53.5305 7.58616L50.2159 0.0117188H45.8402L41.5371 9.72305C43.0176 9.57058 44.4844 9.37326 45.94 9.14454L47.9215 4.48059L47.9374 4.45144L47.9487 4.48059L49.631 8.48307C50.9414 8.214 52.2405 7.91577 53.5282 7.58616" fill="#C1C9EB"/>
<path d="M2.93654 29.7818H4.36259V29.2257H2.93654V28.2481H4.44421V27.6875H2.29492V31.4837H4.52583V30.9209H2.93654V29.7818Z" fill="#C1C9EB"/>
<path d="M8.08343 27.6878L7.41008 29.4973C7.27405 29.8763 7.17429 30.1812 7.0972 30.448C7.02239 30.179 6.92717 29.874 6.79794 29.4973L6.15179 27.6855H5.40815L5.14062 31.4817H5.7641L5.86612 29.8471C5.88653 29.4906 5.90693 29.1161 5.92054 28.7775C5.99762 29.0376 6.09057 29.3291 6.20847 29.6745L6.82061 31.4593H7.30125L7.97007 29.6453C8.09023 29.3179 8.19679 29.0152 8.28974 28.7282C8.29881 29.0847 8.32148 29.4749 8.33962 29.809L8.43711 31.4817H9.06966L8.8316 27.6855H8.08796L8.08343 27.6878Z" fill="#C1C9EB"/>
<path d="M10.8837 27.6602C10.5572 27.6602 10.2466 27.6848 9.96091 27.7319L9.89062 27.7431V31.4833H10.5345V30.0482C10.6297 30.0616 10.7318 30.0639 10.8315 30.0639C11.3348 30.0639 11.7543 29.9137 12.0127 29.6401C12.2168 29.4338 12.3188 29.1513 12.3188 28.806C12.3188 28.4607 12.1941 28.1759 11.9696 27.9853C11.7293 27.77 11.3643 27.6624 10.8837 27.6624V27.6602ZM10.8406 29.5168C10.7159 29.5168 10.6161 29.51 10.5345 29.4943V28.2207C10.6116 28.2095 10.734 28.1983 10.895 28.1983C11.1875 28.1983 11.6749 28.279 11.6749 28.8239C11.6749 29.2701 11.3779 29.5145 10.8406 29.5145V29.5168Z" fill="#C1C9EB"/>
<path d="M15.3306 30.3845C15.2513 30.0415 15.1062 29.8015 14.8976 29.6692C15.2694 29.4876 15.4848 29.1468 15.4848 28.7297C15.4848 28.4225 15.3714 28.1557 15.1674 27.9786C14.9225 27.7588 14.5779 27.6602 14.0497 27.6602C13.7096 27.6602 13.3627 27.6893 13.1247 27.7364L13.0566 27.7498V31.481H13.7005V29.9092H14.0587C14.4487 29.9226 14.6119 30.0841 14.714 30.5482C14.8364 31.0796 14.9089 31.3375 14.9679 31.4384L14.9928 31.481H15.673L15.605 31.3577C15.5324 31.2254 15.4417 30.8532 15.3306 30.3823V30.3845ZM14.8409 28.7835C14.8409 29.1558 14.5575 29.389 14.0995 29.389H13.7005V28.2162C13.7821 28.2028 13.9136 28.1893 14.0837 28.1893C14.4306 28.1938 14.8432 28.2992 14.8432 28.7835H14.8409Z" fill="#C1C9EB"/>
<path d="M18.4868 30.9209H16.8997V29.7818H18.3235V29.2257H16.8997V28.2481H18.4052V27.6875H16.2559V31.4837H18.4868V30.9209Z" fill="#C1C9EB"/>
<path d="M20.074 30.9814C19.802 30.9814 19.5004 30.8984 19.2692 30.7572L19.1739 30.6989L19.0039 31.255L19.0561 31.2886C19.276 31.4344 19.6795 31.5353 20.04 31.5353C21.0512 31.5353 21.4094 30.9276 21.4094 30.4074C21.4094 29.8872 21.1124 29.5284 20.4186 29.2638C19.9085 29.0687 19.743 28.9163 19.743 28.6427C19.743 28.4297 19.9017 28.183 20.3483 28.183C20.6431 28.183 20.8675 28.2705 21.0036 28.3445L21.092 28.3916L21.2779 27.8489L21.2167 27.8153C21.092 27.7458 20.8131 27.627 20.3642 27.627C19.616 27.627 19.0923 28.0664 19.0923 28.6965C19.0923 29.2055 19.4188 29.5576 20.1148 29.802C20.5841 29.9814 20.7519 30.1495 20.7519 30.4455C20.7519 30.7751 20.4912 30.9814 20.0695 30.9814H20.074Z" fill="#C1C9EB"/>
<path d="M23.845 27.6875H23.1513L21.8477 31.4837H22.5165L22.8974 30.3424H24.0763L24.4685 31.4837H25.1555L23.845 27.6875ZM23.9221 29.8087H23.0538L23.3757 28.8692C23.412 28.7548 23.4483 28.6337 23.4846 28.4992C23.5186 28.6203 23.5548 28.7436 23.6002 28.8759L23.9221 29.8087Z" fill="#C1C9EB"/>
<path d="M26.9759 29.2638C26.4658 29.0687 26.3003 28.9163 26.3003 28.6427C26.3003 28.4297 26.459 28.183 26.9056 28.183C27.2003 28.183 27.4248 28.2705 27.5608 28.3445L27.6493 28.3916L27.8352 27.8489L27.7739 27.8153C27.6493 27.7458 27.3704 27.627 26.9215 27.627C26.1733 27.627 25.6496 28.0664 25.6496 28.6965C25.6496 29.2055 25.9761 29.5576 26.6721 29.802C27.1414 29.9814 27.3092 30.1495 27.3092 30.4455C27.3092 30.7751 27.0484 30.9814 26.6268 30.9814C26.3547 30.9814 26.0532 30.8984 25.8219 30.7572L25.7267 30.6989L25.5566 31.255L25.6088 31.2886C25.8287 31.4344 26.2323 31.5353 26.5927 31.5353C27.6039 31.5353 27.9621 30.9276 27.9621 30.4074C27.9621 29.8872 27.6651 29.5284 26.9714 29.2638H26.9759Z" fill="#C1C9EB"/>
<path d="M31.2334 27.6604C30.8956 27.6604 30.5533 27.6851 30.2132 27.7367L30.1406 27.7479V31.4634L30.2154 31.4723C30.4739 31.5015 30.7664 31.5149 31.0838 31.5149C31.8229 31.5149 32.4033 31.3266 32.766 30.9678C33.1288 30.6158 33.3192 30.1068 33.3192 29.4969C33.3192 28.9184 33.1356 28.4609 32.7751 28.1336C32.4282 27.8152 31.9249 27.6582 31.2311 27.6582L31.2334 27.6604ZM31.179 30.9701C31.0634 30.9701 30.9069 30.9701 30.7845 30.9544V28.2345C30.8888 28.2165 31.0407 28.2008 31.2538 28.2008C31.7209 28.2008 32.0791 28.3219 32.3194 28.5596C32.5438 28.7838 32.6572 29.1067 32.6549 29.5171C32.6549 30.4566 32.1312 30.9723 31.179 30.9723V30.9701Z" fill="#C1C9EB"/>
<path d="M34.681 29.7818H36.107V29.2257H34.681V28.2481H36.1887V27.6875H34.0371V31.4837H36.2703V30.9209H34.681V29.7818Z" fill="#C1C9EB"/>
<path d="M40.617 30.4074C40.617 29.8715 40.32 29.5284 39.6263 29.2638C39.1162 29.0687 38.9507 28.9185 38.9507 28.6427C38.9507 28.4297 39.1094 28.183 39.556 28.183C39.8507 28.183 40.0752 28.2705 40.2112 28.3445L40.2996 28.3916L40.4856 27.8489L40.4243 27.8153C40.2996 27.7458 40.0208 27.627 39.5719 27.627C38.8237 27.627 38.3 28.0664 38.3 28.6965C38.3 29.2055 38.6265 29.5576 39.3225 29.802C39.7918 29.9814 39.9596 30.1495 39.9596 30.4455C39.9596 30.7751 39.6988 30.9814 39.2771 30.9814C39.0051 30.9814 38.7035 30.8984 38.4723 30.7572L38.3771 30.6989L38.207 31.255L38.2592 31.2886C38.4791 31.4344 38.8827 31.5353 39.2431 31.5353C40.2543 31.5353 40.6125 30.9276 40.6125 30.4074H40.617Z" fill="#C1C9EB"/>
<path d="M43.5981 30.9209H42.0088V29.7818H43.4349V29.2257H42.0088V28.2481H43.5165V27.6875H41.3672V31.4837H43.5981V30.9209Z" fill="#C1C9EB"/>
<path d="M46.5884 30.3845C46.5091 30.0415 46.364 29.8015 46.1554 29.6692C46.5272 29.4876 46.7426 29.1468 46.7426 28.7297C46.7426 28.4225 46.6292 28.1557 46.4252 27.9786C46.1803 27.7588 45.8357 27.6602 45.3075 27.6602C44.9674 27.6602 44.6205 27.6893 44.3825 27.7364L44.3145 27.7498V31.481H44.9583V29.9092H45.3165C45.7065 29.9226 45.872 30.0841 45.9718 30.5482C46.0942 31.0796 46.1667 31.3375 46.2257 31.4384L46.2506 31.481H46.9308L46.8628 31.3577C46.7902 31.2254 46.6995 30.8532 46.5884 30.3823V30.3845ZM46.101 28.7835C46.101 29.1558 45.8176 29.389 45.3596 29.389H44.9606V28.2162C45.0422 28.2028 45.1737 28.1893 45.3438 28.1893C45.6906 28.1938 46.1033 28.2992 46.1033 28.7835H46.101Z" fill="#C1C9EB"/>
<path d="M49.0751 31.4837L50.4467 27.6875H49.7597L49.1204 29.5374C49.007 29.8692 48.8801 30.2392 48.7803 30.5957C48.6942 30.2729 48.5876 29.9275 48.4606 29.5329L47.8712 27.6875H47.1797L48.4312 31.4837H49.0751Z" fill="#C1C9EB"/>
<path d="M51.554 27.6875H50.9102V31.4837H51.554V27.6875Z" fill="#C1C9EB"/>
<path d="M54.2808 28.1895C54.5438 28.1895 54.7932 28.241 54.9837 28.3307L55.0744 28.3733L55.2376 27.8307L55.1764 27.7993C55.0993 27.759 54.8023 27.6289 54.2672 27.6289C53.0883 27.6289 52.2676 28.4473 52.2676 29.6178C52.2676 30.7883 53.0135 31.5372 54.1652 31.5372C54.6368 31.5372 54.995 31.443 55.1718 31.3556L55.2331 31.3242L55.0925 30.7883L54.9995 30.8331C54.8159 30.9206 54.5348 30.9744 54.265 30.9744C53.4352 30.9744 52.9409 30.4609 52.9409 29.5999C52.9409 28.7388 53.4442 28.1872 54.2876 28.1872L54.2808 28.1895Z" fill="#C1C9EB"/>
<path d="M56.556 27.6875H55.9121V31.4837H56.556V27.6875Z" fill="#C1C9EB"/>
<path d="M59.0544 27.6272C58.0025 27.6272 57.2656 28.4457 57.2656 29.6161C57.2656 30.7866 57.9775 31.54 59 31.54C59.891 31.54 60.7888 30.9234 60.7888 29.5444C60.7888 28.3963 60.0928 27.625 59.0544 27.625V27.6272ZM59.0272 30.9929C58.2813 30.9929 57.9412 30.2754 57.9412 29.6072C57.9412 28.8964 58.2791 28.1788 59.0318 28.1788C59.7845 28.1788 60.1177 28.8986 60.1177 29.5691C60.1177 30.2776 59.7799 30.9929 59.0272 30.9929Z" fill="#C1C9EB"/>
<path d="M62.72 29.2638C62.2099 29.0687 62.0444 28.9163 62.0444 28.6427C62.0444 28.4297 62.2031 28.183 62.6498 28.183C62.9445 28.183 63.1689 28.2705 63.305 28.3445L63.3934 28.3916L63.5793 27.8489L63.5181 27.8153C63.3934 27.7458 63.1145 27.627 62.6656 27.627C61.9175 27.627 61.3937 28.0664 61.3937 28.6965C61.3937 29.2055 61.7202 29.5576 62.4162 29.802C62.8855 29.9814 63.0533 30.1495 63.0533 30.4455C63.0533 30.7751 62.7926 30.9814 62.3709 30.9814C62.0988 30.9814 61.7973 30.8984 61.566 30.7572L61.4708 30.6989L61.3008 31.255L61.3529 31.2886C61.5728 31.4344 61.9764 31.5353 62.3369 31.5353C63.3481 31.5353 63.7063 30.9276 63.7063 30.4074C63.7063 29.8872 63.4093 29.5284 62.7155 29.2638H62.72Z" fill="#C1C9EB"/>
<path d="M12.752 37.9427H13.3958V36.3013H14.7833V35.7452H13.3958V34.7071H14.8967V34.1465H12.752V37.9427Z" fill="#C1C9EB"/>
<path d="M16.3177 34.1465H15.6738V37.9427H16.3177V34.1465Z" fill="#C1C9EB"/>
<path d="M19.5518 35.7475C19.5518 36.1376 19.5564 36.4874 19.5768 36.8462C19.4362 36.5794 19.2775 36.308 19.0938 36.021L17.8945 34.1465H17.2461V37.9427H17.8628V36.308C17.8628 35.8596 17.856 35.5053 17.8424 35.169C17.9829 35.4313 18.153 35.7228 18.3683 36.0636L19.5586 37.9427H20.1685V34.1465H19.5518V35.7475Z" fill="#C1C9EB"/>
<path d="M22.0927 34.1465L20.7891 37.9427H21.4579L21.8388 36.8013H23.0177L23.4099 37.9427H24.0946L22.7842 34.1465H22.0904H22.0927ZM22.8613 36.2654H21.9929L22.3149 35.3259C22.3512 35.2116 22.3874 35.0905 22.4237 34.9559C22.4577 35.077 22.494 35.2004 22.5393 35.3327L22.8613 36.2654Z" fill="#C1C9EB"/>
<path d="M27.0069 35.7475C27.0069 36.1376 27.0114 36.4874 27.0318 36.8462C26.8913 36.5794 26.7326 36.308 26.5489 36.021L25.3496 34.1465H24.7012V37.9427H25.3178V36.308C25.3178 35.8596 25.311 35.5053 25.2974 35.169C25.438 35.4313 25.608 35.7228 25.8234 36.0636L27.0137 37.9427H27.6236V34.1465H27.0069V35.7475Z" fill="#C1C9EB"/>
<path d="M30.3511 34.6485C30.6141 34.6485 30.8635 34.7 31.054 34.7897L31.1447 34.8323L31.3079 34.2897L31.2467 34.2583C31.1696 34.2179 30.8726 34.0879 30.3375 34.0879C29.1586 34.0879 28.3379 34.9063 28.3379 36.0768C28.3379 37.2473 29.0815 37.9962 30.2355 37.9962C30.7071 37.9962 31.0653 37.902 31.2422 37.8146L31.3034 37.7832L31.1628 37.2473L31.0698 37.2921C30.8862 37.3796 30.6051 37.4334 30.333 37.4334C29.5032 37.4334 29.009 36.9199 29.009 36.0589C29.009 35.1978 29.5123 34.6462 30.3557 34.6462L30.3511 34.6485Z" fill="#C1C9EB"/>
<path d="M32.6243 34.1465H31.9805V37.9427H32.6243V34.1465Z" fill="#C1C9EB"/>
<path d="M34.1966 36.2408H35.6227V35.6847H34.1966V34.7071H35.7043V34.1465H33.5527V37.9427H35.7859V37.3799H34.1966V36.2408Z" fill="#C1C9EB"/>
<path d="M38.7759 36.8435C38.6966 36.5004 38.5515 36.2605 38.3429 36.1282C38.7147 35.9444 38.9301 35.6058 38.9301 35.1887C38.9301 34.8815 38.8167 34.6147 38.6127 34.4375C38.3678 34.2178 38.0232 34.1191 37.495 34.1191C37.1549 34.1191 36.808 34.1483 36.57 34.1954L36.502 34.2088V37.94H37.1458V36.3682H37.504C37.8917 36.3838 38.0572 36.543 38.1593 37.0072C38.2817 37.5386 38.3542 37.7965 38.4132 37.8974L38.4381 37.94H39.1183L39.0503 37.8167C38.9777 37.6844 38.887 37.3122 38.7759 36.8413V36.8435ZM38.2862 35.2425C38.2862 35.6147 38.0028 35.8479 37.5449 35.8479H37.1458V34.6752C37.2275 34.6618 37.3589 34.6483 37.529 34.6483C37.8759 34.6528 38.2885 34.7582 38.2885 35.2425H38.2862Z" fill="#C1C9EB"/>
<path d="M41.2888 34.0843C40.2368 34.0843 39.5 34.9027 39.5 36.0732C39.5 37.2437 40.2119 37.9971 41.2344 37.9971C42.1254 37.9971 43.0232 37.3804 43.0232 36.0014C43.0232 34.8534 42.3272 34.082 41.2888 34.082V34.0843ZM41.2616 37.4499C40.5157 37.4499 40.1756 36.7324 40.1756 36.0642C40.1756 35.3534 40.5134 34.6359 41.2661 34.6359C42.0188 34.6359 42.3521 35.3556 42.3521 36.0261C42.3521 36.7347 42.0143 37.4499 41.2616 37.4499Z" fill="#C1C9EB"/>
<path d="M44.9544 35.7228C44.4443 35.5277 44.2788 35.3775 44.2788 35.1017C44.2788 34.8887 44.4375 34.642 44.8841 34.642C45.1789 34.642 45.4033 34.7295 45.5393 34.8035L45.6278 34.8506L45.8137 34.3079L45.7525 34.2743C45.6278 34.2048 45.3489 34.0859 44.9 34.0859C44.1518 34.0859 43.6281 34.5254 43.6281 35.1555C43.6281 35.6667 43.9546 36.0165 44.6506 36.261C45.1199 36.4403 45.2877 36.6085 45.2877 36.9045C45.2877 37.2341 45.027 37.4382 44.6053 37.4382C44.3309 37.4382 44.0317 37.3552 43.8004 37.2139L43.7052 37.1556L43.5352 37.714L43.5873 37.7476C43.8072 37.8911 44.2108 37.992 44.5713 37.992C45.5824 37.992 45.9406 37.3843 45.9406 36.8641C45.9406 36.3439 45.6436 35.9852 44.9499 35.7206L44.9544 35.7228Z" fill="#C1C9EB"/>
<path d="M49.1122 34.1465L47.8086 37.9427H48.4797L48.8606 36.8013H50.0395L50.4317 37.9427H51.1187L49.8083 34.1465H49.1145H49.1122ZM49.8808 36.2654H49.0125L49.3344 35.3259C49.3707 35.2093 49.407 35.0882 49.4432 34.9559C49.4772 35.077 49.5135 35.2004 49.5589 35.3327L49.8808 36.2654Z" fill="#C1C9EB"/>
<path d="M53.2226 36.4128H53.9686V37.3545C53.8484 37.3971 53.6489 37.4218 53.4222 37.4218C52.6014 37.4218 52.0913 36.8926 52.0913 36.0428C52.0913 35.193 52.6241 34.6683 53.4811 34.6683C53.8688 34.6683 54.1 34.7468 54.2565 34.8163L54.3449 34.8544L54.5081 34.3118L54.4424 34.2804C54.2656 34.1952 53.9209 34.1055 53.4902 34.1055C52.2568 34.1055 51.4248 34.8925 51.418 36.063C51.418 36.6325 51.6129 37.1482 51.9553 37.4756C52.3135 37.8142 52.7805 37.9779 53.3859 37.9779C53.8665 37.9779 54.2792 37.8658 54.5399 37.7738L54.5966 37.7537V35.8657H53.2181V36.4105L53.2226 36.4128Z" fill="#C1C9EB"/>
</g>
<defs>
<clipPath id="clip0_3428_1243">
<rect width="66" height="38" fill="white"/>
</clipPath>
</defs>
</svg>
