<svg width="87" height="34" viewBox="0 0 87 34" fill="currentColor" xmlns="http://www.w3.org/2000/svg">
<g clip-path="url(#clip0_3428_1222)">
<path d="M14.9704 22.8892L10.0377 17.9564L11.8795 16.1138L14.8729 19.1072L24.4974 8.43193C23.4025 7.29517 22.0894 6.39123 20.6366 5.77431C19.1839 5.1574 17.6216 4.84022 16.0433 4.8418C12.9264 4.8418 9.93718 6.07999 7.73319 8.28398C5.5292 10.488 4.29102 13.4772 4.29102 16.5941C4.29102 18.1374 4.59501 19.6656 5.18563 21.0914C5.77625 22.5172 6.64193 23.8128 7.73324 24.904C8.82456 25.9952 10.1201 26.8608 11.546 27.4514C12.9718 28.0419 14.5 28.3458 16.0433 28.3456C19.16 28.3456 22.1491 27.1075 24.3529 24.9037C26.5568 22.6999 27.7949 19.7108 27.7949 16.5941C27.7986 14.4565 27.2167 12.3587 26.1121 10.5286L14.9704 22.8892Z" fill="#C1C9EB"/>
<path d="M29.0938 18.1089V15.404L35.2896 6.54102H39.0338V15.2073H40.642V18.1097H39.0338V20.6589H35.6814V18.1097L29.0938 18.1089ZM35.9191 10.2262L32.6249 15.2065H35.9191V10.2262Z" fill="#C1C9EB"/>
<path d="M42.9361 7.99174C43.806 6.69777 45.2082 6.05078 47.1426 6.05078C49.077 6.05078 50.4789 6.69777 51.3483 7.99174C52.2171 9.28626 52.6518 11.0576 52.6524 13.3056C52.6524 15.5805 52.2177 17.3649 51.3483 18.6588C50.4789 19.9528 49.077 20.5998 47.1426 20.5998C45.2076 20.5998 43.8055 19.9528 42.9361 18.6588C42.0667 17.3649 41.6323 15.5805 41.6328 13.3056C41.6328 11.0576 42.0672 9.28626 42.9361 7.99174ZM48.9262 10.2565C48.6393 9.5461 48.0448 9.19091 47.1426 9.19091C46.2404 9.19091 45.6456 9.5461 45.3582 10.2565C45.0708 10.9668 44.927 11.9832 44.927 13.3056C44.9154 14.044 44.9678 14.782 45.0836 15.5113C45.188 16.0933 45.4003 16.5638 45.7205 16.9228C46.0407 17.2818 46.5147 17.4616 47.1426 17.4621C47.7699 17.4621 48.2437 17.2824 48.5639 16.9228C48.8841 16.5632 49.0953 16.0928 49.1975 15.5113C49.3158 14.7822 49.3707 14.0442 49.3614 13.3056C49.3614 11.9854 49.2163 10.969 48.9262 10.2565Z" fill="#C1C9EB"/>
<path d="M62.0534 11.6719V20.6578H59.8649V16.9587H56.46V20.6578H54.2715V11.6719H56.46V15.1923H59.8649V11.6719H62.0534Z" fill="#C1C9EB"/>
<path d="M68.1176 20.6578L66.2463 17.2669H65.7217V20.6587H63.5332V11.6719H67.2069C67.9173 11.6719 68.5209 11.7956 69.0176 12.0432C69.4852 12.2617 69.8758 12.6166 70.138 13.0612C70.3869 13.4997 70.5148 13.9964 70.5085 14.5005C70.516 15.0743 70.3387 15.6352 70.0028 16.1005C69.6651 16.5705 69.1681 16.9032 68.5118 17.0989L70.5905 20.6578H68.1176ZM65.7242 15.7169H67.0807C67.4823 15.7169 67.7829 15.6188 67.9823 15.4227C68.1818 15.2265 68.2821 14.9492 68.2831 14.5907C68.2831 14.2497 68.1832 13.98 67.9823 13.7841C67.7815 13.5882 67.4815 13.4899 67.0807 13.4899H65.7242V15.7169Z" fill="#C1C9EB"/>
<path d="M73.0312 20.427C72.5353 20.2328 72.1032 19.9048 71.7828 19.4795C71.4645 19.0399 71.2925 18.5115 71.291 17.9688H73.6238C73.6582 18.3016 73.7735 18.5557 73.9697 18.7311C74.1834 18.9123 74.4578 19.006 74.7377 18.9934C75.0617 18.9934 75.3178 18.9185 75.5057 18.7688C75.5982 18.6949 75.6719 18.6002 75.7208 18.4923C75.7697 18.3845 75.7923 18.2666 75.7869 18.1483C75.7898 18.046 75.7715 17.9442 75.7329 17.8494C75.6944 17.7546 75.6366 17.6688 75.5631 17.5975C75.4025 17.4459 75.216 17.3246 75.0123 17.2393C74.709 17.116 74.3993 17.0093 74.0844 16.9197C73.5981 16.7764 73.1232 16.5967 72.664 16.382C72.2894 16.1967 71.9646 15.9247 71.7164 15.5885C71.4519 15.2388 71.3197 14.7822 71.3197 14.2189C71.3197 13.3828 71.6227 12.7271 72.2287 12.2517C72.8347 11.7763 73.6241 11.5394 74.5967 11.541C75.5858 11.541 76.3836 11.7779 76.9901 12.2517C77.5967 12.7254 77.9196 13.3861 77.959 14.2336H75.591C75.5887 14.1034 75.5589 13.9752 75.5037 13.8572C75.4485 13.7393 75.369 13.6343 75.2705 13.5492C75.0577 13.3768 74.7892 13.2879 74.5156 13.2992C74.2834 13.2882 74.0554 13.3635 73.8754 13.5107C73.7115 13.6517 73.6295 13.8541 73.6295 14.1189C73.6295 14.409 73.7661 14.635 74.0393 14.7967C74.3126 14.9585 74.7393 15.1336 75.3197 15.3221C75.8043 15.4779 76.2783 15.6652 76.7385 15.8828C77.108 16.0675 77.4299 16.3348 77.6795 16.6639C77.9439 17.0049 78.0762 17.4442 78.0762 17.9819C78.0816 18.4741 77.9462 18.9576 77.686 19.3754C77.4095 19.8078 77.017 20.1537 76.5533 20.3737C76.0582 20.6213 75.4738 20.745 74.8 20.745C74.1953 20.7557 73.5943 20.6476 73.0312 20.427Z" fill="#C1C9EB"/>
<path d="M32.3125 22.4453V25.0584C32.3125 25.4625 32.1986 25.7748 31.9707 25.9928C31.7429 26.2108 31.4363 26.3207 31.0503 26.3207C30.6454 26.3207 30.321 26.2059 30.0773 25.9764C29.8336 25.7469 29.7115 25.4207 29.7109 24.9977H30.6404C30.6314 25.1265 30.6658 25.2546 30.738 25.3617C30.7725 25.403 30.8162 25.4356 30.8656 25.457C30.915 25.4783 30.9687 25.4878 31.0224 25.4846C31.0715 25.4873 31.1206 25.4789 31.166 25.46C31.2114 25.4411 31.2519 25.4123 31.2847 25.3756C31.3528 25.2845 31.3859 25.1719 31.3781 25.0584V22.4453H32.3125Z" fill="#C1C9EB"/>
<path d="M33.8572 26.0694C33.5593 25.9042 33.3118 25.6615 33.1408 25.3669C32.9619 25.0593 32.8701 24.7088 32.8752 24.353C32.8699 23.9979 32.9617 23.6482 33.1408 23.3415C33.3121 23.0479 33.5596 22.806 33.8572 22.6416C34.1605 22.4736 34.5022 22.3871 34.849 22.3907C35.1957 22.3872 35.5374 22.4737 35.8408 22.6416C36.1374 22.8052 36.3833 23.0474 36.5514 23.3415C36.7268 23.6494 36.8165 23.9987 36.8112 24.353C36.8163 24.7084 36.7257 25.0586 36.549 25.3669C36.38 25.6611 36.1344 25.9039 35.8383 26.0694C35.5359 26.2375 35.1949 26.3239 34.849 26.3202C34.5022 26.3238 34.1605 26.2374 33.8572 26.0694ZM35.5842 25.162C35.7756 24.9371 35.8743 24.648 35.8604 24.353C35.8604 24.0137 35.7684 23.7429 35.5842 23.5407C35.4906 23.4397 35.3762 23.3602 35.2488 23.3078C35.1214 23.2555 34.9841 23.2314 34.8465 23.2374C34.7092 23.2318 34.5722 23.2557 34.4449 23.3076C34.3177 23.3595 34.203 23.4382 34.1088 23.5383C33.9252 23.7383 33.8334 24.0098 33.8334 24.353C33.8334 24.6962 33.9252 24.9667 34.1088 25.1645C34.2025 25.2653 34.317 25.3447 34.4444 25.3971C34.5717 25.4494 34.7089 25.4735 34.8465 25.4677C34.9844 25.4739 35.1219 25.4497 35.2493 25.3969C35.3768 25.344 35.4911 25.2639 35.5842 25.162Z" fill="#C1C9EB"/>
<path d="M39.3101 26.2837L38.5117 24.8353H38.2879V26.2837H37.3535V22.446H38.9223C39.1888 22.4384 39.4534 22.4929 39.6953 22.605C39.895 22.6982 40.0619 22.8496 40.174 23.0394C40.2804 23.2267 40.335 23.4389 40.3322 23.6542C40.3356 23.8993 40.26 24.139 40.1166 24.3378C39.9582 24.5474 39.7339 24.6975 39.4797 24.764L40.365 26.2837H39.3101ZM38.2879 24.1739H38.8691C39.0091 24.1845 39.1477 24.1391 39.2543 24.0476C39.2988 24.0004 39.3332 23.9445 39.3553 23.8835C39.3775 23.8224 39.3869 23.7575 39.383 23.6927C39.3863 23.6296 39.3766 23.5664 39.3545 23.5072C39.3323 23.448 39.2982 23.3939 39.2543 23.3485C39.2016 23.303 39.1404 23.2685 39.0743 23.2468C39.0082 23.2252 38.9384 23.2168 38.8691 23.2222H38.2896L38.2879 24.1739Z" fill="#C1C9EB"/>
<path d="M44.3499 26.283H43.4155L41.8516 23.9158V26.283H40.918V22.4453H41.8524L43.4163 24.8223V22.4453H44.3507L44.3499 26.283Z" fill="#C1C9EB"/>
<path d="M47.3687 25.6051H45.9367L45.7072 26.283H44.7285L46.117 22.4453H47.199L48.5875 26.2838H47.5982L47.3687 25.6051ZM47.1285 24.8838L46.6564 23.4789L46.1859 24.8838H47.1285Z" fill="#C1C9EB"/>
<path d="M51.4604 22.6869C51.7548 22.8391 51.9988 23.0734 52.1629 23.3615C52.3317 23.6684 52.4166 24.0145 52.4088 24.3647C52.4161 24.7139 52.3312 25.0588 52.1629 25.3647C51.9992 25.6547 51.7541 25.8904 51.4579 26.0426C51.1307 26.2087 50.7675 26.2915 50.4006 26.2836H48.9629V22.4459H50.4006C50.7683 22.4375 51.1325 22.5203 51.4604 22.6869ZM51.1637 25.1844C51.3604 24.9915 51.4588 24.7183 51.4588 24.3647C51.4588 24.0112 51.3604 23.736 51.1637 23.5393C50.967 23.3426 50.6918 23.2442 50.3383 23.2442H49.8957V25.4746H50.344C50.6948 25.4746 50.9681 25.3778 51.1637 25.1844Z" fill="#C1C9EB"/>
<path d="M55.1192 25.6051H53.6872L53.4602 26.2838H52.4766L53.87 22.4453H54.9519L56.338 26.2838H55.3454L55.1192 25.6051ZM54.879 24.8838L54.4036 23.4789L53.9331 24.8838H54.879Z" fill="#C1C9EB"/>
<path d="M60.3062 25.6051H58.8742L58.6447 26.283H57.666L59.0545 22.4453H60.1365L61.525 26.2838H60.5357L60.3062 25.6051ZM60.066 24.8838L59.5898 23.4789L59.1201 24.8838H60.066Z" fill="#C1C9EB"/>
<path d="M61.8354 23.3454C61.9941 23.0542 62.2316 22.8136 62.5206 22.6511C62.8263 22.4835 63.1704 22.3987 63.519 22.4052C63.9375 22.3922 64.3487 22.5169 64.6895 22.7601C65.0146 23.0018 65.2447 23.3499 65.3394 23.7437H64.3116C64.2412 23.5917 64.1271 23.4641 63.9837 23.3773C63.8387 23.2925 63.6731 23.2491 63.505 23.2519C63.3735 23.2475 63.2427 23.2722 63.1218 23.3242C63.001 23.3762 62.8931 23.4542 62.8059 23.5528C62.6272 23.7527 62.5378 24.0205 62.5378 24.356C62.5378 24.6915 62.6272 24.9596 62.8059 25.1601C62.8931 25.2585 63.001 25.3365 63.1219 25.3883C63.2428 25.4402 63.3736 25.4647 63.505 25.4601C63.6731 25.4629 63.8387 25.4196 63.9837 25.3347C64.1274 25.2484 64.2417 25.1207 64.3116 24.9683H65.3386C65.2462 25.3643 65.0162 25.7147 64.6895 25.9568C64.3492 26.2008 63.9383 26.3266 63.5198 26.315C63.1713 26.3215 62.8271 26.2368 62.5214 26.0691C62.2329 25.9071 61.9955 25.6674 61.8362 25.3773C61.6685 25.067 61.5838 24.7186 61.5903 24.3659C61.5828 24.0103 61.6672 23.6588 61.8354 23.3454Z" fill="#C1C9EB"/>
<path d="M68.557 22.4453V23.1945H67.5406V26.2838H66.6054V23.1953H65.5898V22.4461L68.557 22.4453Z" fill="#C1C9EB"/>
<path d="M69.8914 22.4453V26.2838H68.957V22.4461L69.8914 22.4453Z" fill="#C1C9EB"/>
<path d="M74.1418 22.4453L72.7811 26.2838H71.6115L70.25 22.4461H71.2451L72.1959 25.3436L73.1524 22.4461L74.1418 22.4453Z" fill="#C1C9EB"/>
<path d="M76.5815 25.6051H75.1496L74.9201 26.283H73.9414L75.3299 22.4453H76.4102L77.8037 26.2838H76.8119L76.5815 25.6051ZM76.3414 24.8838L75.866 23.4789L75.3955 24.8838H76.3414Z" fill="#C1C9EB"/>
<path d="M69.3378 33.8496H16.9244C7.59172 33.8496 0 26.2571 0 16.9252C0 7.59336 7.59172 0 16.9244 0H69.3378C78.6705 0 86.263 7.59254 86.263 16.9244C86.263 26.2563 78.6705 33.8496 69.3378 33.8496ZM16.9244 1.92047C8.65155 1.92047 1.92457 8.65154 1.92457 16.9244C1.92457 25.1973 8.65565 31.9292 16.9285 31.9292H69.3378C77.6115 31.9292 84.3425 25.1981 84.3425 16.9293C84.3425 8.66056 77.6115 1.92047 69.3378 1.92047H16.9244Z" fill="#C1C9EB"/>
</g>
<defs>
<clipPath id="clip0_3428_1222">
<rect width="86.2638" height="33.8496" fill="white"/>
</clipPath>
</defs>
</svg>
