<svg width="226" height="176" viewBox="0 0 226 176" fill="none" xmlns="http://www.w3.org/2000/svg">
<g clip-path="url(#clip0_4754_9031)">
<path d="M40.4497 115.42V151.155H31.7492V129.724L23.761 151.155H16.7396L8.7005 129.673V151.155H0V115.42H10.2778L20.3012 140.16L30.2228 115.42H40.4497Z" fill="#432694"/>
<path d="M46.9115 118.45C45.9448 117.549 45.4614 116.439 45.4614 115.115C45.4614 113.792 45.9448 112.631 46.9115 111.73C47.8782 110.83 49.1248 110.381 50.6512 110.381C52.1776 110.381 53.3733 110.833 54.34 111.73C55.3067 112.631 55.7901 113.76 55.7901 115.115C55.7901 116.471 55.3067 117.552 54.34 118.45C53.3733 119.35 52.1426 119.799 50.6512 119.799C49.1597 119.799 47.8782 119.35 46.9115 118.45ZM54.976 122.751V151.156H46.2755V122.751H54.976Z" fill="#432694"/>
<path d="M85.6759 125.679C87.6602 127.836 88.6524 130.795 88.6524 134.562V151.157H80.0028V135.732C80.0028 133.833 79.5099 132.357 78.5272 131.304C77.5446 130.254 76.2217 129.726 74.5586 129.726C72.8954 129.726 71.5726 130.254 70.5899 131.304C69.6073 132.357 69.1144 133.833 69.1144 135.732V151.157H60.4139V122.752H69.1144V126.519C69.9953 125.265 71.1814 124.272 72.676 123.541C74.1674 122.812 75.8465 122.446 77.7132 122.446C81.0363 122.446 83.6916 123.525 85.6759 125.679Z" fill="#432694"/>
<path d="M120.478 139.04H100.787C100.924 140.805 101.49 142.154 102.491 143.087C103.49 144.022 104.721 144.487 106.18 144.487C108.352 144.487 109.86 143.57 110.709 141.738H119.969C119.492 143.605 118.636 145.285 117.399 146.777C116.162 148.269 114.607 149.443 112.744 150.29C110.877 151.139 108.791 151.562 106.486 151.562C103.703 151.562 101.229 150.967 99.057 149.781C96.8851 148.594 95.1901 146.898 93.969 144.69C92.7479 142.485 92.1373 139.905 92.1373 136.953C92.1373 134 92.7384 131.42 93.9436 129.215C95.1488 127.01 96.8342 125.315 99.0061 124.125C101.178 122.938 103.671 122.343 106.486 122.343C109.3 122.343 111.675 122.919 113.812 124.074C115.949 125.229 117.619 126.873 118.824 129.011C120.026 131.149 120.63 133.644 120.63 136.494C120.63 137.309 120.579 138.158 120.478 139.04ZM111.726 134.204C111.726 132.712 111.217 131.525 110.2 130.64C109.182 129.759 107.91 129.317 106.384 129.317C104.857 129.317 103.693 129.74 102.695 130.59C101.693 131.439 101.076 132.645 100.838 134.204H111.726Z" fill="#432694"/>
<path d="M145.136 115.675V119.442H129.719V131.404H142.235V135.171H129.719V151.155H125.089V115.675H145.136Z" fill="#432694"/>
<path d="M148.51 129.598C149.661 127.444 151.248 125.771 153.267 124.584C155.283 123.397 157.532 122.802 160.009 122.802C162.486 122.802 164.569 123.331 166.369 124.381C168.166 125.434 169.504 126.757 170.388 128.351V123.261H175.069V151.156H170.388V145.964C169.473 147.593 168.108 148.942 166.293 150.011C164.477 151.08 162.365 151.615 159.958 151.615C157.551 151.615 155.242 151.004 153.242 149.782C151.242 148.56 149.664 146.849 148.51 144.641C147.356 142.436 146.78 139.926 146.78 137.107C146.78 134.288 147.356 131.752 148.51 129.598ZM169.116 131.66C168.267 130.101 167.123 128.902 165.682 128.071C164.238 127.241 162.655 126.824 160.925 126.824C159.195 126.824 157.617 127.231 156.193 128.046C154.768 128.86 153.63 130.047 152.784 131.609C151.935 133.171 151.512 135.004 151.512 137.107C151.512 139.21 151.935 141.103 152.784 142.681C153.633 144.259 154.768 145.465 156.193 146.295C157.617 147.129 159.195 147.542 160.925 147.542C162.655 147.542 164.238 147.129 165.682 146.295C167.123 145.465 168.267 144.259 169.116 142.681C169.965 141.103 170.388 139.261 170.388 137.158C170.388 135.055 169.965 133.222 169.116 131.66Z" fill="#432694"/>
<path d="M181.938 129.598C183.089 127.444 184.695 125.771 186.746 124.584C188.797 123.397 191.147 122.802 193.793 122.802C197.217 122.802 200.041 123.636 202.264 125.297C204.484 126.961 205.953 129.267 206.665 132.22H201.679C201.202 130.524 200.28 129.181 198.906 128.198C197.532 127.215 195.828 126.722 193.793 126.722C191.147 126.722 189.01 127.629 187.382 129.446C185.754 131.262 184.939 133.833 184.939 137.158C184.939 140.482 185.754 143.113 187.382 144.946C189.01 146.779 191.147 147.695 193.793 147.695C195.828 147.695 197.523 147.221 198.881 146.27C200.239 145.321 201.17 143.963 201.679 142.197H206.665C205.918 145.048 204.427 147.329 202.188 149.044C199.949 150.759 197.151 151.615 193.793 151.615C191.147 151.615 188.797 151.02 186.746 149.833C184.691 148.646 183.089 146.966 181.938 144.793C180.783 142.62 180.208 140.075 180.208 137.158C180.208 134.24 180.783 131.752 181.938 129.598Z" fill="#432694"/>
<path d="M216.885 127.078V143.521C216.885 144.879 217.175 145.837 217.75 146.397C218.326 146.957 219.328 147.237 220.752 147.237H224.161V151.156H219.989C217.41 151.156 215.477 150.561 214.189 149.375C212.901 148.188 212.255 146.234 212.255 143.521V127.078H208.643V123.26H212.255V116.236H216.885V123.26H224.161V127.078H216.885Z" fill="#432694"/>
<path d="M151.384 43.1365C162.166 43.1365 170.906 34.392 170.906 23.605C170.906 12.818 162.166 4.07349 151.384 4.07349C140.603 4.07349 131.862 12.818 131.862 23.605C131.862 34.392 140.603 43.1365 151.384 43.1365Z" fill="#9777EE"/>
<path d="M49.5889 70.4498L85.4689 8.27282C91.8321 -2.75761 107.745 -2.75761 114.108 8.27282L149.988 70.4498C156.351 81.4802 148.398 95.2659 135.669 95.2659H63.9084C51.1789 95.2659 43.2225 81.4802 49.5889 70.4498Z" fill="url(#paint0_linear_4754_9031)" style="mix-blend-mode:multiply"/>
<path d="M49.2517 69.7983L70.599 32.8033C75.1624 24.8939 86.5754 24.8939 91.1419 32.8033L116.875 77.399C121.438 85.3083 115.733 95.1966 106.603 95.1966H63.9051C50.8766 95.1966 42.7358 81.0864 49.2485 69.7983H49.2517Z" fill="url(#paint1_linear_4754_9031)"/>
<path d="M136.699 168.244C136.48 168.868 136.158 169.495 135.704 170.052C134.591 171.404 132.918 172.043 131.233 172.043C129.442 172.043 127.773 171.318 126.762 170.052C125.75 168.82 125.327 167.315 125.327 165.712C125.327 164.042 125.766 162.556 126.762 161.356C127.824 160.023 129.477 159.381 131.233 159.381C132.988 159.381 134.626 160.039 135.704 161.356C136.244 162.031 136.597 162.791 136.817 163.517L134.454 163.921C134.32 163.498 134.152 163.094 133.882 162.756C133.274 161.945 132.263 161.525 131.233 161.525C130.186 161.525 129.175 161.948 128.584 162.756C127.96 163.552 127.773 164.646 127.757 165.712C127.773 166.775 127.96 167.856 128.584 168.668C129.175 169.479 130.186 169.899 131.233 169.883C132.263 169.899 133.274 169.479 133.882 168.668C134.117 168.346 134.304 167.974 134.422 167.586L136.699 168.244Z" fill="#432694"/>
<path d="M141.949 161.932V164.564H146.067V166.861H141.949V171.792H139.656V159.635H147.081V161.932H141.949Z" fill="#432694"/>
<path d="M160.448 168.244C160.228 168.868 159.907 169.495 159.452 170.052C158.339 171.404 156.667 172.043 154.981 172.043C153.191 172.043 151.521 171.318 150.51 170.052C149.499 168.82 149.076 167.315 149.076 165.712C149.076 164.042 149.515 162.556 150.51 161.356C151.572 160.023 153.226 159.381 154.981 159.381C156.737 159.381 158.374 160.039 159.452 161.356C159.993 162.031 160.346 162.791 160.565 163.517L158.203 163.921C158.069 163.498 157.897 163.094 157.63 162.756C157.023 161.945 156.012 161.525 154.981 161.525C153.935 161.525 152.924 161.948 152.332 162.756C151.709 163.552 151.521 164.646 151.506 165.712C151.521 166.775 151.709 167.856 152.332 168.668C152.924 169.479 153.935 169.899 154.981 169.883C156.012 169.899 157.023 169.479 157.63 168.668C157.866 168.346 158.053 167.974 158.171 167.586L160.448 168.244Z" fill="#432694"/>
<path d="M177.985 168.178C177.801 168.852 177.48 169.511 177.025 170.102C175.995 171.42 174.427 172.043 172.738 172.043C171.018 172.043 169.498 171.401 168.468 170.102C167.488 168.836 167.116 167.268 167.135 165.712C167.17 164.143 167.488 162.572 168.468 161.321C169.479 160.004 171.05 159.381 172.738 159.381C174.443 159.381 176.03 160.023 177.025 161.321C177.547 162.015 177.887 162.772 178.087 163.568L176.806 163.771C176.653 163.164 176.402 162.572 176.03 162.082C175.286 161.086 174.02 160.596 172.738 160.58C171.473 160.564 170.207 161.086 169.482 162.082C168.706 163.078 168.471 164.411 168.471 165.712C168.471 167.013 168.706 168.346 169.482 169.358C170.207 170.354 171.473 170.844 172.738 170.844C174.02 170.86 175.286 170.354 176.03 169.358C176.367 168.903 176.602 168.362 176.755 167.821L177.985 168.174V168.178Z" fill="#432694"/>
<path d="M172.739 172.201C170.926 172.201 169.368 171.489 168.344 170.2C167.431 169.017 166.958 167.467 166.977 165.711C167.018 163.815 167.463 162.348 168.344 161.225C169.336 159.933 170.898 159.224 172.739 159.224C174.58 159.224 176.176 159.956 177.153 161.228C177.658 161.896 178.024 162.67 178.243 163.532L178.288 163.7L176.688 163.955L176.653 163.815C176.494 163.185 176.237 162.622 175.906 162.186C175.238 161.289 174.084 160.764 172.739 160.745C171.473 160.716 170.271 161.279 169.613 162.183C168.961 163.02 168.63 164.209 168.63 165.721C168.63 167.232 168.961 168.422 169.61 169.271C170.258 170.162 171.429 170.693 172.739 170.693C174.049 170.706 175.226 170.178 175.903 169.271C176.202 168.867 176.444 168.355 176.603 167.785L176.647 167.633L178.183 168.075L178.142 168.228C177.945 168.947 177.611 169.612 177.153 170.207C176.141 171.498 174.577 172.211 172.742 172.211L172.739 172.201ZM172.739 159.539C170.999 159.539 169.527 160.207 168.595 161.419C167.759 162.488 167.333 163.891 167.295 165.714C167.276 167.397 167.727 168.88 168.595 170.003C169.568 171.231 171.003 171.883 172.739 171.883C174.475 171.883 175.951 171.215 176.898 170.003C177.299 169.484 177.598 168.905 177.789 168.285L176.863 168.018C176.692 168.568 176.456 169.049 176.157 169.453C175.42 170.442 174.141 171.008 172.736 171.002C171.324 171.002 170.058 170.423 169.352 169.453C168.662 168.549 168.309 167.292 168.309 165.711C168.309 164.13 168.662 162.873 169.355 161.982C170.08 160.987 171.349 160.404 172.739 160.417C174.183 160.436 175.426 161.009 176.154 161.982C176.491 162.428 176.749 162.965 176.921 163.586L177.887 163.433C177.674 162.682 177.34 162.001 176.898 161.413C175.986 160.22 174.469 159.533 172.739 159.533V159.539Z" fill="#432694"/>
<path d="M186.883 171.792V170.323C186.072 171.573 184.858 172.044 183.29 172.044C181.55 172.044 180.304 170.981 180.304 169.292C180.304 168.143 180.778 167.351 181.906 166.775C183.019 166.202 184.791 166.066 186.734 165.763C186.718 164.294 185.722 163.619 184.371 163.619C183.411 163.619 182.514 163.823 181.706 164.818L180.895 163.975C181.84 162.846 183.074 162.423 184.524 162.423C185.436 162.423 186.314 162.76 186.902 163.285C187.745 163.994 187.999 165.108 187.999 166.171V171.792H186.886H186.883ZM186.766 166.81C185.245 167.046 184.183 167.214 183.611 167.351C182.463 167.586 181.553 168.194 181.553 169.174C181.553 170.237 182.364 170.93 183.493 170.93C184.81 170.93 185.856 170.408 186.397 169.378C186.75 168.684 186.769 167.994 186.769 166.81" fill="#432694"/>
<path d="M183.287 172.202C181.404 172.202 180.142 171.031 180.142 169.291C180.142 168.063 180.679 167.22 181.83 166.634C182.73 166.173 184.009 165.992 185.487 165.785C185.837 165.734 186.197 165.686 186.565 165.629C186.495 164.452 185.7 163.78 184.368 163.78C183.529 163.78 182.638 163.917 181.824 164.919L181.71 165.059L180.676 163.984L180.768 163.876C181.675 162.791 182.899 162.266 184.517 162.266C185.437 162.266 186.365 162.603 187.001 163.166C187.764 163.806 188.152 164.821 188.152 166.173V171.954H186.721V170.812C185.939 171.76 184.832 172.205 183.287 172.205V172.202ZM184.368 163.459C185.929 163.459 186.874 164.318 186.89 165.759V165.896L186.756 165.918C186.34 165.985 185.933 166.043 185.535 166.097C184.082 166.3 182.829 166.478 181.977 166.914C180.927 167.446 180.46 168.181 180.46 169.288C180.46 170.837 181.595 171.881 183.287 171.881C184.979 171.881 186.018 171.356 186.747 170.229L187.039 169.778V171.626H187.834V166.163C187.834 164.91 187.484 163.978 186.794 163.399C186.212 162.883 185.36 162.575 184.517 162.575C183.032 162.575 181.945 163.017 181.105 163.962L181.694 164.573C182.565 163.59 183.532 163.453 184.368 163.453V163.459ZM183.49 171.088C182.253 171.088 181.392 170.299 181.392 169.173C181.392 168.216 182.209 167.477 183.576 167.194C184.142 167.061 185.198 166.892 186.74 166.653L186.925 166.625V166.809C186.925 168.009 186.906 168.725 186.537 169.447C185.983 170.506 184.902 171.088 183.494 171.088H183.49ZM186.604 166.994C185.169 167.217 184.18 167.376 183.643 167.503C183.058 167.624 181.706 168.025 181.706 169.17C181.706 170.124 182.422 170.767 183.487 170.767C184.772 170.767 185.751 170.245 186.247 169.297C186.565 168.677 186.597 168.031 186.6 166.991L186.604 166.994Z" fill="#432694"/>
<path d="M199.421 167.213C199.421 168.397 199.186 169.593 198.426 170.573C197.666 171.534 196.518 172.043 195.271 172.043C194.041 172.043 192.96 171.588 192.25 170.691V175.839H191.001V162.67H192.114V163.901C192.839 162.957 194.054 162.416 195.319 162.416C196.55 162.416 197.698 162.941 198.426 163.886C199.151 164.815 199.421 166.046 199.421 167.21M198.105 167.213C198.105 166.269 197.92 165.324 197.415 164.646C196.89 163.921 196.047 163.564 195.119 163.564C194.225 163.564 193.379 163.901 192.858 164.579C192.317 165.269 192.114 166.249 192.114 167.213C192.114 168.193 192.317 169.189 192.858 169.864C193.383 170.538 194.241 170.894 195.135 170.894C196.028 170.894 196.906 170.525 197.431 169.797C197.936 169.122 198.105 168.174 198.105 167.213Z" fill="#432694"/>
<path d="M192.41 176H190.842V162.513H192.273V163.481C193.03 162.711 194.137 162.259 195.32 162.259C196.627 162.259 197.803 162.816 198.551 163.789C199.4 164.877 199.578 166.252 199.578 167.213C199.578 168.647 199.241 169.777 198.551 170.671C197.781 171.644 196.585 172.201 195.269 172.201C194.121 172.201 193.122 171.816 192.407 171.107V176H192.41ZM191.16 175.682H192.092V170.235L192.375 170.595C193.033 171.428 194.064 171.886 195.272 171.886C196.48 171.886 197.587 171.387 198.303 170.477C198.948 169.643 199.263 168.574 199.263 167.216C199.263 166.306 199.098 165.005 198.303 163.99C197.616 163.096 196.528 162.58 195.323 162.58C194.118 162.58 192.928 163.112 192.242 164.006L191.955 164.378V162.835H191.16V175.685V175.682ZM195.135 171.053C194.159 171.053 193.262 170.645 192.731 169.961C192.089 169.16 191.955 168.024 191.955 167.213C191.955 166.401 192.089 165.304 192.731 164.483C193.259 163.799 194.13 163.407 195.116 163.407C196.102 163.407 197.008 163.815 197.539 164.553C198.01 165.183 198.261 166.102 198.261 167.213C198.261 168.323 198.023 169.265 197.555 169.891C197.034 170.617 196.127 171.053 195.132 171.053H195.135ZM195.119 163.726C194.232 163.726 193.453 164.072 192.982 164.677C192.397 165.428 192.273 166.471 192.273 167.213C192.273 168.288 192.525 169.195 192.982 169.764C193.453 170.372 194.258 170.735 195.135 170.735C196.013 170.735 196.837 170.35 197.301 169.704C197.73 169.131 197.946 168.294 197.946 167.213C197.946 166.487 197.832 165.469 197.288 164.741C196.814 164.085 196.045 163.722 195.119 163.722V163.726Z" fill="#432694"/>
<path d="M203.493 161.053H202.262V159.669H203.493V161.053ZM203.493 171.791H202.262V162.673H203.493V171.791Z" fill="#432694"/>
<path d="M203.652 171.95H202.104V162.514H203.652V171.95ZM202.422 171.632H203.334V162.832H202.422V171.632ZM203.652 161.209H202.104V159.507H203.652V161.209ZM202.422 160.891H203.334V159.825H202.422V160.891Z" fill="#432694"/>
<path d="M209.013 168.431C209.013 169.191 208.978 169.646 209.197 170.034C209.401 170.457 209.82 170.693 210.294 170.744C210.765 170.795 211.325 170.779 211.795 170.677V171.79C211.188 171.943 210.428 171.975 209.836 171.857C209.025 171.724 208.418 171.351 208.081 170.658C207.779 170.018 207.76 169.341 207.76 168.482V163.738H205.82V162.675H207.76V160.143H209.009V162.675H211.795V163.738H209.009V168.431H209.013Z" fill="#432694"/>
<path d="M210.626 172.087C210.336 172.087 210.056 172.061 209.805 172.014C208.911 171.864 208.282 171.432 207.938 170.728C207.627 170.07 207.601 169.383 207.601 168.482V163.898H205.661V162.517H207.601V159.984H209.169V162.517H211.955V163.898H209.169V168.699C209.166 169.294 209.163 169.653 209.334 169.958C209.506 170.315 209.859 170.541 210.311 170.588C210.791 170.639 211.335 170.614 211.761 170.522L211.952 170.48V171.915L211.831 171.944C211.452 172.039 211.029 172.087 210.622 172.087H210.626ZM205.983 163.576H207.922V168.479C207.922 169.364 207.945 169.99 208.228 170.588C208.527 171.202 209.061 171.565 209.865 171.699C210.384 171.801 211.064 171.785 211.637 171.664V170.868C211.214 170.938 210.727 170.951 210.279 170.903C209.716 170.843 209.271 170.553 209.055 170.105C208.845 169.736 208.848 169.322 208.851 168.695V168.431V163.579H211.637V162.835H208.851V160.302H207.919V162.835H205.979V163.579L205.983 163.576Z" fill="#432694"/>
<path d="M220.489 171.792V170.323C219.678 171.573 218.463 172.044 216.895 172.044C215.156 172.044 213.909 170.981 213.909 169.292C213.909 168.143 214.38 167.351 215.512 166.775C216.625 166.202 218.396 166.066 220.339 165.763C220.323 164.294 219.328 163.619 217.977 163.619C217.016 163.619 216.119 163.823 215.312 164.818L214.501 163.975C215.445 162.846 216.679 162.423 218.129 162.423C219.042 162.423 219.92 162.76 220.508 163.285C221.351 163.994 221.605 165.108 221.605 166.171V171.792H220.492H220.489ZM220.368 166.81C218.848 167.046 217.786 167.214 217.213 167.351C216.065 167.586 215.156 168.194 215.156 169.174C215.156 170.237 215.967 170.93 217.096 170.93C218.412 170.93 219.458 170.408 219.999 169.378C220.352 168.684 220.371 167.994 220.371 166.81" fill="#432694"/>
<path d="M216.892 172.202C215.01 172.202 213.747 171.031 213.747 169.291C213.747 168.063 214.285 167.22 215.436 166.634C216.336 166.173 217.614 165.992 219.093 165.785C219.443 165.734 219.802 165.686 220.171 165.629C220.101 164.452 219.306 163.78 217.974 163.78C217.134 163.78 216.244 163.917 215.43 164.919L215.315 165.059L214.282 163.984L214.374 163.876C215.28 162.791 216.504 162.266 218.123 162.266C219.042 162.266 219.971 162.603 220.61 163.166C221.373 163.806 221.761 164.821 221.761 166.173V171.954H220.33V170.812C219.548 171.76 218.441 172.205 216.896 172.205L216.892 172.202ZM217.974 163.459C219.535 163.459 220.479 164.318 220.495 165.759V165.896L220.362 165.918C219.945 165.985 219.538 166.043 219.141 166.097C217.687 166.3 216.435 166.478 215.582 166.914C214.533 167.446 214.065 168.177 214.065 169.288C214.065 170.837 215.201 171.881 216.892 171.881C218.584 171.881 219.624 171.356 220.352 170.229L220.645 169.778V171.626H221.44V166.163C221.44 164.91 221.09 163.978 220.4 163.399C219.818 162.883 218.966 162.575 218.123 162.575C216.638 162.575 215.55 163.017 214.711 163.962L215.299 164.573C216.171 163.59 217.137 163.453 217.974 163.453V163.459ZM217.096 171.088C215.859 171.088 214.997 170.299 214.997 169.173C214.997 168.216 215.814 167.477 217.182 167.194C217.748 167.061 218.804 166.892 220.346 166.653L220.53 166.625V166.809C220.53 168.009 220.511 168.725 220.142 169.447C219.589 170.506 218.508 171.088 217.099 171.088H217.096ZM220.209 166.994C218.772 167.217 217.786 167.376 217.249 167.503C216.663 167.624 215.312 168.025 215.312 169.17C215.312 170.124 216.027 170.767 217.093 170.767C218.378 170.767 219.357 170.245 219.853 169.297C220.171 168.677 220.203 168.031 220.206 166.991L220.209 166.994Z" fill="#432694"/>
<path d="M225.839 159.381H224.608V171.789H225.839V159.381Z" fill="#432694"/>
<path d="M226 171.95H224.452V159.224H226V171.95ZM224.766 171.632H225.679V159.542H224.766V171.632Z" fill="#432694"/>
</g>
<defs>
<linearGradient id="paint0_linear_4754_9031" x1="47.3501" y1="47.6317" x2="152.23" y2="47.6317" gradientUnits="userSpaceOnUse">
<stop offset="0.1" stop-color="#432694"/>
<stop offset="1" stop-color="#9777EE"/>
</linearGradient>
<linearGradient id="paint1_linear_4754_9031" x1="46.9589" y1="61.0331" x2="118.484" y2="61.0331" gradientUnits="userSpaceOnUse">
<stop stop-color="#D4BFFE"/>
<stop offset="1" stop-color="#9777EE"/>
</linearGradient>
<clipPath id="clip0_4754_9031">
<rect width="226" height="176" fill="white"/>
</clipPath>
</defs>
</svg>
