<svg width="313" height="105" viewBox="0 0 313 105" fill="none" xmlns="http://www.w3.org/2000/svg">
<g clip-path="url(#clip0_4883_417)">
<path d="M143.919 50.1641V82.5098H135.989V63.1114L128.71 82.5098H122.312L114.986 63.0661V82.5098H107.057V50.1641H116.422L125.555 72.557L134.597 50.1641H143.917H143.919Z" fill="white"/>
<path d="M149.806 52.9043C148.924 52.0897 148.484 51.0833 148.484 49.8871C148.484 48.6909 148.924 47.6371 149.806 46.8225C150.688 46.0078 151.823 45.6016 153.214 45.6016C154.604 45.6016 155.694 46.0099 156.576 46.8225C157.458 47.6371 157.898 48.658 157.898 49.8871C157.898 51.1163 157.458 52.0918 156.576 52.9043C155.694 53.7189 154.573 54.1252 153.214 54.1252C151.855 54.1252 150.686 53.7189 149.806 52.9043ZM157.155 56.798V82.5092H149.225V56.798H157.155Z" fill="white"/>
<path d="M185.13 59.4478C186.937 61.3988 187.842 64.0778 187.842 67.4889V82.511H179.961V68.549C179.961 66.829 179.512 65.4926 178.616 64.5398C177.719 63.589 176.514 63.1106 174.999 63.1106C173.484 63.1106 172.278 63.587 171.382 64.5398C170.485 65.4926 170.037 66.829 170.037 68.549V82.511H162.107V56.7998H170.037V60.2088C170.84 59.0725 171.921 58.1754 173.283 57.5134C174.642 56.8534 176.171 56.5234 177.873 56.5234C180.903 56.5234 183.32 57.4989 185.13 59.4499V59.4478Z" fill="white"/>
<path d="M216.844 71.5444H198.901C199.024 73.1427 199.542 74.3636 200.455 75.2071C201.366 76.0527 202.487 76.4734 203.817 76.4734C205.795 76.4734 207.171 75.6443 207.943 73.9862H216.381C215.947 75.6752 215.167 77.1972 214.04 78.5481C212.911 79.901 211.498 80.959 209.798 81.7282C208.099 82.4954 206.198 82.8811 204.095 82.8811C201.562 82.8811 199.304 82.3449 197.326 81.2683C195.348 80.1938 193.802 78.6574 192.69 76.661C191.578 74.6647 191.021 72.3301 191.021 69.6573C191.021 66.9845 191.569 64.65 192.667 62.6536C193.765 60.6573 195.303 59.1208 197.28 58.0463C199.258 56.9719 201.53 56.4336 204.095 56.4336C206.66 56.4336 208.825 56.9554 210.771 58.001C212.718 59.0466 214.241 60.5356 215.339 62.4701C216.435 64.4045 216.985 66.6628 216.985 69.2428C216.985 69.9811 216.939 70.7483 216.846 71.5464L216.844 71.5444ZM208.868 67.166C208.868 65.8152 208.406 64.7407 207.478 63.9405C206.55 63.1424 205.392 62.7423 204 62.7423C202.607 62.7423 201.549 63.1259 200.638 63.8951C199.725 64.6623 199.163 65.7533 198.947 67.166H208.868Z" fill="white"/>
<path d="M239.313 50.3946V53.8037H225.264V64.631H236.669V68.04H225.264V82.5074H221.045V50.3926H239.313V50.3946Z" fill="white"/>
<path d="M242.386 62.9957C243.436 61.0447 244.882 59.533 246.721 58.4565C248.56 57.382 250.608 56.8438 252.864 56.8438C255.119 56.8438 257.02 57.3201 258.66 58.273C260.297 59.2258 261.517 60.424 262.323 61.8676V57.2603H266.587V82.5096H262.323V77.8095C261.488 79.2841 260.243 80.505 258.589 81.4722C256.935 82.4395 255.012 82.9241 252.816 82.9241C250.62 82.9241 248.518 82.3714 246.696 81.266C244.872 80.1606 243.434 78.6097 242.384 76.6113C241.332 74.6149 240.807 72.3422 240.807 69.7911C240.807 67.24 241.332 64.9467 242.384 62.9957H242.386ZM261.165 64.8621C260.391 63.4494 259.349 62.3667 258.035 61.6139C256.722 60.8612 255.277 60.4838 253.7 60.4838C252.123 60.4838 250.687 60.8529 249.388 61.5892C248.089 62.3255 247.053 63.402 246.281 64.8147C245.509 66.2274 245.121 67.8876 245.121 69.7911C245.121 71.6947 245.507 73.4085 246.281 74.8377C247.053 76.2669 248.089 77.3558 249.388 78.1086C250.687 78.8613 252.123 79.2367 253.7 79.2367C255.277 79.2367 256.722 78.8613 258.035 78.1086C259.349 77.3558 260.393 76.2648 261.165 74.8377C261.937 73.4085 262.325 71.7442 262.325 69.8386C262.325 67.933 261.939 66.2748 261.165 64.8621Z" fill="white"/>
<path d="M272.849 62.9957C273.899 61.0447 275.36 59.533 277.229 58.4565C279.099 57.382 281.241 56.8438 283.65 56.8438C286.771 56.8438 289.345 57.5965 291.37 59.102C293.393 60.6075 294.732 62.6967 295.381 65.3695H290.839C290.405 63.833 289.564 62.6204 288.311 61.7294C287.06 60.8385 285.505 60.393 283.652 60.393C281.241 60.393 279.294 61.2159 277.81 62.8575C276.327 64.5012 275.584 66.8275 275.584 69.8386C275.584 72.8496 276.327 75.2295 277.81 76.8876C279.294 78.5458 281.241 79.3748 283.652 79.3748C285.507 79.3748 287.051 78.9459 288.288 78.0838C289.525 77.2238 290.374 75.9947 290.839 74.3984H295.381C294.701 76.9784 293.341 79.0449 291.301 80.5957C289.261 82.1466 286.711 82.9221 283.652 82.9221C281.241 82.9221 279.101 82.3859 277.231 81.3093C275.362 80.2348 273.901 78.7128 272.851 76.7474C271.798 74.782 271.273 72.4784 271.273 69.8365C271.273 67.1946 271.798 64.9446 272.851 62.9937L272.849 62.9957Z" fill="white"/>
<path d="M304.696 60.7151V75.5969C304.696 76.8261 304.957 77.6943 305.484 78.1996C306.009 78.7069 306.922 78.9606 308.22 78.9606H311.326V82.5078H307.524C305.175 82.5078 303.413 81.9716 302.239 80.8951C301.064 79.8206 300.477 78.0532 300.477 75.5969V60.7151H297.186V57.2586H300.477V50.9004H304.696V57.2586H311.326V60.7151H304.696Z" fill="white"/>
<path d="M231.626 97.9795C231.426 98.5446 231.134 99.1097 230.719 99.615C229.704 100.838 228.181 101.42 226.643 101.42C225.014 101.42 223.491 100.762 222.567 99.615C221.644 98.4992 221.26 97.1402 221.26 95.6883C221.26 94.1766 221.66 92.8299 222.567 91.7451C223.536 90.5386 225.043 89.957 226.643 89.957C228.243 89.957 229.733 90.553 230.719 91.7451C231.21 92.3555 231.534 93.0444 231.733 93.7022L229.581 94.0693C229.459 93.6878 229.305 93.3207 229.058 93.0155C228.504 92.2813 227.583 91.8998 226.645 91.8998C225.692 91.8998 224.769 92.2813 224.232 93.0155C223.663 93.7332 223.493 94.7272 223.478 95.6903C223.493 96.6535 223.663 97.631 224.232 98.3652C224.769 99.0994 225.692 99.4809 226.645 99.4644C227.583 99.4789 228.506 99.0973 229.058 98.3652C229.274 98.0744 229.442 97.7382 229.55 97.3876L231.626 97.9837V97.9795Z" fill="white"/>
<path d="M236.41 92.2624V94.6465H240.162V96.7253H236.41V101.188H234.318V90.1836H241.084V92.2624H236.41Z" fill="white"/>
<path d="M253.266 97.9795C253.067 98.5446 252.774 99.1097 252.359 99.615C251.344 100.838 249.821 101.42 248.283 101.42C246.654 101.42 245.131 100.762 244.208 99.615C243.284 98.4992 242.9 97.1402 242.9 95.6883C242.9 94.1766 243.301 92.8299 244.208 91.7451C245.177 90.5386 246.683 89.957 248.283 89.957C249.883 89.957 251.373 90.553 252.359 91.7451C252.851 92.3555 253.175 93.0444 253.374 93.7022L251.222 94.0693C251.099 93.6878 250.946 93.3207 250.699 93.0155C250.145 92.2813 249.223 91.8998 248.285 91.8998C247.333 91.8998 246.409 92.2813 245.872 93.0155C245.303 93.7332 245.133 94.7272 245.119 95.6903C245.133 96.6535 245.303 97.631 245.872 98.3652C246.409 99.0994 247.333 99.4809 248.285 99.4644C249.223 99.4789 250.147 99.0973 250.699 98.3652C250.915 98.0744 251.083 97.7382 251.191 97.3876L253.266 97.9837V97.9795Z" fill="white"/>
<path d="M269.246 97.9178C269.078 98.5282 268.786 99.1242 268.371 99.6605C267.433 100.852 266.003 101.418 264.465 101.418C262.896 101.418 261.512 100.836 260.574 99.6605C259.682 98.5138 259.343 97.0928 259.36 95.6863C259.391 94.2654 259.684 92.8444 260.574 91.7122C261.497 90.5202 262.927 89.9551 264.465 89.9551C266.017 89.9551 267.464 90.5367 268.371 91.7122C268.848 92.3391 269.155 93.0259 269.34 93.7436L268.171 93.9272C268.032 93.3765 267.802 92.8424 267.464 92.399C266.787 91.4977 265.633 91.0543 264.465 91.0378C263.311 91.0234 262.157 91.4956 261.497 92.399C260.79 93.3002 260.574 94.5067 260.574 95.6843C260.574 96.8619 260.79 98.0683 261.497 98.9861C262.159 99.8873 263.311 100.331 264.465 100.331C265.633 100.345 266.787 99.8873 267.464 98.9861C267.771 98.5736 267.987 98.0848 268.126 97.5961L269.248 97.9178H269.246Z" fill="white"/>
<path d="M264.464 101.562C262.814 101.562 261.39 100.918 260.459 99.749C259.626 98.6786 259.195 97.2742 259.213 95.6841C259.251 93.9682 259.658 92.6401 260.459 91.6233C261.363 90.454 262.785 89.8105 264.464 89.8105C266.143 89.8105 267.595 90.4726 268.486 91.6254C268.944 92.2297 269.28 92.9309 269.48 93.7084L269.519 93.861L268.062 94.0899L268.031 93.962C267.888 93.3928 267.651 92.8834 267.348 92.4854C266.738 91.6728 265.688 91.1985 264.464 91.182C263.31 91.1552 262.214 91.6646 261.615 92.4833C261.019 93.2423 260.72 94.3168 260.72 95.6841C260.72 97.0514 261.021 98.13 261.612 98.8972C262.204 99.7057 263.271 100.186 264.466 100.186C265.659 100.196 266.732 99.7201 267.348 98.8993C267.62 98.5342 267.84 98.0702 267.985 97.5546L268.025 97.4144L269.426 97.8145L269.388 97.9527C269.208 98.6023 268.905 99.2066 268.488 99.7448C267.566 100.914 266.139 101.558 264.468 101.558L264.464 101.562ZM264.464 90.0993C262.878 90.0993 261.538 90.7035 260.689 91.8007C259.927 92.7679 259.539 94.0383 259.504 95.6903C259.487 97.2123 259.896 98.5549 260.689 99.5716C261.577 100.685 262.882 101.273 264.466 101.273C266.049 101.273 267.394 100.669 268.257 99.5716C268.623 99.1014 268.894 98.5776 269.069 98.0166L268.224 97.7753C268.068 98.2723 267.853 98.7095 267.581 99.0746C266.908 99.9696 265.744 100.483 264.464 100.477C263.179 100.477 262.025 99.9531 261.38 99.0725C260.749 98.2558 260.43 97.1154 260.43 95.6862C260.43 94.257 260.751 93.1185 261.382 92.3122C262.042 91.4109 263.2 90.885 264.466 90.8974C265.782 90.9139 266.915 91.4315 267.579 92.3163C267.886 92.7184 268.12 93.2072 268.276 93.7682L269.156 93.63C268.963 92.9494 268.658 92.3349 268.253 91.8028C267.421 90.7221 266.039 90.1013 264.464 90.1013V90.0993Z" fill="white"/>
<path d="M277.353 101.189V99.8592C276.614 100.989 275.508 101.418 274.078 101.418C272.495 101.418 271.355 100.455 271.355 98.9271C271.355 97.8876 271.785 97.1699 272.816 96.6502C273.831 96.1305 275.446 96.0088 277.214 95.7325C277.199 94.4023 276.29 93.7918 275.062 93.7918C274.186 93.7918 273.371 93.9754 272.632 94.8766L271.893 94.1135C272.754 93.0906 273.877 92.707 275.199 92.707C276.029 92.707 276.83 93.0123 277.367 93.4866C278.137 94.128 278.368 95.1365 278.368 96.0996V101.187H277.353V101.189ZM277.247 96.6812C275.863 96.8957 274.894 97.0483 274.371 97.1699C273.325 97.3844 272.495 97.9351 272.495 98.8198C272.495 99.7829 273.234 100.41 274.263 100.41C275.462 100.41 276.415 99.9355 276.909 99.0034C277.233 98.3764 277.247 97.7515 277.247 96.6812Z" fill="white"/>
<path d="M274.079 101.562C272.365 101.562 271.213 100.504 271.213 98.9268C271.213 97.8152 271.703 97.0521 272.753 96.5221C273.572 96.1034 274.737 95.9405 276.086 95.7528C276.405 95.7075 276.733 95.6621 277.067 95.6126C277.003 94.5464 276.281 93.938 275.064 93.938C274.299 93.938 273.489 94.0638 272.746 94.9691L272.643 95.095L271.701 94.1215L271.784 94.0225C272.607 93.0409 273.726 92.5645 275.201 92.5645C276.04 92.5645 276.887 92.8697 277.466 93.3811C278.161 93.9607 278.514 94.8763 278.514 96.1014V101.334H277.208V100.3C276.494 101.16 275.488 101.562 274.079 101.562ZM275.062 93.6472C276.486 93.6472 277.345 94.4267 277.36 95.7301V95.8539L277.237 95.8725C276.857 95.9323 276.486 95.9838 276.125 96.0333C274.801 96.2189 273.66 96.3777 272.883 96.7737C271.927 97.2563 271.501 97.9183 271.501 98.9227C271.501 100.327 272.537 101.27 274.079 101.27C275.621 101.27 276.567 100.795 277.233 99.7765L277.499 99.3681V101.041H278.225V96.0952C278.225 94.9588 277.905 94.1174 277.277 93.5915C276.745 93.1233 275.971 92.8449 275.201 92.8449C273.848 92.8449 272.856 93.245 272.091 94.1009L272.626 94.6557C273.419 93.7647 274.301 93.641 275.062 93.641V93.6472ZM274.263 100.554C273.137 100.554 272.35 99.8404 272.35 98.8195C272.35 97.9534 273.095 97.2831 274.342 97.0274C274.859 96.9057 275.82 96.7551 277.225 96.5365L277.393 96.5097V96.6788C277.393 97.7657 277.376 98.4112 277.038 99.067C276.532 100.024 275.548 100.552 274.263 100.552V100.554ZM277.102 96.8479C275.795 97.0501 274.894 97.1944 274.405 97.3099C273.871 97.4192 272.641 97.7842 272.641 98.8195C272.641 99.6837 273.292 100.265 274.263 100.265C275.434 100.265 276.328 99.793 276.781 98.9371C277.071 98.3741 277.1 97.7904 277.102 96.85V96.8479Z" fill="white"/>
<path d="M288.78 97.0462C288.78 98.1166 288.564 99.2013 287.873 100.088C287.18 100.958 286.134 101.418 284.996 101.418C283.874 101.418 282.89 101.006 282.245 100.195V104.856H281.107V92.936H282.122V94.0517C282.784 93.1958 283.89 92.707 285.044 92.707C286.167 92.707 287.213 93.1814 287.875 94.0372C288.535 94.8766 288.782 95.9923 288.782 97.0483M287.58 97.0462C287.58 96.1903 287.412 95.3345 286.949 94.724C286.472 94.0682 285.704 93.7465 284.857 93.7465C284.042 93.7465 283.274 94.0517 282.797 94.6642C282.305 95.2911 282.12 96.178 282.12 97.0483C282.12 97.9351 282.305 98.8363 282.797 99.4468C283.274 100.057 284.056 100.379 284.872 100.379C285.687 100.379 286.486 100.043 286.964 99.387C287.424 98.7744 287.578 97.9206 287.578 97.0483" fill="white"/>
<path d="M282.389 105H280.961V92.7935H282.266V93.6679C282.955 92.9708 283.964 92.5625 285.043 92.5625C286.234 92.5625 287.307 93.0678 287.988 93.9484C288.762 94.9321 288.924 96.1757 288.924 97.046C288.924 98.3432 288.616 99.3682 287.986 100.177C287.286 101.057 286.197 101.563 284.995 101.563C283.949 101.563 283.038 101.214 282.387 100.573V105H282.389ZM281.251 104.712H282.1V99.7807L282.36 100.104C282.959 100.857 283.897 101.272 284.999 101.272C286.101 101.272 287.108 100.818 287.761 99.9972C288.351 99.2424 288.637 98.2772 288.637 97.044C288.637 96.219 288.486 95.0435 287.761 94.1216C287.135 93.3111 286.145 92.8471 285.045 92.8471C283.945 92.8471 282.862 93.3297 282.237 94.1361L281.978 94.4722V93.076H281.254V104.708L281.251 104.712ZM284.875 100.523C283.987 100.523 283.167 100.154 282.683 99.5353C282.098 98.8093 281.976 97.7823 281.976 97.0481C281.976 96.3139 282.098 95.3198 282.683 94.5753C283.165 93.9566 283.958 93.6019 284.858 93.6019C285.759 93.6019 286.581 93.9711 287.066 94.6393C287.496 95.2085 287.724 96.0417 287.724 97.046C287.724 98.0504 287.508 98.9042 287.081 99.4713C286.603 100.129 285.78 100.521 284.873 100.521L284.875 100.523ZM284.858 93.8906C284.049 93.8906 283.339 94.2041 282.912 94.7527C282.378 95.4333 282.266 96.3758 282.266 97.0481C282.266 98.0215 282.495 98.8403 282.912 99.3579C283.341 99.9086 284.074 100.236 284.875 100.236C285.676 100.236 286.425 99.8879 286.848 99.3043C287.238 98.7866 287.436 98.0298 287.436 97.0502C287.436 96.3943 287.332 95.4725 286.834 94.8125C286.402 94.2186 285.701 93.8927 284.858 93.8927V93.8906Z" fill="white"/>
<path d="M292.49 91.4687H291.367V90.2148H292.49V91.4687ZM292.49 101.189H291.367V92.9371H292.49V101.189Z" fill="white"/>
<path d="M292.636 101.333H291.225V92.7925H292.636V101.333ZM291.513 101.044H292.345V93.0792H291.513V101.044ZM292.636 91.6128H291.225V90.0723H292.636V91.6128ZM291.513 91.3241H292.345V90.3589H291.513V91.3241Z" fill="white"/>
<path d="M297.519 98.1474C297.519 98.8363 297.488 99.2487 297.689 99.5993C297.874 99.9809 298.257 100.195 298.689 100.241C299.119 100.286 299.627 100.272 300.057 100.179V101.187C299.503 101.326 298.812 101.354 298.272 101.247C297.533 101.125 296.981 100.789 296.672 100.162C296.396 99.5828 296.379 98.9703 296.379 98.1907V93.897H294.611V92.9338H296.379V90.6426H297.517V92.9338H300.055V93.897H297.517V98.1454L297.519 98.1474Z" fill="white"/>
<path d="M298.991 101.457C298.727 101.457 298.472 101.435 298.244 101.389C297.428 101.255 296.855 100.863 296.542 100.226C296.258 99.6301 296.235 99.0073 296.235 98.1926V94.0411H294.467V92.7914H296.235V90.498H297.663V92.7914H300.201V94.0411H297.663V98.3865C297.658 98.9268 297.656 99.2506 297.814 99.527C297.97 99.8487 298.291 100.053 298.702 100.096C299.14 100.144 299.634 100.121 300.024 100.036L300.199 99.9993V101.299L300.089 101.325C299.742 101.412 299.358 101.455 298.989 101.455L298.991 101.457ZM294.757 93.7545H296.525V98.1926C296.525 98.9928 296.544 99.56 296.804 100.102C297.075 100.657 297.563 100.987 298.296 101.107C298.767 101.2 299.387 101.185 299.91 101.074V100.352C299.524 100.416 299.082 100.426 298.671 100.383C298.159 100.329 297.752 100.065 297.557 99.661C297.366 99.3269 297.37 98.9536 297.372 98.3865V98.1473V93.7545H299.91V93.0801H297.372V90.7868H296.525V93.0801H294.757V93.7545Z" fill="white"/>
<path d="M307.976 101.189V99.8592C307.237 100.989 306.131 101.418 304.701 101.418C303.118 101.418 301.98 100.455 301.98 98.9271C301.98 97.8876 302.41 97.1699 303.441 96.6502C304.456 96.1305 306.071 96.0088 307.839 95.7325C307.824 94.4023 306.915 93.7918 305.687 93.7918C304.811 93.7918 303.995 93.9754 303.257 94.8766L302.518 94.1135C303.379 93.0906 304.502 92.707 305.824 92.707C306.654 92.707 307.455 93.0123 307.992 93.4866C308.762 94.128 308.993 95.1365 308.993 96.0996V101.187H307.978L307.976 101.189ZM307.868 96.6812C306.484 96.8957 305.515 97.0483 304.992 97.1699C303.946 97.3844 303.116 97.9351 303.116 98.8198C303.116 99.7829 303.854 100.41 304.884 100.41C306.083 100.41 307.036 99.9355 307.528 99.0034C307.851 98.3764 307.866 97.7515 307.866 96.6812" fill="white"/>
<path d="M304.702 101.562C302.988 101.562 301.836 100.504 301.836 98.9268C301.836 97.8152 302.326 97.0521 303.376 96.5221C304.195 96.1034 305.36 95.9405 306.709 95.7528C307.028 95.7075 307.356 95.6621 307.69 95.6126C307.626 94.5464 306.904 93.938 305.685 93.938C304.92 93.938 304.11 94.0638 303.367 94.9691L303.264 95.095L302.322 94.1215L302.405 94.0225C303.23 93.0409 304.347 92.5645 305.822 92.5645C306.661 92.5645 307.508 92.8697 308.087 93.3811C308.782 93.9607 309.135 94.8763 309.135 96.1014V101.334H307.829V100.3C307.115 101.16 306.109 101.562 304.698 101.562H304.702ZM305.685 93.6472C307.109 93.6472 307.968 94.4267 307.983 95.7301V95.8539L307.86 95.8725C307.481 95.9323 307.109 95.9838 306.748 96.0333C305.424 96.2189 304.283 96.3777 303.507 96.7737C302.55 97.2563 302.124 97.9183 302.124 98.9227C302.124 100.327 303.16 101.27 304.702 101.27C306.244 101.27 307.192 100.795 307.856 99.7765L308.122 99.3681V101.041H308.846V96.0952C308.846 94.9588 308.526 94.1174 307.898 93.5915C307.366 93.1233 306.59 92.8449 305.822 92.8449C304.471 92.8449 303.477 93.245 302.712 94.1009L303.247 94.6557C304.042 93.7647 304.922 93.641 305.683 93.641L305.685 93.6472ZM304.887 100.554C303.76 100.554 302.973 99.8404 302.973 98.8195C302.973 97.9534 303.718 97.2831 304.965 97.0274C305.482 96.9057 306.443 96.7551 307.848 96.5365L308.016 96.5097V96.6788C308.016 97.7657 307.999 98.4112 307.661 99.067C307.155 100.024 306.171 100.552 304.887 100.552V100.554ZM307.723 96.8479C306.416 97.0501 305.515 97.1944 305.026 97.3099C304.492 97.4192 303.262 97.7842 303.262 98.8195C303.262 99.6837 303.913 100.265 304.884 100.265C306.055 100.265 306.949 99.793 307.402 98.9371C307.692 98.3741 307.721 97.7904 307.723 96.85V96.8479Z" fill="white"/>
<path d="M312.853 89.9551H311.73V101.189H312.853V89.9551Z" fill="white"/>
<path d="M312.999 101.333H311.586V89.8125H312.999V101.333ZM311.876 101.044H312.709V90.0992H311.876V101.044Z" fill="white"/>
<path d="M101.317 0.310547C90.6045 0.310547 81.8906 8.97238 81.8906 19.6182C81.8906 30.264 90.6066 38.9258 101.317 38.9258C112.027 38.9258 120.743 30.264 120.743 19.6182C120.743 8.97238 112.029 0.310547 101.317 0.310547ZM101.317 33.5163C93.6053 33.5163 87.3319 27.2818 87.3319 19.6182C87.3319 11.9545 93.6053 5.72007 101.317 5.72007C109.028 5.72007 115.302 11.9545 115.302 19.6182C115.302 27.2818 109.028 33.5163 101.317 33.5163Z" fill="#D8C4FF"/>
<path d="M62.2692 8.38342C59.2186 3.13476 53.7566 0 47.6575 0C41.5585 0 36.0965 3.13476 33.048 8.38342L22.1364 27.1652C21.5616 27.8107 21.0449 28.5201 20.5966 29.2914L2.3284 60.736C0.161869 64.4647 -0.489752 68.6945 0.361091 72.7285C0.713879 74.5433 1.37173 76.3211 2.34501 77.9957C5.39559 83.2444 10.8555 86.3791 16.9546 86.3791H78.3605C84.4596 86.3791 89.9216 83.2444 92.9722 77.9957C96.0227 72.747 96.0207 66.4796 92.9722 61.2309L62.2692 8.38342ZM17.2264 80.9717C12.9743 80.9717 9.16835 78.7876 7.04124 75.127C6.40622 74.0319 5.9642 72.8728 5.70895 71.689C5.20882 69.074 5.65706 66.3455 7.05784 63.9347L26.5297 30.4175C27.8952 29.0708 29.7401 28.3036 31.7406 28.3036C34.4259 28.3036 36.8311 29.6833 38.1738 31.9952L60.194 69.8989C61.5367 72.2108 61.5367 74.9702 60.194 77.2801C58.8513 79.5919 56.4461 80.9717 53.7608 80.9717H17.2264ZM88.2593 75.292C86.1945 78.8474 82.4943 80.9717 78.3605 80.9717H64.2676C64.4918 80.6541 64.7097 80.3282 64.9089 79.9859C67.2352 75.9808 67.2352 71.2003 64.9089 67.1973L42.8887 29.2935C40.5624 25.2884 36.3953 22.8982 31.7426 22.8982C31.4542 22.8982 31.1699 22.9085 30.8856 22.925L37.7629 11.0892C39.8277 7.53373 43.5278 5.41158 47.6596 5.41158C51.7914 5.41158 55.4915 7.53373 57.5564 11.0892L88.2593 63.9367C90.3242 67.4922 90.3262 71.7385 88.2593 75.294V75.292Z" fill="#D8C4FF"/>
</g>
<defs>
<clipPath id="clip0_4883_417">
<rect width="313" height="105" fill="white"/>
</clipPath>
</defs>
</svg>
