<svg width="236" height="206" viewBox="0 0 236 206" fill="none" xmlns="http://www.w3.org/2000/svg">
<path d="M40.992 162.304V196H32.784V174.928L25.488 196H18.384L11.04 174.88V196H2.832V162.304H12.864L22.032 185.776L31.008 162.304H40.992ZM45.8921 161.68C45.8921 160.432 46.3401 159.408 47.2361 158.608C48.1321 157.776 49.3161 157.36 50.7881 157.36C52.2601 157.36 53.4441 157.776 54.3401 158.608C55.2361 159.408 55.6841 160.432 55.6841 161.68C55.6841 162.896 55.2361 163.92 54.3401 164.752C53.4441 165.552 52.2601 165.952 50.7881 165.952C49.3161 165.952 48.1321 165.552 47.2361 164.752C46.3401 163.92 45.8921 162.896 45.8921 161.68ZM54.8681 169.216V196H46.6601V169.216H54.8681ZM77.5271 168.928C80.5991 168.928 83.0311 169.952 84.8231 172C86.6471 174.048 87.5591 176.864 87.5591 180.448V196H79.3511V181.408C79.3511 179.616 78.8711 178.224 77.9111 177.232C76.9831 176.208 75.7351 175.696 74.1671 175.696C72.5031 175.696 71.1751 176.224 70.1831 177.28C69.2231 178.336 68.7431 179.84 68.7431 181.792V196H60.5351V169.216H68.7431V174.112C69.5111 172.512 70.6471 171.248 72.1511 170.32C73.6871 169.392 75.4791 168.928 77.5271 168.928ZM118.413 181.888C118.413 182.56 118.333 183.296 118.173 184.096H99.5966C99.6926 186.112 100.205 187.568 101.133 188.464C102.061 189.328 103.245 189.76 104.685 189.76C105.901 189.76 106.909 189.456 107.709 188.848C108.509 188.24 109.037 187.456 109.293 186.496H117.981C117.629 188.384 116.861 190.08 115.677 191.584C114.493 193.056 112.989 194.224 111.165 195.088C109.341 195.92 107.309 196.336 105.069 196.336C102.445 196.336 100.109 195.792 98.0606 194.704C96.0446 193.584 94.4606 191.984 93.3086 189.904C92.1566 187.824 91.5806 185.392 91.5806 182.608C91.5806 179.792 92.1406 177.36 93.2606 175.312C94.4126 173.232 96.0126 171.648 98.0606 170.56C100.109 169.44 102.445 168.88 105.069 168.88C107.725 168.88 110.061 169.424 112.077 170.512C114.093 171.6 115.645 173.136 116.733 175.12C117.853 177.072 118.413 179.328 118.413 181.888ZM110.109 180.64C110.141 178.88 109.661 177.568 108.669 176.704C107.709 175.808 106.509 175.36 105.069 175.36C103.565 175.36 102.317 175.808 101.325 176.704C100.333 177.6 99.7726 178.912 99.6446 180.64H110.109ZM143.187 162.112V166.528H128.643V177.04H140.643V181.264H128.643V196H123.171V162.112H143.187ZM158.67 169.216C161.07 169.216 163.118 169.808 164.814 170.992C166.51 172.176 167.71 173.744 168.414 175.696V169.552H173.886V196H168.414V189.856C167.71 191.808 166.51 193.376 164.814 194.56C163.118 195.744 161.07 196.336 158.67 196.336C156.366 196.336 154.302 195.792 152.478 194.704C150.686 193.616 149.278 192.048 148.254 190C147.23 187.952 146.718 185.536 146.718 182.752C146.718 180 147.23 177.6 148.254 175.552C149.278 173.504 150.686 171.936 152.478 170.848C154.302 169.76 156.366 169.216 158.67 169.216ZM160.35 174.016C157.918 174.016 155.966 174.8 154.494 176.368C153.054 177.904 152.334 180.032 152.334 182.752C152.334 185.472 153.054 187.616 154.494 189.184C155.966 190.72 157.918 191.488 160.35 191.488C161.886 191.488 163.262 191.136 164.478 190.432C165.694 189.696 166.654 188.672 167.358 187.36C168.062 186.048 168.414 184.512 168.414 182.752C168.414 181.024 168.062 179.504 167.358 178.192C166.654 176.848 165.694 175.824 164.478 175.12C163.262 174.384 161.886 174.016 160.35 174.016ZM192.213 169.216C195.637 169.216 198.469 170.128 200.709 171.952C202.949 173.744 204.341 176.192 204.885 179.296H199.077C198.757 177.632 197.973 176.336 196.725 175.408C195.509 174.448 193.973 173.968 192.117 173.968C190.005 173.968 188.245 174.72 186.837 176.224C185.429 177.696 184.725 179.872 184.725 182.752C184.725 185.632 185.429 187.824 186.837 189.328C188.245 190.832 190.005 191.584 192.117 191.584C193.973 191.584 195.509 191.104 196.725 190.144C197.973 189.184 198.757 187.872 199.077 186.208H204.885C204.341 189.312 202.949 191.776 200.709 193.6C198.469 195.424 195.637 196.336 192.213 196.336C189.653 196.336 187.381 195.792 185.397 194.704C183.445 193.616 181.909 192.048 180.789 190C179.669 187.952 179.109 185.536 179.109 182.752C179.109 180 179.669 177.6 180.789 175.552C181.909 173.504 183.445 171.936 185.397 170.848C187.381 169.76 189.653 169.216 192.213 169.216ZM223.467 191.248V196H220.107C217.291 196 215.147 195.328 213.675 193.984C212.235 192.608 211.515 190.336 211.515 187.168V174.208H207.723V169.552H211.515V162.976H217.035V169.552H223.419V174.208H217.035V187.264C217.035 188.768 217.307 189.808 217.851 190.384C218.427 190.96 219.419 191.248 220.827 191.248H223.467Z" fill="#432694"/>
<path d="M134.047 54.0951C147.578 54.0951 158.546 43.129 158.546 29.6017C158.546 16.0743 147.578 5.10828 134.047 5.10828C120.517 5.10828 109.549 16.0743 109.549 29.6017C109.549 43.129 120.517 54.0951 134.047 54.0951Z" fill="#9777EE"/>
<path d="M6.30363 88.3472L51.3297 10.3745C59.315 -3.45816 79.284 -3.45816 87.2692 10.3745L132.295 88.3472C140.281 102.18 130.3 119.468 114.326 119.468H24.2734C8.29894 119.468 -1.68559 102.18 6.30363 88.3472Z" fill="url(#paint0_linear_5003_682)" style="mix-blend-mode:multiply"/>
<path d="M5.88037 87.5302L32.6694 41.1367C38.3959 31.2181 52.7182 31.2181 58.4487 41.1367L90.7408 97.0618C96.4673 106.98 89.3082 119.381 77.8511 119.381H24.2691C7.91957 119.381 -2.29641 101.686 5.87637 87.5302H5.88037Z" fill="url(#paint1_linear_5003_682)"/>
<defs>
<linearGradient id="paint0_linear_5003_682" x1="3.49423" y1="59.7323" x2="135.109" y2="59.7323" gradientUnits="userSpaceOnUse">
<stop offset="0.1" stop-color="#432694"/>
<stop offset="1" stop-color="#9777EE"/>
</linearGradient>
<linearGradient id="paint1_linear_5003_682" x1="3.00313" y1="76.5383" x2="92.7601" y2="76.5383" gradientUnits="userSpaceOnUse">
<stop stop-color="#D4BFFE"/>
<stop offset="1" stop-color="#9777EE"/>
</linearGradient>
</defs>
</svg>
