<svg width="169" height="156" viewBox="0 0 169 156" fill="none" xmlns="http://www.w3.org/2000/svg">
<g clip-path="url(#clip0_2657_656)">
<path d="M28.3198 26.3444C26.5609 26.3444 24.9805 26.3444 23.4002 26.3444C18.6723 26.3444 13.9378 26.3312 9.20994 26.3444C6.35338 26.351 4.96477 27.7356 4.96477 30.5905C4.96477 66.7883 4.95155 102.98 4.96477 139.177C4.96477 145.415 9.30912 150.136 15.624 150.933C20.9602 151.606 26.4353 147.788 27.8503 142.276C28.2008 140.918 28.2934 139.461 28.2934 138.043C28.3198 119.78 28.3132 101.522 28.3132 83.2587C28.3132 82.7114 28.3 82.1642 28.3264 81.6169C28.3925 80.2059 29.1265 79.3686 30.5482 79.2301C31.9037 79.0916 32.9816 79.9488 33.2262 81.3466C33.3188 81.8806 33.2857 82.4411 33.2857 82.9883C33.2857 101.305 33.2659 119.621 33.3056 137.938C33.3122 142.606 32.1881 146.819 29.0273 150.373C28.9348 150.478 28.9083 150.65 28.7562 151.013C29.5034 151.013 30.1382 151.013 30.773 151.013C54.7033 151.013 78.627 151.013 102.557 151.013C103.106 151.013 103.662 150.999 104.204 151.026C105.612 151.098 106.452 151.843 106.611 153.241C106.763 154.586 105.877 155.681 104.488 155.918C104.005 155.997 103.503 155.964 103.007 155.964C74.4612 155.964 45.9088 155.971 17.363 155.964C8.29743 155.964 1.6255 150.353 0.124486 141.492C-0.0143749 140.687 -0.0077625 139.856 -0.0077625 139.032C-0.00115009 102.834 -0.00115009 66.6367 -0.00115009 30.4389C-0.00115009 24.9861 3.60923 21.3993 9.09753 21.3927C15.419 21.3795 21.7405 21.3927 28.3132 21.3927C28.3132 20.7202 28.3132 20.14 28.3132 19.5598C28.3132 15.8872 28.2735 12.2081 28.3264 8.53559C28.4058 3.55098 32.0426 0.00372596 37.068 -0.00286745C78.1047 -0.00946085 119.135 -0.00946085 160.171 -0.00286745C165.336 -0.00286745 168.999 3.64988 168.999 8.80592C168.999 52.296 169.012 95.7861 168.999 139.276C168.999 148.402 161.857 155.813 152.706 155.918C139.779 156.063 126.851 155.964 113.931 155.958C112.079 155.958 110.896 154.883 110.948 153.38C111.001 151.936 112.119 151.013 113.931 151.013C126.362 151.006 138.793 151.013 151.225 151.006C159.232 151.006 164.053 146.193 164.053 138.208C164.053 95.4301 164.053 52.6587 164.053 9.88065C164.053 6.0301 162.942 4.94219 159.021 4.94219C118.758 4.94219 78.4948 4.94219 38.2318 4.94219C34.3635 4.94219 33.3122 5.97076 33.3122 9.78834C33.3122 30.1883 33.3122 50.5883 33.299 70.9883C33.299 71.7466 33.2791 72.5378 33.0543 73.2499C32.6774 74.4367 31.7252 74.9905 30.4953 74.8389C29.272 74.6938 28.4917 73.9752 28.3727 72.7026C28.3132 72.1026 28.333 71.496 28.333 70.896C28.333 56.7466 28.333 42.5971 28.333 28.4477C28.333 27.8081 28.333 27.162 28.333 26.3378L28.3198 26.3444Z" fill="white"/>
<path d="M71.0765 118.752C65.6344 118.752 60.1924 118.771 54.7504 118.752C50.7168 118.738 48.4091 116.483 48.3959 112.435C48.3628 101.47 48.3628 90.512 48.3959 79.5472C48.4091 75.5186 50.7565 73.2637 54.7835 73.2637C65.7204 73.2637 76.6639 73.2637 87.6009 73.2637C91.694 73.2637 94.0612 75.6043 94.0678 79.6593C94.0744 90.5648 94.0744 101.47 94.0678 112.382C94.0678 116.358 91.7138 118.725 87.7331 118.745C82.1787 118.771 76.6309 118.745 71.0765 118.745V118.752ZM71.3013 113.787C76.578 113.787 81.8613 113.741 87.138 113.813C88.6456 113.833 89.1416 113.371 89.135 111.848C89.0821 101.266 89.0887 90.6834 89.135 80.101C89.135 78.6966 88.7316 78.1758 87.257 78.1824C76.5912 78.2351 65.9188 78.2351 55.253 78.1824C53.7916 78.1758 53.3552 78.6571 53.3618 80.0747C53.4081 90.7098 53.4081 101.345 53.3618 111.987C53.3552 113.483 53.9239 113.833 55.3125 113.82C60.6487 113.754 65.9783 113.793 71.3145 113.793L71.3013 113.787Z" fill="white"/>
<path d="M99.8266 134.141C115.769 134.141 131.718 134.141 147.661 134.141C148.157 134.141 148.653 134.108 149.142 134.154C150.55 134.299 151.377 135.136 151.45 136.495C151.516 137.873 150.703 138.743 149.354 139.04C148.93 139.132 148.481 139.086 148.038 139.086C115.981 139.086 83.9304 139.086 51.8734 139.086C51.437 139.086 50.9807 139.138 50.5576 139.053C49.2152 138.769 48.3953 137.965 48.435 136.547C48.4746 135.143 49.2747 134.332 50.6766 134.167C51.2188 134.101 51.7742 134.141 52.3231 134.141C68.1598 134.141 83.9965 134.141 99.8266 134.141Z" fill="white"/>
<path d="M125.933 118.751C118.619 118.751 111.306 118.764 103.986 118.738C103.239 118.738 102.274 118.751 101.804 118.323C101.202 117.775 100.673 116.773 100.72 116.008C100.766 115.323 101.52 114.518 102.174 114.083C102.703 113.734 103.543 113.793 104.251 113.793C118.772 113.78 133.292 113.78 147.807 113.78C148.137 113.78 148.468 113.767 148.798 113.786C150.425 113.905 151.503 114.94 151.476 116.338C151.45 117.736 150.366 118.725 148.699 118.731C141.108 118.751 133.517 118.738 125.933 118.745V118.751Z" fill="white"/>
<path d="M126.124 73.2637C133.496 73.2637 140.863 73.2637 148.235 73.2637C150.298 73.2637 151.469 74.1538 151.475 75.6966C151.489 77.2527 150.298 78.2087 148.275 78.2087C133.424 78.2087 118.572 78.2087 103.721 78.2087C101.658 78.2087 100.573 77.2922 100.606 75.6571C100.639 74.0747 101.651 73.2703 103.681 73.2703C111.16 73.2703 118.645 73.2703 126.124 73.2703V73.2637Z" fill="white"/>
<path d="M126.132 93.5517C133.333 93.5517 140.54 93.5517 147.741 93.5517C148.29 93.5517 148.845 93.5451 149.388 93.6242C150.651 93.8089 151.352 94.6396 151.451 95.833C151.55 97.0462 150.928 97.9693 149.725 98.3056C149.05 98.4968 148.316 98.5166 147.609 98.5166C133.2 98.5297 118.792 98.5297 104.39 98.5166C103.736 98.5166 103.061 98.4968 102.433 98.3451C101.124 98.0221 100.535 97.099 100.641 95.7737C100.74 94.5078 101.468 93.7759 102.717 93.6111C103.26 93.5385 103.815 93.5517 104.364 93.5517C111.624 93.5517 118.878 93.5517 126.138 93.5517H126.132Z" fill="white"/>
<path d="M120.141 15.6805C120.141 15.6805 120.134 15.6805 120.128 15.6871C116.855 17.9156 115.122 21.4827 115.301 25.8014C115.532 31.2871 111.578 38.5464 103.55 38.7178C95.1989 38.8959 91.0397 32.3618 90.6959 26.7772C90.5306 24.0277 88.9766 21.9244 87.6938 20.7574C87.6938 20.7574 87.6806 20.7508 87.674 20.7442C85.9283 19.1156 83.6007 18.0937 81.0417 18.0211C80.969 18.0211 80.9029 18.0211 80.8302 18.0211C80.7971 18.0211 80.7706 18.0211 80.7376 18.0211C80.6979 18.0211 80.6648 18.0211 80.6252 18.0211C80.5061 18.0211 80.3805 18.0211 80.2615 18.0277C80.2284 18.0277 80.202 18.0277 80.1689 18.0277C80.0168 18.0343 79.8713 18.0475 79.7193 18.0607C79.706 18.0607 79.6994 18.0607 79.6862 18.0607C79.5209 18.0739 79.3622 18.1003 79.1969 18.12H79.1903C79.025 18.1464 78.8596 18.1728 78.701 18.2058C78.701 18.2058 78.701 18.2058 78.6943 18.2058C78.5423 18.2387 78.3836 18.2717 78.2315 18.3112C78.2182 18.3112 78.205 18.3112 78.1918 18.3244C78.0529 18.3574 77.9207 18.397 77.7884 18.4365C77.7554 18.4431 77.7223 18.4563 77.6893 18.4629C77.5835 18.4959 77.471 18.5354 77.3652 18.575C77.3057 18.5948 77.2462 18.6145 77.1933 18.6343C77.114 18.6607 77.0412 18.6937 76.9619 18.7266C76.8759 18.7596 76.7834 18.7992 76.6974 18.8387C76.6577 18.8585 76.6114 18.8783 76.5718 18.8981C76.4461 18.9508 76.3271 19.0101 76.2081 19.0695L76.1816 19.0827C75.117 19.6167 74.1516 20.3354 73.3449 21.1992C73.3317 21.2123 73.3118 21.2255 73.2986 21.2453C73.292 21.2585 73.2788 21.2651 73.2722 21.2783C73.2391 21.3178 73.1994 21.3574 73.1664 21.397C70.5214 24.2981 70.614 27.6475 71.3744 31.4058C71.6918 32.9816 72.1018 35.8233 69.9329 38.309C68.9477 39.4365 67.6252 40.2014 65.3703 41.1376C62.7055 42.2453 60.5234 45.5816 60.5234 48.6014C60.5234 53.1244 64.1999 56.7904 68.7361 56.7904C73.2722 56.7904 76.6379 53.2629 76.8363 48.7398C76.9024 47.2563 76.4131 46.2277 77.0809 43.4783C77.8083 40.4849 80.9227 38.5596 84.057 38.5596C88.9634 38.5596 91.8795 42.6871 91.4563 47.408C91.1323 51.0145 91.8861 53.3156 93.3012 55.8343C94.7823 58.4717 98.5382 60.9574 103.226 61.1552C108.814 61.3926 114.752 56.9948 114.937 48.7728C115.056 43.4915 120.319 38.0123 125.927 37.8475C130.212 37.7222 135.323 36.1464 137.776 31.6695C139.251 28.9794 139.601 26.2827 139.244 23.8497C138.881 21.3772 137.908 19.5706 136.679 18.0343C134.146 14.8695 130.542 13.4453 127.091 13.4453C124.525 13.4453 122.045 14.2299 120.148 15.6805" fill="white"/>
</g>
<defs>
<clipPath id="clip0_2657_656">
<rect width="169" height="156" fill="white"/>
</clipPath>
</defs>
</svg>
