<svg width="57" height="57" viewBox="0 0 57 57" fill="none" xmlns="http://www.w3.org/2000/svg">
<g clip-path="url(#clip0_4754_9417)">
<path d="M20.8024 0.046574C34.5661 -0.836179 45.8653 10.9562 44.4267 24.6656C44.0565 28.1966 42.7495 31.5716 40.8759 34.5564L56.3214 50.174C58.8841 54.5789 53.6472 59.1665 49.6079 55.8829L34.5572 40.8717C22.2833 48.9301 5.60221 43.0607 1.08565 29.1485C-3.37737 15.3944 6.42522 0.967223 20.8024 0.046574ZM21.3577 2.27129C5.54422 3.00469 -3.28815 21.0855 6.03713 33.9969C14.3922 45.5641 31.9053 44.8998 39.3526 32.7285C47.7322 19.0325 37.3051 1.53343 21.3577 2.27129ZM39.4886 36.4178L36.4196 39.5676L39.5689 42.635C39.9481 42.2783 42.6781 39.7125 42.6379 39.4851L39.4886 36.4178ZM44.2617 41.0857L41.09 44.2556L51.0064 54.1531C53.2167 56.0323 56.0404 53.2102 54.1602 50.9988L44.2594 41.0857H44.2617Z" fill="#1D89A8"/>
<path d="M21.2467 4.49846C34.0269 3.7227 43.4481 16.5137 38.9449 28.5356C33.9109 41.9687 15.5838 44.1934 7.52981 32.2829C-0.227503 20.8093 7.51866 5.3344 21.2467 4.50068V4.49846ZM21.2467 6.7254C9.63531 7.50784 2.87052 20.3902 8.97511 30.3903C15.876 41.6922 32.992 39.686 37.0826 27.1201C40.4861 16.6608 32.2047 5.98754 21.2467 6.7254Z" fill="#1D89A8"/>
<path d="M22.0187 8.94129C22.5718 8.81646 23.6134 8.96135 24.2067 9.04383C28.1456 9.60113 31.9217 12.1736 33.871 15.6333C34.3126 16.4179 35.3676 18.1456 34.3394 18.8098C32.9097 19.7305 32.3231 17.3832 31.7834 16.496C29.805 13.2347 26.7114 11.6252 22.9956 11.1459C22.5183 11.0835 22.1927 11.2663 21.722 10.9721C20.8321 10.4148 21.0998 9.1486 22.0187 8.94129Z" fill="#1D89A8"/>
<path d="M34.2656 21.1838C35.3384 20.9475 36.2128 22.4054 35.131 23.1655C33.6701 24.191 32.6241 21.5472 34.2656 21.1838Z" fill="#1D89A8"/>
</g>
<defs>
<clipPath id="clip0_4754_9417">
<rect width="57" height="57" fill="white"/>
</clipPath>
</defs>
</svg>
