<svg width="42" height="42" viewBox="0 0 42 42" fill="none" xmlns="http://www.w3.org/2000/svg">
<path d="M5.86516 0.0857897C7.28282 -0.168418 10.4386 0.203873 11.9577 0.405599C17.2441 1.10918 22.7283 3.01984 26.6788 6.69355C26.8407 6.72143 27.1857 6.15889 27.4391 6.08017C28.4954 5.75216 28.9173 6.79195 29.6073 7.35285C30.4968 6.51806 31.2637 5.19946 32.5882 6.24745C33.3109 6.81983 34.9313 8.46808 35.5281 9.19462C35.7243 9.43407 36.0514 9.89492 36.0808 10.1983C36.1446 10.8675 34.9755 11.84 34.5471 12.3074C35.0801 12.9635 36.3179 13.5883 35.7587 14.5904C35.6671 14.7544 35.1782 15.1004 35.2044 15.2448C39.2039 19.6138 41.0876 25.6312 41.6484 31.4698C41.7743 32.7752 41.9346 34.6137 41.8152 35.8946C41.7384 36.7179 41.0876 36.9869 40.5513 36.3358C37.7388 31.3156 35.0327 25.6181 31.2751 21.2359C31.1182 21.0522 30.4053 20.2075 30.2565 20.2075C29.9507 20.2994 29.779 20.7373 29.4847 20.8291C28.4823 21.1424 27.9558 20.0977 27.3165 19.5564L5.22909 41.702C4.74346 42.0432 4.20059 42.1219 3.68716 41.7857C3.2702 41.5118 0.624554 38.8434 0.292621 38.394C-0.1505 37.7921 -0.0638381 37.2411 0.374378 36.6704L22.38 14.6019C21.8404 13.959 20.8005 13.4325 21.1112 12.4272C21.2027 12.1319 21.6393 11.9597 21.7309 11.6531C21.7309 11.3923 19.4253 9.60791 19.0591 9.33402C14.9238 6.24253 10.1705 3.79722 5.64769 1.33059C5.10155 0.987816 5.2062 0.205513 5.86516 0.0857897ZM25.719 7.52833C25.0404 7.02484 24.4141 6.45574 23.7143 5.97684C19.3861 3.01328 13.9247 1.7816 8.74627 1.45851L14.0784 4.50408C17.0707 6.37702 20.1562 8.20895 22.6792 10.7051L25.6519 7.80878L25.719 7.52833ZM31.6496 7.19212C31.509 7.38401 30.608 8.13351 30.6342 8.28439L33.6788 11.2791L34.7089 10.2607L31.648 7.19212H31.6496ZM23.1698 12.1582C23.0684 12.2615 22.465 12.7109 22.465 12.8011L29.1184 19.4728L34.4604 14.1L27.8822 7.44305C26.234 8.91253 24.7166 10.569 23.1698 12.1582ZM23.3202 15.5449L1.39307 37.6117L4.37719 40.6032L26.3812 18.6151L23.3202 15.5465V15.5449ZM34.3754 16.2107L34.0958 16.278L31.2065 19.2596C33.6902 21.7968 35.5249 24.8817 37.3906 27.8846L40.427 33.2312C40.1016 28.0503 38.8654 22.5512 35.9222 18.2198C35.4447 17.5179 34.8773 16.8914 34.3754 16.2091V16.2107Z" fill="white"/>
</svg>
