<svg width="28" height="42" viewBox="0 0 28 42" fill="none" xmlns="http://www.w3.org/2000/svg">
<path d="M19.0103 30.8124C20.6912 31.0141 22.4882 31.4389 24.0449 32.108C28.9356 34.2122 29.1972 37.8564 24.2084 40.0787C18.8141 42.4797 9.085 42.4764 3.68906 40.0787C1.76123 39.2226 -0.668578 37.5235 0.274894 35.0716C1.28704 32.4393 6.34942 31.0879 8.88552 30.8124C8.9591 30.7517 8.498 30.1761 8.42769 30.0842C3.6253 23.7077 -2.28735 17.938 0.904437 9.09652C5.44194 -3.47117 23.5854 -2.85779 27.2743 9.95427C29.8447 18.8794 23.7538 23.9931 19.2196 30.4122C19.1689 30.4844 18.9416 30.7583 19.007 30.8124H19.0103ZM13.114 1.60806C4.37745 2.19848 -0.68656 11.35 2.85514 19.2976C5.27187 24.7196 10.6449 29.4692 13.7975 34.5238L13.9872 34.66C16.3679 31.2437 19.1018 28.0899 21.5742 24.7459C23.8225 21.7036 25.9988 18.4924 26.1967 14.5628C26.5679 7.21047 20.4525 1.11113 13.114 1.60642V1.60806ZM9.68674 32.3098C7.79162 32.4229 3.09714 33.7038 1.99179 35.3209C1.06957 36.6707 2.69653 37.7498 3.75119 38.2943C8.74816 40.8774 19.7494 40.9397 24.6139 38.0319C27.5604 36.2705 25.8222 34.7042 23.5265 33.6907C21.7867 32.9215 19.8622 32.5558 17.9867 32.2802L17.6564 32.4475L14.5513 36.7018C14.1785 37.0429 13.7124 37.0429 13.3413 36.7018L10.1985 32.4049C10.0448 32.2261 9.87478 32.2999 9.68674 32.3114V32.3098Z" fill="white"/>
<path d="M13.3589 8.1563C17.9847 7.71677 21.2206 12.6533 18.8873 16.7305C16.8777 20.2418 11.9854 20.5698 9.45746 17.4226C6.64176 13.9161 8.94239 8.57615 13.3572 8.1563H13.3589ZM13.439 9.79307C7.86647 10.4688 9.30211 19.2266 14.9907 17.8162C19.7915 16.6271 18.5096 9.17805 13.439 9.79307Z" fill="white"/>
<path d="M17.0265 3.8092C17.656 3.67143 19.453 4.72598 20.0139 5.1196C22.3488 6.75472 24.051 9.4444 24.4565 12.2899C24.5595 13.0066 24.862 14.7237 23.7828 14.7713C22.7036 14.8188 22.9391 13.2428 22.8345 12.5244C22.4404 9.80357 20.6745 7.26642 18.2757 5.96258C17.8195 5.71493 16.7452 5.40004 16.5261 5.01627C16.2759 4.57838 16.5065 3.924 17.0265 3.81084V3.8092Z" fill="white"/>
<path d="M13.8453 3.23839C14.6596 3.08095 15.2596 4.1437 14.478 4.69476C13.3711 5.47542 12.6336 3.47292 13.8453 3.23839Z" fill="white"/>
</svg>
