<svg width="391" height="131" viewBox="0 0 391 131" fill="none" xmlns="http://www.w3.org/2000/svg">
<path d="M155.019 98.78C153.899 100.802 152.176 102.436 149.854 103.677C147.532 104.919 144.65 105.539 141.208 105.539H134.841V120.679H124.571V78.5073H141.205C144.569 78.5073 147.409 79.0887 149.731 80.2489C152.053 81.4116 153.794 83.0118 154.957 85.0545C156.116 87.0972 156.697 89.4411 156.697 92.0835C156.697 94.527 156.137 96.7609 155.017 98.7826L155.019 98.78ZM144.81 95.9883C145.771 95.0664 146.252 93.7649 146.252 92.0835C146.252 90.4022 145.773 89.1007 144.81 88.1788C143.849 87.257 142.388 86.796 140.425 86.796H134.841V97.3684H140.425C142.386 97.3684 143.849 96.9075 144.81 95.9857V95.9883Z" fill="#002169"/>
<path d="M193.402 87.1558V120.677H183.132V116.113C182.09 117.595 180.679 118.786 178.899 119.687C177.116 120.588 175.145 121.039 172.985 121.039C170.423 121.039 168.161 120.468 166.2 119.326C164.239 118.184 162.718 116.532 161.637 114.371C160.556 112.21 160.017 109.665 160.017 106.742V87.1584H170.226V105.36C170.226 107.604 170.805 109.345 171.967 110.587C173.127 111.828 174.69 112.449 176.65 112.449C178.611 112.449 180.232 111.828 181.394 110.587C182.554 109.345 183.135 107.604 183.135 105.36V87.1584H193.405L193.402 87.1558Z" fill="#002169"/>
<path d="M214.152 88.1177C215.953 87.1566 218.016 86.6747 220.338 86.6747C223.1 86.6747 225.603 87.3766 227.843 88.7777C230.084 90.1814 231.857 92.1822 233.158 94.7854C234.459 97.3885 235.111 100.413 235.111 103.857C235.111 107.301 234.459 110.336 233.158 112.958C231.857 115.582 230.084 117.604 227.843 119.026C225.6 120.448 223.1 121.157 220.338 121.157C217.977 121.157 215.914 120.686 214.152 119.746C212.39 118.806 211.008 117.554 210.008 115.99V120.676H199.738V76.2202H210.008V91.8994C210.969 90.3386 212.351 89.0763 214.152 88.1151V88.1177ZM222.529 97.818C221.108 96.3567 219.356 95.626 217.275 95.626C215.194 95.626 213.5 96.3672 212.081 97.8495C210.66 99.3318 209.951 101.354 209.951 103.917C209.951 106.481 210.66 108.503 212.081 109.985C213.503 111.468 215.233 112.209 217.275 112.209C219.317 112.209 221.058 111.457 222.5 109.957C223.943 108.456 224.663 106.424 224.663 103.86C224.663 101.296 223.951 99.2846 222.532 97.8233L222.529 97.818Z" fill="#002169"/>
<path d="M250.01 76.2241V120.679H239.74V76.2241H250.01Z" fill="#002169"/>
<path d="M257.146 82.0803C256.004 81.0197 255.434 79.7076 255.434 78.1442C255.434 76.5807 256.004 75.211 257.146 74.1504C258.287 73.0897 259.758 72.5581 261.559 72.5581C263.36 72.5581 264.771 73.0897 265.913 74.1504C267.054 75.211 267.625 76.544 267.625 78.1442C267.625 79.7443 267.054 81.0197 265.913 82.0803C264.771 83.141 263.321 83.6726 261.559 83.6726C259.798 83.6726 258.287 83.141 257.146 82.0803ZM266.662 87.1583V120.68H256.392V87.1583H266.662Z" fill="#002169"/>
<path d="M297.54 78.8042V83.2484H279.346V97.3667H294.119V101.811H279.346V120.675H273.883V78.8042H297.543H297.54Z" fill="#002169"/>
<path d="M301.521 95.2353C302.882 92.6924 304.754 90.7204 307.136 89.3193C309.519 87.9182 312.17 87.2163 315.092 87.2163C318.014 87.2163 320.477 87.837 322.597 89.0783C324.718 90.3197 326.299 91.8831 327.341 93.7635V87.7558H332.865V120.678H327.341V114.549C326.26 116.472 324.647 118.064 322.506 119.326C320.364 120.589 317.872 121.22 315.029 121.22C312.186 121.22 309.464 120.5 307.102 119.057C304.741 117.614 302.877 115.592 301.518 112.989C300.157 110.385 299.477 107.424 299.477 104.098C299.477 100.772 300.157 97.7808 301.518 95.2379L301.521 95.2353ZM325.841 97.6682C324.841 95.8272 323.487 94.4156 321.788 93.4335C320.087 92.4514 318.215 91.9617 316.173 91.9617C314.131 91.9617 312.27 92.441 310.589 93.4021C308.909 94.3632 307.566 95.7669 306.566 97.608C305.566 99.4517 305.066 101.612 305.066 104.095C305.066 106.578 305.566 108.812 306.566 110.674C307.566 112.536 308.909 113.958 310.589 114.94C312.27 115.922 314.131 116.411 316.173 116.411C318.215 116.411 320.087 115.922 321.788 114.94C323.49 113.958 324.841 112.536 325.841 110.674C326.841 108.812 327.341 106.64 327.341 104.155C327.341 101.67 326.841 99.5093 325.841 97.6682Z" fill="#002169"/>
<path d="M340.976 95.2353C342.337 92.6924 344.227 90.7204 346.651 89.3193C349.073 87.9182 351.845 87.2163 354.968 87.2163C359.01 87.2163 362.345 88.1984 364.965 90.1599C367.586 92.1214 369.319 94.8451 370.159 98.3308H364.274C363.714 96.3274 362.622 94.7482 361.002 93.5854C359.382 92.4252 357.368 91.8438 354.968 91.8438C351.845 91.8438 349.324 92.915 347.402 95.0572C345.481 97.1994 344.52 100.235 344.52 104.158C344.52 108.081 345.481 111.187 347.402 113.35C349.324 115.513 351.845 116.595 354.968 116.595C357.371 116.595 359.371 116.034 360.973 114.913C362.573 113.793 363.675 112.19 364.277 110.108H370.162C369.28 113.473 367.52 116.165 364.876 118.187C362.235 120.209 358.931 121.22 354.968 121.22C351.845 121.22 349.073 120.52 346.651 119.117C344.229 117.716 342.337 115.733 340.976 113.169C339.614 110.608 338.934 107.604 338.934 104.158C338.934 100.711 339.614 97.7808 340.976 95.2379V95.2353Z" fill="#002169"/>
<path d="M382.223 92.2621V111.665C382.223 113.268 382.563 114.399 383.244 115.059C383.924 115.719 385.105 116.052 386.786 116.052H390.809V120.677H385.885C382.843 120.677 380.56 119.978 379.039 118.574C377.518 117.173 376.757 114.871 376.757 111.665V92.2621H372.492V87.7577H376.757V79.4663H382.22V87.7577H390.807V92.2621H382.22H382.223Z" fill="#002169"/>
<path d="M52.606 20.4188C46.0978 9.14179 31.6835 5.27799 20.4109 11.7888C9.13827 18.2996 5.27598 32.7195 11.7842 43.9965L50.0035 110.22C56.5117 121.497 70.926 125.361 82.1986 118.85C93.4712 112.339 97.3335 97.9194 90.8253 86.6424L52.606 20.4188Z" fill="url(#paint0_linear_4883_485)"/>
<g opacity="0.71" style="mix-blend-mode:color-burn">
<path d="M32.1375 55.3455C45.0195 55.3455 55.4625 44.8985 55.4625 32.0114C55.4625 19.1243 45.0195 8.67725 32.1375 8.67725C19.2555 8.67725 8.8125 19.1243 8.8125 32.0114C8.8125 44.8985 19.2555 55.3455 32.1375 55.3455Z" fill="#C2C9EB"/>
</g>
<path d="M98.1694 62.7083C111.121 62.7083 121.62 52.2049 121.62 39.2484C121.62 26.2919 111.121 15.7886 98.1694 15.7886C85.218 15.7886 74.7188 26.2919 74.7188 39.2484C74.7188 52.2049 85.218 62.7083 98.1694 62.7083Z" fill="#0151DB"/>
<defs>
<linearGradient id="paint0_linear_4883_485" x1="28.1725" y1="29.4478" x2="74.4334" y2="101.188" gradientUnits="userSpaceOnUse">
<stop stop-color="#2A83E5"/>
<stop offset="0.663462" stop-color="#003DA6"/>
<stop offset="0.975962" stop-color="#012B88"/>
</linearGradient>
</defs>
</svg>
