<svg width="384" height="141" viewBox="0 0 384 141" fill="none" xmlns="http://www.w3.org/2000/svg">
<path d="M146.02 89.7795C144.899 91.8013 143.177 93.4355 140.855 94.6768C138.533 95.9181 135.65 96.5388 132.208 96.5388H125.841V111.679H115.572V69.5068H132.205C135.569 69.5068 138.41 70.0882 140.732 71.2484C143.054 72.4112 144.795 74.0113 145.957 76.054C147.117 78.0967 147.698 80.4406 147.698 83.0831C147.698 85.5265 147.138 87.7604 146.017 89.7821L146.02 89.7795ZM135.81 86.9878C136.771 86.066 137.253 84.7644 137.253 83.0831C137.253 81.4017 136.773 80.1002 135.81 79.1783C134.849 78.2565 133.389 77.7956 131.425 77.7956H125.841V88.3679H131.425C133.386 88.3679 134.849 87.907 135.81 86.9852V86.9878Z" fill="white"/>
<path d="M184.402 78.1558V111.677H174.133V107.113C173.091 108.595 171.68 109.786 169.9 110.687C168.117 111.588 166.146 112.039 163.986 112.039C161.423 112.039 159.161 111.468 157.2 110.326C155.24 109.184 153.719 107.532 152.638 105.371C151.556 103.21 151.017 100.665 151.017 97.7423V78.1584H161.227V96.3595C161.227 98.6039 161.805 100.345 162.968 101.587C164.127 102.828 165.69 103.449 167.651 103.449C169.612 103.449 171.232 102.828 172.394 101.587C173.554 100.345 174.135 98.6039 174.135 96.3595V78.1584H184.405L184.402 78.1558Z" fill="white"/>
<path d="M205.152 79.1173C206.953 78.1561 209.016 77.6743 211.338 77.6743C214.099 77.6743 216.602 78.3761 218.843 79.7772C221.084 81.1809 222.856 83.1817 224.157 85.7849C225.458 88.3881 226.11 91.4129 226.11 94.8567C226.11 98.3005 225.458 101.336 224.157 103.957C222.856 106.581 221.084 108.603 218.843 110.025C216.6 111.447 214.099 112.157 211.338 112.157C208.976 112.157 206.913 111.686 205.152 110.745C203.39 109.805 202.008 108.553 201.008 106.99V111.675H190.738V67.2197H201.008V82.8989C201.968 81.3381 203.351 80.0758 205.152 79.1146V79.1173ZM213.529 88.8176C212.107 87.3562 210.356 86.6256 208.275 86.6256C206.194 86.6256 204.5 87.3667 203.081 88.849C201.659 90.3313 200.95 92.353 200.95 94.9169C200.95 97.4808 201.659 99.5025 203.081 100.985C204.502 102.467 206.233 103.208 208.275 103.208C210.317 103.208 212.058 102.457 213.5 100.956C214.942 99.4554 215.662 97.4232 215.662 94.8593C215.662 92.2954 214.95 90.2841 213.531 88.8228L213.529 88.8176Z" fill="white"/>
<path d="M241.011 67.2227V111.678H230.741V67.2227H241.011Z" fill="white"/>
<path d="M248.146 73.0789C247.005 72.0182 246.434 70.7062 246.434 69.1427C246.434 67.5792 247.005 66.2096 248.146 65.1489C249.288 64.0883 250.759 63.5566 252.56 63.5566C254.361 63.5566 255.772 64.0883 256.914 65.1489C258.055 66.2096 258.626 67.5426 258.626 69.1427C258.626 70.7428 258.055 72.0182 256.914 73.0789C255.772 74.1395 254.322 74.6711 252.56 74.6711C250.798 74.6711 249.288 74.1395 248.146 73.0789ZM257.662 78.1568V111.678H247.392V78.1568H257.662Z" fill="white"/>
<path d="M288.54 69.8037V74.2479H270.346V88.3663H285.119V92.8105H270.346V111.674H264.883V69.8037H288.543H288.54Z" fill="white"/>
<path d="M292.522 86.2353C293.884 83.6924 295.755 81.7204 298.138 80.3193C300.52 78.9182 303.172 78.2163 306.093 78.2163C309.015 78.2163 311.478 78.837 313.599 80.0783C315.719 81.3197 317.3 82.8831 318.342 84.7635V78.7558H323.866V111.678H318.342V105.549C317.261 107.472 315.648 109.064 313.507 110.326C311.366 111.589 308.873 112.22 306.03 112.22C303.187 112.22 300.465 111.5 298.104 110.057C295.742 108.614 293.878 106.592 292.52 103.989C291.158 101.385 290.478 98.4235 290.478 95.0975C290.478 91.7716 291.158 88.7808 292.52 86.2379L292.522 86.2353ZM316.842 88.6682C315.842 86.8272 314.489 85.4156 312.79 84.4335C311.088 83.4514 309.216 82.9617 307.174 82.9617C305.132 82.9617 303.271 83.441 301.591 84.4021C299.91 85.3632 298.567 86.7669 297.567 88.608C296.567 90.4517 296.067 92.6122 296.067 95.0949C296.067 97.5776 296.567 99.8115 297.567 101.674C298.567 103.536 299.91 104.958 301.591 105.94C303.271 106.922 305.132 107.411 307.174 107.411C309.216 107.411 311.088 106.922 312.79 105.94C314.491 104.958 315.842 103.536 316.842 101.674C317.842 99.8115 318.342 97.6405 318.342 95.1552C318.342 92.6698 317.842 90.5093 316.842 88.6682Z" fill="white"/>
<path d="M331.976 86.2353C333.338 83.6924 335.228 81.7204 337.652 80.3193C340.073 78.9182 342.846 78.2163 345.969 78.2163C350.011 78.2163 353.346 79.1984 355.966 81.1599C358.587 83.1214 360.32 85.8451 361.16 89.3308H355.275C354.715 87.3274 353.623 85.7482 352.003 84.5854C350.382 83.4252 348.369 82.8438 345.969 82.8438C342.846 82.8438 340.325 83.915 338.403 86.0572C336.482 88.1994 335.521 91.2347 335.521 95.1578C335.521 99.0808 336.482 102.187 338.403 104.35C340.325 106.513 342.846 107.595 345.969 107.595C348.372 107.595 350.372 107.034 351.974 105.913C353.573 104.793 354.676 103.19 355.278 101.108H361.163C360.28 104.473 358.521 107.165 355.877 109.187C353.236 111.209 349.932 112.22 345.969 112.22C342.846 112.22 340.073 111.52 337.652 110.117C335.23 108.716 333.338 106.733 331.976 104.169C330.615 101.608 329.934 98.6042 329.934 95.1578C329.934 91.7113 330.615 88.7808 331.976 86.2379V86.2353Z" fill="white"/>
<path d="M373.222 83.2606V102.664C373.222 104.267 373.563 105.398 374.243 106.058C374.924 106.718 376.105 107.05 377.785 107.05H381.809V111.675H376.885C373.843 111.675 371.56 110.976 370.039 109.572C368.518 108.171 367.756 105.869 367.756 102.664V83.2606H363.492V78.7562H367.756V70.4648H373.22V78.7562H381.806V83.2606H373.22H373.222Z" fill="white"/>
<path d="M278.583 131.843C278.324 132.579 277.947 133.317 277.408 133.975C276.094 135.57 274.122 136.327 272.13 136.327C270.02 136.327 268.046 135.47 266.853 133.975C265.656 132.521 265.159 130.748 265.159 128.855C265.159 126.883 265.677 125.128 266.853 123.714C268.107 122.14 270.06 121.383 272.13 121.383C274.201 121.383 276.133 122.161 277.408 123.714C278.044 124.51 278.463 125.409 278.722 126.265L275.934 126.744C275.774 126.247 275.575 125.767 275.256 125.369C274.539 124.413 273.345 123.916 272.13 123.916C270.916 123.916 269.701 124.413 269.005 125.369C268.266 126.307 268.049 127.6 268.028 128.855C268.049 130.109 268.266 131.385 269.005 132.341C269.701 133.297 270.897 133.794 272.13 133.776C273.345 133.797 274.539 133.297 275.256 132.341C275.536 131.961 275.753 131.524 275.895 131.065L278.583 131.843Z" fill="white"/>
<path d="M284.783 124.393V127.501H289.642V130.209H284.783V136.028H282.074V121.682H290.838V124.393H284.783Z" fill="white"/>
<path d="M306.613 131.843C306.354 132.579 305.977 133.317 305.438 133.975C304.124 135.57 302.152 136.327 300.16 136.327C298.05 136.327 296.076 135.47 294.883 133.975C293.686 132.521 293.189 130.748 293.189 128.855C293.189 126.883 293.707 125.128 294.883 123.714C296.137 122.14 298.09 121.383 300.16 121.383C302.231 121.383 304.163 122.161 305.438 123.714C306.077 124.51 306.493 125.409 306.752 126.265L303.964 126.744C303.804 126.247 303.605 125.767 303.286 125.369C302.569 124.413 301.375 123.916 300.16 123.916C298.925 123.916 297.731 124.413 297.035 125.369C296.296 126.307 296.079 127.6 296.058 128.855C296.079 130.109 296.296 131.385 297.035 132.341C297.731 133.297 298.927 133.794 300.16 133.776C301.375 133.797 302.569 133.297 303.286 132.341C303.566 131.961 303.783 131.524 303.925 131.065L306.613 131.843Z" fill="white"/>
<path d="M327.314 131.764C327.094 132.56 326.717 133.338 326.177 134.035C324.963 135.588 323.109 136.326 321.12 136.326C319.088 136.326 317.295 135.569 316.08 134.035C314.926 132.542 314.486 130.688 314.507 128.854C314.546 127.003 314.926 125.149 316.08 123.674C317.277 122.121 319.128 121.383 321.12 121.383C323.13 121.383 325.005 122.14 326.177 123.674C326.795 124.491 327.193 125.387 327.431 126.325L325.918 126.566C325.738 125.848 325.442 125.151 325.002 124.573C324.125 123.397 322.633 122.818 321.117 122.8C319.622 122.781 318.13 123.397 317.274 124.573C316.358 125.748 316.078 127.322 316.078 128.857C316.078 130.392 316.358 131.966 317.274 133.16C318.13 134.336 319.625 134.912 321.117 134.912C322.63 134.933 324.125 134.333 325.002 133.16C325.4 132.623 325.68 131.984 325.858 131.348L327.311 131.767L327.314 131.764Z" fill="white"/>
<path d="M321.119 136.514C318.981 136.514 317.14 135.676 315.933 134.152C314.855 132.756 314.297 130.926 314.321 128.854C314.368 126.618 314.897 124.887 315.933 123.561C317.106 122.037 318.947 121.199 321.119 121.199C323.292 121.199 325.177 122.061 326.326 123.564C326.923 124.352 327.355 125.266 327.614 126.28L327.664 126.479L325.776 126.777L325.735 126.61C325.549 125.869 325.242 125.203 324.852 124.685C324.062 123.627 322.7 123.006 321.117 122.985C319.614 122.946 318.203 123.616 317.428 124.682C316.659 125.672 316.268 127.073 316.268 128.857C316.268 130.64 316.659 132.047 317.426 133.047C318.193 134.1 319.572 134.726 321.122 134.726C321.146 134.726 321.172 134.726 321.195 134.726C322.706 134.726 324.07 134.102 324.855 133.047C325.206 132.57 325.491 131.965 325.682 131.295L325.735 131.114L327.549 131.635L327.499 131.813C327.266 132.662 326.873 133.448 326.331 134.15C325.138 135.674 323.29 136.514 321.125 136.514H321.119ZM321.119 121.571C319.067 121.571 317.329 122.359 316.229 123.789C315.242 125.049 314.74 126.707 314.695 128.859C314.674 130.845 315.203 132.594 316.229 133.922C317.378 135.373 319.07 136.14 321.119 136.14C323.169 136.14 324.91 135.352 326.03 133.922C326.502 133.309 326.855 132.628 327.08 131.895L325.986 131.58C325.784 132.23 325.504 132.798 325.153 133.275C324.282 134.443 322.779 135.126 321.117 135.103C319.452 135.103 317.96 134.419 317.124 133.272C316.308 132.206 315.894 130.721 315.894 128.857C315.894 126.992 316.31 125.51 317.13 124.457C317.986 123.281 319.473 122.59 321.125 122.611C322.826 122.634 324.297 123.307 325.156 124.46C325.554 124.983 325.858 125.62 326.059 126.353L327.201 126.172C326.949 125.285 326.557 124.483 326.033 123.789C324.954 122.38 323.164 121.571 321.125 121.571H321.119Z" fill="white"/>
<path d="M337.813 136.029V134.296C336.857 135.77 335.423 136.328 333.572 136.328C331.52 136.328 330.046 135.073 330.046 133.08C330.046 131.726 330.603 130.789 331.938 130.111C333.253 129.432 335.344 129.273 337.635 128.914C337.614 127.18 336.438 126.384 334.847 126.384C333.711 126.384 332.656 126.622 331.7 127.798L330.745 126.803C331.86 125.467 333.313 124.97 335.025 124.97C336.101 124.97 337.137 125.368 337.834 125.986C338.831 126.824 339.13 128.139 339.13 129.393V136.027H337.815L337.813 136.029ZM337.671 130.15C335.878 130.43 334.624 130.629 333.946 130.789C332.593 131.069 331.517 131.784 331.517 132.942C331.517 134.196 332.472 135.013 333.808 135.013C335.36 135.013 336.596 134.395 337.234 133.18C337.653 132.363 337.671 131.546 337.671 130.152" fill="white"/>
<path d="M333.57 136.516C331.35 136.516 329.858 135.136 329.858 133.08C329.858 131.632 330.491 130.634 331.852 129.946C332.913 129.401 334.421 129.186 336.169 128.943C336.583 128.885 337.007 128.825 337.442 128.759C337.358 127.369 336.421 126.578 334.847 126.578C333.858 126.578 332.808 126.74 331.847 127.924L331.714 128.089L330.494 126.819L330.601 126.69C331.669 125.412 333.117 124.789 335.025 124.789C336.112 124.789 337.206 125.187 337.957 125.852C338.858 126.609 339.316 127.803 339.316 129.401V136.223H337.625V134.877C336.701 135.998 335.397 136.522 333.57 136.522V136.516ZM334.845 126.198C336.688 126.198 337.8 127.214 337.821 128.914V129.076L337.661 129.102C337.169 129.178 336.688 129.246 336.219 129.312C334.507 129.553 333.025 129.762 332.02 130.278C330.782 130.907 330.229 131.771 330.229 133.08C330.229 134.911 331.57 136.139 333.567 136.139C335.565 136.139 336.79 135.521 337.651 134.193L337.997 133.662V135.843H338.936V129.396C338.936 127.916 338.523 126.816 337.709 126.133C337.02 125.522 336.017 125.161 335.02 125.161C333.269 125.161 331.983 125.682 330.991 126.8L331.685 127.523C332.714 126.363 333.853 126.201 334.839 126.201L334.845 126.198ZM333.808 135.202C332.35 135.202 331.329 134.272 331.329 132.942C331.329 131.813 332.292 130.938 333.907 130.606C334.578 130.448 335.821 130.249 337.641 129.967L337.858 129.933V130.153C337.858 131.569 337.837 132.413 337.4 133.266C336.745 134.516 335.47 135.202 333.808 135.202ZM337.483 130.37C335.79 130.634 334.625 130.82 333.989 130.972C333.298 131.114 331.703 131.59 331.703 132.942C331.703 134.068 332.549 134.827 333.805 134.827C335.321 134.827 336.478 134.212 337.065 133.094C337.439 132.36 337.478 131.598 337.481 130.372L337.483 130.37Z" fill="white"/>
<path d="M352.611 130.629C352.611 132.025 352.334 133.439 351.436 134.594C350.538 135.731 349.185 136.328 347.711 136.328C346.258 136.328 344.983 135.791 344.145 134.733V140.809H342.671V125.268H343.986V126.722C344.842 125.606 346.276 124.967 347.768 124.967C349.224 124.967 350.577 125.585 351.433 126.701C352.289 127.796 352.609 129.252 352.609 130.627M351.059 130.629C351.059 129.514 350.839 128.398 350.242 127.602C349.624 126.746 348.63 126.326 347.533 126.326C346.478 126.326 345.48 126.725 344.865 127.523C344.226 128.34 343.988 129.495 343.988 130.632C343.988 131.787 344.226 132.963 344.865 133.761C345.483 134.558 346.499 134.977 347.554 134.977C348.609 134.977 349.645 134.539 350.263 133.683C350.86 132.887 351.059 131.771 351.059 130.635" fill="white"/>
<path d="M344.334 140.998H342.486V125.083H344.177V126.225C345.07 125.316 346.376 124.784 347.774 124.784C349.316 124.784 350.706 125.444 351.588 126.591C352.591 127.874 352.8 129.496 352.8 130.629C352.8 132.321 352.402 133.657 351.586 134.71C350.677 135.859 349.266 136.517 347.711 136.517C346.358 136.517 345.177 136.061 344.334 135.226V141V140.998ZM342.86 140.623H343.96V134.194L344.295 134.615C345.073 135.597 346.287 136.14 347.714 136.14C349.141 136.14 350.444 135.55 351.293 134.477C352.054 133.492 352.426 132.232 352.426 130.627C352.426 129.551 352.23 128.018 351.293 126.819C350.481 125.764 349.201 125.156 347.774 125.156C346.347 125.156 344.947 125.785 344.138 126.837L343.8 127.275V125.455H342.86V140.62V140.623ZM347.554 135.16C346.402 135.16 345.342 134.678 344.716 133.872C343.96 132.926 343.8 131.585 343.8 130.627C343.8 129.668 343.96 128.375 344.716 127.403C345.342 126.596 346.368 126.136 347.533 126.136C348.698 126.136 349.764 126.617 350.395 127.489C350.952 128.233 351.245 129.317 351.245 130.627C351.245 131.936 350.965 133.049 350.413 133.788C349.795 134.644 348.727 135.158 347.554 135.158V135.16ZM347.533 126.513C346.484 126.513 345.565 126.921 345.012 127.636C344.321 128.521 344.175 129.752 344.175 130.629C344.175 131.897 344.47 132.968 345.01 133.641C345.565 134.359 346.515 134.786 347.552 134.786C348.588 134.786 349.56 134.33 350.109 133.568C350.614 132.892 350.871 131.905 350.871 130.629C350.871 129.773 350.735 128.571 350.094 127.715C349.533 126.94 348.628 126.515 347.536 126.515L347.533 126.513Z" fill="white"/>
<path d="M357.416 123.356H355.963V121.722H357.416V123.356ZM357.416 136.029H355.963V125.271H357.416V136.029Z" fill="white"/>
<path d="M357.604 136.218H355.774V125.082H357.604V136.218ZM356.149 135.84H357.227V125.457H356.149V135.84ZM357.604 123.545H355.774V121.536H357.604V123.545ZM356.149 123.168H357.227V121.911H356.149V123.168Z" fill="white"/>
<path d="M363.929 132.063C363.929 132.961 363.89 133.498 364.149 133.957C364.387 134.454 364.887 134.734 365.445 134.795C366.002 134.855 366.659 134.834 367.217 134.714V136.028C366.5 136.209 365.604 136.248 364.905 136.107C363.95 135.947 363.232 135.51 362.835 134.693C362.476 133.936 362.458 133.14 362.458 132.123V126.524H360.167V125.27H362.458V122.282H363.931V125.27H367.217V126.524H363.931V132.063H363.929Z" fill="white"/>
<path d="M365.835 136.379C365.494 136.379 365.162 136.35 364.869 136.29C363.814 136.114 363.07 135.604 362.665 134.773C362.295 133.996 362.267 133.184 362.267 132.123V126.712H359.976V125.081H362.267V122.093H364.115V125.081H367.4V126.712H364.115V132.38C364.11 133.082 364.107 133.506 364.309 133.865C364.51 134.284 364.926 134.551 365.46 134.608C366.029 134.669 366.667 134.64 367.173 134.532L367.4 134.483V136.177L367.259 136.214C366.811 136.326 366.311 136.384 365.835 136.384V136.379ZM360.353 126.335H362.644V132.123C362.644 133.168 362.67 133.904 363.002 134.611C363.356 135.334 363.987 135.763 364.934 135.92C365.547 136.041 366.348 136.023 367.026 135.879V134.938C366.526 135.02 365.953 135.035 365.421 134.978C364.756 134.907 364.23 134.564 363.976 134.035C363.73 133.6 363.733 133.113 363.738 132.374V132.06V126.333H367.023V125.453H363.738V122.465H362.641V125.453H360.35V126.333L360.353 126.335Z" fill="white"/>
<path d="M377.475 136.029V134.296C376.52 135.77 375.085 136.328 373.232 136.328C371.179 136.328 369.706 135.073 369.706 133.08C369.706 131.726 370.263 130.789 371.598 130.111C372.912 129.432 375.004 129.273 377.295 128.914C377.274 127.18 376.098 126.384 374.507 126.384C373.371 126.384 372.316 126.622 371.36 127.798L370.405 126.803C371.52 125.467 372.975 124.97 374.685 124.97C375.761 124.97 376.797 125.368 377.494 125.986C378.488 126.824 378.79 128.139 378.79 129.393V136.027H377.475V136.029ZM377.334 130.15C375.541 130.43 374.287 130.629 373.609 130.789C372.255 131.069 371.179 131.784 371.179 132.942C371.179 134.196 372.135 135.013 373.47 135.013C375.022 135.013 376.258 134.395 376.894 133.18C377.313 132.363 377.331 131.546 377.331 130.152" fill="white"/>
<path d="M373.232 136.516C371.012 136.516 369.52 135.136 369.52 133.08C369.52 131.632 370.154 130.634 371.515 129.946C372.575 129.398 374.086 129.186 375.832 128.943C376.246 128.885 376.67 128.825 377.102 128.759C377.02 127.369 376.081 126.578 374.507 126.578C373.518 126.578 372.468 126.74 371.505 127.924L371.371 128.089L370.151 126.819L370.259 126.69C371.327 125.412 372.774 124.789 374.685 124.789C375.772 124.789 376.866 125.187 377.62 125.852C378.52 126.609 378.979 127.803 378.979 129.401V136.223H377.29V134.874C376.366 135.995 375.06 136.519 373.235 136.519L373.232 136.516ZM374.507 126.198C376.35 126.198 377.463 127.214 377.484 128.914V129.076L377.324 129.102C376.832 129.178 376.35 129.246 375.884 129.312C374.17 129.553 372.69 129.76 371.685 130.278C370.447 130.907 369.895 131.771 369.895 133.08C369.895 134.911 371.235 136.139 373.232 136.139C375.23 136.139 376.458 135.521 377.316 134.193L377.662 133.662V135.843H378.602V129.396C378.602 127.913 378.188 126.816 377.374 126.133C376.685 125.522 375.683 125.161 374.685 125.161C372.934 125.161 371.649 125.682 370.656 126.8L371.35 127.523C372.379 126.363 373.518 126.201 374.505 126.201L374.507 126.198ZM373.471 135.202C372.012 135.202 370.991 134.272 370.991 132.942C370.991 131.813 371.955 130.938 373.573 130.606C374.24 130.448 375.486 130.249 377.306 129.967L377.523 129.933V130.153C377.523 131.569 377.502 132.413 377.065 133.266C376.41 134.516 375.136 135.202 373.473 135.202H373.471ZM377.146 130.37C375.452 130.634 374.287 130.82 373.654 130.972C372.963 131.114 371.368 131.59 371.368 132.942C371.368 134.068 372.214 134.827 373.471 134.827C374.986 134.827 376.143 134.212 376.73 133.094C377.104 132.36 377.143 131.598 377.146 130.372V130.37Z" fill="white"/>
<path d="M383.793 121.383H382.337V136.028H383.793V121.383Z" fill="white"/>
<path d="M383.978 136.216H382.148V121.197H383.978V136.216ZM382.525 135.839H383.604V121.569H382.525V135.839Z" fill="white"/>
<path d="M23.5524 7.51892C29.285 7.51892 34.6233 10.6015 37.4835 15.5651L75.7063 81.867C77.8514 85.5872 78.422 89.923 77.3103 94.0724C76.201 98.2218 73.5416 101.692 69.8268 103.84C67.3829 105.253 64.6134 105.998 61.8169 105.998C56.0843 105.998 50.746 102.916 47.8834 97.952L9.66296 31.6526C5.23314 23.9718 7.87291 14.1133 15.5425 9.677C17.9863 8.26444 20.7559 7.51892 23.5524 7.51892ZM23.5524 0C19.5535 0 15.5008 1.02018 11.7885 3.16599C0.516802 9.68435 -3.34736 24.1214 3.16147 35.4096L41.3843 101.711C45.7505 109.284 53.6723 113.517 61.8193 113.517C65.8182 113.517 69.8709 112.497 73.5832 110.351C84.8574 103.833 88.7191 89.3957 82.2103 78.1075L43.9874 11.8056C39.6212 4.23277 31.697 0 23.5524 0Z" fill="#83BEFF"/>
<path d="M23.515 7.56433C32.2375 7.56433 39.3365 14.6713 39.3365 23.409C39.3365 32.1467 32.24 39.2537 23.515 39.2537C14.79 39.2537 7.69592 32.1443 7.69592 23.409C7.69592 14.6737 14.7925 7.56433 23.515 7.56433ZM23.515 0.0454102C10.632 0.0454102 0.187988 10.5047 0.187988 23.409C0.187988 36.3133 10.632 46.7701 23.515 46.7701C36.398 46.7701 46.842 36.3108 46.842 23.409C46.842 10.5072 36.4004 0.0454102 23.515 0.0454102Z" fill="#83BEFF"/>
<path d="M89.5481 14.6967C98.3392 14.6967 105.492 21.86 105.492 30.6639C105.492 39.4679 98.3392 46.6312 89.5481 46.6312C80.757 46.6312 73.6041 39.4679 73.6041 30.6639C73.6041 21.86 80.757 14.6967 89.5481 14.6967ZM89.5481 7.17773C76.5965 7.17773 66.0962 17.6934 66.0962 30.6639C66.0962 43.6344 76.5965 54.1502 89.5481 54.1502C102.5 54.1502 113 43.6344 113 30.6639C113 17.6934 102.5 7.17773 89.5481 7.17773Z" fill="#83BEFF"/>
</svg>
