<svg width="228" height="176" viewBox="0 0 228 176" fill="none" xmlns="http://www.w3.org/2000/svg">
<g clip-path="url(#clip0_4754_9124)">
<path d="M25.8622 132.503C24.909 134.222 23.4456 135.609 21.4753 136.661C19.5019 137.717 17.0534 138.243 14.1298 138.243H8.72276V151.099H0V115.285H14.1298C16.9864 115.285 19.3998 115.779 21.3733 116.765C23.3436 117.75 24.8261 119.111 25.8112 120.846C26.7963 122.581 27.2905 124.57 27.2905 126.815C27.2905 128.891 26.8155 130.788 25.8622 132.503ZM17.1905 130.131C18.0066 129.35 18.4147 128.243 18.4147 126.815C18.4147 125.387 18.0066 124.28 17.1905 123.499C16.3743 122.718 15.1309 122.325 13.4667 122.325H8.72276V131.305H13.4667C15.1309 131.305 16.3743 130.916 17.1905 130.131Z" fill="#002169"/>
<path d="M58.4672 122.631V151.098H49.7444V147.221C48.8613 148.481 47.6594 149.491 46.1482 150.257C44.6338 151.022 42.9601 151.405 41.1237 151.405C38.9462 151.405 37.0269 150.92 35.3595 149.951C33.6921 148.981 32.4009 147.578 31.4827 145.742C30.5646 143.905 30.1055 141.746 30.1055 139.262V122.631H38.7772V138.089C38.7772 139.993 39.2682 141.475 40.2565 142.528C41.2416 143.583 42.5679 144.109 44.2353 144.109C45.9027 144.109 47.2768 143.583 48.2651 142.528C49.2503 141.475 49.7444 139.993 49.7444 138.089V122.631H58.4672Z" fill="#002169"/>
<path d="M76.0921 123.447C77.6224 122.631 79.3727 122.223 81.3461 122.223C83.6926 122.223 85.8191 122.819 87.7224 124.008C89.6257 125.201 91.1305 126.9 92.2368 129.11C93.3399 131.32 93.8947 133.89 93.8947 136.814C93.8947 139.738 93.3399 142.314 92.2368 144.543C91.1305 146.772 89.6257 148.49 87.7224 149.696C85.8191 150.904 83.6926 151.507 81.3461 151.507C79.3408 151.507 77.5873 151.108 76.0921 150.308C74.5936 149.511 73.4204 148.446 72.5724 147.119V151.098H63.8496V113.346H72.5724V126.661C73.3885 125.335 74.5618 124.263 76.0921 123.447ZM83.208 131.686C81.9997 130.446 80.5108 129.824 78.7446 129.824C76.9784 129.824 75.5405 130.452 74.3322 131.712C73.1239 132.971 72.5214 134.687 72.5214 136.865C72.5214 139.042 73.1239 140.758 74.3322 142.017C75.5405 143.277 77.0103 143.905 78.7446 143.905C80.479 143.905 81.9583 143.267 83.1825 141.992C84.4068 140.716 85.0189 138.991 85.0189 136.814C85.0189 134.636 84.4131 132.927 83.208 131.686Z" fill="#002169"/>
<path d="M106.555 113.346V151.098H97.832V113.346H106.555Z" fill="#002169"/>
<path d="M112.614 118.321C111.645 117.418 111.16 116.305 111.16 114.979C111.16 113.653 111.645 112.489 112.614 111.586C113.583 110.684 114.833 110.234 116.363 110.234C117.894 110.234 119.092 110.687 120.061 111.586C121.031 112.489 121.515 113.621 121.515 114.979C121.515 116.337 121.031 117.421 120.061 118.321C119.092 119.223 117.858 119.673 116.363 119.673C114.868 119.673 113.583 119.223 112.614 118.321ZM120.699 122.632V151.099H111.976V122.632H120.699Z" fill="#002169"/>
<path d="M146.928 115.541V119.316H131.472V131.305H144.021V135.081H131.472V151.1H126.83V115.541H146.928Z" fill="#002169"/>
<path d="M150.311 129.492C151.465 127.334 153.056 125.657 155.08 124.467C157.101 123.278 159.355 122.682 161.839 122.682C164.322 122.682 166.411 123.211 168.215 124.263C170.016 125.319 171.359 126.645 172.245 128.243V123.141H176.938V151.098H172.245V145.894C171.327 147.527 169.959 148.879 168.139 149.95C166.318 151.022 164.201 151.557 161.788 151.557C159.374 151.557 157.06 150.945 155.054 149.721C153.049 148.496 151.468 146.781 150.311 144.568C149.153 142.358 148.576 139.843 148.576 137.017C148.576 134.192 149.153 131.651 150.311 129.492ZM170.97 131.559C170.118 129.996 168.971 128.794 167.526 127.962C166.079 127.13 164.491 126.712 162.757 126.712C161.023 126.712 159.441 127.12 158.013 127.936C156.585 128.753 155.443 129.942 154.595 131.508C153.744 133.073 153.32 134.91 153.32 137.017C153.32 139.125 153.744 141.022 154.595 142.604C155.447 144.185 156.585 145.394 158.013 146.226C159.441 147.062 161.023 147.476 162.757 147.476C164.491 147.476 166.079 147.062 167.526 146.226C168.971 145.394 170.118 144.185 170.97 142.604C171.821 141.022 172.245 139.176 172.245 137.069C172.245 134.961 171.821 133.124 170.97 131.559Z" fill="#002169"/>
<path d="M183.824 129.492C184.978 127.334 186.588 125.657 188.645 124.467C190.701 123.278 193.057 122.682 195.71 122.682C199.143 122.682 201.974 123.517 204.203 125.181C206.428 126.849 207.901 129.161 208.615 132.12H203.616C203.138 130.42 202.213 129.075 200.836 128.089C199.459 127.104 197.75 126.61 195.71 126.61C193.057 126.61 190.915 127.519 189.282 129.339C187.65 131.16 186.834 133.736 186.834 137.069C186.834 140.401 187.65 143.038 189.282 144.874C190.915 146.711 193.057 147.629 195.71 147.629C197.75 147.629 199.449 147.154 200.811 146.201C202.172 145.25 203.106 143.889 203.616 142.119H208.615C207.866 144.976 206.371 147.262 204.126 148.981C201.882 150.7 199.076 151.557 195.71 151.557C193.057 151.557 190.701 150.961 188.645 149.772C186.585 148.582 184.978 146.899 183.824 144.721C182.667 142.543 182.09 139.992 182.09 137.069C182.09 134.145 182.667 131.651 183.824 129.492Z" fill="#002169"/>
<path d="M218.863 126.968V143.447C218.863 144.808 219.153 145.768 219.73 146.329C220.308 146.89 221.312 147.171 222.74 147.171H226.158V151.099H221.975C219.389 151.099 217.451 150.503 216.16 149.314C214.869 148.124 214.221 146.167 214.221 143.447V126.968H210.6V123.142H214.221V116.102H218.863V123.142H226.158V126.968H218.863Z" fill="#002169"/>
<path d="M101.71 10.0181C96.181 0.440599 83.9366 -2.84124 74.3612 2.68788C64.7858 8.21699 61.5054 20.4633 67.0342 30.0408L99.4991 86.2792C105.028 95.8567 117.272 99.1385 126.848 93.6094C136.423 88.0803 139.703 75.834 134.175 66.2565L101.71 10.0181Z" fill="url(#paint0_linear_4754_9124)"/>
<g opacity="0.71" style="mix-blend-mode:color-burn">
<path d="M84.3202 39.679C95.2633 39.679 104.134 30.8066 104.134 19.8619C104.134 8.9173 95.2633 0.0449219 84.3202 0.0449219C73.377 0.0449219 64.5059 8.9173 64.5059 19.8619C64.5059 30.8066 73.377 39.679 84.3202 39.679Z" fill="#C2C9EB"/>
</g>
<path d="M140.412 45.9324C151.413 45.9324 160.331 37.0129 160.331 26.0101C160.331 15.0074 151.413 6.08789 140.412 6.08789C129.41 6.08789 120.492 15.0074 120.492 26.0101C120.492 37.0129 129.41 45.9324 140.412 45.9324Z" fill="#0151DB"/>
<path d="M138.471 168.225C138.251 168.85 137.929 169.478 137.473 170.036C136.357 171.391 134.68 172.032 132.991 172.032C131.196 172.032 129.522 171.305 128.508 170.036C127.494 168.802 127.07 167.294 127.07 165.687C127.07 164.013 127.51 162.524 128.508 161.322C129.573 159.986 131.231 159.342 132.991 159.342C134.751 159.342 136.392 160.002 137.473 161.322C138.015 161.998 138.369 162.76 138.589 163.487L136.22 163.892C136.086 163.468 135.917 163.063 135.646 162.725C135.037 161.912 134.024 161.491 132.991 161.491C131.942 161.491 130.928 161.915 130.335 162.725C129.71 163.522 129.522 164.619 129.506 165.687C129.522 166.752 129.71 167.836 130.335 168.649C130.928 169.462 131.942 169.883 132.991 169.867C134.024 169.883 135.037 169.462 135.646 168.649C135.882 168.327 136.07 167.954 136.188 167.565L138.471 168.225Z" fill="#002169"/>
<path d="M143.734 161.9V164.537H147.863V166.839H143.734V171.781H141.436V159.598H148.88V161.9H143.734Z" fill="#002169"/>
<path d="M162.28 168.225C162.06 168.85 161.738 169.478 161.282 170.036C160.166 171.391 158.489 172.032 156.799 172.032C155.004 172.032 153.331 171.305 152.317 170.036C151.303 168.802 150.879 167.294 150.879 165.687C150.879 164.013 151.319 162.524 152.317 161.322C153.382 159.986 155.039 159.342 156.799 159.342C158.559 159.342 160.201 160.002 161.282 161.322C161.824 161.998 162.178 162.76 162.398 163.487L160.029 163.892C159.895 163.468 159.723 163.063 159.455 162.725C158.846 161.912 157.832 161.491 156.799 161.491C155.75 161.491 154.737 161.915 154.144 162.725C153.519 163.522 153.331 164.619 153.315 165.687C153.331 166.752 153.519 167.836 154.144 168.649C154.737 169.462 155.75 169.883 156.799 169.867C157.832 169.883 158.846 169.462 159.455 168.649C159.691 168.327 159.879 167.954 159.997 167.565L162.28 168.225Z" fill="#002169"/>
<path d="M179.863 168.158C179.678 168.834 179.356 169.494 178.9 170.087C177.867 171.407 176.295 172.032 174.603 172.032C172.878 172.032 171.354 171.388 170.321 170.087C169.339 168.818 168.966 167.246 168.985 165.687C169.02 164.115 169.339 162.54 170.321 161.287C171.335 159.967 172.91 159.342 174.603 159.342C176.311 159.342 177.902 159.986 178.9 161.287C179.423 161.982 179.764 162.741 179.965 163.538L178.68 163.742C178.527 163.133 178.275 162.54 177.902 162.049C177.156 161.051 175.887 160.56 174.603 160.544C173.334 160.528 172.065 161.051 171.338 162.049C170.56 163.047 170.324 164.383 170.324 165.687C170.324 166.991 170.56 168.327 171.338 169.341C172.065 170.339 173.334 170.83 174.603 170.83C175.887 170.846 177.156 170.339 177.902 169.341C178.24 168.885 178.476 168.343 178.629 167.801L179.863 168.155V168.158Z" fill="#002169"/>
<path d="M174.602 172.192C172.784 172.192 171.222 171.478 170.196 170.186C169.278 169 168.806 167.444 168.825 165.687C168.866 163.787 169.313 162.317 170.196 161.191C171.19 159.897 172.756 159.186 174.602 159.186C176.448 159.186 178.048 159.919 179.027 161.194C179.534 161.864 179.9 162.639 180.12 163.503L180.165 163.672L178.561 163.927L178.526 163.787C178.367 163.155 178.109 162.591 177.777 162.154C177.108 161.255 175.95 160.729 174.602 160.71C173.326 160.678 172.128 161.245 171.468 162.151C170.814 162.99 170.483 164.182 170.483 165.697C170.483 167.211 170.814 168.404 171.465 169.255C172.115 170.148 173.288 170.68 174.605 170.68C174.624 170.68 174.646 170.68 174.669 170.68C175.953 170.68 177.111 170.151 177.777 169.255C178.077 168.85 178.319 168.337 178.478 167.766L178.523 167.613L180.063 168.056L180.022 168.209C179.824 168.93 179.489 169.596 179.03 170.193C178.016 171.487 176.448 172.201 174.608 172.201L174.602 172.192ZM174.602 159.501C172.858 159.501 171.382 160.171 170.448 161.386C169.609 162.457 169.182 163.863 169.144 165.69C169.124 167.377 169.577 168.863 170.448 169.988C171.423 171.219 172.861 171.873 174.602 171.873C176.342 171.873 177.822 171.203 178.772 169.988C179.173 169.469 179.473 168.888 179.664 168.267L178.737 167.999C178.565 168.55 178.329 169.032 178.029 169.437C177.289 170.428 176.011 171.009 174.599 170.99C173.183 170.99 171.914 170.409 171.206 169.437C170.515 168.531 170.161 167.272 170.161 165.687C170.161 164.102 170.515 162.843 171.21 161.95C171.936 160.952 173.199 160.365 174.602 160.381C176.049 160.4 177.296 160.974 178.026 161.95C178.364 162.396 178.622 162.935 178.794 163.557L179.763 163.404C179.55 162.652 179.218 161.969 178.772 161.379C177.854 160.184 176.336 159.495 174.602 159.495V159.501Z" fill="#002169"/>
<path d="M188.784 171.781V170.308C187.971 171.561 186.753 172.033 185.181 172.033C183.437 172.033 182.188 170.968 182.188 169.275C182.188 168.124 182.663 167.33 183.794 166.753C184.91 166.179 186.686 166.042 188.634 165.739C188.618 164.265 187.62 163.59 186.265 163.59C185.302 163.59 184.403 163.794 183.593 164.792L182.78 163.947C183.727 162.815 184.964 162.391 186.418 162.391C187.333 162.391 188.213 162.729 188.803 163.255C189.648 163.966 189.903 165.082 189.903 166.147V171.781H188.787H188.784ZM188.666 166.788C187.142 167.024 186.077 167.193 185.503 167.33C184.352 167.566 183.44 168.175 183.44 169.157C183.44 170.222 184.253 170.917 185.385 170.917C186.705 170.917 187.754 170.394 188.296 169.361C188.65 168.666 188.669 167.974 188.669 166.788" fill="#002169"/>
<path d="M185.18 172.192C183.293 172.192 182.027 171.019 182.027 169.275C182.027 168.044 182.566 167.199 183.72 166.612C184.622 166.15 185.904 165.968 187.387 165.761C187.737 165.71 188.098 165.662 188.467 165.605C188.397 164.425 187.6 163.752 186.264 163.752C185.423 163.752 184.53 163.889 183.714 164.894L183.599 165.034L182.563 163.956L182.655 163.848C183.564 162.76 184.791 162.234 186.414 162.234C187.336 162.234 188.267 162.572 188.907 163.137C189.673 163.778 190.061 164.795 190.061 166.15V171.944H188.627V170.799C187.843 171.749 186.733 172.195 185.184 172.195L185.18 172.192ZM186.261 163.43C187.827 163.43 188.773 164.291 188.789 165.735V165.873L188.655 165.895C188.238 165.962 187.83 166.019 187.431 166.073C185.977 166.278 184.718 166.456 183.867 166.893C182.815 167.425 182.346 168.162 182.346 169.272C182.346 170.824 183.484 171.87 185.18 171.87C186.877 171.87 187.919 171.344 188.649 170.219L188.942 169.766V171.618H189.739V166.144C189.739 164.887 189.389 163.953 188.697 163.373C188.114 162.856 187.259 162.547 186.414 162.547C184.925 162.547 183.835 162.99 182.993 163.937L183.583 164.549C184.457 163.564 185.426 163.427 186.264 163.427L186.261 163.43ZM185.381 171.076C184.141 171.076 183.277 170.286 183.277 169.157C183.277 168.197 184.096 167.457 185.467 167.173C186.035 167.04 187.093 166.871 188.64 166.631L188.824 166.603V166.788C188.824 167.99 188.805 168.707 188.436 169.431C187.881 170.493 186.797 171.076 185.384 171.076H185.381ZM188.502 166.976C187.065 167.199 186.073 167.358 185.534 167.486C184.948 167.607 183.593 168.009 183.593 169.157C183.593 170.113 184.31 170.757 185.378 170.757C186.666 170.757 187.648 170.235 188.145 169.284C188.464 168.663 188.496 168.015 188.499 166.973L188.502 166.976Z" fill="#002169"/>
<path d="M201.354 167.195C201.354 168.381 201.118 169.58 200.356 170.562C199.594 171.525 198.444 172.035 197.194 172.035C195.944 172.035 194.876 171.579 194.165 170.68V175.839H192.912V162.642H194.028V163.876C194.755 162.929 195.973 162.387 197.242 162.387C198.51 162.387 199.626 162.913 200.356 163.86C201.083 164.791 201.354 166.025 201.354 167.192M200.034 167.195C200.034 166.248 199.85 165.301 199.343 164.622C198.817 163.895 197.972 163.538 197.041 163.538C196.145 163.538 195.297 163.876 194.774 164.555C194.232 165.247 194.028 166.229 194.028 167.195C194.028 168.177 194.232 169.175 194.774 169.851C195.3 170.527 196.161 170.884 197.057 170.884C197.953 170.884 198.832 170.514 199.359 169.784C199.865 169.108 200.034 168.158 200.034 167.195Z" fill="#002169"/>
<path d="M194.324 175.998H192.752V162.482H194.187V163.451C194.945 162.679 196.055 162.227 197.241 162.227C198.551 162.227 199.731 162.785 200.48 163.76C201.331 164.851 201.51 166.228 201.51 167.191C201.51 168.629 201.172 169.761 200.48 170.657C199.708 171.633 198.51 172.191 197.19 172.191C196.039 172.191 195.038 171.805 194.321 171.094V175.998H194.324ZM193.071 175.679H194.005V170.22L194.289 170.581C194.949 171.416 195.982 171.875 197.193 171.875C198.405 171.875 199.514 171.375 200.231 170.463C200.879 169.627 201.194 168.556 201.194 167.194C201.194 166.282 201.028 164.978 200.231 163.961C199.543 163.065 198.452 162.549 197.244 162.549C196.036 162.549 194.843 163.081 194.155 163.977L193.868 164.35V162.804H193.071V175.682V175.679ZM197.056 171.04C196.077 171.04 195.178 170.632 194.646 169.946C194.002 169.143 193.868 168.004 193.868 167.191C193.868 166.378 194.002 165.278 194.646 164.455C195.178 163.77 196.048 163.378 197.04 163.378C198.032 163.378 198.937 163.786 199.469 164.526C199.941 165.157 200.193 166.078 200.193 167.191C200.193 168.304 199.954 169.248 199.485 169.876C198.962 170.603 198.054 171.04 197.056 171.04ZM197.04 163.697C196.15 163.697 195.369 164.044 194.898 164.65C194.311 165.402 194.187 166.448 194.187 167.191C194.187 168.269 194.438 169.178 194.898 169.748C195.369 170.357 196.176 170.721 197.056 170.721C197.936 170.721 198.762 170.335 199.227 169.688C199.657 169.114 199.874 168.275 199.874 167.191C199.874 166.464 199.759 165.444 199.214 164.714C198.739 164.057 197.968 163.693 197.04 163.693V163.697Z" fill="#002169"/>
<path d="M205.435 161.02H204.201V159.633H205.435V161.02ZM205.435 171.781H204.201V162.643H205.435V171.781Z" fill="#002169"/>
<path d="M205.594 171.94H204.041V162.483H205.594V171.94ZM204.36 171.621H205.275V162.801H204.36V171.621ZM205.594 161.178H204.041V159.473H205.594V161.178ZM204.36 160.86H205.275V159.791H204.36V160.86Z" fill="#002169"/>
<path d="M210.97 168.414C210.97 169.176 210.935 169.632 211.155 170.021C211.359 170.445 211.78 170.681 212.255 170.732C212.727 170.783 213.288 170.767 213.76 170.665V171.781C213.151 171.934 212.389 171.966 211.796 171.848C210.983 171.714 210.374 171.341 210.036 170.646C209.733 170.005 209.714 169.326 209.714 168.465V163.711H207.77V162.646H209.714V160.107H210.967V162.646H213.76V163.711H210.967V168.414H210.97Z" fill="#002169"/>
<path d="M212.586 172.077C212.296 172.077 212.015 172.051 211.764 172.003C210.868 171.853 210.236 171.42 209.892 170.715C209.58 170.055 209.554 169.366 209.554 168.464V163.869H207.609V162.485H209.554V159.947H211.126V162.485H213.919V163.869H211.126V168.681C211.123 169.277 211.12 169.637 211.292 169.943C211.464 170.301 211.818 170.527 212.27 170.575C212.752 170.626 213.297 170.6 213.724 170.508L213.919 170.466V171.904L213.798 171.933C213.418 172.029 212.994 172.077 212.586 172.077ZM207.931 163.55H209.876V168.464C209.876 169.35 209.898 169.979 210.182 170.578C210.482 171.193 211.017 171.557 211.824 171.691C212.344 171.793 213.026 171.777 213.6 171.656V170.859C213.176 170.929 212.688 170.941 212.239 170.894C211.674 170.833 211.228 170.543 211.011 170.093C210.804 169.723 210.804 169.309 210.807 168.684V168.419V163.557H213.6V162.811H210.807V160.272H209.873V162.811H207.928V163.557L207.931 163.55Z" fill="#002169"/>
<path d="M222.475 171.781V170.308C221.662 171.561 220.444 172.033 218.873 172.033C217.129 172.033 215.879 170.968 215.879 169.275C215.879 168.124 216.351 167.33 217.486 166.753C218.602 166.179 220.377 166.042 222.325 165.739C222.309 164.265 221.311 163.59 219.957 163.59C218.994 163.59 218.095 163.794 217.285 164.792L216.472 163.947C217.419 162.815 218.656 162.391 220.11 162.391C221.025 162.391 221.904 162.729 222.494 163.255C223.339 163.966 223.594 165.082 223.594 166.147V171.781H222.478H222.475ZM222.357 166.788C220.833 167.024 219.768 167.193 219.195 167.33C218.044 167.566 217.132 168.175 217.132 169.157C217.132 170.222 217.945 170.917 219.077 170.917C220.396 170.917 221.445 170.394 221.987 169.361C222.341 168.666 222.36 167.974 222.36 166.788" fill="#002169"/>
<path d="M218.87 172.192C216.982 172.192 215.717 171.019 215.717 169.275C215.717 168.044 216.256 167.199 217.41 166.612C218.312 166.147 219.594 165.968 221.076 165.761C221.427 165.71 221.787 165.662 222.157 165.605C222.087 164.425 221.29 163.752 219.954 163.752C219.112 163.752 218.223 163.889 217.403 164.894L217.289 165.034L216.252 163.956L216.345 163.848C217.253 162.76 218.481 162.234 220.104 162.234C221.025 162.234 221.956 162.572 222.597 163.137C223.362 163.778 223.751 164.795 223.751 166.15V171.944H222.316V170.799C221.532 171.749 220.423 172.195 218.873 172.195L218.87 172.192ZM219.954 163.43C221.519 163.43 222.466 164.291 222.482 165.735V165.873L222.348 165.895C221.93 165.962 221.522 166.019 221.124 166.073C219.667 166.278 218.411 166.456 217.556 166.893C216.504 167.425 216.036 168.159 216.036 169.272C216.036 170.824 217.174 171.87 218.87 171.87C220.566 171.87 221.608 171.344 222.339 170.215L222.632 169.763V171.615H223.429V166.14C223.429 164.881 223.078 163.95 222.386 163.37C221.803 162.853 220.949 162.544 220.104 162.544C218.615 162.544 217.524 162.987 216.683 163.934L217.273 164.549C218.146 163.564 219.115 163.427 219.954 163.427V163.43ZM219.074 171.076C217.834 171.076 216.97 170.286 216.97 169.157C216.97 168.197 217.789 167.457 219.16 167.173C219.727 167.04 220.786 166.871 222.332 166.631L222.517 166.603V166.788C222.517 167.99 222.498 168.707 222.128 169.431C221.57 170.493 220.489 171.076 219.077 171.076H219.074ZM222.195 166.976C220.757 167.199 219.766 167.358 219.227 167.486C218.64 167.607 217.285 168.009 217.285 169.157C217.285 170.113 218.003 170.757 219.071 170.757C220.359 170.757 221.341 170.235 221.838 169.284C222.157 168.663 222.189 168.015 222.192 166.973L222.195 166.976Z" fill="#002169"/>
<path d="M227.837 159.342H226.604V171.777H227.837V159.342Z" fill="#002169"/>
<path d="M227.999 171.94H226.443V159.186H227.999V171.94ZM226.762 171.621H227.68V159.504H226.762V171.621Z" fill="#002169"/>
</g>
<defs>
<linearGradient id="paint0_linear_4754_9124" x1="64.3451" y1="48.1489" x2="136.859" y2="48.1489" gradientUnits="userSpaceOnUse">
<stop stop-color="#6D84D0"/>
<stop offset="0.49" stop-color="#003DA6"/>
<stop offset="0.9" stop-color="#002169"/>
</linearGradient>
<clipPath id="clip0_4754_9124">
<rect width="228" height="176" fill="white"/>
</clipPath>
</defs>
</svg>
