<svg width="34" height="34" viewBox="0 0 34 34" fill="none" xmlns="http://www.w3.org/2000/svg">
<path d="M14.5801 1.70805C15.4288 -0.569349 18.5625 -0.569349 19.4112 1.70805L19.9131 3.05766H19.9112L22.5128 10.0391C22.6073 10.2922 22.819 10.432 23.0235 10.4444L31.5567 10.958C33.9783 11.1037 34.8 14.1671 33.0606 15.6573L26.4454 21.3204L26.4444 21.3213C26.2843 21.4581 26.1917 21.6848 26.2169 21.92L26.2354 22.0205V22.0225L28.4053 30.67L28.4503 30.8838C28.6328 31.9457 28.1784 32.9113 27.4385 33.4737C26.6932 34.0401 25.6297 34.2117 24.6749 33.6768L24.4854 33.5606L17.294 28.7295C17.1088 28.6052 16.8796 28.6052 16.6944 28.7295L9.50299 33.5606C8.50203 34.2329 7.34527 34.0762 6.55084 33.4727C5.76189 32.8734 5.29572 31.8152 5.58306 30.67L7.75299 22.0225C7.82069 21.7499 7.72522 21.4765 7.54303 21.3204L0.927791 15.6573C-0.811652 14.1671 0.0101101 11.1037 2.4317 10.958L10.9649 10.4444C11.1694 10.432 11.3811 10.2922 11.4756 10.0391L14.5801 1.70805ZM17.5215 2.37406C17.3048 1.86562 16.6519 1.87572 16.4542 2.40629L13.3497 10.7373C12.9931 11.6936 12.1194 12.3781 11.085 12.4405L2.55181 12.9541C2.3092 12.9687 2.11392 13.1246 2.02935 13.3965C1.94419 13.6707 2.01064 13.9519 2.22857 14.1387L8.84381 19.8008C9.62032 20.4657 9.93911 21.5237 9.69342 22.5079L9.69244 22.5088L7.52349 31.1563C7.44404 31.4729 7.56589 31.7319 7.7608 31.8799C7.95019 32.0238 8.17258 32.0449 8.38775 31.9004L15.5792 27.0694C16.4388 26.492 17.5496 26.492 18.4092 27.0694L25.6006 31.9004L25.6817 31.9473C25.8721 32.039 26.0636 32.0072 26.2286 31.8819C26.4227 31.7343 26.5447 31.4746 26.4649 31.1563L24.296 22.5098C24.0476 21.5254 24.3668 20.4648 25.1456 19.7998L31.7598 14.1387C31.9778 13.9519 32.0442 13.6707 31.959 13.3965C31.8745 13.1246 31.6792 12.9687 31.4366 12.9541L22.9034 12.4405C21.869 12.3781 20.9953 11.6936 20.6387 10.7373L17.5342 2.40629L17.5215 2.37406Z" fill="white"/>
</svg>
